M48
; DRILL file {KiCad 5.1.6+dfsg1-1~bpo10+1} date Mon Sep 28 12:24:58 2020
; FORMAT={3:3/ absolute / metric / suppress leading zeros}
; #@! TF.CreationDate,2020-09-28T12:24:58-04:00
; #@! TF.GenerationSoftware,Kicad,Pcbnew,5.1.6+dfsg1-1~bpo10+1
FMAT,2
METRIC,TZ
T1C0.400
T2C0.600
T3C0.800
T4C0.850
T5C1.000
%
G90
G05
T1
X124092Y-88824
X124600Y-98984
X125108Y-100000
X127724Y-122174
X131712Y-123673
X132000Y-102000
X132220Y-104572
X134354Y-88127
X134760Y-94412
X136571Y-122190
X139942Y-71095
X140145Y-122200
X141872Y-107366
X143371Y-103175
X143904Y-98984
X144000Y-92500
X144336Y-104242
X144500Y-93500
X145911Y-80118
X147282Y-71095
X147460Y-121336
X149009Y-112954
X149238Y-97714
X150508Y-112192
X151219Y-76962
X151270Y-106833
X152997Y-106782
X154445Y-106756
X156096Y-70028
X156096Y-102032
X156604Y-79318
X157620Y-98730
X158382Y-99492
X159144Y-100254
X159647Y-101925
X160922Y-97714
X161735Y-100229
X162035Y-86940
X162802Y-99492
X166612Y-87910
X169964Y-110820
X171565Y-103435
X172352Y-122860
T2
X177550Y-100000
T3
X141110Y-100635
X141110Y-105515
T4
X119463Y-97500
X119463Y-102500
T5
X141135Y-114961
X143675Y-114961
X146215Y-114961
X148755Y-114961
X151295Y-114961
X153835Y-114961
X156375Y-114961
X158915Y-114961
X148668Y-73101
X151168Y-73101
X128422Y-84460
X130962Y-84460
X133502Y-84460
X136042Y-84460
X138582Y-84460
X141122Y-84460
X143662Y-84460
X146202Y-84460
X148742Y-84460
X151282Y-84460
X153822Y-84460
X156362Y-84460
X158902Y-84460
X145174Y-127686
X145174Y-130226
X147714Y-127686
X147714Y-130226
X150254Y-127686
X150254Y-130226
X152794Y-127686
X152794Y-130226
X155334Y-127686
X155334Y-130226
X163945Y-84455
X166485Y-84455
X169025Y-84455
X171565Y-84455
X174105Y-84455
T2
G00X116413Y-96500
M15
G01X117113Y-96500
M16
G05
G00X117113Y-103500
M15
G01X116413Y-103500
M16
G05
T0
M30
