G04 #@! TF.GenerationSoftware,KiCad,Pcbnew,5.1.6+dfsg1-1~bpo10+1*
G04 #@! TF.CreationDate,2020-09-28T23:40:52-04:00*
G04 #@! TF.ProjectId,board,626f6172-642e-46b6-9963-61645f706362,rev?*
G04 #@! TF.SameCoordinates,Original*
G04 #@! TF.FileFunction,Soldermask,Top*
G04 #@! TF.FilePolarity,Negative*
%FSLAX46Y46*%
G04 Gerber Fmt 4.6, Leading zero omitted, Abs format (unit mm)*
G04 Created by KiCad (PCBNEW 5.1.6+dfsg1-1~bpo10+1) date 2020-09-28 23:40:52*
%MOMM*%
%LPD*%
G01*
G04 APERTURE LIST*
%ADD10C,0.100000*%
G04 APERTURE END LIST*
D10*
G36*
X146074800Y-131126800D02*
G01*
X144273200Y-131126800D01*
X144273200Y-129325200D01*
X146074800Y-129325200D01*
X146074800Y-131126800D01*
G37*
G36*
X152940732Y-129336739D02*
G01*
X153056754Y-129359817D01*
X153220689Y-129427721D01*
X153368227Y-129526303D01*
X153493697Y-129651773D01*
X153592279Y-129799311D01*
X153660183Y-129963246D01*
X153694800Y-130137279D01*
X153694800Y-130314721D01*
X153660183Y-130488754D01*
X153592279Y-130652689D01*
X153493697Y-130800227D01*
X153368227Y-130925697D01*
X153220689Y-131024279D01*
X153056754Y-131092183D01*
X152940732Y-131115261D01*
X152882722Y-131126800D01*
X152705278Y-131126800D01*
X152647268Y-131115261D01*
X152531246Y-131092183D01*
X152367311Y-131024279D01*
X152219773Y-130925697D01*
X152094303Y-130800227D01*
X151995721Y-130652689D01*
X151927817Y-130488754D01*
X151893200Y-130314721D01*
X151893200Y-130137279D01*
X151927817Y-129963246D01*
X151995721Y-129799311D01*
X152094303Y-129651773D01*
X152219773Y-129526303D01*
X152367311Y-129427721D01*
X152531246Y-129359817D01*
X152647268Y-129336739D01*
X152705278Y-129325200D01*
X152882722Y-129325200D01*
X152940732Y-129336739D01*
G37*
G36*
X155480732Y-129336739D02*
G01*
X155596754Y-129359817D01*
X155760689Y-129427721D01*
X155908227Y-129526303D01*
X156033697Y-129651773D01*
X156132279Y-129799311D01*
X156200183Y-129963246D01*
X156234800Y-130137279D01*
X156234800Y-130314721D01*
X156200183Y-130488754D01*
X156132279Y-130652689D01*
X156033697Y-130800227D01*
X155908227Y-130925697D01*
X155760689Y-131024279D01*
X155596754Y-131092183D01*
X155480732Y-131115261D01*
X155422722Y-131126800D01*
X155245278Y-131126800D01*
X155187268Y-131115261D01*
X155071246Y-131092183D01*
X154907311Y-131024279D01*
X154759773Y-130925697D01*
X154634303Y-130800227D01*
X154535721Y-130652689D01*
X154467817Y-130488754D01*
X154433200Y-130314721D01*
X154433200Y-130137279D01*
X154467817Y-129963246D01*
X154535721Y-129799311D01*
X154634303Y-129651773D01*
X154759773Y-129526303D01*
X154907311Y-129427721D01*
X155071246Y-129359817D01*
X155187268Y-129336739D01*
X155245278Y-129325200D01*
X155422722Y-129325200D01*
X155480732Y-129336739D01*
G37*
G36*
X147860732Y-129336739D02*
G01*
X147976754Y-129359817D01*
X148140689Y-129427721D01*
X148288227Y-129526303D01*
X148413697Y-129651773D01*
X148512279Y-129799311D01*
X148580183Y-129963246D01*
X148614800Y-130137279D01*
X148614800Y-130314721D01*
X148580183Y-130488754D01*
X148512279Y-130652689D01*
X148413697Y-130800227D01*
X148288227Y-130925697D01*
X148140689Y-131024279D01*
X147976754Y-131092183D01*
X147860732Y-131115261D01*
X147802722Y-131126800D01*
X147625278Y-131126800D01*
X147567268Y-131115261D01*
X147451246Y-131092183D01*
X147287311Y-131024279D01*
X147139773Y-130925697D01*
X147014303Y-130800227D01*
X146915721Y-130652689D01*
X146847817Y-130488754D01*
X146813200Y-130314721D01*
X146813200Y-130137279D01*
X146847817Y-129963246D01*
X146915721Y-129799311D01*
X147014303Y-129651773D01*
X147139773Y-129526303D01*
X147287311Y-129427721D01*
X147451246Y-129359817D01*
X147567268Y-129336739D01*
X147625278Y-129325200D01*
X147802722Y-129325200D01*
X147860732Y-129336739D01*
G37*
G36*
X150400732Y-129336739D02*
G01*
X150516754Y-129359817D01*
X150680689Y-129427721D01*
X150828227Y-129526303D01*
X150953697Y-129651773D01*
X151052279Y-129799311D01*
X151120183Y-129963246D01*
X151154800Y-130137279D01*
X151154800Y-130314721D01*
X151120183Y-130488754D01*
X151052279Y-130652689D01*
X150953697Y-130800227D01*
X150828227Y-130925697D01*
X150680689Y-131024279D01*
X150516754Y-131092183D01*
X150400732Y-131115261D01*
X150342722Y-131126800D01*
X150165278Y-131126800D01*
X150107268Y-131115261D01*
X149991246Y-131092183D01*
X149827311Y-131024279D01*
X149679773Y-130925697D01*
X149554303Y-130800227D01*
X149455721Y-130652689D01*
X149387817Y-130488754D01*
X149353200Y-130314721D01*
X149353200Y-130137279D01*
X149387817Y-129963246D01*
X149455721Y-129799311D01*
X149554303Y-129651773D01*
X149679773Y-129526303D01*
X149827311Y-129427721D01*
X149991246Y-129359817D01*
X150107268Y-129336739D01*
X150165278Y-129325200D01*
X150342722Y-129325200D01*
X150400732Y-129336739D01*
G37*
G36*
X160173419Y-128069880D02*
G01*
X160208322Y-128080469D01*
X160240496Y-128097666D01*
X160268694Y-128120806D01*
X160291834Y-128149004D01*
X160309031Y-128181178D01*
X160319620Y-128216081D01*
X160323800Y-128258525D01*
X160323800Y-129399475D01*
X160319620Y-129441919D01*
X160309031Y-129476822D01*
X160291834Y-129508996D01*
X160268694Y-129537194D01*
X160240496Y-129560334D01*
X160208322Y-129577531D01*
X160173419Y-129588120D01*
X160130975Y-129592300D01*
X158665025Y-129592300D01*
X158622581Y-129588120D01*
X158587678Y-129577531D01*
X158555504Y-129560334D01*
X158527306Y-129537194D01*
X158504166Y-129508996D01*
X158486969Y-129476822D01*
X158476380Y-129441919D01*
X158472200Y-129399475D01*
X158472200Y-128258525D01*
X158476380Y-128216081D01*
X158486969Y-128181178D01*
X158504166Y-128149004D01*
X158527306Y-128120806D01*
X158555504Y-128097666D01*
X158587678Y-128080469D01*
X158622581Y-128069880D01*
X158665025Y-128065700D01*
X160130975Y-128065700D01*
X160173419Y-128069880D01*
G37*
G36*
X137313419Y-127615880D02*
G01*
X137348322Y-127626469D01*
X137380496Y-127643666D01*
X137408694Y-127666806D01*
X137431834Y-127695004D01*
X137449031Y-127727178D01*
X137459620Y-127762081D01*
X137463800Y-127804525D01*
X137463800Y-128945475D01*
X137459620Y-128987919D01*
X137449031Y-129022822D01*
X137431834Y-129054996D01*
X137408694Y-129083194D01*
X137380496Y-129106334D01*
X137348322Y-129123531D01*
X137313419Y-129134120D01*
X137270975Y-129138300D01*
X135805025Y-129138300D01*
X135762581Y-129134120D01*
X135727678Y-129123531D01*
X135695504Y-129106334D01*
X135667306Y-129083194D01*
X135644166Y-129054996D01*
X135626969Y-129022822D01*
X135616380Y-128987919D01*
X135612200Y-128945475D01*
X135612200Y-127804525D01*
X135616380Y-127762081D01*
X135626969Y-127727178D01*
X135644166Y-127695004D01*
X135667306Y-127666806D01*
X135695504Y-127643666D01*
X135727678Y-127626469D01*
X135762581Y-127615880D01*
X135805025Y-127611700D01*
X137270975Y-127611700D01*
X137313419Y-127615880D01*
G37*
G36*
X140869419Y-127615880D02*
G01*
X140904322Y-127626469D01*
X140936496Y-127643666D01*
X140964694Y-127666806D01*
X140987834Y-127695004D01*
X141005031Y-127727178D01*
X141015620Y-127762081D01*
X141019800Y-127804525D01*
X141019800Y-128945475D01*
X141015620Y-128987919D01*
X141005031Y-129022822D01*
X140987834Y-129054996D01*
X140964694Y-129083194D01*
X140936496Y-129106334D01*
X140904322Y-129123531D01*
X140869419Y-129134120D01*
X140826975Y-129138300D01*
X139361025Y-129138300D01*
X139318581Y-129134120D01*
X139283678Y-129123531D01*
X139251504Y-129106334D01*
X139223306Y-129083194D01*
X139200166Y-129054996D01*
X139182969Y-129022822D01*
X139172380Y-128987919D01*
X139168200Y-128945475D01*
X139168200Y-127804525D01*
X139172380Y-127762081D01*
X139182969Y-127727178D01*
X139200166Y-127695004D01*
X139223306Y-127666806D01*
X139251504Y-127643666D01*
X139283678Y-127626469D01*
X139318581Y-127615880D01*
X139361025Y-127611700D01*
X140826975Y-127611700D01*
X140869419Y-127615880D01*
G37*
G36*
X155480732Y-126796739D02*
G01*
X155596754Y-126819817D01*
X155760689Y-126887721D01*
X155908227Y-126986303D01*
X156033697Y-127111773D01*
X156132279Y-127259311D01*
X156200183Y-127423246D01*
X156234800Y-127597279D01*
X156234800Y-127774721D01*
X156200183Y-127948754D01*
X156132279Y-128112689D01*
X156033697Y-128260227D01*
X155908227Y-128385697D01*
X155760689Y-128484279D01*
X155596754Y-128552183D01*
X155480732Y-128575261D01*
X155422722Y-128586800D01*
X155245278Y-128586800D01*
X155187268Y-128575261D01*
X155071246Y-128552183D01*
X154907311Y-128484279D01*
X154759773Y-128385697D01*
X154634303Y-128260227D01*
X154535721Y-128112689D01*
X154467817Y-127948754D01*
X154433200Y-127774721D01*
X154433200Y-127597279D01*
X154467817Y-127423246D01*
X154535721Y-127259311D01*
X154634303Y-127111773D01*
X154759773Y-126986303D01*
X154907311Y-126887721D01*
X155071246Y-126819817D01*
X155187268Y-126796739D01*
X155245278Y-126785200D01*
X155422722Y-126785200D01*
X155480732Y-126796739D01*
G37*
G36*
X145320732Y-126796739D02*
G01*
X145436754Y-126819817D01*
X145600689Y-126887721D01*
X145748227Y-126986303D01*
X145873697Y-127111773D01*
X145972279Y-127259311D01*
X146040183Y-127423246D01*
X146074800Y-127597279D01*
X146074800Y-127774721D01*
X146040183Y-127948754D01*
X145972279Y-128112689D01*
X145873697Y-128260227D01*
X145748227Y-128385697D01*
X145600689Y-128484279D01*
X145436754Y-128552183D01*
X145320732Y-128575261D01*
X145262722Y-128586800D01*
X145085278Y-128586800D01*
X145027268Y-128575261D01*
X144911246Y-128552183D01*
X144747311Y-128484279D01*
X144599773Y-128385697D01*
X144474303Y-128260227D01*
X144375721Y-128112689D01*
X144307817Y-127948754D01*
X144273200Y-127774721D01*
X144273200Y-127597279D01*
X144307817Y-127423246D01*
X144375721Y-127259311D01*
X144474303Y-127111773D01*
X144599773Y-126986303D01*
X144747311Y-126887721D01*
X144911246Y-126819817D01*
X145027268Y-126796739D01*
X145085278Y-126785200D01*
X145262722Y-126785200D01*
X145320732Y-126796739D01*
G37*
G36*
X147860732Y-126796739D02*
G01*
X147976754Y-126819817D01*
X148140689Y-126887721D01*
X148288227Y-126986303D01*
X148413697Y-127111773D01*
X148512279Y-127259311D01*
X148580183Y-127423246D01*
X148614800Y-127597279D01*
X148614800Y-127774721D01*
X148580183Y-127948754D01*
X148512279Y-128112689D01*
X148413697Y-128260227D01*
X148288227Y-128385697D01*
X148140689Y-128484279D01*
X147976754Y-128552183D01*
X147860732Y-128575261D01*
X147802722Y-128586800D01*
X147625278Y-128586800D01*
X147567268Y-128575261D01*
X147451246Y-128552183D01*
X147287311Y-128484279D01*
X147139773Y-128385697D01*
X147014303Y-128260227D01*
X146915721Y-128112689D01*
X146847817Y-127948754D01*
X146813200Y-127774721D01*
X146813200Y-127597279D01*
X146847817Y-127423246D01*
X146915721Y-127259311D01*
X147014303Y-127111773D01*
X147139773Y-126986303D01*
X147287311Y-126887721D01*
X147451246Y-126819817D01*
X147567268Y-126796739D01*
X147625278Y-126785200D01*
X147802722Y-126785200D01*
X147860732Y-126796739D01*
G37*
G36*
X150400732Y-126796739D02*
G01*
X150516754Y-126819817D01*
X150680689Y-126887721D01*
X150828227Y-126986303D01*
X150953697Y-127111773D01*
X151052279Y-127259311D01*
X151120183Y-127423246D01*
X151154800Y-127597279D01*
X151154800Y-127774721D01*
X151120183Y-127948754D01*
X151052279Y-128112689D01*
X150953697Y-128260227D01*
X150828227Y-128385697D01*
X150680689Y-128484279D01*
X150516754Y-128552183D01*
X150400732Y-128575261D01*
X150342722Y-128586800D01*
X150165278Y-128586800D01*
X150107268Y-128575261D01*
X149991246Y-128552183D01*
X149827311Y-128484279D01*
X149679773Y-128385697D01*
X149554303Y-128260227D01*
X149455721Y-128112689D01*
X149387817Y-127948754D01*
X149353200Y-127774721D01*
X149353200Y-127597279D01*
X149387817Y-127423246D01*
X149455721Y-127259311D01*
X149554303Y-127111773D01*
X149679773Y-126986303D01*
X149827311Y-126887721D01*
X149991246Y-126819817D01*
X150107268Y-126796739D01*
X150165278Y-126785200D01*
X150342722Y-126785200D01*
X150400732Y-126796739D01*
G37*
G36*
X152940732Y-126796739D02*
G01*
X153056754Y-126819817D01*
X153220689Y-126887721D01*
X153368227Y-126986303D01*
X153493697Y-127111773D01*
X153592279Y-127259311D01*
X153660183Y-127423246D01*
X153694800Y-127597279D01*
X153694800Y-127774721D01*
X153660183Y-127948754D01*
X153592279Y-128112689D01*
X153493697Y-128260227D01*
X153368227Y-128385697D01*
X153220689Y-128484279D01*
X153056754Y-128552183D01*
X152940732Y-128575261D01*
X152882722Y-128586800D01*
X152705278Y-128586800D01*
X152647268Y-128575261D01*
X152531246Y-128552183D01*
X152367311Y-128484279D01*
X152219773Y-128385697D01*
X152094303Y-128260227D01*
X151995721Y-128112689D01*
X151927817Y-127948754D01*
X151893200Y-127774721D01*
X151893200Y-127597279D01*
X151927817Y-127423246D01*
X151995721Y-127259311D01*
X152094303Y-127111773D01*
X152219773Y-126986303D01*
X152367311Y-126887721D01*
X152531246Y-126819817D01*
X152647268Y-126796739D01*
X152705278Y-126785200D01*
X152882722Y-126785200D01*
X152940732Y-126796739D01*
G37*
G36*
X160173419Y-125094880D02*
G01*
X160208322Y-125105469D01*
X160240496Y-125122666D01*
X160268694Y-125145806D01*
X160291834Y-125174004D01*
X160309031Y-125206178D01*
X160319620Y-125241081D01*
X160323800Y-125283525D01*
X160323800Y-126424475D01*
X160319620Y-126466919D01*
X160309031Y-126501822D01*
X160291834Y-126533996D01*
X160268694Y-126562194D01*
X160240496Y-126585334D01*
X160208322Y-126602531D01*
X160173419Y-126613120D01*
X160130975Y-126617300D01*
X158665025Y-126617300D01*
X158622581Y-126613120D01*
X158587678Y-126602531D01*
X158555504Y-126585334D01*
X158527306Y-126562194D01*
X158504166Y-126533996D01*
X158486969Y-126501822D01*
X158476380Y-126466919D01*
X158472200Y-126424475D01*
X158472200Y-125283525D01*
X158476380Y-125241081D01*
X158486969Y-125206178D01*
X158504166Y-125174004D01*
X158527306Y-125145806D01*
X158555504Y-125122666D01*
X158587678Y-125105469D01*
X158622581Y-125094880D01*
X158665025Y-125090700D01*
X160130975Y-125090700D01*
X160173419Y-125094880D01*
G37*
G36*
X140869419Y-124640880D02*
G01*
X140904322Y-124651469D01*
X140936496Y-124668666D01*
X140964694Y-124691806D01*
X140987834Y-124720004D01*
X141005031Y-124752178D01*
X141015620Y-124787081D01*
X141019800Y-124829525D01*
X141019800Y-125970475D01*
X141015620Y-126012919D01*
X141005031Y-126047822D01*
X140987834Y-126079996D01*
X140964694Y-126108194D01*
X140936496Y-126131334D01*
X140904322Y-126148531D01*
X140869419Y-126159120D01*
X140826975Y-126163300D01*
X139361025Y-126163300D01*
X139318581Y-126159120D01*
X139283678Y-126148531D01*
X139251504Y-126131334D01*
X139223306Y-126108194D01*
X139200166Y-126079996D01*
X139182969Y-126047822D01*
X139172380Y-126012919D01*
X139168200Y-125970475D01*
X139168200Y-124829525D01*
X139172380Y-124787081D01*
X139182969Y-124752178D01*
X139200166Y-124720004D01*
X139223306Y-124691806D01*
X139251504Y-124668666D01*
X139283678Y-124651469D01*
X139318581Y-124640880D01*
X139361025Y-124636700D01*
X140826975Y-124636700D01*
X140869419Y-124640880D01*
G37*
G36*
X137313419Y-124640880D02*
G01*
X137348322Y-124651469D01*
X137380496Y-124668666D01*
X137408694Y-124691806D01*
X137431834Y-124720004D01*
X137449031Y-124752178D01*
X137459620Y-124787081D01*
X137463800Y-124829525D01*
X137463800Y-125970475D01*
X137459620Y-126012919D01*
X137449031Y-126047822D01*
X137431834Y-126079996D01*
X137408694Y-126108194D01*
X137380496Y-126131334D01*
X137348322Y-126148531D01*
X137313419Y-126159120D01*
X137270975Y-126163300D01*
X135805025Y-126163300D01*
X135762581Y-126159120D01*
X135727678Y-126148531D01*
X135695504Y-126131334D01*
X135667306Y-126108194D01*
X135644166Y-126079996D01*
X135626969Y-126047822D01*
X135616380Y-126012919D01*
X135612200Y-125970475D01*
X135612200Y-124829525D01*
X135616380Y-124787081D01*
X135626969Y-124752178D01*
X135644166Y-124720004D01*
X135667306Y-124691806D01*
X135695504Y-124668666D01*
X135727678Y-124651469D01*
X135762581Y-124640880D01*
X135805025Y-124636700D01*
X137270975Y-124636700D01*
X137313419Y-124640880D01*
G37*
G36*
X150140419Y-120576880D02*
G01*
X150175322Y-120587469D01*
X150207496Y-120604666D01*
X150235694Y-120627806D01*
X150258834Y-120656004D01*
X150276031Y-120688178D01*
X150286620Y-120723081D01*
X150290800Y-120765525D01*
X150290800Y-121906475D01*
X150286620Y-121948919D01*
X150276031Y-121983822D01*
X150258834Y-122015996D01*
X150235694Y-122044194D01*
X150207496Y-122067334D01*
X150175322Y-122084531D01*
X150140419Y-122095120D01*
X150097975Y-122099300D01*
X148632025Y-122099300D01*
X148589581Y-122095120D01*
X148554678Y-122084531D01*
X148522504Y-122067334D01*
X148494306Y-122044194D01*
X148471166Y-122015996D01*
X148453969Y-121983822D01*
X148443380Y-121948919D01*
X148439200Y-121906475D01*
X148439200Y-120765525D01*
X148443380Y-120723081D01*
X148453969Y-120688178D01*
X148471166Y-120656004D01*
X148494306Y-120627806D01*
X148522504Y-120604666D01*
X148554678Y-120587469D01*
X148589581Y-120576880D01*
X148632025Y-120572700D01*
X150097975Y-120572700D01*
X150140419Y-120576880D01*
G37*
G36*
X146203419Y-120576880D02*
G01*
X146238322Y-120587469D01*
X146270496Y-120604666D01*
X146298694Y-120627806D01*
X146321834Y-120656004D01*
X146339031Y-120688178D01*
X146349620Y-120723081D01*
X146353800Y-120765525D01*
X146353800Y-121906475D01*
X146349620Y-121948919D01*
X146339031Y-121983822D01*
X146321834Y-122015996D01*
X146298694Y-122044194D01*
X146270496Y-122067334D01*
X146238322Y-122084531D01*
X146203419Y-122095120D01*
X146160975Y-122099300D01*
X144695025Y-122099300D01*
X144652581Y-122095120D01*
X144617678Y-122084531D01*
X144585504Y-122067334D01*
X144557306Y-122044194D01*
X144534166Y-122015996D01*
X144516969Y-121983822D01*
X144506380Y-121948919D01*
X144502200Y-121906475D01*
X144502200Y-120765525D01*
X144506380Y-120723081D01*
X144516969Y-120688178D01*
X144534166Y-120656004D01*
X144557306Y-120627806D01*
X144585504Y-120604666D01*
X144617678Y-120587469D01*
X144652581Y-120576880D01*
X144695025Y-120572700D01*
X146160975Y-120572700D01*
X146203419Y-120576880D01*
G37*
G36*
X130335675Y-118893424D02*
G01*
X130422425Y-118929357D01*
X130545108Y-118980174D01*
X130733592Y-119106115D01*
X130893885Y-119266408D01*
X131019826Y-119454892D01*
X131070643Y-119577575D01*
X131106576Y-119664325D01*
X131150800Y-119886655D01*
X131150800Y-120113345D01*
X131106576Y-120335675D01*
X131070643Y-120422425D01*
X131019826Y-120545108D01*
X130893885Y-120733592D01*
X130733592Y-120893885D01*
X130545108Y-121019826D01*
X130422425Y-121070643D01*
X130335675Y-121106576D01*
X130113345Y-121150800D01*
X129886655Y-121150800D01*
X129664325Y-121106576D01*
X129577575Y-121070643D01*
X129454892Y-121019826D01*
X129266408Y-120893885D01*
X129106115Y-120733592D01*
X128980174Y-120545108D01*
X128929357Y-120422425D01*
X128893424Y-120335675D01*
X128849200Y-120113345D01*
X128849200Y-119886655D01*
X128893424Y-119664325D01*
X128929357Y-119577575D01*
X128980174Y-119454892D01*
X129106115Y-119266408D01*
X129266408Y-119106115D01*
X129454892Y-118980174D01*
X129577575Y-118929357D01*
X129664325Y-118893424D01*
X129886655Y-118849200D01*
X130113345Y-118849200D01*
X130335675Y-118893424D01*
G37*
G36*
X170335675Y-118893424D02*
G01*
X170422425Y-118929357D01*
X170545108Y-118980174D01*
X170733592Y-119106115D01*
X170893885Y-119266408D01*
X171019826Y-119454892D01*
X171070643Y-119577575D01*
X171106576Y-119664325D01*
X171150800Y-119886655D01*
X171150800Y-120113345D01*
X171106576Y-120335675D01*
X171070643Y-120422425D01*
X171019826Y-120545108D01*
X170893885Y-120733592D01*
X170733592Y-120893885D01*
X170545108Y-121019826D01*
X170422425Y-121070643D01*
X170335675Y-121106576D01*
X170113345Y-121150800D01*
X169886655Y-121150800D01*
X169664325Y-121106576D01*
X169577575Y-121070643D01*
X169454892Y-121019826D01*
X169266408Y-120893885D01*
X169106115Y-120733592D01*
X168980174Y-120545108D01*
X168929357Y-120422425D01*
X168893424Y-120335675D01*
X168849200Y-120113345D01*
X168849200Y-119886655D01*
X168893424Y-119664325D01*
X168929357Y-119577575D01*
X168980174Y-119454892D01*
X169106115Y-119266408D01*
X169266408Y-119106115D01*
X169454892Y-118980174D01*
X169577575Y-118929357D01*
X169664325Y-118893424D01*
X169886655Y-118849200D01*
X170113345Y-118849200D01*
X170335675Y-118893424D01*
G37*
G36*
X150140419Y-117601880D02*
G01*
X150175322Y-117612469D01*
X150207496Y-117629666D01*
X150235694Y-117652806D01*
X150258834Y-117681004D01*
X150276031Y-117713178D01*
X150286620Y-117748081D01*
X150290800Y-117790525D01*
X150290800Y-118931475D01*
X150286620Y-118973919D01*
X150276031Y-119008822D01*
X150258834Y-119040996D01*
X150235694Y-119069194D01*
X150207496Y-119092334D01*
X150175322Y-119109531D01*
X150140419Y-119120120D01*
X150097975Y-119124300D01*
X148632025Y-119124300D01*
X148589581Y-119120120D01*
X148554678Y-119109531D01*
X148522504Y-119092334D01*
X148494306Y-119069194D01*
X148471166Y-119040996D01*
X148453969Y-119008822D01*
X148443380Y-118973919D01*
X148439200Y-118931475D01*
X148439200Y-117790525D01*
X148443380Y-117748081D01*
X148453969Y-117713178D01*
X148471166Y-117681004D01*
X148494306Y-117652806D01*
X148522504Y-117629666D01*
X148554678Y-117612469D01*
X148589581Y-117601880D01*
X148632025Y-117597700D01*
X150097975Y-117597700D01*
X150140419Y-117601880D01*
G37*
G36*
X146203419Y-117601880D02*
G01*
X146238322Y-117612469D01*
X146270496Y-117629666D01*
X146298694Y-117652806D01*
X146321834Y-117681004D01*
X146339031Y-117713178D01*
X146349620Y-117748081D01*
X146353800Y-117790525D01*
X146353800Y-118931475D01*
X146349620Y-118973919D01*
X146339031Y-119008822D01*
X146321834Y-119040996D01*
X146298694Y-119069194D01*
X146270496Y-119092334D01*
X146238322Y-119109531D01*
X146203419Y-119120120D01*
X146160975Y-119124300D01*
X144695025Y-119124300D01*
X144652581Y-119120120D01*
X144617678Y-119109531D01*
X144585504Y-119092334D01*
X144557306Y-119069194D01*
X144534166Y-119040996D01*
X144516969Y-119008822D01*
X144506380Y-118973919D01*
X144502200Y-118931475D01*
X144502200Y-117790525D01*
X144506380Y-117748081D01*
X144516969Y-117713178D01*
X144534166Y-117681004D01*
X144557306Y-117652806D01*
X144585504Y-117629666D01*
X144617678Y-117612469D01*
X144652581Y-117601880D01*
X144695025Y-117597700D01*
X146160975Y-117597700D01*
X146203419Y-117601880D01*
G37*
G36*
X148902132Y-114071339D02*
G01*
X149018154Y-114094417D01*
X149182089Y-114162321D01*
X149329627Y-114260903D01*
X149455097Y-114386373D01*
X149553679Y-114533911D01*
X149621583Y-114697846D01*
X149656200Y-114871879D01*
X149656200Y-115049321D01*
X149621583Y-115223354D01*
X149553679Y-115387289D01*
X149455097Y-115534827D01*
X149329627Y-115660297D01*
X149182089Y-115758879D01*
X149018154Y-115826783D01*
X148902132Y-115849861D01*
X148844122Y-115861400D01*
X148666678Y-115861400D01*
X148608668Y-115849861D01*
X148492646Y-115826783D01*
X148328711Y-115758879D01*
X148181173Y-115660297D01*
X148055703Y-115534827D01*
X147957121Y-115387289D01*
X147889217Y-115223354D01*
X147854600Y-115049321D01*
X147854600Y-114871879D01*
X147889217Y-114697846D01*
X147957121Y-114533911D01*
X148055703Y-114386373D01*
X148181173Y-114260903D01*
X148328711Y-114162321D01*
X148492646Y-114094417D01*
X148608668Y-114071339D01*
X148666678Y-114059800D01*
X148844122Y-114059800D01*
X148902132Y-114071339D01*
G37*
G36*
X143822132Y-114071339D02*
G01*
X143938154Y-114094417D01*
X144102089Y-114162321D01*
X144249627Y-114260903D01*
X144375097Y-114386373D01*
X144473679Y-114533911D01*
X144541583Y-114697846D01*
X144576200Y-114871879D01*
X144576200Y-115049321D01*
X144541583Y-115223354D01*
X144473679Y-115387289D01*
X144375097Y-115534827D01*
X144249627Y-115660297D01*
X144102089Y-115758879D01*
X143938154Y-115826783D01*
X143822132Y-115849861D01*
X143764122Y-115861400D01*
X143586678Y-115861400D01*
X143528668Y-115849861D01*
X143412646Y-115826783D01*
X143248711Y-115758879D01*
X143101173Y-115660297D01*
X142975703Y-115534827D01*
X142877121Y-115387289D01*
X142809217Y-115223354D01*
X142774600Y-115049321D01*
X142774600Y-114871879D01*
X142809217Y-114697846D01*
X142877121Y-114533911D01*
X142975703Y-114386373D01*
X143101173Y-114260903D01*
X143248711Y-114162321D01*
X143412646Y-114094417D01*
X143528668Y-114071339D01*
X143586678Y-114059800D01*
X143764122Y-114059800D01*
X143822132Y-114071339D01*
G37*
G36*
X146362132Y-114071339D02*
G01*
X146478154Y-114094417D01*
X146642089Y-114162321D01*
X146789627Y-114260903D01*
X146915097Y-114386373D01*
X147013679Y-114533911D01*
X147081583Y-114697846D01*
X147116200Y-114871879D01*
X147116200Y-115049321D01*
X147081583Y-115223354D01*
X147013679Y-115387289D01*
X146915097Y-115534827D01*
X146789627Y-115660297D01*
X146642089Y-115758879D01*
X146478154Y-115826783D01*
X146362132Y-115849861D01*
X146304122Y-115861400D01*
X146126678Y-115861400D01*
X146068668Y-115849861D01*
X145952646Y-115826783D01*
X145788711Y-115758879D01*
X145641173Y-115660297D01*
X145515703Y-115534827D01*
X145417121Y-115387289D01*
X145349217Y-115223354D01*
X145314600Y-115049321D01*
X145314600Y-114871879D01*
X145349217Y-114697846D01*
X145417121Y-114533911D01*
X145515703Y-114386373D01*
X145641173Y-114260903D01*
X145788711Y-114162321D01*
X145952646Y-114094417D01*
X146068668Y-114071339D01*
X146126678Y-114059800D01*
X146304122Y-114059800D01*
X146362132Y-114071339D01*
G37*
G36*
X151442132Y-114071339D02*
G01*
X151558154Y-114094417D01*
X151722089Y-114162321D01*
X151869627Y-114260903D01*
X151995097Y-114386373D01*
X152093679Y-114533911D01*
X152161583Y-114697846D01*
X152196200Y-114871879D01*
X152196200Y-115049321D01*
X152161583Y-115223354D01*
X152093679Y-115387289D01*
X151995097Y-115534827D01*
X151869627Y-115660297D01*
X151722089Y-115758879D01*
X151558154Y-115826783D01*
X151442132Y-115849861D01*
X151384122Y-115861400D01*
X151206678Y-115861400D01*
X151148668Y-115849861D01*
X151032646Y-115826783D01*
X150868711Y-115758879D01*
X150721173Y-115660297D01*
X150595703Y-115534827D01*
X150497121Y-115387289D01*
X150429217Y-115223354D01*
X150394600Y-115049321D01*
X150394600Y-114871879D01*
X150429217Y-114697846D01*
X150497121Y-114533911D01*
X150595703Y-114386373D01*
X150721173Y-114260903D01*
X150868711Y-114162321D01*
X151032646Y-114094417D01*
X151148668Y-114071339D01*
X151206678Y-114059800D01*
X151384122Y-114059800D01*
X151442132Y-114071339D01*
G37*
G36*
X153982132Y-114071339D02*
G01*
X154098154Y-114094417D01*
X154262089Y-114162321D01*
X154409627Y-114260903D01*
X154535097Y-114386373D01*
X154633679Y-114533911D01*
X154701583Y-114697846D01*
X154736200Y-114871879D01*
X154736200Y-115049321D01*
X154701583Y-115223354D01*
X154633679Y-115387289D01*
X154535097Y-115534827D01*
X154409627Y-115660297D01*
X154262089Y-115758879D01*
X154098154Y-115826783D01*
X153982132Y-115849861D01*
X153924122Y-115861400D01*
X153746678Y-115861400D01*
X153688668Y-115849861D01*
X153572646Y-115826783D01*
X153408711Y-115758879D01*
X153261173Y-115660297D01*
X153135703Y-115534827D01*
X153037121Y-115387289D01*
X152969217Y-115223354D01*
X152934600Y-115049321D01*
X152934600Y-114871879D01*
X152969217Y-114697846D01*
X153037121Y-114533911D01*
X153135703Y-114386373D01*
X153261173Y-114260903D01*
X153408711Y-114162321D01*
X153572646Y-114094417D01*
X153688668Y-114071339D01*
X153746678Y-114059800D01*
X153924122Y-114059800D01*
X153982132Y-114071339D01*
G37*
G36*
X156522132Y-114071339D02*
G01*
X156638154Y-114094417D01*
X156802089Y-114162321D01*
X156949627Y-114260903D01*
X157075097Y-114386373D01*
X157173679Y-114533911D01*
X157241583Y-114697846D01*
X157276200Y-114871879D01*
X157276200Y-115049321D01*
X157241583Y-115223354D01*
X157173679Y-115387289D01*
X157075097Y-115534827D01*
X156949627Y-115660297D01*
X156802089Y-115758879D01*
X156638154Y-115826783D01*
X156522132Y-115849861D01*
X156464122Y-115861400D01*
X156286678Y-115861400D01*
X156228668Y-115849861D01*
X156112646Y-115826783D01*
X155948711Y-115758879D01*
X155801173Y-115660297D01*
X155675703Y-115534827D01*
X155577121Y-115387289D01*
X155509217Y-115223354D01*
X155474600Y-115049321D01*
X155474600Y-114871879D01*
X155509217Y-114697846D01*
X155577121Y-114533911D01*
X155675703Y-114386373D01*
X155801173Y-114260903D01*
X155948711Y-114162321D01*
X156112646Y-114094417D01*
X156228668Y-114071339D01*
X156286678Y-114059800D01*
X156464122Y-114059800D01*
X156522132Y-114071339D01*
G37*
G36*
X159062132Y-114071339D02*
G01*
X159178154Y-114094417D01*
X159342089Y-114162321D01*
X159489627Y-114260903D01*
X159615097Y-114386373D01*
X159713679Y-114533911D01*
X159781583Y-114697846D01*
X159816200Y-114871879D01*
X159816200Y-115049321D01*
X159781583Y-115223354D01*
X159713679Y-115387289D01*
X159615097Y-115534827D01*
X159489627Y-115660297D01*
X159342089Y-115758879D01*
X159178154Y-115826783D01*
X159062132Y-115849861D01*
X159004122Y-115861400D01*
X158826678Y-115861400D01*
X158768668Y-115849861D01*
X158652646Y-115826783D01*
X158488711Y-115758879D01*
X158341173Y-115660297D01*
X158215703Y-115534827D01*
X158117121Y-115387289D01*
X158049217Y-115223354D01*
X158014600Y-115049321D01*
X158014600Y-114871879D01*
X158049217Y-114697846D01*
X158117121Y-114533911D01*
X158215703Y-114386373D01*
X158341173Y-114260903D01*
X158488711Y-114162321D01*
X158652646Y-114094417D01*
X158768668Y-114071339D01*
X158826678Y-114059800D01*
X159004122Y-114059800D01*
X159062132Y-114071339D01*
G37*
G36*
X142036200Y-115861400D02*
G01*
X140234600Y-115861400D01*
X140234600Y-114059800D01*
X142036200Y-114059800D01*
X142036200Y-115861400D01*
G37*
G36*
X134784319Y-113517380D02*
G01*
X134819222Y-113527969D01*
X134851396Y-113545166D01*
X134879594Y-113568306D01*
X134902734Y-113596504D01*
X134919931Y-113628678D01*
X134930520Y-113663581D01*
X134934700Y-113706025D01*
X134934700Y-115171975D01*
X134930520Y-115214419D01*
X134919931Y-115249322D01*
X134902734Y-115281496D01*
X134879594Y-115309694D01*
X134851396Y-115332834D01*
X134819222Y-115350031D01*
X134784319Y-115360620D01*
X134741875Y-115364800D01*
X133600925Y-115364800D01*
X133558481Y-115360620D01*
X133523578Y-115350031D01*
X133491404Y-115332834D01*
X133463206Y-115309694D01*
X133440066Y-115281496D01*
X133422869Y-115249322D01*
X133412280Y-115214419D01*
X133408100Y-115171975D01*
X133408100Y-113706025D01*
X133412280Y-113663581D01*
X133422869Y-113628678D01*
X133440066Y-113596504D01*
X133463206Y-113568306D01*
X133491404Y-113545166D01*
X133523578Y-113527969D01*
X133558481Y-113517380D01*
X133600925Y-113513200D01*
X134741875Y-113513200D01*
X134784319Y-113517380D01*
G37*
G36*
X131809319Y-113517380D02*
G01*
X131844222Y-113527969D01*
X131876396Y-113545166D01*
X131904594Y-113568306D01*
X131927734Y-113596504D01*
X131944931Y-113628678D01*
X131955520Y-113663581D01*
X131959700Y-113706025D01*
X131959700Y-115171975D01*
X131955520Y-115214419D01*
X131944931Y-115249322D01*
X131927734Y-115281496D01*
X131904594Y-115309694D01*
X131876396Y-115332834D01*
X131844222Y-115350031D01*
X131809319Y-115360620D01*
X131766875Y-115364800D01*
X130625925Y-115364800D01*
X130583481Y-115360620D01*
X130548578Y-115350031D01*
X130516404Y-115332834D01*
X130488206Y-115309694D01*
X130465066Y-115281496D01*
X130447869Y-115249322D01*
X130437280Y-115214419D01*
X130433100Y-115171975D01*
X130433100Y-113706025D01*
X130437280Y-113663581D01*
X130447869Y-113628678D01*
X130465066Y-113596504D01*
X130488206Y-113568306D01*
X130516404Y-113545166D01*
X130548578Y-113527969D01*
X130583481Y-113517380D01*
X130625925Y-113513200D01*
X131766875Y-113513200D01*
X131809319Y-113517380D01*
G37*
G36*
X125569600Y-115219800D02*
G01*
X124168000Y-115219800D01*
X124168000Y-113568200D01*
X125569600Y-113568200D01*
X125569600Y-115219800D01*
G37*
G36*
X121069600Y-115219800D02*
G01*
X119668000Y-115219800D01*
X119668000Y-113568200D01*
X121069600Y-113568200D01*
X121069600Y-115219800D01*
G37*
G36*
X149775419Y-110728380D02*
G01*
X149810322Y-110738969D01*
X149842496Y-110756166D01*
X149870694Y-110779306D01*
X149893834Y-110807504D01*
X149911031Y-110839678D01*
X149921620Y-110874581D01*
X149925800Y-110917025D01*
X149925800Y-112057975D01*
X149921620Y-112100419D01*
X149911031Y-112135322D01*
X149893834Y-112167496D01*
X149870694Y-112195694D01*
X149842496Y-112218834D01*
X149810322Y-112236031D01*
X149775419Y-112246620D01*
X149732975Y-112250800D01*
X148267025Y-112250800D01*
X148224581Y-112246620D01*
X148189678Y-112236031D01*
X148157504Y-112218834D01*
X148129306Y-112195694D01*
X148106166Y-112167496D01*
X148088969Y-112135322D01*
X148078380Y-112100419D01*
X148074200Y-112057975D01*
X148074200Y-110917025D01*
X148078380Y-110874581D01*
X148088969Y-110839678D01*
X148106166Y-110807504D01*
X148129306Y-110779306D01*
X148157504Y-110756166D01*
X148189678Y-110738969D01*
X148224581Y-110728380D01*
X148267025Y-110724200D01*
X149732975Y-110724200D01*
X149775419Y-110728380D01*
G37*
G36*
X153585419Y-110670880D02*
G01*
X153620322Y-110681469D01*
X153652496Y-110698666D01*
X153680694Y-110721806D01*
X153703834Y-110750004D01*
X153721031Y-110782178D01*
X153731620Y-110817081D01*
X153735800Y-110859525D01*
X153735800Y-112000475D01*
X153731620Y-112042919D01*
X153721031Y-112077822D01*
X153703834Y-112109996D01*
X153680694Y-112138194D01*
X153652496Y-112161334D01*
X153620322Y-112178531D01*
X153585419Y-112189120D01*
X153542975Y-112193300D01*
X152077025Y-112193300D01*
X152034581Y-112189120D01*
X151999678Y-112178531D01*
X151967504Y-112161334D01*
X151939306Y-112138194D01*
X151916166Y-112109996D01*
X151898969Y-112077822D01*
X151888380Y-112042919D01*
X151884200Y-112000475D01*
X151884200Y-110859525D01*
X151888380Y-110817081D01*
X151898969Y-110782178D01*
X151916166Y-110750004D01*
X151939306Y-110721806D01*
X151967504Y-110698666D01*
X151999678Y-110681469D01*
X152034581Y-110670880D01*
X152077025Y-110666700D01*
X153542975Y-110666700D01*
X153585419Y-110670880D01*
G37*
G36*
X157125419Y-110670880D02*
G01*
X157160322Y-110681469D01*
X157192496Y-110698666D01*
X157220694Y-110721806D01*
X157243834Y-110750004D01*
X157261031Y-110782178D01*
X157271620Y-110817081D01*
X157275800Y-110859525D01*
X157275800Y-112000475D01*
X157271620Y-112042919D01*
X157261031Y-112077822D01*
X157243834Y-112109996D01*
X157220694Y-112138194D01*
X157192496Y-112161334D01*
X157160322Y-112178531D01*
X157125419Y-112189120D01*
X157082975Y-112193300D01*
X155617025Y-112193300D01*
X155574581Y-112189120D01*
X155539678Y-112178531D01*
X155507504Y-112161334D01*
X155479306Y-112138194D01*
X155456166Y-112109996D01*
X155438969Y-112077822D01*
X155428380Y-112042919D01*
X155424200Y-112000475D01*
X155424200Y-110859525D01*
X155428380Y-110817081D01*
X155438969Y-110782178D01*
X155456166Y-110750004D01*
X155479306Y-110721806D01*
X155507504Y-110698666D01*
X155539678Y-110681469D01*
X155574581Y-110670880D01*
X155617025Y-110666700D01*
X157082975Y-110666700D01*
X157125419Y-110670880D01*
G37*
G36*
X134784319Y-110215380D02*
G01*
X134819222Y-110225969D01*
X134851396Y-110243166D01*
X134879594Y-110266306D01*
X134902734Y-110294504D01*
X134919931Y-110326678D01*
X134930520Y-110361581D01*
X134934700Y-110404025D01*
X134934700Y-111869975D01*
X134930520Y-111912419D01*
X134919931Y-111947322D01*
X134902734Y-111979496D01*
X134879594Y-112007694D01*
X134851396Y-112030834D01*
X134819222Y-112048031D01*
X134784319Y-112058620D01*
X134741875Y-112062800D01*
X133600925Y-112062800D01*
X133558481Y-112058620D01*
X133523578Y-112048031D01*
X133491404Y-112030834D01*
X133463206Y-112007694D01*
X133440066Y-111979496D01*
X133422869Y-111947322D01*
X133412280Y-111912419D01*
X133408100Y-111869975D01*
X133408100Y-110404025D01*
X133412280Y-110361581D01*
X133422869Y-110326678D01*
X133440066Y-110294504D01*
X133463206Y-110266306D01*
X133491404Y-110243166D01*
X133523578Y-110225969D01*
X133558481Y-110215380D01*
X133600925Y-110211200D01*
X134741875Y-110211200D01*
X134784319Y-110215380D01*
G37*
G36*
X131809319Y-110215380D02*
G01*
X131844222Y-110225969D01*
X131876396Y-110243166D01*
X131904594Y-110266306D01*
X131927734Y-110294504D01*
X131944931Y-110326678D01*
X131955520Y-110361581D01*
X131959700Y-110404025D01*
X131959700Y-111869975D01*
X131955520Y-111912419D01*
X131944931Y-111947322D01*
X131927734Y-111979496D01*
X131904594Y-112007694D01*
X131876396Y-112030834D01*
X131844222Y-112048031D01*
X131809319Y-112058620D01*
X131766875Y-112062800D01*
X130625925Y-112062800D01*
X130583481Y-112058620D01*
X130548578Y-112048031D01*
X130516404Y-112030834D01*
X130488206Y-112007694D01*
X130465066Y-111979496D01*
X130447869Y-111947322D01*
X130437280Y-111912419D01*
X130433100Y-111869975D01*
X130433100Y-110404025D01*
X130437280Y-110361581D01*
X130447869Y-110326678D01*
X130465066Y-110294504D01*
X130488206Y-110266306D01*
X130516404Y-110243166D01*
X130548578Y-110225969D01*
X130583481Y-110215380D01*
X130625925Y-110211200D01*
X131766875Y-110211200D01*
X131809319Y-110215380D01*
G37*
G36*
X160650800Y-109300800D02*
G01*
X159349200Y-109300800D01*
X159349200Y-106699200D01*
X160650800Y-106699200D01*
X160650800Y-109300800D01*
G37*
G36*
X168650800Y-109300800D02*
G01*
X167349200Y-109300800D01*
X167349200Y-106699200D01*
X168650800Y-106699200D01*
X168650800Y-109300800D01*
G37*
G36*
X166650800Y-109300800D02*
G01*
X165349200Y-109300800D01*
X165349200Y-106699200D01*
X166650800Y-106699200D01*
X166650800Y-109300800D01*
G37*
G36*
X164650800Y-109300800D02*
G01*
X163349200Y-109300800D01*
X163349200Y-106699200D01*
X164650800Y-106699200D01*
X164650800Y-109300800D01*
G37*
G36*
X162650800Y-109300800D02*
G01*
X161349200Y-109300800D01*
X161349200Y-106699200D01*
X162650800Y-106699200D01*
X162650800Y-109300800D01*
G37*
G36*
X170650800Y-109300800D02*
G01*
X169349200Y-109300800D01*
X169349200Y-106699200D01*
X170650800Y-106699200D01*
X170650800Y-109300800D01*
G37*
G36*
X172650800Y-109300800D02*
G01*
X171349200Y-109300800D01*
X171349200Y-106699200D01*
X172650800Y-106699200D01*
X172650800Y-109300800D01*
G37*
G36*
X174650800Y-109300800D02*
G01*
X173349200Y-109300800D01*
X173349200Y-106699200D01*
X174650800Y-106699200D01*
X174650800Y-109300800D01*
G37*
G36*
X149775419Y-107753380D02*
G01*
X149810322Y-107763969D01*
X149842496Y-107781166D01*
X149870694Y-107804306D01*
X149893834Y-107832504D01*
X149911031Y-107864678D01*
X149921620Y-107899581D01*
X149925800Y-107942025D01*
X149925800Y-109082975D01*
X149921620Y-109125419D01*
X149911031Y-109160322D01*
X149893834Y-109192496D01*
X149870694Y-109220694D01*
X149842496Y-109243834D01*
X149810322Y-109261031D01*
X149775419Y-109271620D01*
X149732975Y-109275800D01*
X148267025Y-109275800D01*
X148224581Y-109271620D01*
X148189678Y-109261031D01*
X148157504Y-109243834D01*
X148129306Y-109220694D01*
X148106166Y-109192496D01*
X148088969Y-109160322D01*
X148078380Y-109125419D01*
X148074200Y-109082975D01*
X148074200Y-107942025D01*
X148078380Y-107899581D01*
X148088969Y-107864678D01*
X148106166Y-107832504D01*
X148129306Y-107804306D01*
X148157504Y-107781166D01*
X148189678Y-107763969D01*
X148224581Y-107753380D01*
X148267025Y-107749200D01*
X149732975Y-107749200D01*
X149775419Y-107753380D01*
G37*
G36*
X157125419Y-107695880D02*
G01*
X157160322Y-107706469D01*
X157192496Y-107723666D01*
X157220694Y-107746806D01*
X157243834Y-107775004D01*
X157261031Y-107807178D01*
X157271620Y-107842081D01*
X157275800Y-107884525D01*
X157275800Y-109025475D01*
X157271620Y-109067919D01*
X157261031Y-109102822D01*
X157243834Y-109134996D01*
X157220694Y-109163194D01*
X157192496Y-109186334D01*
X157160322Y-109203531D01*
X157125419Y-109214120D01*
X157082975Y-109218300D01*
X155617025Y-109218300D01*
X155574581Y-109214120D01*
X155539678Y-109203531D01*
X155507504Y-109186334D01*
X155479306Y-109163194D01*
X155456166Y-109134996D01*
X155438969Y-109102822D01*
X155428380Y-109067919D01*
X155424200Y-109025475D01*
X155424200Y-107884525D01*
X155428380Y-107842081D01*
X155438969Y-107807178D01*
X155456166Y-107775004D01*
X155479306Y-107746806D01*
X155507504Y-107723666D01*
X155539678Y-107706469D01*
X155574581Y-107695880D01*
X155617025Y-107691700D01*
X157082975Y-107691700D01*
X157125419Y-107695880D01*
G37*
G36*
X153585419Y-107695880D02*
G01*
X153620322Y-107706469D01*
X153652496Y-107723666D01*
X153680694Y-107746806D01*
X153703834Y-107775004D01*
X153721031Y-107807178D01*
X153731620Y-107842081D01*
X153735800Y-107884525D01*
X153735800Y-109025475D01*
X153731620Y-109067919D01*
X153721031Y-109102822D01*
X153703834Y-109134996D01*
X153680694Y-109163194D01*
X153652496Y-109186334D01*
X153620322Y-109203531D01*
X153585419Y-109214120D01*
X153542975Y-109218300D01*
X152077025Y-109218300D01*
X152034581Y-109214120D01*
X151999678Y-109203531D01*
X151967504Y-109186334D01*
X151939306Y-109163194D01*
X151916166Y-109134996D01*
X151898969Y-109102822D01*
X151888380Y-109067919D01*
X151884200Y-109025475D01*
X151884200Y-107884525D01*
X151888380Y-107842081D01*
X151898969Y-107807178D01*
X151916166Y-107775004D01*
X151939306Y-107746806D01*
X151967504Y-107723666D01*
X151999678Y-107706469D01*
X152034581Y-107695880D01*
X152077025Y-107691700D01*
X153542975Y-107691700D01*
X153585419Y-107695880D01*
G37*
G36*
X128587919Y-105682380D02*
G01*
X128622822Y-105692969D01*
X128654996Y-105710166D01*
X128683194Y-105733306D01*
X128706334Y-105761504D01*
X128723531Y-105793678D01*
X128734120Y-105828581D01*
X128738300Y-105871025D01*
X128738300Y-107336975D01*
X128734120Y-107379419D01*
X128723531Y-107414322D01*
X128706334Y-107446496D01*
X128683194Y-107474694D01*
X128654996Y-107497834D01*
X128622822Y-107515031D01*
X128587919Y-107525620D01*
X128545475Y-107529800D01*
X127404525Y-107529800D01*
X127362081Y-107525620D01*
X127327178Y-107515031D01*
X127295004Y-107497834D01*
X127266806Y-107474694D01*
X127243666Y-107446496D01*
X127226469Y-107414322D01*
X127215880Y-107379419D01*
X127211700Y-107336975D01*
X127211700Y-105871025D01*
X127215880Y-105828581D01*
X127226469Y-105793678D01*
X127243666Y-105761504D01*
X127266806Y-105733306D01*
X127295004Y-105710166D01*
X127327178Y-105692969D01*
X127362081Y-105682380D01*
X127404525Y-105678200D01*
X128545475Y-105678200D01*
X128587919Y-105682380D01*
G37*
G36*
X131562919Y-105682380D02*
G01*
X131597822Y-105692969D01*
X131629996Y-105710166D01*
X131658194Y-105733306D01*
X131681334Y-105761504D01*
X131698531Y-105793678D01*
X131709120Y-105828581D01*
X131713300Y-105871025D01*
X131713300Y-107336975D01*
X131709120Y-107379419D01*
X131698531Y-107414322D01*
X131681334Y-107446496D01*
X131658194Y-107474694D01*
X131629996Y-107497834D01*
X131597822Y-107515031D01*
X131562919Y-107525620D01*
X131520475Y-107529800D01*
X130379525Y-107529800D01*
X130337081Y-107525620D01*
X130302178Y-107515031D01*
X130270004Y-107497834D01*
X130241806Y-107474694D01*
X130218666Y-107446496D01*
X130201469Y-107414322D01*
X130190880Y-107379419D01*
X130186700Y-107336975D01*
X130186700Y-105871025D01*
X130190880Y-105828581D01*
X130201469Y-105793678D01*
X130218666Y-105761504D01*
X130241806Y-105733306D01*
X130270004Y-105710166D01*
X130302178Y-105692969D01*
X130337081Y-105682380D01*
X130379525Y-105678200D01*
X131520475Y-105678200D01*
X131562919Y-105682380D01*
G37*
G36*
X134737919Y-105682380D02*
G01*
X134772822Y-105692969D01*
X134804996Y-105710166D01*
X134833194Y-105733306D01*
X134856334Y-105761504D01*
X134873531Y-105793678D01*
X134884120Y-105828581D01*
X134888300Y-105871025D01*
X134888300Y-107336975D01*
X134884120Y-107379419D01*
X134873531Y-107414322D01*
X134856334Y-107446496D01*
X134833194Y-107474694D01*
X134804996Y-107497834D01*
X134772822Y-107515031D01*
X134737919Y-107525620D01*
X134695475Y-107529800D01*
X133554525Y-107529800D01*
X133512081Y-107525620D01*
X133477178Y-107515031D01*
X133445004Y-107497834D01*
X133416806Y-107474694D01*
X133393666Y-107446496D01*
X133376469Y-107414322D01*
X133365880Y-107379419D01*
X133361700Y-107336975D01*
X133361700Y-105871025D01*
X133365880Y-105828581D01*
X133376469Y-105793678D01*
X133393666Y-105761504D01*
X133416806Y-105733306D01*
X133445004Y-105710166D01*
X133477178Y-105692969D01*
X133512081Y-105682380D01*
X133554525Y-105678200D01*
X134695475Y-105678200D01*
X134737919Y-105682380D01*
G37*
G36*
X137712919Y-105682380D02*
G01*
X137747822Y-105692969D01*
X137779996Y-105710166D01*
X137808194Y-105733306D01*
X137831334Y-105761504D01*
X137848531Y-105793678D01*
X137859120Y-105828581D01*
X137863300Y-105871025D01*
X137863300Y-107336975D01*
X137859120Y-107379419D01*
X137848531Y-107414322D01*
X137831334Y-107446496D01*
X137808194Y-107474694D01*
X137779996Y-107497834D01*
X137747822Y-107515031D01*
X137712919Y-107525620D01*
X137670475Y-107529800D01*
X136529525Y-107529800D01*
X136487081Y-107525620D01*
X136452178Y-107515031D01*
X136420004Y-107497834D01*
X136391806Y-107474694D01*
X136368666Y-107446496D01*
X136351469Y-107414322D01*
X136340880Y-107379419D01*
X136336700Y-107336975D01*
X136336700Y-105871025D01*
X136340880Y-105828581D01*
X136351469Y-105793678D01*
X136368666Y-105761504D01*
X136391806Y-105733306D01*
X136420004Y-105710166D01*
X136452178Y-105692969D01*
X136487081Y-105682380D01*
X136529525Y-105678200D01*
X137670475Y-105678200D01*
X137712919Y-105682380D01*
G37*
G36*
X125569600Y-107259800D02*
G01*
X124168000Y-107259800D01*
X124168000Y-105608200D01*
X125569600Y-105608200D01*
X125569600Y-107259800D01*
G37*
G36*
X121069600Y-107259800D02*
G01*
X119668000Y-107259800D01*
X119668000Y-105608200D01*
X121069600Y-105608200D01*
X121069600Y-107259800D01*
G37*
G36*
X141343585Y-104744974D02*
G01*
X141489321Y-104805340D01*
X141620480Y-104892978D01*
X141732022Y-105004520D01*
X141796355Y-105100800D01*
X141819661Y-105135681D01*
X141880026Y-105281415D01*
X141910800Y-105436127D01*
X141910800Y-105593873D01*
X141880026Y-105748585D01*
X141846891Y-105828581D01*
X141819660Y-105894321D01*
X141732022Y-106025480D01*
X141620480Y-106137022D01*
X141489321Y-106224660D01*
X141489320Y-106224661D01*
X141489319Y-106224661D01*
X141343585Y-106285026D01*
X141188873Y-106315800D01*
X141031127Y-106315800D01*
X140876415Y-106285026D01*
X140730681Y-106224661D01*
X140730680Y-106224661D01*
X140730679Y-106224660D01*
X140599520Y-106137022D01*
X140487978Y-106025480D01*
X140400340Y-105894321D01*
X140373110Y-105828581D01*
X140339974Y-105748585D01*
X140309200Y-105593873D01*
X140309200Y-105436127D01*
X140339974Y-105281415D01*
X140400339Y-105135681D01*
X140423646Y-105100800D01*
X140487978Y-105004520D01*
X140599520Y-104892978D01*
X140730679Y-104805340D01*
X140876415Y-104744974D01*
X141031127Y-104714200D01*
X141188873Y-104714200D01*
X141343585Y-104744974D01*
G37*
G36*
X153125800Y-105100800D02*
G01*
X146874200Y-105100800D01*
X146874200Y-103399200D01*
X153125800Y-103399200D01*
X153125800Y-105100800D01*
G37*
G36*
X117763300Y-103461895D02*
G01*
X117763902Y-103474147D01*
X117766448Y-103500000D01*
X117763902Y-103525853D01*
X117763300Y-103538105D01*
X117763300Y-103611947D01*
X117750262Y-103639514D01*
X117716668Y-103750258D01*
X117656239Y-103863313D01*
X117574912Y-103962412D01*
X117475813Y-104043739D01*
X117362758Y-104104168D01*
X117362755Y-104104169D01*
X117240079Y-104141383D01*
X117192271Y-104146091D01*
X117144465Y-104150800D01*
X116380535Y-104150800D01*
X116332729Y-104146092D01*
X116284921Y-104141383D01*
X116162245Y-104104169D01*
X116162242Y-104104168D01*
X116049187Y-104043739D01*
X115950088Y-103962412D01*
X115868761Y-103863313D01*
X115808332Y-103750258D01*
X115774738Y-103639514D01*
X115765360Y-103616875D01*
X115761700Y-103611397D01*
X115761700Y-103538105D01*
X115761098Y-103525853D01*
X115758552Y-103500000D01*
X115761098Y-103474147D01*
X115761700Y-103461895D01*
X115761700Y-102249200D01*
X117763300Y-102249200D01*
X117763300Y-103461895D01*
G37*
G36*
X137712919Y-102253380D02*
G01*
X137747822Y-102263969D01*
X137779996Y-102281166D01*
X137808194Y-102304306D01*
X137831334Y-102332504D01*
X137848531Y-102364678D01*
X137859120Y-102399581D01*
X137863300Y-102442025D01*
X137863300Y-103907975D01*
X137859120Y-103950419D01*
X137848531Y-103985322D01*
X137831334Y-104017496D01*
X137808194Y-104045694D01*
X137779996Y-104068834D01*
X137747822Y-104086031D01*
X137712919Y-104096620D01*
X137670475Y-104100800D01*
X136529525Y-104100800D01*
X136487081Y-104096620D01*
X136452178Y-104086031D01*
X136420004Y-104068834D01*
X136391806Y-104045694D01*
X136368666Y-104017496D01*
X136351469Y-103985322D01*
X136340880Y-103950419D01*
X136336700Y-103907975D01*
X136336700Y-102442025D01*
X136340880Y-102399581D01*
X136351469Y-102364678D01*
X136368666Y-102332504D01*
X136391806Y-102304306D01*
X136420004Y-102281166D01*
X136452178Y-102263969D01*
X136487081Y-102253380D01*
X136529525Y-102249200D01*
X137670475Y-102249200D01*
X137712919Y-102253380D01*
G37*
G36*
X134737919Y-102253380D02*
G01*
X134772822Y-102263969D01*
X134804996Y-102281166D01*
X134833194Y-102304306D01*
X134856334Y-102332504D01*
X134873531Y-102364678D01*
X134884120Y-102399581D01*
X134888300Y-102442025D01*
X134888300Y-103907975D01*
X134884120Y-103950419D01*
X134873531Y-103985322D01*
X134856334Y-104017496D01*
X134833194Y-104045694D01*
X134804996Y-104068834D01*
X134772822Y-104086031D01*
X134737919Y-104096620D01*
X134695475Y-104100800D01*
X133554525Y-104100800D01*
X133512081Y-104096620D01*
X133477178Y-104086031D01*
X133445004Y-104068834D01*
X133416806Y-104045694D01*
X133393666Y-104017496D01*
X133376469Y-103985322D01*
X133365880Y-103950419D01*
X133361700Y-103907975D01*
X133361700Y-102442025D01*
X133365880Y-102399581D01*
X133376469Y-102364678D01*
X133393666Y-102332504D01*
X133416806Y-102304306D01*
X133445004Y-102281166D01*
X133477178Y-102263969D01*
X133512081Y-102253380D01*
X133554525Y-102249200D01*
X134695475Y-102249200D01*
X134737919Y-102253380D01*
G37*
G36*
X182082800Y-98272800D02*
G01*
X180345799Y-98272800D01*
X180321413Y-98275202D01*
X180297964Y-98282315D01*
X180276353Y-98293866D01*
X180257411Y-98309411D01*
X180241866Y-98328353D01*
X180230315Y-98349964D01*
X180223202Y-98373413D01*
X180220800Y-98397799D01*
X180220800Y-99062201D01*
X180223202Y-99086587D01*
X180230315Y-99110036D01*
X180241866Y-99131647D01*
X180257411Y-99150589D01*
X180276353Y-99166134D01*
X180297964Y-99177685D01*
X180321413Y-99184798D01*
X180345799Y-99187200D01*
X182082800Y-99187200D01*
X182082800Y-100812800D01*
X180345799Y-100812800D01*
X180321413Y-100815202D01*
X180297964Y-100822315D01*
X180276353Y-100833866D01*
X180257411Y-100849411D01*
X180241866Y-100868353D01*
X180230315Y-100889964D01*
X180223202Y-100913413D01*
X180220800Y-100937799D01*
X180220800Y-101602201D01*
X180223202Y-101626587D01*
X180230315Y-101650036D01*
X180241866Y-101671647D01*
X180257411Y-101690589D01*
X180276353Y-101706134D01*
X180297964Y-101717685D01*
X180321413Y-101724798D01*
X180345799Y-101727200D01*
X182082800Y-101727200D01*
X182082800Y-103352800D01*
X177917200Y-103352800D01*
X177917200Y-101622506D01*
X177919200Y-101602201D01*
X177919200Y-100937799D01*
X177917200Y-100917494D01*
X177917200Y-100631157D01*
X177914798Y-100606771D01*
X177907685Y-100583322D01*
X177896134Y-100561711D01*
X177880589Y-100542769D01*
X177861647Y-100527224D01*
X177840036Y-100515673D01*
X177816587Y-100508560D01*
X177792201Y-100506158D01*
X177767815Y-100508560D01*
X177744366Y-100515673D01*
X177710662Y-100529634D01*
X177604250Y-100550800D01*
X177495750Y-100550800D01*
X177389341Y-100529634D01*
X177389339Y-100529633D01*
X177389338Y-100529633D01*
X177289098Y-100488113D01*
X177198886Y-100427834D01*
X177122166Y-100351114D01*
X177061887Y-100260902D01*
X177020367Y-100160662D01*
X177003169Y-100074200D01*
X176999200Y-100054250D01*
X176999200Y-99945750D01*
X177020366Y-99839341D01*
X177036330Y-99800800D01*
X177061887Y-99739098D01*
X177122166Y-99648886D01*
X177198886Y-99572166D01*
X177289098Y-99511887D01*
X177389338Y-99470367D01*
X177389339Y-99470367D01*
X177389341Y-99470366D01*
X177495750Y-99449200D01*
X177604250Y-99449200D01*
X177710662Y-99470366D01*
X177744366Y-99484327D01*
X177767815Y-99491440D01*
X177792201Y-99493842D01*
X177816587Y-99491440D01*
X177840036Y-99484327D01*
X177861647Y-99472776D01*
X177880589Y-99457231D01*
X177896134Y-99438289D01*
X177907685Y-99416678D01*
X177914798Y-99393229D01*
X177917200Y-99368843D01*
X177917200Y-99082506D01*
X177919200Y-99062201D01*
X177919200Y-98397799D01*
X177917200Y-98377494D01*
X177917200Y-96647200D01*
X182082800Y-96647200D01*
X182082800Y-98272800D01*
G37*
G36*
X119613851Y-96739106D02*
G01*
X119688793Y-96754013D01*
X119730145Y-96771142D01*
X119829979Y-96812494D01*
X119957043Y-96897396D01*
X120065104Y-97005457D01*
X120150006Y-97132521D01*
X120208487Y-97273708D01*
X120238300Y-97423589D01*
X120238300Y-97576411D01*
X120208487Y-97726292D01*
X120150006Y-97867479D01*
X120065104Y-97994543D01*
X119957043Y-98102604D01*
X119829979Y-98187506D01*
X119778770Y-98208717D01*
X119757159Y-98220268D01*
X119738218Y-98235813D01*
X119722672Y-98254755D01*
X119711121Y-98276366D01*
X119704008Y-98299815D01*
X119701606Y-98324201D01*
X119704008Y-98348587D01*
X119711121Y-98372036D01*
X119722672Y-98393647D01*
X119738217Y-98412588D01*
X119757159Y-98428134D01*
X119778770Y-98439685D01*
X119802219Y-98446798D01*
X119826605Y-98449200D01*
X120188300Y-98449200D01*
X120188300Y-101550800D01*
X119826605Y-101550800D01*
X119802219Y-101553202D01*
X119778770Y-101560315D01*
X119757159Y-101571866D01*
X119738217Y-101587411D01*
X119722672Y-101606353D01*
X119711121Y-101627964D01*
X119704008Y-101651413D01*
X119701606Y-101675799D01*
X119704008Y-101700185D01*
X119711121Y-101723634D01*
X119722672Y-101745245D01*
X119738217Y-101764187D01*
X119757159Y-101779732D01*
X119778770Y-101791283D01*
X119829979Y-101812494D01*
X119957043Y-101897396D01*
X120065104Y-102005457D01*
X120150006Y-102132521D01*
X120191358Y-102232355D01*
X120208487Y-102273707D01*
X120220182Y-102332504D01*
X120238300Y-102423589D01*
X120238300Y-102576411D01*
X120208487Y-102726292D01*
X120150006Y-102867479D01*
X120065104Y-102994543D01*
X119957043Y-103102604D01*
X119829979Y-103187506D01*
X119730145Y-103228858D01*
X119688793Y-103245987D01*
X119613852Y-103260893D01*
X119538911Y-103275800D01*
X119386089Y-103275800D01*
X119311148Y-103260893D01*
X119236207Y-103245987D01*
X119194855Y-103228858D01*
X119095021Y-103187506D01*
X118967957Y-103102604D01*
X118859896Y-102994543D01*
X118774994Y-102867479D01*
X118716513Y-102726292D01*
X118686700Y-102576411D01*
X118686700Y-102423589D01*
X118704818Y-102332504D01*
X118716513Y-102273707D01*
X118733642Y-102232355D01*
X118774994Y-102132521D01*
X118859896Y-102005457D01*
X118967957Y-101897396D01*
X119095021Y-101812494D01*
X119146230Y-101791283D01*
X119167841Y-101779732D01*
X119186782Y-101764187D01*
X119202328Y-101745245D01*
X119213879Y-101723634D01*
X119220992Y-101700185D01*
X119223394Y-101675799D01*
X119220992Y-101651413D01*
X119213879Y-101627964D01*
X119202328Y-101606353D01*
X119186783Y-101587412D01*
X119167841Y-101571866D01*
X119146230Y-101560315D01*
X119122781Y-101553202D01*
X119098395Y-101550800D01*
X118736700Y-101550800D01*
X118736700Y-98449200D01*
X119098395Y-98449200D01*
X119122781Y-98446798D01*
X119146230Y-98439685D01*
X119167841Y-98428134D01*
X119186783Y-98412589D01*
X119202328Y-98393647D01*
X119213879Y-98372036D01*
X119220992Y-98348587D01*
X119223394Y-98324201D01*
X119220992Y-98299815D01*
X119213879Y-98276366D01*
X119202328Y-98254755D01*
X119186783Y-98235813D01*
X119167841Y-98220268D01*
X119146230Y-98208717D01*
X119095021Y-98187506D01*
X118967957Y-98102604D01*
X118859896Y-97994543D01*
X118774994Y-97867479D01*
X118716513Y-97726292D01*
X118686700Y-97576411D01*
X118686700Y-97423589D01*
X118716513Y-97273708D01*
X118774994Y-97132521D01*
X118859896Y-97005457D01*
X118967957Y-96897396D01*
X119095021Y-96812494D01*
X119194855Y-96771142D01*
X119236207Y-96754013D01*
X119311149Y-96739106D01*
X119386089Y-96724200D01*
X119538911Y-96724200D01*
X119613851Y-96739106D01*
G37*
G36*
X146600800Y-103125800D02*
G01*
X144899200Y-103125800D01*
X144899200Y-96874200D01*
X146600800Y-96874200D01*
X146600800Y-103125800D01*
G37*
G36*
X155100800Y-103125800D02*
G01*
X153399200Y-103125800D01*
X153399200Y-96874200D01*
X155100800Y-96874200D01*
X155100800Y-103125800D01*
G37*
G36*
X117763300Y-101800800D02*
G01*
X115761700Y-101800800D01*
X115761700Y-100199200D01*
X117763300Y-100199200D01*
X117763300Y-101800800D01*
G37*
G36*
X141343585Y-99864974D02*
G01*
X141489321Y-99925340D01*
X141519868Y-99945751D01*
X141620480Y-100012978D01*
X141732022Y-100124520D01*
X141819661Y-100255681D01*
X141880026Y-100401415D01*
X141910800Y-100556127D01*
X141910800Y-100713873D01*
X141891122Y-100812800D01*
X141880026Y-100868585D01*
X141819660Y-101014321D01*
X141732022Y-101145480D01*
X141620480Y-101257022D01*
X141489321Y-101344660D01*
X141489320Y-101344661D01*
X141489319Y-101344661D01*
X141343585Y-101405026D01*
X141188873Y-101435800D01*
X141031127Y-101435800D01*
X140876415Y-101405026D01*
X140730681Y-101344661D01*
X140730680Y-101344661D01*
X140730679Y-101344660D01*
X140599520Y-101257022D01*
X140487978Y-101145480D01*
X140400340Y-101014321D01*
X140339974Y-100868585D01*
X140328878Y-100812800D01*
X140309200Y-100713873D01*
X140309200Y-100556127D01*
X140339974Y-100401415D01*
X140400339Y-100255681D01*
X140487978Y-100124520D01*
X140599520Y-100012978D01*
X140700132Y-99945751D01*
X140730679Y-99925340D01*
X140876415Y-99864974D01*
X141031127Y-99834200D01*
X141188873Y-99834200D01*
X141343585Y-99864974D01*
G37*
G36*
X137658919Y-98824380D02*
G01*
X137693822Y-98834969D01*
X137725996Y-98852166D01*
X137754194Y-98875306D01*
X137777334Y-98903504D01*
X137794531Y-98935678D01*
X137805120Y-98970581D01*
X137809300Y-99013025D01*
X137809300Y-100478975D01*
X137805120Y-100521419D01*
X137794531Y-100556322D01*
X137777334Y-100588496D01*
X137754194Y-100616694D01*
X137725996Y-100639834D01*
X137693822Y-100657031D01*
X137658919Y-100667620D01*
X137616475Y-100671800D01*
X136475525Y-100671800D01*
X136433081Y-100667620D01*
X136398178Y-100657031D01*
X136366004Y-100639834D01*
X136337806Y-100616694D01*
X136314666Y-100588496D01*
X136297469Y-100556322D01*
X136286880Y-100521419D01*
X136282700Y-100478975D01*
X136282700Y-99013025D01*
X136286880Y-98970581D01*
X136297469Y-98935678D01*
X136314666Y-98903504D01*
X136337806Y-98875306D01*
X136366004Y-98852166D01*
X136398178Y-98834969D01*
X136433081Y-98824380D01*
X136475525Y-98820200D01*
X137616475Y-98820200D01*
X137658919Y-98824380D01*
G37*
G36*
X134683919Y-98824380D02*
G01*
X134718822Y-98834969D01*
X134750996Y-98852166D01*
X134779194Y-98875306D01*
X134802334Y-98903504D01*
X134819531Y-98935678D01*
X134830120Y-98970581D01*
X134834300Y-99013025D01*
X134834300Y-100478975D01*
X134830120Y-100521419D01*
X134819531Y-100556322D01*
X134802334Y-100588496D01*
X134779194Y-100616694D01*
X134750996Y-100639834D01*
X134718822Y-100657031D01*
X134683919Y-100667620D01*
X134641475Y-100671800D01*
X133500525Y-100671800D01*
X133458081Y-100667620D01*
X133423178Y-100657031D01*
X133391004Y-100639834D01*
X133362806Y-100616694D01*
X133339666Y-100588496D01*
X133322469Y-100556322D01*
X133311880Y-100521419D01*
X133307700Y-100478975D01*
X133307700Y-99013025D01*
X133311880Y-98970581D01*
X133322469Y-98935678D01*
X133339666Y-98903504D01*
X133362806Y-98875306D01*
X133391004Y-98852166D01*
X133423178Y-98834969D01*
X133458081Y-98824380D01*
X133500525Y-98820200D01*
X134641475Y-98820200D01*
X134683919Y-98824380D01*
G37*
G36*
X131562919Y-98824380D02*
G01*
X131597822Y-98834969D01*
X131629996Y-98852166D01*
X131658194Y-98875306D01*
X131681334Y-98903504D01*
X131698531Y-98935678D01*
X131709120Y-98970581D01*
X131713300Y-99013025D01*
X131713300Y-100478975D01*
X131709120Y-100521419D01*
X131698531Y-100556322D01*
X131681334Y-100588496D01*
X131658194Y-100616694D01*
X131629996Y-100639834D01*
X131597822Y-100657031D01*
X131562919Y-100667620D01*
X131520475Y-100671800D01*
X130379525Y-100671800D01*
X130337081Y-100667620D01*
X130302178Y-100657031D01*
X130270004Y-100639834D01*
X130241806Y-100616694D01*
X130218666Y-100588496D01*
X130201469Y-100556322D01*
X130190880Y-100521419D01*
X130186700Y-100478975D01*
X130186700Y-99013025D01*
X130190880Y-98970581D01*
X130201469Y-98935678D01*
X130218666Y-98903504D01*
X130241806Y-98875306D01*
X130270004Y-98852166D01*
X130302178Y-98834969D01*
X130337081Y-98824380D01*
X130379525Y-98820200D01*
X131520475Y-98820200D01*
X131562919Y-98824380D01*
G37*
G36*
X128587919Y-98824380D02*
G01*
X128622822Y-98834969D01*
X128654996Y-98852166D01*
X128683194Y-98875306D01*
X128706334Y-98903504D01*
X128723531Y-98935678D01*
X128734120Y-98970581D01*
X128738300Y-99013025D01*
X128738300Y-100478975D01*
X128734120Y-100521419D01*
X128723531Y-100556322D01*
X128706334Y-100588496D01*
X128683194Y-100616694D01*
X128654996Y-100639834D01*
X128622822Y-100657031D01*
X128587919Y-100667620D01*
X128545475Y-100671800D01*
X127404525Y-100671800D01*
X127362081Y-100667620D01*
X127327178Y-100657031D01*
X127295004Y-100639834D01*
X127266806Y-100616694D01*
X127243666Y-100588496D01*
X127226469Y-100556322D01*
X127215880Y-100521419D01*
X127211700Y-100478975D01*
X127211700Y-99013025D01*
X127215880Y-98970581D01*
X127226469Y-98935678D01*
X127243666Y-98903504D01*
X127266806Y-98875306D01*
X127295004Y-98852166D01*
X127327178Y-98834969D01*
X127362081Y-98824380D01*
X127404525Y-98820200D01*
X128545475Y-98820200D01*
X128587919Y-98824380D01*
G37*
G36*
X117763300Y-99800800D02*
G01*
X115761700Y-99800800D01*
X115761700Y-98199200D01*
X117763300Y-98199200D01*
X117763300Y-99800800D01*
G37*
G36*
X117192271Y-95853909D02*
G01*
X117240079Y-95858617D01*
X117362755Y-95895831D01*
X117362758Y-95895832D01*
X117475813Y-95956261D01*
X117574912Y-96037588D01*
X117656239Y-96136687D01*
X117716668Y-96249742D01*
X117750262Y-96360486D01*
X117759640Y-96383125D01*
X117763300Y-96388603D01*
X117763300Y-96461895D01*
X117763902Y-96474147D01*
X117766448Y-96500000D01*
X117763902Y-96525853D01*
X117763300Y-96538105D01*
X117763300Y-97750800D01*
X115761700Y-97750800D01*
X115761700Y-96538105D01*
X115761098Y-96525853D01*
X115758552Y-96500000D01*
X115761098Y-96474147D01*
X115761700Y-96461895D01*
X115761700Y-96388053D01*
X115774738Y-96360486D01*
X115808332Y-96249742D01*
X115868761Y-96136687D01*
X115950088Y-96037588D01*
X116049187Y-95956261D01*
X116162242Y-95895832D01*
X116162245Y-95895831D01*
X116284921Y-95858617D01*
X116332729Y-95853908D01*
X116380535Y-95849200D01*
X117144465Y-95849200D01*
X117192271Y-95853909D01*
G37*
G36*
X137735419Y-95268380D02*
G01*
X137770322Y-95278969D01*
X137802496Y-95296166D01*
X137830694Y-95319306D01*
X137853834Y-95347504D01*
X137871031Y-95379678D01*
X137881620Y-95414581D01*
X137885800Y-95457025D01*
X137885800Y-96922975D01*
X137881620Y-96965419D01*
X137871031Y-97000322D01*
X137853834Y-97032496D01*
X137830694Y-97060694D01*
X137802496Y-97083834D01*
X137770322Y-97101031D01*
X137735419Y-97111620D01*
X137692975Y-97115800D01*
X136552025Y-97115800D01*
X136509581Y-97111620D01*
X136474678Y-97101031D01*
X136442504Y-97083834D01*
X136414306Y-97060694D01*
X136391166Y-97032496D01*
X136373969Y-97000322D01*
X136363380Y-96965419D01*
X136359200Y-96922975D01*
X136359200Y-95457025D01*
X136363380Y-95414581D01*
X136373969Y-95379678D01*
X136391166Y-95347504D01*
X136414306Y-95319306D01*
X136442504Y-95296166D01*
X136474678Y-95278969D01*
X136509581Y-95268380D01*
X136552025Y-95264200D01*
X137692975Y-95264200D01*
X137735419Y-95268380D01*
G37*
G36*
X134760419Y-95268380D02*
G01*
X134795322Y-95278969D01*
X134827496Y-95296166D01*
X134855694Y-95319306D01*
X134878834Y-95347504D01*
X134896031Y-95379678D01*
X134906620Y-95414581D01*
X134910800Y-95457025D01*
X134910800Y-96922975D01*
X134906620Y-96965419D01*
X134896031Y-97000322D01*
X134878834Y-97032496D01*
X134855694Y-97060694D01*
X134827496Y-97083834D01*
X134795322Y-97101031D01*
X134760419Y-97111620D01*
X134717975Y-97115800D01*
X133577025Y-97115800D01*
X133534581Y-97111620D01*
X133499678Y-97101031D01*
X133467504Y-97083834D01*
X133439306Y-97060694D01*
X133416166Y-97032496D01*
X133398969Y-97000322D01*
X133388380Y-96965419D01*
X133384200Y-96922975D01*
X133384200Y-95457025D01*
X133388380Y-95414581D01*
X133398969Y-95379678D01*
X133416166Y-95347504D01*
X133439306Y-95319306D01*
X133467504Y-95296166D01*
X133499678Y-95278969D01*
X133534581Y-95268380D01*
X133577025Y-95264200D01*
X134717975Y-95264200D01*
X134760419Y-95268380D01*
G37*
G36*
X131562919Y-95268380D02*
G01*
X131597822Y-95278969D01*
X131629996Y-95296166D01*
X131658194Y-95319306D01*
X131681334Y-95347504D01*
X131698531Y-95379678D01*
X131709120Y-95414581D01*
X131713300Y-95457025D01*
X131713300Y-96922975D01*
X131709120Y-96965419D01*
X131698531Y-97000322D01*
X131681334Y-97032496D01*
X131658194Y-97060694D01*
X131629996Y-97083834D01*
X131597822Y-97101031D01*
X131562919Y-97111620D01*
X131520475Y-97115800D01*
X130379525Y-97115800D01*
X130337081Y-97111620D01*
X130302178Y-97101031D01*
X130270004Y-97083834D01*
X130241806Y-97060694D01*
X130218666Y-97032496D01*
X130201469Y-97000322D01*
X130190880Y-96965419D01*
X130186700Y-96922975D01*
X130186700Y-95457025D01*
X130190880Y-95414581D01*
X130201469Y-95379678D01*
X130218666Y-95347504D01*
X130241806Y-95319306D01*
X130270004Y-95296166D01*
X130302178Y-95278969D01*
X130337081Y-95268380D01*
X130379525Y-95264200D01*
X131520475Y-95264200D01*
X131562919Y-95268380D01*
G37*
G36*
X128587919Y-95268380D02*
G01*
X128622822Y-95278969D01*
X128654996Y-95296166D01*
X128683194Y-95319306D01*
X128706334Y-95347504D01*
X128723531Y-95379678D01*
X128734120Y-95414581D01*
X128738300Y-95457025D01*
X128738300Y-96922975D01*
X128734120Y-96965419D01*
X128723531Y-97000322D01*
X128706334Y-97032496D01*
X128683194Y-97060694D01*
X128654996Y-97083834D01*
X128622822Y-97101031D01*
X128587919Y-97111620D01*
X128545475Y-97115800D01*
X127404525Y-97115800D01*
X127362081Y-97111620D01*
X127327178Y-97101031D01*
X127295004Y-97083834D01*
X127266806Y-97060694D01*
X127243666Y-97032496D01*
X127226469Y-97000322D01*
X127215880Y-96965419D01*
X127211700Y-96922975D01*
X127211700Y-95457025D01*
X127215880Y-95414581D01*
X127226469Y-95379678D01*
X127243666Y-95347504D01*
X127266806Y-95319306D01*
X127295004Y-95296166D01*
X127327178Y-95278969D01*
X127362081Y-95268380D01*
X127404525Y-95264200D01*
X128545475Y-95264200D01*
X128587919Y-95268380D01*
G37*
G36*
X153125800Y-96600800D02*
G01*
X146874200Y-96600800D01*
X146874200Y-94899200D01*
X153125800Y-94899200D01*
X153125800Y-96600800D01*
G37*
G36*
X126014619Y-92042580D02*
G01*
X126049522Y-92053169D01*
X126081696Y-92070366D01*
X126109894Y-92093506D01*
X126133034Y-92121704D01*
X126150231Y-92153878D01*
X126160820Y-92188781D01*
X126165000Y-92231225D01*
X126165000Y-93697175D01*
X126160820Y-93739619D01*
X126150231Y-93774522D01*
X126133034Y-93806696D01*
X126109894Y-93834894D01*
X126081696Y-93858034D01*
X126049522Y-93875231D01*
X126014619Y-93885820D01*
X125972175Y-93890000D01*
X124831225Y-93890000D01*
X124788781Y-93885820D01*
X124753878Y-93875231D01*
X124721704Y-93858034D01*
X124693506Y-93834894D01*
X124670366Y-93806696D01*
X124653169Y-93774522D01*
X124642580Y-93739619D01*
X124638400Y-93697175D01*
X124638400Y-92231225D01*
X124642580Y-92188781D01*
X124653169Y-92153878D01*
X124670366Y-92121704D01*
X124693506Y-92093506D01*
X124721704Y-92070366D01*
X124753878Y-92053169D01*
X124788781Y-92042580D01*
X124831225Y-92038400D01*
X125972175Y-92038400D01*
X126014619Y-92042580D01*
G37*
G36*
X123039619Y-92042580D02*
G01*
X123074522Y-92053169D01*
X123106696Y-92070366D01*
X123134894Y-92093506D01*
X123158034Y-92121704D01*
X123175231Y-92153878D01*
X123185820Y-92188781D01*
X123190000Y-92231225D01*
X123190000Y-93697175D01*
X123185820Y-93739619D01*
X123175231Y-93774522D01*
X123158034Y-93806696D01*
X123134894Y-93834894D01*
X123106696Y-93858034D01*
X123074522Y-93875231D01*
X123039619Y-93885820D01*
X122997175Y-93890000D01*
X121856225Y-93890000D01*
X121813781Y-93885820D01*
X121778878Y-93875231D01*
X121746704Y-93858034D01*
X121718506Y-93834894D01*
X121695366Y-93806696D01*
X121678169Y-93774522D01*
X121667580Y-93739619D01*
X121663400Y-93697175D01*
X121663400Y-92231225D01*
X121667580Y-92188781D01*
X121678169Y-92153878D01*
X121695366Y-92121704D01*
X121718506Y-92093506D01*
X121746704Y-92070366D01*
X121778878Y-92053169D01*
X121813781Y-92042580D01*
X121856225Y-92038400D01*
X122997175Y-92038400D01*
X123039619Y-92042580D01*
G37*
G36*
X134937919Y-91966380D02*
G01*
X134972822Y-91976969D01*
X135004996Y-91994166D01*
X135033194Y-92017306D01*
X135056334Y-92045504D01*
X135073531Y-92077678D01*
X135084120Y-92112581D01*
X135088300Y-92155025D01*
X135088300Y-93620975D01*
X135084120Y-93663419D01*
X135073531Y-93698322D01*
X135056334Y-93730496D01*
X135033194Y-93758694D01*
X135004996Y-93781834D01*
X134972822Y-93799031D01*
X134937919Y-93809620D01*
X134895475Y-93813800D01*
X133754525Y-93813800D01*
X133712081Y-93809620D01*
X133677178Y-93799031D01*
X133645004Y-93781834D01*
X133616806Y-93758694D01*
X133593666Y-93730496D01*
X133576469Y-93698322D01*
X133565880Y-93663419D01*
X133561700Y-93620975D01*
X133561700Y-92155025D01*
X133565880Y-92112581D01*
X133576469Y-92077678D01*
X133593666Y-92045504D01*
X133616806Y-92017306D01*
X133645004Y-91994166D01*
X133677178Y-91976969D01*
X133712081Y-91966380D01*
X133754525Y-91962200D01*
X134895475Y-91962200D01*
X134937919Y-91966380D01*
G37*
G36*
X137912919Y-91966380D02*
G01*
X137947822Y-91976969D01*
X137979996Y-91994166D01*
X138008194Y-92017306D01*
X138031334Y-92045504D01*
X138048531Y-92077678D01*
X138059120Y-92112581D01*
X138063300Y-92155025D01*
X138063300Y-93620975D01*
X138059120Y-93663419D01*
X138048531Y-93698322D01*
X138031334Y-93730496D01*
X138008194Y-93758694D01*
X137979996Y-93781834D01*
X137947822Y-93799031D01*
X137912919Y-93809620D01*
X137870475Y-93813800D01*
X136729525Y-93813800D01*
X136687081Y-93809620D01*
X136652178Y-93799031D01*
X136620004Y-93781834D01*
X136591806Y-93758694D01*
X136568666Y-93730496D01*
X136551469Y-93698322D01*
X136540880Y-93663419D01*
X136536700Y-93620975D01*
X136536700Y-92155025D01*
X136540880Y-92112581D01*
X136551469Y-92077678D01*
X136568666Y-92045504D01*
X136591806Y-92017306D01*
X136620004Y-91994166D01*
X136652178Y-91976969D01*
X136687081Y-91966380D01*
X136729525Y-91962200D01*
X137870475Y-91962200D01*
X137912919Y-91966380D01*
G37*
G36*
X166650800Y-93300800D02*
G01*
X165349200Y-93300800D01*
X165349200Y-90699200D01*
X166650800Y-90699200D01*
X166650800Y-93300800D01*
G37*
G36*
X160650800Y-93300800D02*
G01*
X159349200Y-93300800D01*
X159349200Y-90699200D01*
X160650800Y-90699200D01*
X160650800Y-93300800D01*
G37*
G36*
X162650800Y-93300800D02*
G01*
X161349200Y-93300800D01*
X161349200Y-90699200D01*
X162650800Y-90699200D01*
X162650800Y-93300800D01*
G37*
G36*
X170650800Y-93300800D02*
G01*
X169349200Y-93300800D01*
X169349200Y-90699200D01*
X170650800Y-90699200D01*
X170650800Y-93300800D01*
G37*
G36*
X172650800Y-93300800D02*
G01*
X171349200Y-93300800D01*
X171349200Y-90699200D01*
X172650800Y-90699200D01*
X172650800Y-93300800D01*
G37*
G36*
X168650800Y-93300800D02*
G01*
X167349200Y-93300800D01*
X167349200Y-90699200D01*
X168650800Y-90699200D01*
X168650800Y-93300800D01*
G37*
G36*
X164650800Y-93300800D02*
G01*
X163349200Y-93300800D01*
X163349200Y-90699200D01*
X164650800Y-90699200D01*
X164650800Y-93300800D01*
G37*
G36*
X174650800Y-93300800D02*
G01*
X173349200Y-93300800D01*
X173349200Y-90699200D01*
X174650800Y-90699200D01*
X174650800Y-93300800D01*
G37*
G36*
X129439419Y-91547880D02*
G01*
X129474322Y-91558469D01*
X129506496Y-91575666D01*
X129534694Y-91598806D01*
X129557834Y-91627004D01*
X129575031Y-91659178D01*
X129585620Y-91694081D01*
X129589800Y-91736525D01*
X129589800Y-92877475D01*
X129585620Y-92919919D01*
X129575031Y-92954822D01*
X129557834Y-92986996D01*
X129534694Y-93015194D01*
X129506496Y-93038334D01*
X129474322Y-93055531D01*
X129439419Y-93066120D01*
X129396975Y-93070300D01*
X127931025Y-93070300D01*
X127888581Y-93066120D01*
X127853678Y-93055531D01*
X127821504Y-93038334D01*
X127793306Y-93015194D01*
X127770166Y-92986996D01*
X127752969Y-92954822D01*
X127742380Y-92919919D01*
X127738200Y-92877475D01*
X127738200Y-91736525D01*
X127742380Y-91694081D01*
X127752969Y-91659178D01*
X127770166Y-91627004D01*
X127793306Y-91598806D01*
X127821504Y-91575666D01*
X127853678Y-91558469D01*
X127888581Y-91547880D01*
X127931025Y-91543700D01*
X129396975Y-91543700D01*
X129439419Y-91547880D01*
G37*
G36*
X123398800Y-90121800D02*
G01*
X121737200Y-90121800D01*
X121737200Y-87470200D01*
X123398800Y-87470200D01*
X123398800Y-90121800D01*
G37*
G36*
X126098800Y-90121800D02*
G01*
X124437200Y-90121800D01*
X124437200Y-89370200D01*
X126098800Y-89370200D01*
X126098800Y-90121800D01*
G37*
G36*
X129439419Y-88572880D02*
G01*
X129474322Y-88583469D01*
X129506496Y-88600666D01*
X129534694Y-88623806D01*
X129557834Y-88652004D01*
X129575031Y-88684178D01*
X129585620Y-88719081D01*
X129589800Y-88761525D01*
X129589800Y-89902475D01*
X129585620Y-89944919D01*
X129575031Y-89979822D01*
X129557834Y-90011996D01*
X129534694Y-90040194D01*
X129506496Y-90063334D01*
X129474322Y-90080531D01*
X129439419Y-90091120D01*
X129396975Y-90095300D01*
X127931025Y-90095300D01*
X127888581Y-90091120D01*
X127853678Y-90080531D01*
X127821504Y-90063334D01*
X127793306Y-90040194D01*
X127770166Y-90011996D01*
X127752969Y-89979822D01*
X127742380Y-89944919D01*
X127738200Y-89902475D01*
X127738200Y-88761525D01*
X127742380Y-88719081D01*
X127752969Y-88684178D01*
X127770166Y-88652004D01*
X127793306Y-88623806D01*
X127821504Y-88600666D01*
X127853678Y-88583469D01*
X127888581Y-88572880D01*
X127931025Y-88568700D01*
X129396975Y-88568700D01*
X129439419Y-88572880D01*
G37*
G36*
X168465919Y-86886380D02*
G01*
X168500822Y-86896969D01*
X168532996Y-86914166D01*
X168561194Y-86937306D01*
X168584334Y-86965504D01*
X168601531Y-86997678D01*
X168612120Y-87032581D01*
X168616300Y-87075025D01*
X168616300Y-88540975D01*
X168612120Y-88583419D01*
X168601531Y-88618322D01*
X168584334Y-88650496D01*
X168561194Y-88678694D01*
X168532996Y-88701834D01*
X168500822Y-88719031D01*
X168465919Y-88729620D01*
X168423475Y-88733800D01*
X167282525Y-88733800D01*
X167240081Y-88729620D01*
X167205178Y-88719031D01*
X167173004Y-88701834D01*
X167144806Y-88678694D01*
X167121666Y-88650496D01*
X167104469Y-88618322D01*
X167093880Y-88583419D01*
X167089700Y-88540975D01*
X167089700Y-87075025D01*
X167093880Y-87032581D01*
X167104469Y-86997678D01*
X167121666Y-86965504D01*
X167144806Y-86937306D01*
X167173004Y-86914166D01*
X167205178Y-86896969D01*
X167240081Y-86886380D01*
X167282525Y-86882200D01*
X168423475Y-86882200D01*
X168465919Y-86886380D01*
G37*
G36*
X171440919Y-86886380D02*
G01*
X171475822Y-86896969D01*
X171507996Y-86914166D01*
X171536194Y-86937306D01*
X171559334Y-86965504D01*
X171576531Y-86997678D01*
X171587120Y-87032581D01*
X171591300Y-87075025D01*
X171591300Y-88540975D01*
X171587120Y-88583419D01*
X171576531Y-88618322D01*
X171559334Y-88650496D01*
X171536194Y-88678694D01*
X171507996Y-88701834D01*
X171475822Y-88719031D01*
X171440919Y-88729620D01*
X171398475Y-88733800D01*
X170257525Y-88733800D01*
X170215081Y-88729620D01*
X170180178Y-88719031D01*
X170148004Y-88701834D01*
X170119806Y-88678694D01*
X170096666Y-88650496D01*
X170079469Y-88618322D01*
X170068880Y-88583419D01*
X170064700Y-88540975D01*
X170064700Y-87075025D01*
X170068880Y-87032581D01*
X170079469Y-86997678D01*
X170096666Y-86965504D01*
X170119806Y-86937306D01*
X170148004Y-86914166D01*
X170180178Y-86896969D01*
X170215081Y-86886380D01*
X170257525Y-86882200D01*
X171398475Y-86882200D01*
X171440919Y-86886380D01*
G37*
G36*
X126098800Y-88221800D02*
G01*
X124437200Y-88221800D01*
X124437200Y-87470200D01*
X126098800Y-87470200D01*
X126098800Y-88221800D01*
G37*
G36*
X138729132Y-83570739D02*
G01*
X138845154Y-83593817D01*
X139009089Y-83661721D01*
X139156627Y-83760303D01*
X139282097Y-83885773D01*
X139380679Y-84033311D01*
X139448583Y-84197246D01*
X139483200Y-84371279D01*
X139483200Y-84548721D01*
X139448583Y-84722754D01*
X139380679Y-84886689D01*
X139282097Y-85034227D01*
X139156627Y-85159697D01*
X139009089Y-85258279D01*
X138845154Y-85326183D01*
X138729132Y-85349261D01*
X138671122Y-85360800D01*
X138493678Y-85360800D01*
X138435668Y-85349261D01*
X138319646Y-85326183D01*
X138155711Y-85258279D01*
X138008173Y-85159697D01*
X137882703Y-85034227D01*
X137784121Y-84886689D01*
X137716217Y-84722754D01*
X137681600Y-84548721D01*
X137681600Y-84371279D01*
X137716217Y-84197246D01*
X137784121Y-84033311D01*
X137882703Y-83885773D01*
X138008173Y-83760303D01*
X138155711Y-83661721D01*
X138319646Y-83593817D01*
X138435668Y-83570739D01*
X138493678Y-83559200D01*
X138671122Y-83559200D01*
X138729132Y-83570739D01*
G37*
G36*
X131109132Y-83570739D02*
G01*
X131225154Y-83593817D01*
X131389089Y-83661721D01*
X131536627Y-83760303D01*
X131662097Y-83885773D01*
X131760679Y-84033311D01*
X131828583Y-84197246D01*
X131863200Y-84371279D01*
X131863200Y-84548721D01*
X131828583Y-84722754D01*
X131760679Y-84886689D01*
X131662097Y-85034227D01*
X131536627Y-85159697D01*
X131389089Y-85258279D01*
X131225154Y-85326183D01*
X131109132Y-85349261D01*
X131051122Y-85360800D01*
X130873678Y-85360800D01*
X130815668Y-85349261D01*
X130699646Y-85326183D01*
X130535711Y-85258279D01*
X130388173Y-85159697D01*
X130262703Y-85034227D01*
X130164121Y-84886689D01*
X130096217Y-84722754D01*
X130061600Y-84548721D01*
X130061600Y-84371279D01*
X130096217Y-84197246D01*
X130164121Y-84033311D01*
X130262703Y-83885773D01*
X130388173Y-83760303D01*
X130535711Y-83661721D01*
X130699646Y-83593817D01*
X130815668Y-83570739D01*
X130873678Y-83559200D01*
X131051122Y-83559200D01*
X131109132Y-83570739D01*
G37*
G36*
X128569132Y-83570739D02*
G01*
X128685154Y-83593817D01*
X128849089Y-83661721D01*
X128996627Y-83760303D01*
X129122097Y-83885773D01*
X129220679Y-84033311D01*
X129288583Y-84197246D01*
X129323200Y-84371279D01*
X129323200Y-84548721D01*
X129288583Y-84722754D01*
X129220679Y-84886689D01*
X129122097Y-85034227D01*
X128996627Y-85159697D01*
X128849089Y-85258279D01*
X128685154Y-85326183D01*
X128569132Y-85349261D01*
X128511122Y-85360800D01*
X128333678Y-85360800D01*
X128275668Y-85349261D01*
X128159646Y-85326183D01*
X127995711Y-85258279D01*
X127848173Y-85159697D01*
X127722703Y-85034227D01*
X127624121Y-84886689D01*
X127556217Y-84722754D01*
X127521600Y-84548721D01*
X127521600Y-84371279D01*
X127556217Y-84197246D01*
X127624121Y-84033311D01*
X127722703Y-83885773D01*
X127848173Y-83760303D01*
X127995711Y-83661721D01*
X128159646Y-83593817D01*
X128275668Y-83570739D01*
X128333678Y-83559200D01*
X128511122Y-83559200D01*
X128569132Y-83570739D01*
G37*
G36*
X136189132Y-83570739D02*
G01*
X136305154Y-83593817D01*
X136469089Y-83661721D01*
X136616627Y-83760303D01*
X136742097Y-83885773D01*
X136840679Y-84033311D01*
X136908583Y-84197246D01*
X136943200Y-84371279D01*
X136943200Y-84548721D01*
X136908583Y-84722754D01*
X136840679Y-84886689D01*
X136742097Y-85034227D01*
X136616627Y-85159697D01*
X136469089Y-85258279D01*
X136305154Y-85326183D01*
X136189132Y-85349261D01*
X136131122Y-85360800D01*
X135953678Y-85360800D01*
X135895668Y-85349261D01*
X135779646Y-85326183D01*
X135615711Y-85258279D01*
X135468173Y-85159697D01*
X135342703Y-85034227D01*
X135244121Y-84886689D01*
X135176217Y-84722754D01*
X135141600Y-84548721D01*
X135141600Y-84371279D01*
X135176217Y-84197246D01*
X135244121Y-84033311D01*
X135342703Y-83885773D01*
X135468173Y-83760303D01*
X135615711Y-83661721D01*
X135779646Y-83593817D01*
X135895668Y-83570739D01*
X135953678Y-83559200D01*
X136131122Y-83559200D01*
X136189132Y-83570739D01*
G37*
G36*
X141269132Y-83570739D02*
G01*
X141385154Y-83593817D01*
X141549089Y-83661721D01*
X141696627Y-83760303D01*
X141822097Y-83885773D01*
X141920679Y-84033311D01*
X141988583Y-84197246D01*
X142023200Y-84371279D01*
X142023200Y-84548721D01*
X141988583Y-84722754D01*
X141920679Y-84886689D01*
X141822097Y-85034227D01*
X141696627Y-85159697D01*
X141549089Y-85258279D01*
X141385154Y-85326183D01*
X141269132Y-85349261D01*
X141211122Y-85360800D01*
X141033678Y-85360800D01*
X140975668Y-85349261D01*
X140859646Y-85326183D01*
X140695711Y-85258279D01*
X140548173Y-85159697D01*
X140422703Y-85034227D01*
X140324121Y-84886689D01*
X140256217Y-84722754D01*
X140221600Y-84548721D01*
X140221600Y-84371279D01*
X140256217Y-84197246D01*
X140324121Y-84033311D01*
X140422703Y-83885773D01*
X140548173Y-83760303D01*
X140695711Y-83661721D01*
X140859646Y-83593817D01*
X140975668Y-83570739D01*
X141033678Y-83559200D01*
X141211122Y-83559200D01*
X141269132Y-83570739D01*
G37*
G36*
X143809132Y-83570739D02*
G01*
X143925154Y-83593817D01*
X144089089Y-83661721D01*
X144236627Y-83760303D01*
X144362097Y-83885773D01*
X144460679Y-84033311D01*
X144528583Y-84197246D01*
X144563200Y-84371279D01*
X144563200Y-84548721D01*
X144528583Y-84722754D01*
X144460679Y-84886689D01*
X144362097Y-85034227D01*
X144236627Y-85159697D01*
X144089089Y-85258279D01*
X143925154Y-85326183D01*
X143809132Y-85349261D01*
X143751122Y-85360800D01*
X143573678Y-85360800D01*
X143515668Y-85349261D01*
X143399646Y-85326183D01*
X143235711Y-85258279D01*
X143088173Y-85159697D01*
X142962703Y-85034227D01*
X142864121Y-84886689D01*
X142796217Y-84722754D01*
X142761600Y-84548721D01*
X142761600Y-84371279D01*
X142796217Y-84197246D01*
X142864121Y-84033311D01*
X142962703Y-83885773D01*
X143088173Y-83760303D01*
X143235711Y-83661721D01*
X143399646Y-83593817D01*
X143515668Y-83570739D01*
X143573678Y-83559200D01*
X143751122Y-83559200D01*
X143809132Y-83570739D01*
G37*
G36*
X148889132Y-83570739D02*
G01*
X149005154Y-83593817D01*
X149169089Y-83661721D01*
X149316627Y-83760303D01*
X149442097Y-83885773D01*
X149540679Y-84033311D01*
X149608583Y-84197246D01*
X149643200Y-84371279D01*
X149643200Y-84548721D01*
X149608583Y-84722754D01*
X149540679Y-84886689D01*
X149442097Y-85034227D01*
X149316627Y-85159697D01*
X149169089Y-85258279D01*
X149005154Y-85326183D01*
X148889132Y-85349261D01*
X148831122Y-85360800D01*
X148653678Y-85360800D01*
X148595668Y-85349261D01*
X148479646Y-85326183D01*
X148315711Y-85258279D01*
X148168173Y-85159697D01*
X148042703Y-85034227D01*
X147944121Y-84886689D01*
X147876217Y-84722754D01*
X147841600Y-84548721D01*
X147841600Y-84371279D01*
X147876217Y-84197246D01*
X147944121Y-84033311D01*
X148042703Y-83885773D01*
X148168173Y-83760303D01*
X148315711Y-83661721D01*
X148479646Y-83593817D01*
X148595668Y-83570739D01*
X148653678Y-83559200D01*
X148831122Y-83559200D01*
X148889132Y-83570739D01*
G37*
G36*
X151429132Y-83570739D02*
G01*
X151545154Y-83593817D01*
X151709089Y-83661721D01*
X151856627Y-83760303D01*
X151982097Y-83885773D01*
X152080679Y-84033311D01*
X152148583Y-84197246D01*
X152183200Y-84371279D01*
X152183200Y-84548721D01*
X152148583Y-84722754D01*
X152080679Y-84886689D01*
X151982097Y-85034227D01*
X151856627Y-85159697D01*
X151709089Y-85258279D01*
X151545154Y-85326183D01*
X151429132Y-85349261D01*
X151371122Y-85360800D01*
X151193678Y-85360800D01*
X151135668Y-85349261D01*
X151019646Y-85326183D01*
X150855711Y-85258279D01*
X150708173Y-85159697D01*
X150582703Y-85034227D01*
X150484121Y-84886689D01*
X150416217Y-84722754D01*
X150381600Y-84548721D01*
X150381600Y-84371279D01*
X150416217Y-84197246D01*
X150484121Y-84033311D01*
X150582703Y-83885773D01*
X150708173Y-83760303D01*
X150855711Y-83661721D01*
X151019646Y-83593817D01*
X151135668Y-83570739D01*
X151193678Y-83559200D01*
X151371122Y-83559200D01*
X151429132Y-83570739D01*
G37*
G36*
X153969132Y-83570739D02*
G01*
X154085154Y-83593817D01*
X154249089Y-83661721D01*
X154396627Y-83760303D01*
X154522097Y-83885773D01*
X154620679Y-84033311D01*
X154688583Y-84197246D01*
X154723200Y-84371279D01*
X154723200Y-84548721D01*
X154688583Y-84722754D01*
X154620679Y-84886689D01*
X154522097Y-85034227D01*
X154396627Y-85159697D01*
X154249089Y-85258279D01*
X154085154Y-85326183D01*
X153969132Y-85349261D01*
X153911122Y-85360800D01*
X153733678Y-85360800D01*
X153675668Y-85349261D01*
X153559646Y-85326183D01*
X153395711Y-85258279D01*
X153248173Y-85159697D01*
X153122703Y-85034227D01*
X153024121Y-84886689D01*
X152956217Y-84722754D01*
X152921600Y-84548721D01*
X152921600Y-84371279D01*
X152956217Y-84197246D01*
X153024121Y-84033311D01*
X153122703Y-83885773D01*
X153248173Y-83760303D01*
X153395711Y-83661721D01*
X153559646Y-83593817D01*
X153675668Y-83570739D01*
X153733678Y-83559200D01*
X153911122Y-83559200D01*
X153969132Y-83570739D01*
G37*
G36*
X156509132Y-83570739D02*
G01*
X156625154Y-83593817D01*
X156789089Y-83661721D01*
X156936627Y-83760303D01*
X157062097Y-83885773D01*
X157160679Y-84033311D01*
X157228583Y-84197246D01*
X157263200Y-84371279D01*
X157263200Y-84548721D01*
X157228583Y-84722754D01*
X157160679Y-84886689D01*
X157062097Y-85034227D01*
X156936627Y-85159697D01*
X156789089Y-85258279D01*
X156625154Y-85326183D01*
X156509132Y-85349261D01*
X156451122Y-85360800D01*
X156273678Y-85360800D01*
X156215668Y-85349261D01*
X156099646Y-85326183D01*
X155935711Y-85258279D01*
X155788173Y-85159697D01*
X155662703Y-85034227D01*
X155564121Y-84886689D01*
X155496217Y-84722754D01*
X155461600Y-84548721D01*
X155461600Y-84371279D01*
X155496217Y-84197246D01*
X155564121Y-84033311D01*
X155662703Y-83885773D01*
X155788173Y-83760303D01*
X155935711Y-83661721D01*
X156099646Y-83593817D01*
X156215668Y-83570739D01*
X156273678Y-83559200D01*
X156451122Y-83559200D01*
X156509132Y-83570739D01*
G37*
G36*
X133649132Y-83570739D02*
G01*
X133765154Y-83593817D01*
X133929089Y-83661721D01*
X134076627Y-83760303D01*
X134202097Y-83885773D01*
X134300679Y-84033311D01*
X134368583Y-84197246D01*
X134403200Y-84371279D01*
X134403200Y-84548721D01*
X134368583Y-84722754D01*
X134300679Y-84886689D01*
X134202097Y-85034227D01*
X134076627Y-85159697D01*
X133929089Y-85258279D01*
X133765154Y-85326183D01*
X133649132Y-85349261D01*
X133591122Y-85360800D01*
X133413678Y-85360800D01*
X133355668Y-85349261D01*
X133239646Y-85326183D01*
X133075711Y-85258279D01*
X132928173Y-85159697D01*
X132802703Y-85034227D01*
X132704121Y-84886689D01*
X132636217Y-84722754D01*
X132601600Y-84548721D01*
X132601600Y-84371279D01*
X132636217Y-84197246D01*
X132704121Y-84033311D01*
X132802703Y-83885773D01*
X132928173Y-83760303D01*
X133075711Y-83661721D01*
X133239646Y-83593817D01*
X133355668Y-83570739D01*
X133413678Y-83559200D01*
X133591122Y-83559200D01*
X133649132Y-83570739D01*
G37*
G36*
X159803200Y-85360800D02*
G01*
X158001600Y-85360800D01*
X158001600Y-83559200D01*
X159803200Y-83559200D01*
X159803200Y-85360800D01*
G37*
G36*
X146349132Y-83570739D02*
G01*
X146465154Y-83593817D01*
X146629089Y-83661721D01*
X146776627Y-83760303D01*
X146902097Y-83885773D01*
X147000679Y-84033311D01*
X147068583Y-84197246D01*
X147103200Y-84371279D01*
X147103200Y-84548721D01*
X147068583Y-84722754D01*
X147000679Y-84886689D01*
X146902097Y-85034227D01*
X146776627Y-85159697D01*
X146629089Y-85258279D01*
X146465154Y-85326183D01*
X146349132Y-85349261D01*
X146291122Y-85360800D01*
X146113678Y-85360800D01*
X146055668Y-85349261D01*
X145939646Y-85326183D01*
X145775711Y-85258279D01*
X145628173Y-85159697D01*
X145502703Y-85034227D01*
X145404121Y-84886689D01*
X145336217Y-84722754D01*
X145301600Y-84548721D01*
X145301600Y-84371279D01*
X145336217Y-84197246D01*
X145404121Y-84033311D01*
X145502703Y-83885773D01*
X145628173Y-83760303D01*
X145775711Y-83661721D01*
X145939646Y-83593817D01*
X146055668Y-83570739D01*
X146113678Y-83559200D01*
X146291122Y-83559200D01*
X146349132Y-83570739D01*
G37*
G36*
X171711332Y-83565939D02*
G01*
X171827354Y-83589017D01*
X171991289Y-83656921D01*
X172138827Y-83755503D01*
X172264297Y-83880973D01*
X172362879Y-84028511D01*
X172430783Y-84192446D01*
X172465400Y-84366479D01*
X172465400Y-84543921D01*
X172430783Y-84717954D01*
X172362879Y-84881889D01*
X172264297Y-85029427D01*
X172138827Y-85154897D01*
X171991289Y-85253479D01*
X171827354Y-85321383D01*
X171711332Y-85344461D01*
X171653322Y-85356000D01*
X171475878Y-85356000D01*
X171417868Y-85344461D01*
X171301846Y-85321383D01*
X171137911Y-85253479D01*
X170990373Y-85154897D01*
X170864903Y-85029427D01*
X170766321Y-84881889D01*
X170698417Y-84717954D01*
X170663800Y-84543921D01*
X170663800Y-84366479D01*
X170698417Y-84192446D01*
X170766321Y-84028511D01*
X170864903Y-83880973D01*
X170990373Y-83755503D01*
X171137911Y-83656921D01*
X171301846Y-83589017D01*
X171417868Y-83565939D01*
X171475878Y-83554400D01*
X171653322Y-83554400D01*
X171711332Y-83565939D01*
G37*
G36*
X174251332Y-83565939D02*
G01*
X174367354Y-83589017D01*
X174531289Y-83656921D01*
X174678827Y-83755503D01*
X174804297Y-83880973D01*
X174902879Y-84028511D01*
X174970783Y-84192446D01*
X175005400Y-84366479D01*
X175005400Y-84543921D01*
X174970783Y-84717954D01*
X174902879Y-84881889D01*
X174804297Y-85029427D01*
X174678827Y-85154897D01*
X174531289Y-85253479D01*
X174367354Y-85321383D01*
X174251332Y-85344461D01*
X174193322Y-85356000D01*
X174015878Y-85356000D01*
X173957868Y-85344461D01*
X173841846Y-85321383D01*
X173677911Y-85253479D01*
X173530373Y-85154897D01*
X173404903Y-85029427D01*
X173306321Y-84881889D01*
X173238417Y-84717954D01*
X173203800Y-84543921D01*
X173203800Y-84366479D01*
X173238417Y-84192446D01*
X173306321Y-84028511D01*
X173404903Y-83880973D01*
X173530373Y-83755503D01*
X173677911Y-83656921D01*
X173841846Y-83589017D01*
X173957868Y-83565939D01*
X174015878Y-83554400D01*
X174193322Y-83554400D01*
X174251332Y-83565939D01*
G37*
G36*
X169171332Y-83565939D02*
G01*
X169287354Y-83589017D01*
X169451289Y-83656921D01*
X169598827Y-83755503D01*
X169724297Y-83880973D01*
X169822879Y-84028511D01*
X169890783Y-84192446D01*
X169925400Y-84366479D01*
X169925400Y-84543921D01*
X169890783Y-84717954D01*
X169822879Y-84881889D01*
X169724297Y-85029427D01*
X169598827Y-85154897D01*
X169451289Y-85253479D01*
X169287354Y-85321383D01*
X169171332Y-85344461D01*
X169113322Y-85356000D01*
X168935878Y-85356000D01*
X168877868Y-85344461D01*
X168761846Y-85321383D01*
X168597911Y-85253479D01*
X168450373Y-85154897D01*
X168324903Y-85029427D01*
X168226321Y-84881889D01*
X168158417Y-84717954D01*
X168123800Y-84543921D01*
X168123800Y-84366479D01*
X168158417Y-84192446D01*
X168226321Y-84028511D01*
X168324903Y-83880973D01*
X168450373Y-83755503D01*
X168597911Y-83656921D01*
X168761846Y-83589017D01*
X168877868Y-83565939D01*
X168935878Y-83554400D01*
X169113322Y-83554400D01*
X169171332Y-83565939D01*
G37*
G36*
X166631332Y-83565939D02*
G01*
X166747354Y-83589017D01*
X166911289Y-83656921D01*
X167058827Y-83755503D01*
X167184297Y-83880973D01*
X167282879Y-84028511D01*
X167350783Y-84192446D01*
X167385400Y-84366479D01*
X167385400Y-84543921D01*
X167350783Y-84717954D01*
X167282879Y-84881889D01*
X167184297Y-85029427D01*
X167058827Y-85154897D01*
X166911289Y-85253479D01*
X166747354Y-85321383D01*
X166631332Y-85344461D01*
X166573322Y-85356000D01*
X166395878Y-85356000D01*
X166337868Y-85344461D01*
X166221846Y-85321383D01*
X166057911Y-85253479D01*
X165910373Y-85154897D01*
X165784903Y-85029427D01*
X165686321Y-84881889D01*
X165618417Y-84717954D01*
X165583800Y-84543921D01*
X165583800Y-84366479D01*
X165618417Y-84192446D01*
X165686321Y-84028511D01*
X165784903Y-83880973D01*
X165910373Y-83755503D01*
X166057911Y-83656921D01*
X166221846Y-83589017D01*
X166337868Y-83565939D01*
X166395878Y-83554400D01*
X166573322Y-83554400D01*
X166631332Y-83565939D01*
G37*
G36*
X164845400Y-85356000D02*
G01*
X163043800Y-85356000D01*
X163043800Y-83554400D01*
X164845400Y-83554400D01*
X164845400Y-85356000D01*
G37*
G36*
X130335675Y-78893424D02*
G01*
X130411331Y-78924762D01*
X130545108Y-78980174D01*
X130733592Y-79106115D01*
X130893885Y-79266408D01*
X131019826Y-79454892D01*
X131056265Y-79542864D01*
X131106576Y-79664325D01*
X131150800Y-79886655D01*
X131150800Y-80113345D01*
X131106576Y-80335675D01*
X131088114Y-80380245D01*
X131019826Y-80545108D01*
X130893885Y-80733592D01*
X130733592Y-80893885D01*
X130545108Y-81019826D01*
X130422425Y-81070643D01*
X130335675Y-81106576D01*
X130113345Y-81150800D01*
X129886655Y-81150800D01*
X129664325Y-81106576D01*
X129577575Y-81070643D01*
X129454892Y-81019826D01*
X129266408Y-80893885D01*
X129106115Y-80733592D01*
X128980174Y-80545108D01*
X128911886Y-80380245D01*
X128893424Y-80335675D01*
X128849200Y-80113345D01*
X128849200Y-79886655D01*
X128893424Y-79664325D01*
X128943735Y-79542864D01*
X128980174Y-79454892D01*
X129106115Y-79266408D01*
X129266408Y-79106115D01*
X129454892Y-78980174D01*
X129588669Y-78924762D01*
X129664325Y-78893424D01*
X129886655Y-78849200D01*
X130113345Y-78849200D01*
X130335675Y-78893424D01*
G37*
G36*
X170335675Y-78893424D02*
G01*
X170411331Y-78924762D01*
X170545108Y-78980174D01*
X170733592Y-79106115D01*
X170893885Y-79266408D01*
X171019826Y-79454892D01*
X171056265Y-79542864D01*
X171106576Y-79664325D01*
X171150800Y-79886655D01*
X171150800Y-80113345D01*
X171106576Y-80335675D01*
X171088114Y-80380245D01*
X171019826Y-80545108D01*
X170893885Y-80733592D01*
X170733592Y-80893885D01*
X170545108Y-81019826D01*
X170422425Y-81070643D01*
X170335675Y-81106576D01*
X170113345Y-81150800D01*
X169886655Y-81150800D01*
X169664325Y-81106576D01*
X169577575Y-81070643D01*
X169454892Y-81019826D01*
X169266408Y-80893885D01*
X169106115Y-80733592D01*
X168980174Y-80545108D01*
X168911886Y-80380245D01*
X168893424Y-80335675D01*
X168849200Y-80113345D01*
X168849200Y-79886655D01*
X168893424Y-79664325D01*
X168943735Y-79542864D01*
X168980174Y-79454892D01*
X169106115Y-79266408D01*
X169266408Y-79106115D01*
X169454892Y-78980174D01*
X169588669Y-78924762D01*
X169664325Y-78893424D01*
X169886655Y-78849200D01*
X170113345Y-78849200D01*
X170335675Y-78893424D01*
G37*
G36*
X152787054Y-78494001D02*
G01*
X152798736Y-78497545D01*
X152809513Y-78503306D01*
X152818950Y-78511050D01*
X152826694Y-78520487D01*
X152832455Y-78531264D01*
X152835999Y-78542946D01*
X152837800Y-78561238D01*
X152837800Y-78924762D01*
X152835999Y-78943054D01*
X152832455Y-78954736D01*
X152826694Y-78965513D01*
X152815379Y-78979301D01*
X152805983Y-78988696D01*
X152792368Y-79009069D01*
X152782990Y-79031707D01*
X152778208Y-79055740D01*
X152778206Y-79080245D01*
X152782985Y-79104278D01*
X152792361Y-79126917D01*
X152805974Y-79147293D01*
X152815375Y-79156694D01*
X152826694Y-79170487D01*
X152832455Y-79181264D01*
X152835999Y-79192946D01*
X152837800Y-79211238D01*
X152837800Y-79574762D01*
X152835999Y-79593054D01*
X152832455Y-79604736D01*
X152826694Y-79615513D01*
X152815379Y-79629301D01*
X152805983Y-79638696D01*
X152792368Y-79659069D01*
X152782990Y-79681707D01*
X152778208Y-79705740D01*
X152778206Y-79730245D01*
X152782985Y-79754278D01*
X152792361Y-79776917D01*
X152805974Y-79797293D01*
X152815375Y-79806694D01*
X152826694Y-79820487D01*
X152832455Y-79831264D01*
X152835999Y-79842946D01*
X152837800Y-79861238D01*
X152837800Y-80224762D01*
X152835999Y-80243054D01*
X152832455Y-80254736D01*
X152826694Y-80265513D01*
X152815379Y-80279301D01*
X152805983Y-80288696D01*
X152792368Y-80309069D01*
X152782990Y-80331707D01*
X152778208Y-80355740D01*
X152778206Y-80380245D01*
X152782985Y-80404278D01*
X152792361Y-80426917D01*
X152805974Y-80447293D01*
X152815375Y-80456694D01*
X152826694Y-80470487D01*
X152832455Y-80481264D01*
X152835999Y-80492946D01*
X152837800Y-80511238D01*
X152837800Y-80874762D01*
X152835999Y-80893054D01*
X152832455Y-80904736D01*
X152826694Y-80915513D01*
X152818950Y-80924950D01*
X152809513Y-80932694D01*
X152798736Y-80938455D01*
X152787054Y-80941999D01*
X152768762Y-80943800D01*
X151355238Y-80943800D01*
X151336946Y-80941999D01*
X151325264Y-80938455D01*
X151314487Y-80932694D01*
X151305050Y-80924950D01*
X151297306Y-80915513D01*
X151291545Y-80904736D01*
X151288001Y-80893054D01*
X151286200Y-80874762D01*
X151286200Y-80511238D01*
X151288001Y-80492946D01*
X151291545Y-80481264D01*
X151297306Y-80470487D01*
X151308621Y-80456699D01*
X151318017Y-80447304D01*
X151331632Y-80426931D01*
X151341010Y-80404293D01*
X151345792Y-80380260D01*
X151345794Y-80355755D01*
X151341015Y-80331722D01*
X151331639Y-80309083D01*
X151318026Y-80288707D01*
X151308625Y-80279306D01*
X151297306Y-80265513D01*
X151291545Y-80254736D01*
X151288001Y-80243054D01*
X151286200Y-80224762D01*
X151286200Y-79861238D01*
X151288001Y-79842946D01*
X151291545Y-79831264D01*
X151297306Y-79820487D01*
X151308621Y-79806699D01*
X151318017Y-79797304D01*
X151331632Y-79776931D01*
X151341010Y-79754293D01*
X151345792Y-79730260D01*
X151345794Y-79705755D01*
X151341015Y-79681722D01*
X151331639Y-79659083D01*
X151318026Y-79638707D01*
X151308625Y-79629306D01*
X151297306Y-79615513D01*
X151291545Y-79604736D01*
X151288001Y-79593054D01*
X151286200Y-79574762D01*
X151286200Y-79211238D01*
X151288001Y-79192946D01*
X151291545Y-79181264D01*
X151297306Y-79170487D01*
X151308621Y-79156699D01*
X151318017Y-79147304D01*
X151331632Y-79126931D01*
X151341010Y-79104293D01*
X151345792Y-79080260D01*
X151345794Y-79055755D01*
X151341015Y-79031722D01*
X151331639Y-79009083D01*
X151318026Y-78988707D01*
X151308625Y-78979306D01*
X151297306Y-78965513D01*
X151291545Y-78954736D01*
X151288001Y-78943054D01*
X151286200Y-78924762D01*
X151286200Y-78561238D01*
X151288001Y-78542946D01*
X151291545Y-78531264D01*
X151297306Y-78520487D01*
X151305050Y-78511050D01*
X151314487Y-78503306D01*
X151325264Y-78497545D01*
X151336946Y-78494001D01*
X151355238Y-78492200D01*
X152768762Y-78492200D01*
X152787054Y-78494001D01*
G37*
G36*
X148487054Y-78494001D02*
G01*
X148498736Y-78497545D01*
X148509513Y-78503306D01*
X148518950Y-78511050D01*
X148526694Y-78520487D01*
X148532455Y-78531264D01*
X148535999Y-78542946D01*
X148537800Y-78561238D01*
X148537800Y-78924762D01*
X148535999Y-78943054D01*
X148532455Y-78954736D01*
X148526694Y-78965513D01*
X148515379Y-78979301D01*
X148505983Y-78988696D01*
X148492368Y-79009069D01*
X148482990Y-79031707D01*
X148478208Y-79055740D01*
X148478206Y-79080245D01*
X148482985Y-79104278D01*
X148492361Y-79126917D01*
X148505974Y-79147293D01*
X148515375Y-79156694D01*
X148526694Y-79170487D01*
X148532455Y-79181264D01*
X148535999Y-79192946D01*
X148537800Y-79211238D01*
X148537800Y-79574762D01*
X148535999Y-79593054D01*
X148532455Y-79604736D01*
X148526694Y-79615513D01*
X148515379Y-79629301D01*
X148505983Y-79638696D01*
X148492368Y-79659069D01*
X148482990Y-79681707D01*
X148478208Y-79705740D01*
X148478206Y-79730245D01*
X148482985Y-79754278D01*
X148492361Y-79776917D01*
X148505974Y-79797293D01*
X148515375Y-79806694D01*
X148526694Y-79820487D01*
X148532455Y-79831264D01*
X148535999Y-79842946D01*
X148537800Y-79861238D01*
X148537800Y-80224762D01*
X148535999Y-80243054D01*
X148532455Y-80254736D01*
X148526694Y-80265513D01*
X148515379Y-80279301D01*
X148505983Y-80288696D01*
X148492368Y-80309069D01*
X148482990Y-80331707D01*
X148478208Y-80355740D01*
X148478206Y-80380245D01*
X148482985Y-80404278D01*
X148492361Y-80426917D01*
X148505974Y-80447293D01*
X148515375Y-80456694D01*
X148526694Y-80470487D01*
X148532455Y-80481264D01*
X148535999Y-80492946D01*
X148537800Y-80511238D01*
X148537800Y-80874762D01*
X148535999Y-80893054D01*
X148532455Y-80904736D01*
X148526694Y-80915513D01*
X148518950Y-80924950D01*
X148509513Y-80932694D01*
X148498736Y-80938455D01*
X148487054Y-80941999D01*
X148468762Y-80943800D01*
X147055238Y-80943800D01*
X147036946Y-80941999D01*
X147025264Y-80938455D01*
X147014487Y-80932694D01*
X147005050Y-80924950D01*
X146997306Y-80915513D01*
X146991545Y-80904736D01*
X146988001Y-80893054D01*
X146986200Y-80874762D01*
X146986200Y-80511238D01*
X146988001Y-80492946D01*
X146991545Y-80481264D01*
X146997306Y-80470487D01*
X147008621Y-80456699D01*
X147018017Y-80447304D01*
X147031632Y-80426931D01*
X147041010Y-80404293D01*
X147045792Y-80380260D01*
X147045794Y-80355755D01*
X147041015Y-80331722D01*
X147031639Y-80309083D01*
X147018026Y-80288707D01*
X147008625Y-80279306D01*
X146997306Y-80265513D01*
X146991545Y-80254736D01*
X146988001Y-80243054D01*
X146986200Y-80224762D01*
X146986200Y-79861238D01*
X146988001Y-79842946D01*
X146991545Y-79831264D01*
X146997306Y-79820487D01*
X147008621Y-79806699D01*
X147018017Y-79797304D01*
X147031632Y-79776931D01*
X147041010Y-79754293D01*
X147045792Y-79730260D01*
X147045794Y-79705755D01*
X147041015Y-79681722D01*
X147031639Y-79659083D01*
X147018026Y-79638707D01*
X147008625Y-79629306D01*
X146997306Y-79615513D01*
X146991545Y-79604736D01*
X146988001Y-79593054D01*
X146986200Y-79574762D01*
X146986200Y-79211238D01*
X146988001Y-79192946D01*
X146991545Y-79181264D01*
X146997306Y-79170487D01*
X147008621Y-79156699D01*
X147018017Y-79147304D01*
X147031632Y-79126931D01*
X147041010Y-79104293D01*
X147045792Y-79080260D01*
X147045794Y-79055755D01*
X147041015Y-79031722D01*
X147031639Y-79009083D01*
X147018026Y-78988707D01*
X147008625Y-78979306D01*
X146997306Y-78965513D01*
X146991545Y-78954736D01*
X146988001Y-78943054D01*
X146986200Y-78924762D01*
X146986200Y-78561238D01*
X146988001Y-78542946D01*
X146991545Y-78531264D01*
X146997306Y-78520487D01*
X147005050Y-78511050D01*
X147014487Y-78503306D01*
X147025264Y-78497545D01*
X147036946Y-78494001D01*
X147055238Y-78492200D01*
X148468762Y-78492200D01*
X148487054Y-78494001D01*
G37*
G36*
X150802800Y-80708800D02*
G01*
X149021200Y-80708800D01*
X149021200Y-78727200D01*
X150802800Y-78727200D01*
X150802800Y-80708800D01*
G37*
G36*
X167031419Y-77650880D02*
G01*
X167066322Y-77661469D01*
X167098496Y-77678666D01*
X167126694Y-77701806D01*
X167149834Y-77730004D01*
X167167031Y-77762178D01*
X167177620Y-77797081D01*
X167181800Y-77839525D01*
X167181800Y-78980475D01*
X167177620Y-79022919D01*
X167167031Y-79057822D01*
X167149834Y-79089996D01*
X167126694Y-79118194D01*
X167098496Y-79141334D01*
X167066322Y-79158531D01*
X167031419Y-79169120D01*
X166988975Y-79173300D01*
X165523025Y-79173300D01*
X165480581Y-79169120D01*
X165445678Y-79158531D01*
X165413504Y-79141334D01*
X165385306Y-79118194D01*
X165362166Y-79089996D01*
X165344969Y-79057822D01*
X165334380Y-79022919D01*
X165330200Y-78980475D01*
X165330200Y-77839525D01*
X165334380Y-77797081D01*
X165344969Y-77762178D01*
X165362166Y-77730004D01*
X165385306Y-77701806D01*
X165413504Y-77678666D01*
X165445678Y-77661469D01*
X165480581Y-77650880D01*
X165523025Y-77646700D01*
X166988975Y-77646700D01*
X167031419Y-77650880D01*
G37*
G36*
X161429800Y-78816800D02*
G01*
X160678200Y-78816800D01*
X160678200Y-77495200D01*
X161429800Y-77495200D01*
X161429800Y-78816800D01*
G37*
G36*
X158249800Y-78816800D02*
G01*
X157498200Y-78816800D01*
X157498200Y-77495200D01*
X158249800Y-77495200D01*
X158249800Y-78816800D01*
G37*
G36*
X156349800Y-78816800D02*
G01*
X155598200Y-78816800D01*
X155598200Y-77495200D01*
X156349800Y-77495200D01*
X156349800Y-78816800D01*
G37*
G36*
X163329800Y-78816800D02*
G01*
X162578200Y-78816800D01*
X162578200Y-77495200D01*
X163329800Y-77495200D01*
X163329800Y-78816800D01*
G37*
G36*
X144171419Y-75110880D02*
G01*
X144206322Y-75121469D01*
X144238496Y-75138666D01*
X144266694Y-75161806D01*
X144289834Y-75190004D01*
X144307031Y-75222178D01*
X144317620Y-75257081D01*
X144321800Y-75299525D01*
X144321800Y-76440475D01*
X144317620Y-76482919D01*
X144307031Y-76517822D01*
X144289834Y-76549996D01*
X144266694Y-76578194D01*
X144238496Y-76601334D01*
X144206322Y-76618531D01*
X144171419Y-76629120D01*
X144128975Y-76633300D01*
X142663025Y-76633300D01*
X142620581Y-76629120D01*
X142585678Y-76618531D01*
X142553504Y-76601334D01*
X142525306Y-76578194D01*
X142502166Y-76549996D01*
X142484969Y-76517822D01*
X142474380Y-76482919D01*
X142470200Y-76440475D01*
X142470200Y-75299525D01*
X142474380Y-75257081D01*
X142484969Y-75222178D01*
X142502166Y-75190004D01*
X142525306Y-75161806D01*
X142553504Y-75138666D01*
X142585678Y-75121469D01*
X142620581Y-75110880D01*
X142663025Y-75106700D01*
X144128975Y-75106700D01*
X144171419Y-75110880D01*
G37*
G36*
X133503419Y-75110880D02*
G01*
X133538322Y-75121469D01*
X133570496Y-75138666D01*
X133598694Y-75161806D01*
X133621834Y-75190004D01*
X133639031Y-75222178D01*
X133649620Y-75257081D01*
X133653800Y-75299525D01*
X133653800Y-76440475D01*
X133649620Y-76482919D01*
X133639031Y-76517822D01*
X133621834Y-76549996D01*
X133598694Y-76578194D01*
X133570496Y-76601334D01*
X133538322Y-76618531D01*
X133503419Y-76629120D01*
X133460975Y-76633300D01*
X131995025Y-76633300D01*
X131952581Y-76629120D01*
X131917678Y-76618531D01*
X131885504Y-76601334D01*
X131857306Y-76578194D01*
X131834166Y-76549996D01*
X131816969Y-76517822D01*
X131806380Y-76482919D01*
X131802200Y-76440475D01*
X131802200Y-75299525D01*
X131806380Y-75257081D01*
X131816969Y-75222178D01*
X131834166Y-75190004D01*
X131857306Y-75161806D01*
X131885504Y-75138666D01*
X131917678Y-75121469D01*
X131952581Y-75110880D01*
X131995025Y-75106700D01*
X133460975Y-75106700D01*
X133503419Y-75110880D01*
G37*
G36*
X137059419Y-75110880D02*
G01*
X137094322Y-75121469D01*
X137126496Y-75138666D01*
X137154694Y-75161806D01*
X137177834Y-75190004D01*
X137195031Y-75222178D01*
X137205620Y-75257081D01*
X137209800Y-75299525D01*
X137209800Y-76440475D01*
X137205620Y-76482919D01*
X137195031Y-76517822D01*
X137177834Y-76549996D01*
X137154694Y-76578194D01*
X137126496Y-76601334D01*
X137094322Y-76618531D01*
X137059419Y-76629120D01*
X137016975Y-76633300D01*
X135551025Y-76633300D01*
X135508581Y-76629120D01*
X135473678Y-76618531D01*
X135441504Y-76601334D01*
X135413306Y-76578194D01*
X135390166Y-76549996D01*
X135372969Y-76517822D01*
X135362380Y-76482919D01*
X135358200Y-76440475D01*
X135358200Y-75299525D01*
X135362380Y-75257081D01*
X135372969Y-75222178D01*
X135390166Y-75190004D01*
X135413306Y-75161806D01*
X135441504Y-75138666D01*
X135473678Y-75121469D01*
X135508581Y-75110880D01*
X135551025Y-75106700D01*
X137016975Y-75106700D01*
X137059419Y-75110880D01*
G37*
G36*
X140615419Y-75110880D02*
G01*
X140650322Y-75121469D01*
X140682496Y-75138666D01*
X140710694Y-75161806D01*
X140733834Y-75190004D01*
X140751031Y-75222178D01*
X140761620Y-75257081D01*
X140765800Y-75299525D01*
X140765800Y-76440475D01*
X140761620Y-76482919D01*
X140751031Y-76517822D01*
X140733834Y-76549996D01*
X140710694Y-76578194D01*
X140682496Y-76601334D01*
X140650322Y-76618531D01*
X140615419Y-76629120D01*
X140572975Y-76633300D01*
X139107025Y-76633300D01*
X139064581Y-76629120D01*
X139029678Y-76618531D01*
X138997504Y-76601334D01*
X138969306Y-76578194D01*
X138946166Y-76549996D01*
X138928969Y-76517822D01*
X138918380Y-76482919D01*
X138914200Y-76440475D01*
X138914200Y-75299525D01*
X138918380Y-75257081D01*
X138928969Y-75222178D01*
X138946166Y-75190004D01*
X138969306Y-75161806D01*
X138997504Y-75138666D01*
X139029678Y-75121469D01*
X139064581Y-75110880D01*
X139107025Y-75106700D01*
X140572975Y-75106700D01*
X140615419Y-75110880D01*
G37*
G36*
X167031419Y-74675880D02*
G01*
X167066322Y-74686469D01*
X167098496Y-74703666D01*
X167126694Y-74726806D01*
X167149834Y-74755004D01*
X167167031Y-74787178D01*
X167177620Y-74822081D01*
X167181800Y-74864525D01*
X167181800Y-76005475D01*
X167177620Y-76047919D01*
X167167031Y-76082822D01*
X167149834Y-76114996D01*
X167126694Y-76143194D01*
X167098496Y-76166334D01*
X167066322Y-76183531D01*
X167031419Y-76194120D01*
X166988975Y-76198300D01*
X165523025Y-76198300D01*
X165480581Y-76194120D01*
X165445678Y-76183531D01*
X165413504Y-76166334D01*
X165385306Y-76143194D01*
X165362166Y-76114996D01*
X165344969Y-76082822D01*
X165334380Y-76047919D01*
X165330200Y-76005475D01*
X165330200Y-74864525D01*
X165334380Y-74822081D01*
X165344969Y-74787178D01*
X165362166Y-74755004D01*
X165385306Y-74726806D01*
X165413504Y-74703666D01*
X165445678Y-74686469D01*
X165480581Y-74675880D01*
X165523025Y-74671700D01*
X166988975Y-74671700D01*
X167031419Y-74675880D01*
G37*
G36*
X162379800Y-76196800D02*
G01*
X161628200Y-76196800D01*
X161628200Y-74875200D01*
X162379800Y-74875200D01*
X162379800Y-76196800D01*
G37*
G36*
X157299800Y-76196800D02*
G01*
X156548200Y-76196800D01*
X156548200Y-74875200D01*
X157299800Y-74875200D01*
X157299800Y-76196800D01*
G37*
G36*
X148844988Y-72063634D02*
G01*
X149014789Y-72115143D01*
X149014792Y-72115144D01*
X149171278Y-72198788D01*
X149308444Y-72311356D01*
X149421011Y-72448521D01*
X149504657Y-72605011D01*
X149556166Y-72774813D01*
X149569200Y-72907152D01*
X149569200Y-73295649D01*
X149556166Y-73427988D01*
X149531919Y-73507919D01*
X149504656Y-73597792D01*
X149421012Y-73754278D01*
X149308444Y-73891444D01*
X149171278Y-74004012D01*
X149014791Y-74087656D01*
X149014788Y-74087657D01*
X148844987Y-74139166D01*
X148668400Y-74156558D01*
X148491812Y-74139166D01*
X148322011Y-74087657D01*
X148322008Y-74087656D01*
X148165522Y-74004012D01*
X148028356Y-73891444D01*
X147915788Y-73754278D01*
X147832144Y-73597791D01*
X147814392Y-73539271D01*
X147780634Y-73427987D01*
X147767600Y-73295648D01*
X147767600Y-72907151D01*
X147780634Y-72774812D01*
X147832143Y-72605011D01*
X147832144Y-72605009D01*
X147832144Y-72605008D01*
X147915788Y-72448522D01*
X148028357Y-72311357D01*
X148165523Y-72198788D01*
X148322009Y-72115144D01*
X148322012Y-72115143D01*
X148491813Y-72063634D01*
X148668400Y-72046242D01*
X148844988Y-72063634D01*
G37*
G36*
X151926851Y-72054588D02*
G01*
X151959885Y-72064609D01*
X151990329Y-72080882D01*
X152017017Y-72102783D01*
X152038918Y-72129471D01*
X152055191Y-72159915D01*
X152065212Y-72192949D01*
X152069200Y-72233446D01*
X152069200Y-73969354D01*
X152065212Y-74009851D01*
X152055191Y-74042885D01*
X152038918Y-74073329D01*
X152017017Y-74100017D01*
X151990329Y-74121918D01*
X151959885Y-74138191D01*
X151926851Y-74148212D01*
X151886354Y-74152200D01*
X150450446Y-74152200D01*
X150409949Y-74148212D01*
X150376915Y-74138191D01*
X150346471Y-74121918D01*
X150319783Y-74100017D01*
X150297882Y-74073329D01*
X150281609Y-74042885D01*
X150271588Y-74009851D01*
X150267600Y-73969354D01*
X150267600Y-72233446D01*
X150271588Y-72192949D01*
X150281609Y-72159915D01*
X150297882Y-72129471D01*
X150319783Y-72102783D01*
X150346471Y-72080882D01*
X150376915Y-72064609D01*
X150409949Y-72054588D01*
X150450446Y-72050600D01*
X151886354Y-72050600D01*
X151926851Y-72054588D01*
G37*
G36*
X144171419Y-72135880D02*
G01*
X144206322Y-72146469D01*
X144238496Y-72163666D01*
X144266694Y-72186806D01*
X144289834Y-72215004D01*
X144307031Y-72247178D01*
X144317620Y-72282081D01*
X144321800Y-72324525D01*
X144321800Y-73465475D01*
X144317620Y-73507919D01*
X144307031Y-73542822D01*
X144289834Y-73574996D01*
X144266694Y-73603194D01*
X144238496Y-73626334D01*
X144206322Y-73643531D01*
X144171419Y-73654120D01*
X144128975Y-73658300D01*
X142663025Y-73658300D01*
X142620581Y-73654120D01*
X142585678Y-73643531D01*
X142553504Y-73626334D01*
X142525306Y-73603194D01*
X142502166Y-73574996D01*
X142484969Y-73542822D01*
X142474380Y-73507919D01*
X142470200Y-73465475D01*
X142470200Y-72324525D01*
X142474380Y-72282081D01*
X142484969Y-72247178D01*
X142502166Y-72215004D01*
X142525306Y-72186806D01*
X142553504Y-72163666D01*
X142585678Y-72146469D01*
X142620581Y-72135880D01*
X142663025Y-72131700D01*
X144128975Y-72131700D01*
X144171419Y-72135880D01*
G37*
G36*
X137059419Y-72135880D02*
G01*
X137094322Y-72146469D01*
X137126496Y-72163666D01*
X137154694Y-72186806D01*
X137177834Y-72215004D01*
X137195031Y-72247178D01*
X137205620Y-72282081D01*
X137209800Y-72324525D01*
X137209800Y-73465475D01*
X137205620Y-73507919D01*
X137195031Y-73542822D01*
X137177834Y-73574996D01*
X137154694Y-73603194D01*
X137126496Y-73626334D01*
X137094322Y-73643531D01*
X137059419Y-73654120D01*
X137016975Y-73658300D01*
X135551025Y-73658300D01*
X135508581Y-73654120D01*
X135473678Y-73643531D01*
X135441504Y-73626334D01*
X135413306Y-73603194D01*
X135390166Y-73574996D01*
X135372969Y-73542822D01*
X135362380Y-73507919D01*
X135358200Y-73465475D01*
X135358200Y-72324525D01*
X135362380Y-72282081D01*
X135372969Y-72247178D01*
X135390166Y-72215004D01*
X135413306Y-72186806D01*
X135441504Y-72163666D01*
X135473678Y-72146469D01*
X135508581Y-72135880D01*
X135551025Y-72131700D01*
X137016975Y-72131700D01*
X137059419Y-72135880D01*
G37*
G36*
X140615419Y-72135880D02*
G01*
X140650322Y-72146469D01*
X140682496Y-72163666D01*
X140710694Y-72186806D01*
X140733834Y-72215004D01*
X140751031Y-72247178D01*
X140761620Y-72282081D01*
X140765800Y-72324525D01*
X140765800Y-73465475D01*
X140761620Y-73507919D01*
X140751031Y-73542822D01*
X140733834Y-73574996D01*
X140710694Y-73603194D01*
X140682496Y-73626334D01*
X140650322Y-73643531D01*
X140615419Y-73654120D01*
X140572975Y-73658300D01*
X139107025Y-73658300D01*
X139064581Y-73654120D01*
X139029678Y-73643531D01*
X138997504Y-73626334D01*
X138969306Y-73603194D01*
X138946166Y-73574996D01*
X138928969Y-73542822D01*
X138918380Y-73507919D01*
X138914200Y-73465475D01*
X138914200Y-72324525D01*
X138918380Y-72282081D01*
X138928969Y-72247178D01*
X138946166Y-72215004D01*
X138969306Y-72186806D01*
X138997504Y-72163666D01*
X139029678Y-72146469D01*
X139064581Y-72135880D01*
X139107025Y-72131700D01*
X140572975Y-72131700D01*
X140615419Y-72135880D01*
G37*
G36*
X133503419Y-72135880D02*
G01*
X133538322Y-72146469D01*
X133570496Y-72163666D01*
X133598694Y-72186806D01*
X133621834Y-72215004D01*
X133639031Y-72247178D01*
X133649620Y-72282081D01*
X133653800Y-72324525D01*
X133653800Y-73465475D01*
X133649620Y-73507919D01*
X133639031Y-73542822D01*
X133621834Y-73574996D01*
X133598694Y-73603194D01*
X133570496Y-73626334D01*
X133538322Y-73643531D01*
X133503419Y-73654120D01*
X133460975Y-73658300D01*
X131995025Y-73658300D01*
X131952581Y-73654120D01*
X131917678Y-73643531D01*
X131885504Y-73626334D01*
X131857306Y-73603194D01*
X131834166Y-73574996D01*
X131816969Y-73542822D01*
X131806380Y-73507919D01*
X131802200Y-73465475D01*
X131802200Y-72324525D01*
X131806380Y-72282081D01*
X131816969Y-72247178D01*
X131834166Y-72215004D01*
X131857306Y-72186806D01*
X131885504Y-72163666D01*
X131917678Y-72146469D01*
X131952581Y-72135880D01*
X131995025Y-72131700D01*
X133460975Y-72131700D01*
X133503419Y-72135880D01*
G37*
G36*
X161788919Y-69106380D02*
G01*
X161823822Y-69116969D01*
X161855996Y-69134166D01*
X161884194Y-69157306D01*
X161907334Y-69185504D01*
X161924531Y-69217678D01*
X161935120Y-69252581D01*
X161939300Y-69295025D01*
X161939300Y-70760975D01*
X161935120Y-70803419D01*
X161924531Y-70838322D01*
X161907334Y-70870496D01*
X161884194Y-70898694D01*
X161855996Y-70921834D01*
X161823822Y-70939031D01*
X161788919Y-70949620D01*
X161746475Y-70953800D01*
X160605525Y-70953800D01*
X160563081Y-70949620D01*
X160528178Y-70939031D01*
X160496004Y-70921834D01*
X160467806Y-70898694D01*
X160444666Y-70870496D01*
X160427469Y-70838322D01*
X160416880Y-70803419D01*
X160412700Y-70760975D01*
X160412700Y-69295025D01*
X160416880Y-69252581D01*
X160427469Y-69217678D01*
X160444666Y-69185504D01*
X160467806Y-69157306D01*
X160496004Y-69134166D01*
X160528178Y-69116969D01*
X160563081Y-69106380D01*
X160605525Y-69102200D01*
X161746475Y-69102200D01*
X161788919Y-69106380D01*
G37*
G36*
X158813919Y-69106380D02*
G01*
X158848822Y-69116969D01*
X158880996Y-69134166D01*
X158909194Y-69157306D01*
X158932334Y-69185504D01*
X158949531Y-69217678D01*
X158960120Y-69252581D01*
X158964300Y-69295025D01*
X158964300Y-70760975D01*
X158960120Y-70803419D01*
X158949531Y-70838322D01*
X158932334Y-70870496D01*
X158909194Y-70898694D01*
X158880996Y-70921834D01*
X158848822Y-70939031D01*
X158813919Y-70949620D01*
X158771475Y-70953800D01*
X157630525Y-70953800D01*
X157588081Y-70949620D01*
X157553178Y-70939031D01*
X157521004Y-70921834D01*
X157492806Y-70898694D01*
X157469666Y-70870496D01*
X157452469Y-70838322D01*
X157441880Y-70803419D01*
X157437700Y-70760975D01*
X157437700Y-69295025D01*
X157441880Y-69252581D01*
X157452469Y-69217678D01*
X157469666Y-69185504D01*
X157492806Y-69157306D01*
X157521004Y-69134166D01*
X157553178Y-69116969D01*
X157588081Y-69106380D01*
X157630525Y-69102200D01*
X158771475Y-69102200D01*
X158813919Y-69106380D01*
G37*
M02*
