G04 #@! TF.GenerationSoftware,KiCad,Pcbnew,5.1.7+dfsg1-1~bpo10+1*
G04 #@! TF.CreationDate,2020-11-11T15:52:25-05:00*
G04 #@! TF.ProjectId,board,626f6172-642e-46b6-9963-61645f706362,rev?*
G04 #@! TF.SameCoordinates,Original*
G04 #@! TF.FileFunction,Copper,L1,Top*
G04 #@! TF.FilePolarity,Positive*
%FSLAX46Y46*%
G04 Gerber Fmt 4.6, Leading zero omitted, Abs format (unit mm)*
G04 Created by KiCad (PCBNEW 5.1.7+dfsg1-1~bpo10+1) date 2020-11-11 15:52:25*
%MOMM*%
%LPD*%
G01*
G04 APERTURE LIST*
G04 #@! TA.AperFunction,NonConductor*
%ADD10C,0.125000*%
G04 #@! TD*
G04 #@! TA.AperFunction,SMDPad,CuDef*
%ADD11R,1.900000X0.800000*%
G04 #@! TD*
G04 #@! TA.AperFunction,ComponentPad*
%ADD12R,1.700000X1.700000*%
G04 #@! TD*
G04 #@! TA.AperFunction,ComponentPad*
%ADD13O,1.700000X1.700000*%
G04 #@! TD*
G04 #@! TA.AperFunction,SMDPad,CuDef*
%ADD14R,1.200000X2.500000*%
G04 #@! TD*
G04 #@! TA.AperFunction,SMDPad,CuDef*
%ADD15R,1.680000X1.880000*%
G04 #@! TD*
G04 #@! TA.AperFunction,ComponentPad*
%ADD16C,1.500000*%
G04 #@! TD*
G04 #@! TA.AperFunction,SMDPad,CuDef*
%ADD17R,0.650000X1.220000*%
G04 #@! TD*
G04 #@! TA.AperFunction,ComponentPad*
%ADD18O,1.700000X2.000000*%
G04 #@! TD*
G04 #@! TA.AperFunction,ComponentPad*
%ADD19C,1.000000*%
G04 #@! TD*
G04 #@! TA.AperFunction,SMDPad,CuDef*
%ADD20R,2.200000X1.050000*%
G04 #@! TD*
G04 #@! TA.AperFunction,SMDPad,CuDef*
%ADD21R,4.064000X1.524000*%
G04 #@! TD*
G04 #@! TA.AperFunction,SMDPad,CuDef*
%ADD22R,1.600000X0.550000*%
G04 #@! TD*
G04 #@! TA.AperFunction,SMDPad,CuDef*
%ADD23R,0.550000X1.600000*%
G04 #@! TD*
G04 #@! TA.AperFunction,SMDPad,CuDef*
%ADD24R,1.900000X1.200000*%
G04 #@! TD*
G04 #@! TA.AperFunction,ComponentPad*
%ADD25O,1.900000X1.200000*%
G04 #@! TD*
G04 #@! TA.AperFunction,SMDPad,CuDef*
%ADD26R,1.900000X1.500000*%
G04 #@! TD*
G04 #@! TA.AperFunction,ComponentPad*
%ADD27C,1.450000*%
G04 #@! TD*
G04 #@! TA.AperFunction,SMDPad,CuDef*
%ADD28R,1.350000X0.400000*%
G04 #@! TD*
G04 #@! TA.AperFunction,SMDPad,CuDef*
%ADD29R,1.300000X1.550000*%
G04 #@! TD*
G04 #@! TA.AperFunction,ViaPad*
%ADD30C,0.800000*%
G04 #@! TD*
G04 #@! TA.AperFunction,Conductor*
%ADD31C,0.250000*%
G04 #@! TD*
G04 #@! TA.AperFunction,Conductor*
%ADD32C,0.254000*%
G04 #@! TD*
G04 #@! TA.AperFunction,Conductor*
%ADD33C,0.100000*%
G04 #@! TD*
G04 APERTURE END LIST*
D10*
X147200000Y-102714285D02*
X147295238Y-102809523D01*
X147200000Y-102904761D01*
X147104761Y-102809523D01*
X147200000Y-102714285D01*
X147200000Y-102904761D01*
D11*
X125418000Y-88796000D03*
X122418000Y-89746000D03*
X122418000Y-87846000D03*
D12*
X164986000Y-84460000D03*
D13*
X162446000Y-84460000D03*
X159906000Y-84460000D03*
X157366000Y-84460000D03*
X154826000Y-84460000D03*
X152286000Y-84460000D03*
X149746000Y-84460000D03*
X147206000Y-84460000D03*
X144666000Y-84460000D03*
X142126000Y-84460000D03*
X139586000Y-84460000D03*
X137046000Y-84460000D03*
X134506000Y-84460000D03*
X131966000Y-84460000D03*
D14*
X160000000Y-92000000D03*
X162000000Y-92000000D03*
X164000000Y-92000000D03*
X166000000Y-92000000D03*
X168000000Y-92000000D03*
X170000000Y-92000000D03*
X172000000Y-92000000D03*
X174000000Y-92000000D03*
X174000000Y-108000000D03*
X172000000Y-108000000D03*
X170000000Y-108000000D03*
X168000000Y-108000000D03*
X166000000Y-108000000D03*
X164000000Y-108000000D03*
X162000000Y-108000000D03*
X160000000Y-108000000D03*
D15*
X149912000Y-79718000D03*
G04 #@! TA.AperFunction,SMDPad,CuDef*
G36*
G01*
X151337000Y-78843000D02*
X151337000Y-78643000D01*
G75*
G02*
X151437000Y-78543000I100000J0D01*
G01*
X152687000Y-78543000D01*
G75*
G02*
X152787000Y-78643000I0J-100000D01*
G01*
X152787000Y-78843000D01*
G75*
G02*
X152687000Y-78943000I-100000J0D01*
G01*
X151437000Y-78943000D01*
G75*
G02*
X151337000Y-78843000I0J100000D01*
G01*
G37*
G04 #@! TD.AperFunction*
G04 #@! TA.AperFunction,SMDPad,CuDef*
G36*
G01*
X151337000Y-79493000D02*
X151337000Y-79293000D01*
G75*
G02*
X151437000Y-79193000I100000J0D01*
G01*
X152687000Y-79193000D01*
G75*
G02*
X152787000Y-79293000I0J-100000D01*
G01*
X152787000Y-79493000D01*
G75*
G02*
X152687000Y-79593000I-100000J0D01*
G01*
X151437000Y-79593000D01*
G75*
G02*
X151337000Y-79493000I0J100000D01*
G01*
G37*
G04 #@! TD.AperFunction*
G04 #@! TA.AperFunction,SMDPad,CuDef*
G36*
G01*
X151337000Y-80143000D02*
X151337000Y-79943000D01*
G75*
G02*
X151437000Y-79843000I100000J0D01*
G01*
X152687000Y-79843000D01*
G75*
G02*
X152787000Y-79943000I0J-100000D01*
G01*
X152787000Y-80143000D01*
G75*
G02*
X152687000Y-80243000I-100000J0D01*
G01*
X151437000Y-80243000D01*
G75*
G02*
X151337000Y-80143000I0J100000D01*
G01*
G37*
G04 #@! TD.AperFunction*
G04 #@! TA.AperFunction,SMDPad,CuDef*
G36*
G01*
X151337000Y-80793000D02*
X151337000Y-80593000D01*
G75*
G02*
X151437000Y-80493000I100000J0D01*
G01*
X152687000Y-80493000D01*
G75*
G02*
X152787000Y-80593000I0J-100000D01*
G01*
X152787000Y-80793000D01*
G75*
G02*
X152687000Y-80893000I-100000J0D01*
G01*
X151437000Y-80893000D01*
G75*
G02*
X151337000Y-80793000I0J100000D01*
G01*
G37*
G04 #@! TD.AperFunction*
G04 #@! TA.AperFunction,SMDPad,CuDef*
G36*
G01*
X147037000Y-80793000D02*
X147037000Y-80593000D01*
G75*
G02*
X147137000Y-80493000I100000J0D01*
G01*
X148387000Y-80493000D01*
G75*
G02*
X148487000Y-80593000I0J-100000D01*
G01*
X148487000Y-80793000D01*
G75*
G02*
X148387000Y-80893000I-100000J0D01*
G01*
X147137000Y-80893000D01*
G75*
G02*
X147037000Y-80793000I0J100000D01*
G01*
G37*
G04 #@! TD.AperFunction*
G04 #@! TA.AperFunction,SMDPad,CuDef*
G36*
G01*
X147037000Y-80143000D02*
X147037000Y-79943000D01*
G75*
G02*
X147137000Y-79843000I100000J0D01*
G01*
X148387000Y-79843000D01*
G75*
G02*
X148487000Y-79943000I0J-100000D01*
G01*
X148487000Y-80143000D01*
G75*
G02*
X148387000Y-80243000I-100000J0D01*
G01*
X147137000Y-80243000D01*
G75*
G02*
X147037000Y-80143000I0J100000D01*
G01*
G37*
G04 #@! TD.AperFunction*
G04 #@! TA.AperFunction,SMDPad,CuDef*
G36*
G01*
X147037000Y-79493000D02*
X147037000Y-79293000D01*
G75*
G02*
X147137000Y-79193000I100000J0D01*
G01*
X148387000Y-79193000D01*
G75*
G02*
X148487000Y-79293000I0J-100000D01*
G01*
X148487000Y-79493000D01*
G75*
G02*
X148387000Y-79593000I-100000J0D01*
G01*
X147137000Y-79593000D01*
G75*
G02*
X147037000Y-79493000I0J100000D01*
G01*
G37*
G04 #@! TD.AperFunction*
G04 #@! TA.AperFunction,SMDPad,CuDef*
G36*
G01*
X147037000Y-78843000D02*
X147037000Y-78643000D01*
G75*
G02*
X147137000Y-78543000I100000J0D01*
G01*
X148387000Y-78543000D01*
G75*
G02*
X148487000Y-78643000I0J-100000D01*
G01*
X148487000Y-78843000D01*
G75*
G02*
X148387000Y-78943000I-100000J0D01*
G01*
X147137000Y-78943000D01*
G75*
G02*
X147037000Y-78843000I0J100000D01*
G01*
G37*
G04 #@! TD.AperFunction*
G04 #@! TA.AperFunction,SMDPad,CuDef*
G36*
G01*
X132103000Y-75157500D02*
X133353000Y-75157500D01*
G75*
G02*
X133603000Y-75407500I0J-250000D01*
G01*
X133603000Y-76332500D01*
G75*
G02*
X133353000Y-76582500I-250000J0D01*
G01*
X132103000Y-76582500D01*
G75*
G02*
X131853000Y-76332500I0J250000D01*
G01*
X131853000Y-75407500D01*
G75*
G02*
X132103000Y-75157500I250000J0D01*
G01*
G37*
G04 #@! TD.AperFunction*
G04 #@! TA.AperFunction,SMDPad,CuDef*
G36*
G01*
X132103000Y-72182500D02*
X133353000Y-72182500D01*
G75*
G02*
X133603000Y-72432500I0J-250000D01*
G01*
X133603000Y-73357500D01*
G75*
G02*
X133353000Y-73607500I-250000J0D01*
G01*
X132103000Y-73607500D01*
G75*
G02*
X131853000Y-73357500I0J250000D01*
G01*
X131853000Y-72432500D01*
G75*
G02*
X132103000Y-72182500I250000J0D01*
G01*
G37*
G04 #@! TD.AperFunction*
D16*
X141110000Y-106277000D03*
X141110000Y-101397000D03*
G04 #@! TA.AperFunction,SMDPad,CuDef*
G36*
G01*
X143406000Y-120677500D02*
X144656000Y-120677500D01*
G75*
G02*
X144906000Y-120927500I0J-250000D01*
G01*
X144906000Y-121852500D01*
G75*
G02*
X144656000Y-122102500I-250000J0D01*
G01*
X143406000Y-122102500D01*
G75*
G02*
X143156000Y-121852500I0J250000D01*
G01*
X143156000Y-120927500D01*
G75*
G02*
X143406000Y-120677500I250000J0D01*
G01*
G37*
G04 #@! TD.AperFunction*
G04 #@! TA.AperFunction,SMDPad,CuDef*
G36*
G01*
X143406000Y-117702500D02*
X144656000Y-117702500D01*
G75*
G02*
X144906000Y-117952500I0J-250000D01*
G01*
X144906000Y-118877500D01*
G75*
G02*
X144656000Y-119127500I-250000J0D01*
G01*
X143406000Y-119127500D01*
G75*
G02*
X143156000Y-118877500I0J250000D01*
G01*
X143156000Y-117952500D01*
G75*
G02*
X143406000Y-117702500I250000J0D01*
G01*
G37*
G04 #@! TD.AperFunction*
G04 #@! TA.AperFunction,SMDPad,CuDef*
G36*
G01*
X135913000Y-127662500D02*
X137163000Y-127662500D01*
G75*
G02*
X137413000Y-127912500I0J-250000D01*
G01*
X137413000Y-128837500D01*
G75*
G02*
X137163000Y-129087500I-250000J0D01*
G01*
X135913000Y-129087500D01*
G75*
G02*
X135663000Y-128837500I0J250000D01*
G01*
X135663000Y-127912500D01*
G75*
G02*
X135913000Y-127662500I250000J0D01*
G01*
G37*
G04 #@! TD.AperFunction*
G04 #@! TA.AperFunction,SMDPad,CuDef*
G36*
G01*
X135913000Y-124687500D02*
X137163000Y-124687500D01*
G75*
G02*
X137413000Y-124937500I0J-250000D01*
G01*
X137413000Y-125862500D01*
G75*
G02*
X137163000Y-126112500I-250000J0D01*
G01*
X135913000Y-126112500D01*
G75*
G02*
X135663000Y-125862500I0J250000D01*
G01*
X135663000Y-124937500D01*
G75*
G02*
X135913000Y-124687500I250000J0D01*
G01*
G37*
G04 #@! TD.AperFunction*
G04 #@! TA.AperFunction,SMDPad,CuDef*
G36*
G01*
X155852000Y-107850500D02*
X157102000Y-107850500D01*
G75*
G02*
X157352000Y-108100500I0J-250000D01*
G01*
X157352000Y-109025500D01*
G75*
G02*
X157102000Y-109275500I-250000J0D01*
G01*
X155852000Y-109275500D01*
G75*
G02*
X155602000Y-109025500I0J250000D01*
G01*
X155602000Y-108100500D01*
G75*
G02*
X155852000Y-107850500I250000J0D01*
G01*
G37*
G04 #@! TD.AperFunction*
G04 #@! TA.AperFunction,SMDPad,CuDef*
G36*
G01*
X155852000Y-104875500D02*
X157102000Y-104875500D01*
G75*
G02*
X157352000Y-105125500I0J-250000D01*
G01*
X157352000Y-106050500D01*
G75*
G02*
X157102000Y-106300500I-250000J0D01*
G01*
X155852000Y-106300500D01*
G75*
G02*
X155602000Y-106050500I0J250000D01*
G01*
X155602000Y-105125500D01*
G75*
G02*
X155852000Y-104875500I250000J0D01*
G01*
G37*
G04 #@! TD.AperFunction*
G04 #@! TA.AperFunction,SMDPad,CuDef*
G36*
G01*
X140465000Y-73607500D02*
X139215000Y-73607500D01*
G75*
G02*
X138965000Y-73357500I0J250000D01*
G01*
X138965000Y-72432500D01*
G75*
G02*
X139215000Y-72182500I250000J0D01*
G01*
X140465000Y-72182500D01*
G75*
G02*
X140715000Y-72432500I0J-250000D01*
G01*
X140715000Y-73357500D01*
G75*
G02*
X140465000Y-73607500I-250000J0D01*
G01*
G37*
G04 #@! TD.AperFunction*
G04 #@! TA.AperFunction,SMDPad,CuDef*
G36*
G01*
X140465000Y-76582500D02*
X139215000Y-76582500D01*
G75*
G02*
X138965000Y-76332500I0J250000D01*
G01*
X138965000Y-75407500D01*
G75*
G02*
X139215000Y-75157500I250000J0D01*
G01*
X140465000Y-75157500D01*
G75*
G02*
X140715000Y-75407500I0J-250000D01*
G01*
X140715000Y-76332500D01*
G75*
G02*
X140465000Y-76582500I-250000J0D01*
G01*
G37*
G04 #@! TD.AperFunction*
G04 #@! TA.AperFunction,SMDPad,CuDef*
G36*
G01*
X144021000Y-73607500D02*
X142771000Y-73607500D01*
G75*
G02*
X142521000Y-73357500I0J250000D01*
G01*
X142521000Y-72432500D01*
G75*
G02*
X142771000Y-72182500I250000J0D01*
G01*
X144021000Y-72182500D01*
G75*
G02*
X144271000Y-72432500I0J-250000D01*
G01*
X144271000Y-73357500D01*
G75*
G02*
X144021000Y-73607500I-250000J0D01*
G01*
G37*
G04 #@! TD.AperFunction*
G04 #@! TA.AperFunction,SMDPad,CuDef*
G36*
G01*
X144021000Y-76582500D02*
X142771000Y-76582500D01*
G75*
G02*
X142521000Y-76332500I0J250000D01*
G01*
X142521000Y-75407500D01*
G75*
G02*
X142771000Y-75157500I250000J0D01*
G01*
X144021000Y-75157500D01*
G75*
G02*
X144271000Y-75407500I0J-250000D01*
G01*
X144271000Y-76332500D01*
G75*
G02*
X144021000Y-76582500I-250000J0D01*
G01*
G37*
G04 #@! TD.AperFunction*
G04 #@! TA.AperFunction,SMDPad,CuDef*
G36*
G01*
X136587500Y-93513000D02*
X136587500Y-92263000D01*
G75*
G02*
X136837500Y-92013000I250000J0D01*
G01*
X137762500Y-92013000D01*
G75*
G02*
X138012500Y-92263000I0J-250000D01*
G01*
X138012500Y-93513000D01*
G75*
G02*
X137762500Y-93763000I-250000J0D01*
G01*
X136837500Y-93763000D01*
G75*
G02*
X136587500Y-93513000I0J250000D01*
G01*
G37*
G04 #@! TD.AperFunction*
G04 #@! TA.AperFunction,SMDPad,CuDef*
G36*
G01*
X133612500Y-93513000D02*
X133612500Y-92263000D01*
G75*
G02*
X133862500Y-92013000I250000J0D01*
G01*
X134787500Y-92013000D01*
G75*
G02*
X135037500Y-92263000I0J-250000D01*
G01*
X135037500Y-93513000D01*
G75*
G02*
X134787500Y-93763000I-250000J0D01*
G01*
X133862500Y-93763000D01*
G75*
G02*
X133612500Y-93513000I0J250000D01*
G01*
G37*
G04 #@! TD.AperFunction*
G04 #@! TA.AperFunction,SMDPad,CuDef*
G36*
G01*
X123139200Y-92339200D02*
X123139200Y-93589200D01*
G75*
G02*
X122889200Y-93839200I-250000J0D01*
G01*
X121964200Y-93839200D01*
G75*
G02*
X121714200Y-93589200I0J250000D01*
G01*
X121714200Y-92339200D01*
G75*
G02*
X121964200Y-92089200I250000J0D01*
G01*
X122889200Y-92089200D01*
G75*
G02*
X123139200Y-92339200I0J-250000D01*
G01*
G37*
G04 #@! TD.AperFunction*
G04 #@! TA.AperFunction,SMDPad,CuDef*
G36*
G01*
X126114200Y-92339200D02*
X126114200Y-93589200D01*
G75*
G02*
X125864200Y-93839200I-250000J0D01*
G01*
X124939200Y-93839200D01*
G75*
G02*
X124689200Y-93589200I0J250000D01*
G01*
X124689200Y-92339200D01*
G75*
G02*
X124939200Y-92089200I250000J0D01*
G01*
X125864200Y-92089200D01*
G75*
G02*
X126114200Y-92339200I0J-250000D01*
G01*
G37*
G04 #@! TD.AperFunction*
G04 #@! TA.AperFunction,SMDPad,CuDef*
G36*
G01*
X154175000Y-120875000D02*
X155425000Y-120875000D01*
G75*
G02*
X155675000Y-121125000I0J-250000D01*
G01*
X155675000Y-122050000D01*
G75*
G02*
X155425000Y-122300000I-250000J0D01*
G01*
X154175000Y-122300000D01*
G75*
G02*
X153925000Y-122050000I0J250000D01*
G01*
X153925000Y-121125000D01*
G75*
G02*
X154175000Y-120875000I250000J0D01*
G01*
G37*
G04 #@! TD.AperFunction*
G04 #@! TA.AperFunction,SMDPad,CuDef*
G36*
G01*
X154175000Y-117900000D02*
X155425000Y-117900000D01*
G75*
G02*
X155675000Y-118150000I0J-250000D01*
G01*
X155675000Y-119075000D01*
G75*
G02*
X155425000Y-119325000I-250000J0D01*
G01*
X154175000Y-119325000D01*
G75*
G02*
X153925000Y-119075000I0J250000D01*
G01*
X153925000Y-118150000D01*
G75*
G02*
X154175000Y-117900000I250000J0D01*
G01*
G37*
G04 #@! TD.AperFunction*
G04 #@! TA.AperFunction,SMDPad,CuDef*
G36*
G01*
X128725000Y-109475000D02*
X128725000Y-110725000D01*
G75*
G02*
X128475000Y-110975000I-250000J0D01*
G01*
X127550000Y-110975000D01*
G75*
G02*
X127300000Y-110725000I0J250000D01*
G01*
X127300000Y-109475000D01*
G75*
G02*
X127550000Y-109225000I250000J0D01*
G01*
X128475000Y-109225000D01*
G75*
G02*
X128725000Y-109475000I0J-250000D01*
G01*
G37*
G04 #@! TD.AperFunction*
G04 #@! TA.AperFunction,SMDPad,CuDef*
G36*
G01*
X131700000Y-109475000D02*
X131700000Y-110725000D01*
G75*
G02*
X131450000Y-110975000I-250000J0D01*
G01*
X130525000Y-110975000D01*
G75*
G02*
X130275000Y-110725000I0J250000D01*
G01*
X130275000Y-109475000D01*
G75*
G02*
X130525000Y-109225000I250000J0D01*
G01*
X131450000Y-109225000D01*
G75*
G02*
X131700000Y-109475000I0J-250000D01*
G01*
G37*
G04 #@! TD.AperFunction*
G04 #@! TA.AperFunction,SMDPad,CuDef*
G36*
G01*
X152423000Y-109755500D02*
X153673000Y-109755500D01*
G75*
G02*
X153923000Y-110005500I0J-250000D01*
G01*
X153923000Y-110930500D01*
G75*
G02*
X153673000Y-111180500I-250000J0D01*
G01*
X152423000Y-111180500D01*
G75*
G02*
X152173000Y-110930500I0J250000D01*
G01*
X152173000Y-110005500D01*
G75*
G02*
X152423000Y-109755500I250000J0D01*
G01*
G37*
G04 #@! TD.AperFunction*
G04 #@! TA.AperFunction,SMDPad,CuDef*
G36*
G01*
X152423000Y-106780500D02*
X153673000Y-106780500D01*
G75*
G02*
X153923000Y-107030500I0J-250000D01*
G01*
X153923000Y-107955500D01*
G75*
G02*
X153673000Y-108205500I-250000J0D01*
G01*
X152423000Y-108205500D01*
G75*
G02*
X152173000Y-107955500I0J250000D01*
G01*
X152173000Y-107030500D01*
G75*
G02*
X152423000Y-106780500I250000J0D01*
G01*
G37*
G04 #@! TD.AperFunction*
G04 #@! TA.AperFunction,SMDPad,CuDef*
G36*
G01*
X136909000Y-73607500D02*
X135659000Y-73607500D01*
G75*
G02*
X135409000Y-73357500I0J250000D01*
G01*
X135409000Y-72432500D01*
G75*
G02*
X135659000Y-72182500I250000J0D01*
G01*
X136909000Y-72182500D01*
G75*
G02*
X137159000Y-72432500I0J-250000D01*
G01*
X137159000Y-73357500D01*
G75*
G02*
X136909000Y-73607500I-250000J0D01*
G01*
G37*
G04 #@! TD.AperFunction*
G04 #@! TA.AperFunction,SMDPad,CuDef*
G36*
G01*
X136909000Y-76582500D02*
X135659000Y-76582500D01*
G75*
G02*
X135409000Y-76332500I0J250000D01*
G01*
X135409000Y-75407500D01*
G75*
G02*
X135659000Y-75157500I250000J0D01*
G01*
X136909000Y-75157500D01*
G75*
G02*
X137159000Y-75407500I0J-250000D01*
G01*
X137159000Y-76332500D01*
G75*
G02*
X136909000Y-76582500I-250000J0D01*
G01*
G37*
G04 #@! TD.AperFunction*
G04 #@! TA.AperFunction,SMDPad,CuDef*
G36*
G01*
X136387500Y-107229000D02*
X136387500Y-105979000D01*
G75*
G02*
X136637500Y-105729000I250000J0D01*
G01*
X137562500Y-105729000D01*
G75*
G02*
X137812500Y-105979000I0J-250000D01*
G01*
X137812500Y-107229000D01*
G75*
G02*
X137562500Y-107479000I-250000J0D01*
G01*
X136637500Y-107479000D01*
G75*
G02*
X136387500Y-107229000I0J250000D01*
G01*
G37*
G04 #@! TD.AperFunction*
G04 #@! TA.AperFunction,SMDPad,CuDef*
G36*
G01*
X133412500Y-107229000D02*
X133412500Y-105979000D01*
G75*
G02*
X133662500Y-105729000I250000J0D01*
G01*
X134587500Y-105729000D01*
G75*
G02*
X134837500Y-105979000I0J-250000D01*
G01*
X134837500Y-107229000D01*
G75*
G02*
X134587500Y-107479000I-250000J0D01*
G01*
X133662500Y-107479000D01*
G75*
G02*
X133412500Y-107229000I0J250000D01*
G01*
G37*
G04 #@! TD.AperFunction*
G04 #@! TA.AperFunction,SMDPad,CuDef*
G36*
G01*
X140075000Y-120875000D02*
X141325000Y-120875000D01*
G75*
G02*
X141575000Y-121125000I0J-250000D01*
G01*
X141575000Y-122050000D01*
G75*
G02*
X141325000Y-122300000I-250000J0D01*
G01*
X140075000Y-122300000D01*
G75*
G02*
X139825000Y-122050000I0J250000D01*
G01*
X139825000Y-121125000D01*
G75*
G02*
X140075000Y-120875000I250000J0D01*
G01*
G37*
G04 #@! TD.AperFunction*
G04 #@! TA.AperFunction,SMDPad,CuDef*
G36*
G01*
X140075000Y-117900000D02*
X141325000Y-117900000D01*
G75*
G02*
X141575000Y-118150000I0J-250000D01*
G01*
X141575000Y-119075000D01*
G75*
G02*
X141325000Y-119325000I-250000J0D01*
G01*
X140075000Y-119325000D01*
G75*
G02*
X139825000Y-119075000I0J250000D01*
G01*
X139825000Y-118150000D01*
G75*
G02*
X140075000Y-117900000I250000J0D01*
G01*
G37*
G04 #@! TD.AperFunction*
G04 #@! TA.AperFunction,SMDPad,CuDef*
G36*
G01*
X130237500Y-107229000D02*
X130237500Y-105979000D01*
G75*
G02*
X130487500Y-105729000I250000J0D01*
G01*
X131412500Y-105729000D01*
G75*
G02*
X131662500Y-105979000I0J-250000D01*
G01*
X131662500Y-107229000D01*
G75*
G02*
X131412500Y-107479000I-250000J0D01*
G01*
X130487500Y-107479000D01*
G75*
G02*
X130237500Y-107229000I0J250000D01*
G01*
G37*
G04 #@! TD.AperFunction*
G04 #@! TA.AperFunction,SMDPad,CuDef*
G36*
G01*
X127262500Y-107229000D02*
X127262500Y-105979000D01*
G75*
G02*
X127512500Y-105729000I250000J0D01*
G01*
X128437500Y-105729000D01*
G75*
G02*
X128687500Y-105979000I0J-250000D01*
G01*
X128687500Y-107229000D01*
G75*
G02*
X128437500Y-107479000I-250000J0D01*
G01*
X127512500Y-107479000D01*
G75*
G02*
X127262500Y-107229000I0J250000D01*
G01*
G37*
G04 #@! TD.AperFunction*
G04 #@! TA.AperFunction,SMDPad,CuDef*
G36*
G01*
X140719000Y-126112500D02*
X139469000Y-126112500D01*
G75*
G02*
X139219000Y-125862500I0J250000D01*
G01*
X139219000Y-124937500D01*
G75*
G02*
X139469000Y-124687500I250000J0D01*
G01*
X140719000Y-124687500D01*
G75*
G02*
X140969000Y-124937500I0J-250000D01*
G01*
X140969000Y-125862500D01*
G75*
G02*
X140719000Y-126112500I-250000J0D01*
G01*
G37*
G04 #@! TD.AperFunction*
G04 #@! TA.AperFunction,SMDPad,CuDef*
G36*
G01*
X140719000Y-129087500D02*
X139469000Y-129087500D01*
G75*
G02*
X139219000Y-128837500I0J250000D01*
G01*
X139219000Y-127912500D01*
G75*
G02*
X139469000Y-127662500I250000J0D01*
G01*
X140719000Y-127662500D01*
G75*
G02*
X140969000Y-127912500I0J-250000D01*
G01*
X140969000Y-128837500D01*
G75*
G02*
X140719000Y-129087500I-250000J0D01*
G01*
G37*
G04 #@! TD.AperFunction*
G04 #@! TA.AperFunction,SMDPad,CuDef*
G36*
G01*
X134783500Y-99121000D02*
X134783500Y-100371000D01*
G75*
G02*
X134533500Y-100621000I-250000J0D01*
G01*
X133608500Y-100621000D01*
G75*
G02*
X133358500Y-100371000I0J250000D01*
G01*
X133358500Y-99121000D01*
G75*
G02*
X133608500Y-98871000I250000J0D01*
G01*
X134533500Y-98871000D01*
G75*
G02*
X134783500Y-99121000I0J-250000D01*
G01*
G37*
G04 #@! TD.AperFunction*
G04 #@! TA.AperFunction,SMDPad,CuDef*
G36*
G01*
X137758500Y-99121000D02*
X137758500Y-100371000D01*
G75*
G02*
X137508500Y-100621000I-250000J0D01*
G01*
X136583500Y-100621000D01*
G75*
G02*
X136333500Y-100371000I0J250000D01*
G01*
X136333500Y-99121000D01*
G75*
G02*
X136583500Y-98871000I250000J0D01*
G01*
X137508500Y-98871000D01*
G75*
G02*
X137758500Y-99121000I0J-250000D01*
G01*
G37*
G04 #@! TD.AperFunction*
D17*
X159210000Y-74139000D03*
X160160000Y-76759000D03*
X158260000Y-76759000D03*
G04 #@! TA.AperFunction,SMDPad,CuDef*
G36*
G01*
X128039000Y-91594500D02*
X129289000Y-91594500D01*
G75*
G02*
X129539000Y-91844500I0J-250000D01*
G01*
X129539000Y-92769500D01*
G75*
G02*
X129289000Y-93019500I-250000J0D01*
G01*
X128039000Y-93019500D01*
G75*
G02*
X127789000Y-92769500I0J250000D01*
G01*
X127789000Y-91844500D01*
G75*
G02*
X128039000Y-91594500I250000J0D01*
G01*
G37*
G04 #@! TD.AperFunction*
G04 #@! TA.AperFunction,SMDPad,CuDef*
G36*
G01*
X128039000Y-88619500D02*
X129289000Y-88619500D01*
G75*
G02*
X129539000Y-88869500I0J-250000D01*
G01*
X129539000Y-89794500D01*
G75*
G02*
X129289000Y-90044500I-250000J0D01*
G01*
X128039000Y-90044500D01*
G75*
G02*
X127789000Y-89794500I0J250000D01*
G01*
X127789000Y-88869500D01*
G75*
G02*
X128039000Y-88619500I250000J0D01*
G01*
G37*
G04 #@! TD.AperFunction*
X164290000Y-74139000D03*
X165240000Y-76759000D03*
X163340000Y-76759000D03*
G04 #@! TA.AperFunction,SMDPad,CuDef*
G36*
G01*
X136387500Y-103800000D02*
X136387500Y-102550000D01*
G75*
G02*
X136637500Y-102300000I250000J0D01*
G01*
X137562500Y-102300000D01*
G75*
G02*
X137812500Y-102550000I0J-250000D01*
G01*
X137812500Y-103800000D01*
G75*
G02*
X137562500Y-104050000I-250000J0D01*
G01*
X136637500Y-104050000D01*
G75*
G02*
X136387500Y-103800000I0J250000D01*
G01*
G37*
G04 #@! TD.AperFunction*
G04 #@! TA.AperFunction,SMDPad,CuDef*
G36*
G01*
X133412500Y-103800000D02*
X133412500Y-102550000D01*
G75*
G02*
X133662500Y-102300000I250000J0D01*
G01*
X134587500Y-102300000D01*
G75*
G02*
X134837500Y-102550000I0J-250000D01*
G01*
X134837500Y-103800000D01*
G75*
G02*
X134587500Y-104050000I-250000J0D01*
G01*
X133662500Y-104050000D01*
G75*
G02*
X133412500Y-103800000I0J250000D01*
G01*
G37*
G04 #@! TD.AperFunction*
G04 #@! TA.AperFunction,SMDPad,CuDef*
G36*
G01*
X136575000Y-120875000D02*
X137825000Y-120875000D01*
G75*
G02*
X138075000Y-121125000I0J-250000D01*
G01*
X138075000Y-122050000D01*
G75*
G02*
X137825000Y-122300000I-250000J0D01*
G01*
X136575000Y-122300000D01*
G75*
G02*
X136325000Y-122050000I0J250000D01*
G01*
X136325000Y-121125000D01*
G75*
G02*
X136575000Y-120875000I250000J0D01*
G01*
G37*
G04 #@! TD.AperFunction*
G04 #@! TA.AperFunction,SMDPad,CuDef*
G36*
G01*
X136575000Y-117900000D02*
X137825000Y-117900000D01*
G75*
G02*
X138075000Y-118150000I0J-250000D01*
G01*
X138075000Y-119075000D01*
G75*
G02*
X137825000Y-119325000I-250000J0D01*
G01*
X136575000Y-119325000D01*
G75*
G02*
X136325000Y-119075000I0J250000D01*
G01*
X136325000Y-118150000D01*
G75*
G02*
X136575000Y-117900000I250000J0D01*
G01*
G37*
G04 #@! TD.AperFunction*
G04 #@! TA.AperFunction,SMDPad,CuDef*
G36*
G01*
X130237500Y-96815000D02*
X130237500Y-95565000D01*
G75*
G02*
X130487500Y-95315000I250000J0D01*
G01*
X131412500Y-95315000D01*
G75*
G02*
X131662500Y-95565000I0J-250000D01*
G01*
X131662500Y-96815000D01*
G75*
G02*
X131412500Y-97065000I-250000J0D01*
G01*
X130487500Y-97065000D01*
G75*
G02*
X130237500Y-96815000I0J250000D01*
G01*
G37*
G04 #@! TD.AperFunction*
G04 #@! TA.AperFunction,SMDPad,CuDef*
G36*
G01*
X127262500Y-96815000D02*
X127262500Y-95565000D01*
G75*
G02*
X127512500Y-95315000I250000J0D01*
G01*
X128437500Y-95315000D01*
G75*
G02*
X128687500Y-95565000I0J-250000D01*
G01*
X128687500Y-96815000D01*
G75*
G02*
X128437500Y-97065000I-250000J0D01*
G01*
X127512500Y-97065000D01*
G75*
G02*
X127262500Y-96815000I0J250000D01*
G01*
G37*
G04 #@! TD.AperFunction*
G04 #@! TA.AperFunction,SMDPad,CuDef*
G36*
G01*
X130237500Y-100371000D02*
X130237500Y-99121000D01*
G75*
G02*
X130487500Y-98871000I250000J0D01*
G01*
X131412500Y-98871000D01*
G75*
G02*
X131662500Y-99121000I0J-250000D01*
G01*
X131662500Y-100371000D01*
G75*
G02*
X131412500Y-100621000I-250000J0D01*
G01*
X130487500Y-100621000D01*
G75*
G02*
X130237500Y-100371000I0J250000D01*
G01*
G37*
G04 #@! TD.AperFunction*
G04 #@! TA.AperFunction,SMDPad,CuDef*
G36*
G01*
X127262500Y-100371000D02*
X127262500Y-99121000D01*
G75*
G02*
X127512500Y-98871000I250000J0D01*
G01*
X128437500Y-98871000D01*
G75*
G02*
X128687500Y-99121000I0J-250000D01*
G01*
X128687500Y-100371000D01*
G75*
G02*
X128437500Y-100621000I-250000J0D01*
G01*
X127512500Y-100621000D01*
G75*
G02*
X127262500Y-100371000I0J250000D01*
G01*
G37*
G04 #@! TD.AperFunction*
G04 #@! TA.AperFunction,SMDPad,CuDef*
G36*
G01*
X173671500Y-85131000D02*
X173671500Y-83881000D01*
G75*
G02*
X173921500Y-83631000I250000J0D01*
G01*
X174846500Y-83631000D01*
G75*
G02*
X175096500Y-83881000I0J-250000D01*
G01*
X175096500Y-85131000D01*
G75*
G02*
X174846500Y-85381000I-250000J0D01*
G01*
X173921500Y-85381000D01*
G75*
G02*
X173671500Y-85131000I0J250000D01*
G01*
G37*
G04 #@! TD.AperFunction*
G04 #@! TA.AperFunction,SMDPad,CuDef*
G36*
G01*
X170696500Y-85131000D02*
X170696500Y-83881000D01*
G75*
G02*
X170946500Y-83631000I250000J0D01*
G01*
X171871500Y-83631000D01*
G75*
G02*
X172121500Y-83881000I0J-250000D01*
G01*
X172121500Y-85131000D01*
G75*
G02*
X171871500Y-85381000I-250000J0D01*
G01*
X170946500Y-85381000D01*
G75*
G02*
X170696500Y-85131000I0J250000D01*
G01*
G37*
G04 #@! TD.AperFunction*
G04 #@! TA.AperFunction,SMDPad,CuDef*
G36*
G01*
X134874000Y-109535000D02*
X134874000Y-110785000D01*
G75*
G02*
X134624000Y-111035000I-250000J0D01*
G01*
X133699000Y-111035000D01*
G75*
G02*
X133449000Y-110785000I0J250000D01*
G01*
X133449000Y-109535000D01*
G75*
G02*
X133699000Y-109285000I250000J0D01*
G01*
X134624000Y-109285000D01*
G75*
G02*
X134874000Y-109535000I0J-250000D01*
G01*
G37*
G04 #@! TD.AperFunction*
G04 #@! TA.AperFunction,SMDPad,CuDef*
G36*
G01*
X137849000Y-109535000D02*
X137849000Y-110785000D01*
G75*
G02*
X137599000Y-111035000I-250000J0D01*
G01*
X136674000Y-111035000D01*
G75*
G02*
X136424000Y-110785000I0J250000D01*
G01*
X136424000Y-109535000D01*
G75*
G02*
X136674000Y-109285000I250000J0D01*
G01*
X137599000Y-109285000D01*
G75*
G02*
X137849000Y-109535000I0J-250000D01*
G01*
G37*
G04 #@! TD.AperFunction*
D18*
X148668400Y-73101400D03*
G04 #@! TA.AperFunction,ComponentPad*
G36*
G01*
X152018400Y-72351400D02*
X152018400Y-73851400D01*
G75*
G02*
X151768400Y-74101400I-250000J0D01*
G01*
X150568400Y-74101400D01*
G75*
G02*
X150318400Y-73851400I0J250000D01*
G01*
X150318400Y-72351400D01*
G75*
G02*
X150568400Y-72101400I250000J0D01*
G01*
X151768400Y-72101400D01*
G75*
G02*
X152018400Y-72351400I0J-250000D01*
G01*
G37*
G04 #@! TD.AperFunction*
D13*
X155334000Y-127686000D03*
X155334000Y-130226000D03*
X152794000Y-127686000D03*
X152794000Y-130226000D03*
X150254000Y-127686000D03*
X150254000Y-130226000D03*
X147714000Y-127686000D03*
X147714000Y-130226000D03*
X145174000Y-127686000D03*
D12*
X145174000Y-130226000D03*
D19*
X178550000Y-100000000D03*
D20*
X180070000Y-98470000D03*
X180070000Y-101530000D03*
D21*
X181000000Y-100000000D03*
X181000000Y-97460000D03*
X181000000Y-102540000D03*
D22*
X145750000Y-102800000D03*
X145750000Y-102000000D03*
X145750000Y-101200000D03*
X145750000Y-100400000D03*
X145750000Y-99600000D03*
X145750000Y-98800000D03*
X145750000Y-98000000D03*
X145750000Y-97200000D03*
D23*
X147200000Y-95750000D03*
X148000000Y-95750000D03*
X148800000Y-95750000D03*
X149600000Y-95750000D03*
X150400000Y-95750000D03*
X151200000Y-95750000D03*
X152000000Y-95750000D03*
X152800000Y-95750000D03*
D22*
X154250000Y-97200000D03*
X154250000Y-98000000D03*
X154250000Y-98800000D03*
X154250000Y-99600000D03*
X154250000Y-100400000D03*
X154250000Y-101200000D03*
X154250000Y-102000000D03*
X154250000Y-102800000D03*
D23*
X152800000Y-104250000D03*
X152000000Y-104250000D03*
X151200000Y-104250000D03*
X150400000Y-104250000D03*
X149600000Y-104250000D03*
X148800000Y-104250000D03*
X148000000Y-104250000D03*
X147200000Y-104250000D03*
D24*
X117762500Y-97100000D03*
X117762500Y-102900000D03*
D25*
X117762500Y-103500000D03*
X117762500Y-96500000D03*
D26*
X117762500Y-99000000D03*
D27*
X120462500Y-102500000D03*
D28*
X120462500Y-100000000D03*
X120462500Y-100650000D03*
X120462500Y-101300000D03*
X120462500Y-98700000D03*
X120462500Y-99350000D03*
D27*
X120462500Y-97500000D03*
D26*
X117762500Y-101000000D03*
G04 #@! TA.AperFunction,SMDPad,CuDef*
G36*
G01*
X155801000Y-112309000D02*
X155801000Y-111059000D01*
G75*
G02*
X156051000Y-110809000I250000J0D01*
G01*
X156976000Y-110809000D01*
G75*
G02*
X157226000Y-111059000I0J-250000D01*
G01*
X157226000Y-112309000D01*
G75*
G02*
X156976000Y-112559000I-250000J0D01*
G01*
X156051000Y-112559000D01*
G75*
G02*
X155801000Y-112309000I0J250000D01*
G01*
G37*
G04 #@! TD.AperFunction*
G04 #@! TA.AperFunction,SMDPad,CuDef*
G36*
G01*
X158776000Y-112309000D02*
X158776000Y-111059000D01*
G75*
G02*
X159026000Y-110809000I250000J0D01*
G01*
X159951000Y-110809000D01*
G75*
G02*
X160201000Y-111059000I0J-250000D01*
G01*
X160201000Y-112309000D01*
G75*
G02*
X159951000Y-112559000I-250000J0D01*
G01*
X159026000Y-112559000D01*
G75*
G02*
X158776000Y-112309000I0J250000D01*
G01*
G37*
G04 #@! TD.AperFunction*
D12*
X131966000Y-114960600D03*
D13*
X134506000Y-114960600D03*
X137046000Y-114960600D03*
X139586000Y-114960600D03*
X142126000Y-114960600D03*
X144666000Y-114960600D03*
X147206000Y-114960600D03*
X149746000Y-114960600D03*
G04 #@! TA.AperFunction,SMDPad,CuDef*
G36*
G01*
X134860000Y-95565000D02*
X134860000Y-96815000D01*
G75*
G02*
X134610000Y-97065000I-250000J0D01*
G01*
X133685000Y-97065000D01*
G75*
G02*
X133435000Y-96815000I0J250000D01*
G01*
X133435000Y-95565000D01*
G75*
G02*
X133685000Y-95315000I250000J0D01*
G01*
X134610000Y-95315000D01*
G75*
G02*
X134860000Y-95565000I0J-250000D01*
G01*
G37*
G04 #@! TD.AperFunction*
G04 #@! TA.AperFunction,SMDPad,CuDef*
G36*
G01*
X137835000Y-95565000D02*
X137835000Y-96815000D01*
G75*
G02*
X137585000Y-97065000I-250000J0D01*
G01*
X136660000Y-97065000D01*
G75*
G02*
X136410000Y-96815000I0J250000D01*
G01*
X136410000Y-95565000D01*
G75*
G02*
X136660000Y-95315000I250000J0D01*
G01*
X137585000Y-95315000D01*
G75*
G02*
X137835000Y-95565000I0J-250000D01*
G01*
G37*
G04 #@! TD.AperFunction*
D29*
X120368800Y-106434000D03*
X124868800Y-106434000D03*
X124868800Y-114394000D03*
X120368800Y-114394000D03*
D12*
X154826000Y-114986000D03*
D13*
X157366000Y-114986000D03*
X159906000Y-114986000D03*
X162446000Y-114986000D03*
X164986000Y-114986000D03*
X167526000Y-114986000D03*
G04 #@! TA.AperFunction,ComponentPad*
G36*
G01*
X177427000Y-89341001D02*
X177427000Y-87290999D01*
G75*
G02*
X177676999Y-87041000I249999J0D01*
G01*
X179727001Y-87041000D01*
G75*
G02*
X179977000Y-87290999I0J-249999D01*
G01*
X179977000Y-89341001D01*
G75*
G02*
X179727001Y-89591000I-249999J0D01*
G01*
X177676999Y-89591000D01*
G75*
G02*
X177427000Y-89341001I0J249999D01*
G01*
G37*
G04 #@! TD.AperFunction*
D30*
X143904000Y-98984000D03*
X132220000Y-104572000D03*
X156096000Y-102032000D03*
X145910600Y-80118000D03*
X132000000Y-102000000D03*
X176924000Y-97460000D03*
X127902000Y-94158000D03*
X138062000Y-74346000D03*
X161303000Y-78283000D03*
X172000000Y-95000000D03*
X134353600Y-88126600D03*
X166612410Y-87909600D03*
X135014000Y-108382000D03*
X137300000Y-94195000D03*
X133300000Y-125600000D03*
X134760000Y-97714000D03*
X142634000Y-97714000D03*
X143370600Y-103175000D03*
X140026700Y-123873300D03*
X151219200Y-76962200D03*
X160926653Y-101011347D03*
X159647347Y-101925000D03*
X155772000Y-98800000D03*
X158382000Y-99492000D03*
X162801600Y-99492000D03*
X159144000Y-100254000D03*
X161734800Y-100228600D03*
X144335800Y-104241800D03*
X124600000Y-98984000D03*
X144000000Y-92500000D03*
X125108000Y-100000000D03*
X144499984Y-93500000D03*
X149238000Y-97714000D03*
X161684000Y-97206000D03*
D31*
X125401700Y-93489300D02*
X125401700Y-92964200D01*
X125401700Y-92964200D02*
X125401700Y-96150300D01*
X122852000Y-98700000D02*
X120462500Y-98700000D01*
X125401700Y-96150300D02*
X122852000Y-98700000D01*
X132728000Y-75870000D02*
X132728000Y-81331000D01*
X127521000Y-86538000D02*
X125740998Y-86538000D01*
X123946750Y-88332248D02*
X123946750Y-91509250D01*
X132728000Y-81331000D02*
X127521000Y-86538000D01*
X123946750Y-91509250D02*
X125401700Y-92964200D01*
X122418000Y-89746000D02*
X122418000Y-90706000D01*
X123221250Y-91509250D02*
X123946750Y-91509250D01*
X122418000Y-90706000D02*
X123221250Y-91509250D01*
X125740998Y-86538000D02*
X124981000Y-86538000D01*
X123946750Y-87572250D02*
X123946750Y-88332248D01*
X124981000Y-86538000D02*
X123946750Y-87572250D01*
X132728000Y-75870000D02*
X136284000Y-75870000D01*
X144520000Y-99600000D02*
X143904000Y-98984000D01*
X145750000Y-99600000D02*
X144520000Y-99600000D01*
X152062000Y-80693000D02*
X154569000Y-80693000D01*
X154569000Y-80693000D02*
X155080000Y-81204000D01*
X154250000Y-102000000D02*
X156064000Y-102000000D01*
X156064000Y-102000000D02*
X156096000Y-102032000D01*
X150887000Y-80693000D02*
X149912000Y-79718000D01*
X152062000Y-80693000D02*
X150887000Y-80693000D01*
X148668400Y-73101400D02*
X148668400Y-72481000D01*
X147762000Y-80043000D02*
X145985600Y-80043000D01*
X145985600Y-80043000D02*
X145910600Y-80118000D01*
X139840000Y-71196409D02*
X139941609Y-71094800D01*
X139840000Y-72895000D02*
X139840000Y-71196409D01*
X124868800Y-106434000D02*
X124868800Y-105171000D01*
X124868800Y-105171000D02*
X120997800Y-101300000D01*
X133631000Y-99746000D02*
X134071000Y-99746000D01*
X130950000Y-96190000D02*
X130950000Y-97065000D01*
X128664000Y-92307000D02*
X128167599Y-91810599D01*
X124913800Y-114439000D02*
X124868800Y-114394000D01*
X125225007Y-114037793D02*
X124868800Y-114394000D01*
X124868800Y-106434000D02*
X124868800Y-114394000D01*
X134161500Y-110160000D02*
X133744000Y-110160000D01*
X172000000Y-92000000D02*
X172000000Y-89430000D01*
X174384000Y-87046000D02*
X174384000Y-84506000D01*
X172000000Y-89430000D02*
X174384000Y-87046000D01*
X174384000Y-84506000D02*
X174384000Y-79172000D01*
X174384000Y-79172000D02*
X172352000Y-77140000D01*
X172352000Y-77140000D02*
X172098000Y-77140000D01*
X180000000Y-102540000D02*
X176924000Y-102540000D01*
X174000000Y-105464000D02*
X174000000Y-108000000D01*
X176924000Y-102540000D02*
X174000000Y-105464000D01*
X180000000Y-97460000D02*
X176924000Y-97460000D01*
X128664000Y-93396000D02*
X127902000Y-94158000D01*
X128664000Y-92307000D02*
X128664000Y-93396000D01*
X160000000Y-105936000D02*
X156096000Y-102032000D01*
X160000000Y-108000000D02*
X160000000Y-105936000D01*
X159437000Y-108563000D02*
X160000000Y-108000000D01*
X156477000Y-108563000D02*
X159437000Y-108563000D01*
X153048000Y-111658600D02*
X149746000Y-114960600D01*
X153048000Y-110468000D02*
X153048000Y-111658600D01*
X174000000Y-110925000D02*
X174000000Y-108000000D01*
X169939000Y-114986000D02*
X174000000Y-110925000D01*
X167526000Y-114986000D02*
X169939000Y-114986000D01*
X179070000Y-101610000D02*
X180000000Y-102540000D01*
X179070000Y-101530000D02*
X179070000Y-101610000D01*
X179070000Y-98390000D02*
X180000000Y-97460000D01*
X179070000Y-98470000D02*
X179070000Y-98390000D01*
X125418000Y-88796000D02*
X126279000Y-88796000D01*
X130615000Y-84460000D02*
X131966000Y-84460000D01*
X126279000Y-88796000D02*
X130615000Y-84460000D01*
X120462500Y-101300000D02*
X120462500Y-102500000D01*
X122426700Y-95535800D02*
X120462500Y-97500000D01*
X122426700Y-92964200D02*
X122426700Y-95535800D01*
X117762500Y-97100000D02*
X117762500Y-99000000D01*
X117762500Y-99000000D02*
X117762500Y-101000000D01*
X117762500Y-101000000D02*
X117762500Y-102900000D01*
X172000000Y-95000000D02*
X172000000Y-92000000D01*
X155651500Y-121336000D02*
X155700000Y-121287500D01*
X134001500Y-110000000D02*
X134161500Y-110160000D01*
X130987500Y-110000000D02*
X134001500Y-110000000D01*
X134125000Y-110123500D02*
X134161500Y-110160000D01*
X134125000Y-106604000D02*
X134125000Y-110123500D01*
X130987500Y-106641500D02*
X130950000Y-106604000D01*
X130987500Y-110100000D02*
X130987500Y-106641500D01*
X137200000Y-121587500D02*
X140700000Y-121587500D01*
X140700000Y-121587500D02*
X142612500Y-123500000D01*
X152887500Y-123500000D02*
X154800000Y-121587500D01*
X142612500Y-123500000D02*
X152887500Y-123500000D01*
X130950000Y-106604000D02*
X134125000Y-106604000D01*
X130950000Y-105842000D02*
X132220000Y-104572000D01*
X130950000Y-106604000D02*
X130950000Y-105842000D01*
X155334000Y-130226000D02*
X157300000Y-128260000D01*
X157300000Y-124087500D02*
X154800000Y-121587500D01*
X157300000Y-128260000D02*
X157300000Y-124087500D01*
X134353600Y-92859400D02*
X134325000Y-92888000D01*
X138697000Y-99746000D02*
X137046000Y-99746000D01*
X139255800Y-99187200D02*
X138697000Y-99746000D01*
X141618000Y-99187200D02*
X139255800Y-99187200D01*
X145750000Y-101200000D02*
X143630800Y-101200000D01*
X166714010Y-87808000D02*
X166612410Y-87909600D01*
X134325000Y-92888000D02*
X134760000Y-92888000D01*
X135776000Y-98476000D02*
X137046000Y-99746000D01*
X135776000Y-93904000D02*
X135776000Y-98476000D01*
X166000000Y-88522010D02*
X166612410Y-87909600D01*
X166000000Y-92000000D02*
X166000000Y-88522010D01*
X170016010Y-84506000D02*
X166612410Y-87909600D01*
X171409000Y-84506000D02*
X170016010Y-84506000D01*
X159488500Y-111684000D02*
X159488500Y-112609500D01*
X159488500Y-112609500D02*
X158636000Y-113462000D01*
X156350000Y-113462000D02*
X154826000Y-114986000D01*
X158636000Y-113462000D02*
X156350000Y-113462000D01*
X122418000Y-87846000D02*
X122733000Y-87846000D01*
X144700000Y-98000000D02*
X145750000Y-98000000D01*
X142890000Y-96190000D02*
X144700000Y-98000000D01*
X142888000Y-96190000D02*
X142890000Y-96190000D01*
X139586000Y-92888000D02*
X142888000Y-96190000D01*
X137300000Y-92888000D02*
X139586000Y-92888000D01*
X136538000Y-128375000D02*
X136538000Y-128346400D01*
X136792000Y-110160000D02*
X137136500Y-110160000D01*
X135014000Y-108382000D02*
X136792000Y-110160000D01*
X137300000Y-92888000D02*
X137300000Y-94195000D01*
X136538000Y-128375000D02*
X136075000Y-128375000D01*
X136075000Y-128375000D02*
X133300000Y-125600000D01*
X139332000Y-103175000D02*
X137100000Y-103175000D01*
X147200000Y-104250000D02*
X147200000Y-105086000D01*
X141110000Y-101397000D02*
X139332000Y-103175000D01*
X141110000Y-102089002D02*
X141110000Y-101397000D01*
X144106998Y-105086000D02*
X141110000Y-102089002D01*
X147200000Y-105086000D02*
X144106998Y-105086000D01*
X149600000Y-104250000D02*
X149400001Y-104449999D01*
X137046000Y-113970000D02*
X137046000Y-114960600D01*
X144412000Y-106604000D02*
X137046000Y-113970000D01*
X148296000Y-106604000D02*
X144412000Y-106604000D01*
X149600000Y-105300000D02*
X148296000Y-106604000D01*
X149600000Y-104250000D02*
X149600000Y-105300000D01*
X137046000Y-118458500D02*
X137200000Y-118612500D01*
X137046000Y-114960600D02*
X137046000Y-118458500D01*
X140700000Y-118612500D02*
X137200000Y-118612500D01*
X154250000Y-102800000D02*
X155594000Y-102800000D01*
X156477000Y-103683000D02*
X155594000Y-102800000D01*
X156477000Y-105588000D02*
X156477000Y-103683000D01*
X154953000Y-105588000D02*
X153048000Y-107493000D01*
X156477000Y-105588000D02*
X154953000Y-105588000D01*
X153048000Y-107874000D02*
X153048000Y-107493000D01*
X153048000Y-108218500D02*
X156513500Y-111684000D01*
X153048000Y-107493000D02*
X153048000Y-108218500D01*
X145750000Y-98800000D02*
X144793002Y-98800000D01*
X129621815Y-94543185D02*
X127975000Y-96190000D01*
X134746199Y-95867399D02*
X133421985Y-94543185D01*
X127975000Y-99746000D02*
X127975000Y-96190000D01*
X133421985Y-94543185D02*
X129621815Y-94543185D01*
X134147500Y-97101500D02*
X134760000Y-97714000D01*
X134147500Y-96190000D02*
X134147500Y-97101500D01*
X143707002Y-97714000D02*
X142634000Y-97714000D01*
X144793002Y-98800000D02*
X143707002Y-97714000D01*
X154775200Y-75489000D02*
X147890690Y-75489000D01*
X145682000Y-73280310D02*
X147890690Y-75489000D01*
X145682000Y-71755200D02*
X145682000Y-73280310D01*
X136284000Y-72895000D02*
X136338000Y-72895000D01*
X136338000Y-72895000D02*
X139078000Y-70155000D01*
X144081800Y-70155000D02*
X145682000Y-71755200D01*
X139078000Y-70155000D02*
X144081800Y-70155000D01*
X154775200Y-75489000D02*
X164351000Y-75489000D01*
X165240000Y-76378000D02*
X165240000Y-76759000D01*
X164351000Y-75489000D02*
X165240000Y-76378000D01*
X142690000Y-121390000D02*
X144031000Y-121390000D01*
X141600000Y-120300000D02*
X142690000Y-121390000D01*
X128012500Y-110000000D02*
X128012500Y-114212500D01*
X134100000Y-120300000D02*
X141600000Y-120300000D01*
X128012500Y-114212500D02*
X134100000Y-120300000D01*
X145428000Y-125400000D02*
X147714000Y-127686000D01*
X140094000Y-125400000D02*
X145428000Y-125400000D01*
X144545600Y-102000000D02*
X143370600Y-103175000D01*
X145750000Y-102000000D02*
X144545600Y-102000000D01*
X139840000Y-125146000D02*
X140094000Y-125400000D01*
X140094000Y-125400000D02*
X140094000Y-127194000D01*
X140026700Y-123873300D02*
X140094000Y-123940600D01*
X140094000Y-123940600D02*
X140094000Y-125400000D01*
X152062000Y-78743000D02*
X152062000Y-77805000D01*
X152062000Y-77805000D02*
X151219200Y-76962200D01*
X164290000Y-74139000D02*
X164290000Y-73777000D01*
X164290000Y-73777000D02*
X162827000Y-72314000D01*
X154927600Y-73101400D02*
X151168400Y-73101400D01*
X155715000Y-72314000D02*
X154927600Y-73101400D01*
X159210000Y-73904000D02*
X157620000Y-72314000D01*
X159210000Y-74139000D02*
X159210000Y-73904000D01*
X157620000Y-72314000D02*
X155715000Y-72314000D01*
X162827000Y-72314000D02*
X157620000Y-72314000D01*
X136331600Y-69291400D02*
X147358400Y-69291400D01*
X147358400Y-69291400D02*
X151168400Y-73101400D01*
X132728000Y-72895000D02*
X136331600Y-69291400D01*
X159906000Y-114986000D02*
X162954000Y-111938000D01*
X170925001Y-109510001D02*
X170925001Y-97303001D01*
X168497002Y-111938000D02*
X170925001Y-109510001D01*
X162954000Y-111938000D02*
X168497002Y-111938000D01*
X170000000Y-96378000D02*
X170000000Y-92000000D01*
X170925001Y-97303001D02*
X170000000Y-96378000D01*
X160000000Y-92000000D02*
X160000000Y-97554000D01*
X160926653Y-98480653D02*
X160926653Y-101011347D01*
X160000000Y-97554000D02*
X160926653Y-98480653D01*
X171844000Y-107844000D02*
X172000000Y-108000000D01*
X162446000Y-114986000D02*
X164478000Y-112954000D01*
X164478000Y-112954000D02*
X169812000Y-112954000D01*
X172000000Y-110766000D02*
X172000000Y-108000000D01*
X169812000Y-112954000D02*
X172000000Y-110766000D01*
X169964400Y-108035600D02*
X170000000Y-108000000D01*
X170000000Y-108435002D02*
X170000000Y-108000000D01*
X152800000Y-104250000D02*
X152800000Y-105300000D01*
X152800000Y-105300000D02*
X149579980Y-108520020D01*
X149579980Y-108520020D02*
X149579980Y-108548020D01*
X147206000Y-110922000D02*
X147206000Y-114960600D01*
X149579980Y-108548020D02*
X147206000Y-110922000D01*
X154445000Y-112954000D02*
X150787400Y-116611600D01*
X157493000Y-112954000D02*
X154445000Y-112954000D01*
X158001000Y-111049000D02*
X158001000Y-112446000D01*
X159017000Y-110033000D02*
X158001000Y-111049000D01*
X158001000Y-112446000D02*
X157493000Y-112954000D01*
X162192000Y-111303000D02*
X160922000Y-110033000D01*
X150787400Y-116611600D02*
X148857000Y-116611600D01*
X160922000Y-110033000D02*
X159017000Y-110033000D01*
X168161000Y-111303000D02*
X162192000Y-111303000D01*
X148857000Y-116611600D02*
X147206000Y-114960600D01*
X170000000Y-109464000D02*
X168161000Y-111303000D01*
X170000000Y-108000000D02*
X170000000Y-109464000D01*
X162000000Y-104277653D02*
X162000000Y-108000000D01*
X159647347Y-101925000D02*
X162000000Y-104277653D01*
X155772000Y-98800000D02*
X156604000Y-97968000D01*
X154250000Y-98800000D02*
X155772000Y-98800000D01*
X156604000Y-85222000D02*
X157366000Y-84460000D01*
X156604000Y-97968000D02*
X156604000Y-85222000D01*
X158274000Y-99600000D02*
X158382000Y-99492000D01*
X154250000Y-99600000D02*
X158274000Y-99600000D01*
X168000000Y-104690400D02*
X162801600Y-99492000D01*
X168000000Y-108000000D02*
X168000000Y-104690400D01*
X157366000Y-97206000D02*
X158382000Y-98222000D01*
X157366000Y-87000000D02*
X157366000Y-97206000D01*
X158382000Y-98222000D02*
X158382000Y-99492000D01*
X159906000Y-84460000D02*
X157366000Y-87000000D01*
X158998000Y-100400000D02*
X159144000Y-100254000D01*
X154250000Y-100400000D02*
X158998000Y-100400000D01*
X166000000Y-108000000D02*
X166000000Y-104493800D01*
X166000000Y-104493800D02*
X161734800Y-100228600D01*
X159144000Y-98222000D02*
X159144000Y-100254000D01*
X158128000Y-97206000D02*
X159144000Y-98222000D01*
X158128000Y-88824000D02*
X158128000Y-97206000D01*
X160922000Y-86030000D02*
X158128000Y-88824000D01*
X160922000Y-85984000D02*
X160922000Y-86030000D01*
X162446000Y-84460000D02*
X160922000Y-85984000D01*
X154250000Y-101200000D02*
X160090000Y-101200000D01*
X164000000Y-105110000D02*
X164000000Y-108000000D01*
X160090000Y-101200000D02*
X164000000Y-105110000D01*
X164986000Y-84460000D02*
X164780820Y-84460000D01*
X158890000Y-97331590D02*
X159906000Y-98347590D01*
X158890000Y-90350820D02*
X158890000Y-97331590D01*
X164780820Y-84460000D02*
X158890000Y-90350820D01*
X159906000Y-101016000D02*
X160090000Y-101200000D01*
X159906000Y-98347590D02*
X159906000Y-101016000D01*
X148800000Y-95750000D02*
X148800000Y-94700000D01*
X148800000Y-94700000D02*
X145464000Y-91364000D01*
X143950000Y-91364000D02*
X137046000Y-84460000D01*
X145464000Y-91364000D02*
X143950000Y-91364000D01*
X174000000Y-96450000D02*
X177550000Y-100000000D01*
X174000000Y-92000000D02*
X174000000Y-96450000D01*
X180000000Y-100000000D02*
X177550000Y-100000000D01*
X174000000Y-92000000D02*
X174000000Y-89970000D01*
X175654000Y-88316000D02*
X178702000Y-88316000D01*
X174000000Y-89970000D02*
X175654000Y-88316000D01*
X158260000Y-77770000D02*
X158260000Y-76759000D01*
X156637000Y-79393000D02*
X158260000Y-77770000D01*
X152062000Y-79393000D02*
X156637000Y-79393000D01*
X152062000Y-80043000D02*
X159543000Y-80043000D01*
X163340000Y-76759000D02*
X163340000Y-77897000D01*
X161194000Y-80043000D02*
X159543000Y-80043000D01*
X163340000Y-77897000D02*
X161194000Y-80043000D01*
X147762000Y-78743000D02*
X145761000Y-78743000D01*
X145761000Y-78743000D02*
X144666000Y-77648000D01*
X144666000Y-74419000D02*
X143142000Y-72895000D01*
X144666000Y-77648000D02*
X144666000Y-74419000D01*
X143142000Y-75870000D02*
X140602000Y-75870000D01*
X145774590Y-79393000D02*
X147762000Y-79393000D01*
X143396000Y-77014410D02*
X145774590Y-79393000D01*
X143396000Y-75870000D02*
X143396000Y-77014410D01*
X120368800Y-106434000D02*
X120368800Y-114394000D01*
X137354000Y-106858000D02*
X137100000Y-106604000D01*
X139767000Y-106858000D02*
X137354000Y-106858000D01*
X148000000Y-104250000D02*
X148000000Y-104995789D01*
X140348000Y-106277000D02*
X139767000Y-106858000D01*
X141110000Y-106277000D02*
X140348000Y-106277000D01*
X141780790Y-105606210D02*
X141110000Y-106277000D01*
X147503792Y-105606210D02*
X141780790Y-105606210D01*
X148000000Y-105110002D02*
X147503792Y-105606210D01*
X148000000Y-104250000D02*
X148000000Y-105110002D01*
X145750000Y-102800000D02*
X144335800Y-104214200D01*
X144335800Y-104214200D02*
X144335800Y-104241800D01*
X124234000Y-99350000D02*
X124600000Y-98984000D01*
X148000000Y-94700000D02*
X145800000Y-92500000D01*
X148000000Y-95750000D02*
X148000000Y-94700000D01*
X145800000Y-92500000D02*
X144000000Y-92500000D01*
X124234000Y-99350000D02*
X120462500Y-99350000D01*
X147200000Y-94700000D02*
X146000000Y-93500000D01*
X147200000Y-95750000D02*
X147200000Y-94700000D01*
X146000000Y-93500000D02*
X144499984Y-93500000D01*
X120536000Y-100000000D02*
X125108000Y-100000000D01*
X120462500Y-100000000D02*
X120536000Y-100000000D01*
X139586000Y-112446000D02*
X139586000Y-114960600D01*
X144920000Y-107112000D02*
X139586000Y-112446000D01*
X148588000Y-107112000D02*
X144920000Y-107112000D01*
X150400000Y-105300000D02*
X148588000Y-107112000D01*
X150400000Y-104250000D02*
X150400000Y-105300000D01*
X151200000Y-105136410D02*
X151200000Y-104250000D01*
X142126000Y-114960600D02*
X142126000Y-114210410D01*
X151200000Y-105136410D02*
X148716410Y-107620000D01*
X148716410Y-107620000D02*
X146444000Y-107620000D01*
X142126000Y-111938000D02*
X142126000Y-114960600D01*
X146444000Y-107620000D02*
X142126000Y-111938000D01*
X144666000Y-110922000D02*
X144666000Y-114960600D01*
X147517990Y-108070010D02*
X144666000Y-110922000D01*
X149039992Y-108070010D02*
X147517990Y-108070010D01*
X152000000Y-105110002D02*
X149039992Y-108070010D01*
X152000000Y-104250000D02*
X152000000Y-105110002D01*
X144666000Y-114960600D02*
X144666000Y-116383000D01*
X144031000Y-117018000D02*
X144031000Y-118415000D01*
X144666000Y-116383000D02*
X144031000Y-117018000D01*
X137528600Y-111938000D02*
X134506000Y-114960600D01*
X138062000Y-111938000D02*
X137528600Y-111938000D01*
X143904000Y-106096000D02*
X138062000Y-111938000D01*
X148004000Y-106096000D02*
X143904000Y-106096000D01*
X148800000Y-105300000D02*
X148004000Y-106096000D01*
X148800000Y-104250000D02*
X148800000Y-105300000D01*
X152286000Y-91110000D02*
X152286000Y-84460000D01*
X154250000Y-93074000D02*
X152286000Y-91110000D01*
X154250000Y-97200000D02*
X154250000Y-93074000D01*
X154826000Y-92380000D02*
X154826000Y-84460000D01*
X155842000Y-97714000D02*
X155842000Y-93396000D01*
X155842000Y-93396000D02*
X154826000Y-92380000D01*
X155556000Y-98000000D02*
X155842000Y-97714000D01*
X154250000Y-98000000D02*
X155556000Y-98000000D01*
X149746000Y-90856000D02*
X149746000Y-84460000D01*
X152800000Y-93910000D02*
X149746000Y-90856000D01*
X152800000Y-95750000D02*
X152800000Y-93910000D01*
X152000000Y-95750000D02*
X152000000Y-94700000D01*
X147206000Y-84460000D02*
X147206000Y-89586000D01*
X152000000Y-94380000D02*
X152000000Y-95750000D01*
X147206000Y-89586000D02*
X152000000Y-94380000D01*
X144666000Y-87808000D02*
X144666000Y-84460000D01*
X151200000Y-94342000D02*
X144666000Y-87808000D01*
X151200000Y-95750000D02*
X151200000Y-94342000D01*
X142126000Y-86284000D02*
X142126000Y-84460000D01*
X150400000Y-94558000D02*
X142126000Y-86284000D01*
X150400000Y-95750000D02*
X150400000Y-94558000D01*
X149600000Y-95750000D02*
X149600000Y-94672400D01*
X149600000Y-94672400D02*
X145783600Y-90856000D01*
X145783600Y-90856000D02*
X144666000Y-90856000D01*
X139586000Y-85776000D02*
X139586000Y-84460000D01*
X144666000Y-90856000D02*
X139586000Y-85776000D01*
X136510000Y-96190000D02*
X139714410Y-96190000D01*
X143924410Y-100400000D02*
X145750000Y-100400000D01*
X139714410Y-96190000D02*
X143924410Y-100400000D01*
X148724000Y-97200000D02*
X149238000Y-97714000D01*
X145750000Y-97200000D02*
X148724000Y-97200000D01*
X164000000Y-94890000D02*
X164000000Y-92000000D01*
X134506000Y-84460000D02*
X134506000Y-87046000D01*
X145750000Y-97200000D02*
X144660000Y-97200000D01*
X144660000Y-97200000D02*
X134506000Y-87046000D01*
X161684000Y-97206000D02*
X164000000Y-94890000D01*
X136538000Y-125400000D02*
X136538000Y-125654000D01*
X147968000Y-125908000D02*
X153556000Y-125908000D01*
X136538000Y-123876000D02*
X137414000Y-123000000D01*
X136538000Y-125400000D02*
X136538000Y-123876000D01*
X153556000Y-125908000D02*
X155334000Y-127686000D01*
X142253000Y-124765000D02*
X146825000Y-124765000D01*
X137414000Y-123000000D02*
X140488000Y-123000000D01*
X140488000Y-123000000D02*
X142253000Y-124765000D01*
X146825000Y-124765000D02*
X147968000Y-125908000D01*
D32*
X132813992Y-95391746D02*
X132796928Y-95565000D01*
X132796928Y-96815000D01*
X132813992Y-96988254D01*
X132864528Y-97154850D01*
X132946595Y-97308386D01*
X133057038Y-97442962D01*
X133191614Y-97553405D01*
X133345150Y-97635472D01*
X133511746Y-97686008D01*
X133673099Y-97701900D01*
X133725000Y-97753801D01*
X133725000Y-97815939D01*
X133764774Y-98015898D01*
X133842795Y-98204256D01*
X133943998Y-98355717D01*
X133943998Y-98394748D01*
X133785250Y-98236000D01*
X133358500Y-98232928D01*
X133234018Y-98245188D01*
X133114320Y-98281498D01*
X133004006Y-98340463D01*
X132907315Y-98419815D01*
X132827963Y-98516506D01*
X132768998Y-98626820D01*
X132732688Y-98746518D01*
X132720428Y-98871000D01*
X132723500Y-99460250D01*
X132882250Y-99619000D01*
X133944000Y-99619000D01*
X133944000Y-99599000D01*
X134198000Y-99599000D01*
X134198000Y-99619000D01*
X134218000Y-99619000D01*
X134218000Y-99873000D01*
X134198000Y-99873000D01*
X134198000Y-101097250D01*
X134356750Y-101256000D01*
X134679394Y-101258323D01*
X134682357Y-101663045D01*
X134410750Y-101665000D01*
X134252000Y-101823750D01*
X134252000Y-103048000D01*
X134272000Y-103048000D01*
X134272000Y-103302000D01*
X134252000Y-103302000D01*
X134252000Y-104526250D01*
X134410750Y-104685000D01*
X134704494Y-104687115D01*
X134707457Y-105091864D01*
X134410750Y-105094000D01*
X134252000Y-105252750D01*
X134252000Y-106473000D01*
X133998000Y-106473000D01*
X133998000Y-105252750D01*
X133839250Y-105094000D01*
X133412500Y-105090928D01*
X133288018Y-105103188D01*
X133168320Y-105139498D01*
X133058006Y-105198463D01*
X132961315Y-105277815D01*
X132881963Y-105374506D01*
X132822998Y-105484820D01*
X132786688Y-105604518D01*
X132774428Y-105729000D01*
X132777500Y-106318250D01*
X132932250Y-106473000D01*
X132142750Y-106473000D01*
X132297500Y-106318250D01*
X132300572Y-105729000D01*
X132288312Y-105604518D01*
X132252002Y-105484820D01*
X132193037Y-105374506D01*
X132113685Y-105277815D01*
X132016994Y-105198463D01*
X131906680Y-105139498D01*
X131786982Y-105103188D01*
X131662500Y-105090928D01*
X131235750Y-105094000D01*
X131077000Y-105252750D01*
X131077000Y-106473000D01*
X130823000Y-106473000D01*
X130823000Y-105252750D01*
X130771263Y-105201013D01*
X130762838Y-104050000D01*
X132774428Y-104050000D01*
X132786688Y-104174482D01*
X132822998Y-104294180D01*
X132881963Y-104404494D01*
X132961315Y-104501185D01*
X133058006Y-104580537D01*
X133168320Y-104639502D01*
X133288018Y-104675812D01*
X133412500Y-104688072D01*
X133839250Y-104685000D01*
X133998000Y-104526250D01*
X133998000Y-103302000D01*
X132936250Y-103302000D01*
X132777500Y-103460750D01*
X132774428Y-104050000D01*
X130762838Y-104050000D01*
X130750028Y-102300000D01*
X132774428Y-102300000D01*
X132777500Y-102889250D01*
X132936250Y-103048000D01*
X133998000Y-103048000D01*
X133998000Y-101823750D01*
X133839250Y-101665000D01*
X133412500Y-101661928D01*
X133288018Y-101674188D01*
X133168320Y-101710498D01*
X133058006Y-101769463D01*
X132961315Y-101848815D01*
X132881963Y-101945506D01*
X132822998Y-102055820D01*
X132786688Y-102175518D01*
X132774428Y-102300000D01*
X130750028Y-102300000D01*
X130741817Y-101178433D01*
X130823000Y-101097250D01*
X130823000Y-99873000D01*
X131077000Y-99873000D01*
X131077000Y-101097250D01*
X131235750Y-101256000D01*
X131662500Y-101259072D01*
X131786982Y-101246812D01*
X131906680Y-101210502D01*
X132016994Y-101151537D01*
X132113685Y-101072185D01*
X132193037Y-100975494D01*
X132252002Y-100865180D01*
X132288312Y-100745482D01*
X132300572Y-100621000D01*
X132720428Y-100621000D01*
X132732688Y-100745482D01*
X132768998Y-100865180D01*
X132827963Y-100975494D01*
X132907315Y-101072185D01*
X133004006Y-101151537D01*
X133114320Y-101210502D01*
X133234018Y-101246812D01*
X133358500Y-101259072D01*
X133785250Y-101256000D01*
X133944000Y-101097250D01*
X133944000Y-99873000D01*
X132882250Y-99873000D01*
X132723500Y-100031750D01*
X132720428Y-100621000D01*
X132300572Y-100621000D01*
X132297500Y-100031750D01*
X132138750Y-99873000D01*
X131077000Y-99873000D01*
X130823000Y-99873000D01*
X130803000Y-99873000D01*
X130803000Y-99619000D01*
X130823000Y-99619000D01*
X130823000Y-98394750D01*
X131077000Y-98394750D01*
X131077000Y-99619000D01*
X132138750Y-99619000D01*
X132297500Y-99460250D01*
X132300572Y-98871000D01*
X132288312Y-98746518D01*
X132252002Y-98626820D01*
X132193037Y-98516506D01*
X132113685Y-98419815D01*
X132016994Y-98340463D01*
X131906680Y-98281498D01*
X131786982Y-98245188D01*
X131662500Y-98232928D01*
X131235750Y-98236000D01*
X131077000Y-98394750D01*
X130823000Y-98394750D01*
X130720690Y-98292440D01*
X130715975Y-97648275D01*
X130823000Y-97541250D01*
X130823000Y-96317000D01*
X131077000Y-96317000D01*
X131077000Y-97541250D01*
X131235750Y-97700000D01*
X131662500Y-97703072D01*
X131786982Y-97690812D01*
X131906680Y-97654502D01*
X132016994Y-97595537D01*
X132113685Y-97516185D01*
X132193037Y-97419494D01*
X132252002Y-97309180D01*
X132288312Y-97189482D01*
X132300572Y-97065000D01*
X132297500Y-96475750D01*
X132138750Y-96317000D01*
X131077000Y-96317000D01*
X130823000Y-96317000D01*
X130803000Y-96317000D01*
X130803000Y-96063000D01*
X130823000Y-96063000D01*
X130823000Y-96043000D01*
X131077000Y-96043000D01*
X131077000Y-96063000D01*
X132138750Y-96063000D01*
X132297500Y-95904250D01*
X132300572Y-95315000D01*
X132299408Y-95303185D01*
X132840857Y-95303185D01*
X132813992Y-95391746D01*
G04 #@! TA.AperFunction,Conductor*
D33*
G36*
X132813992Y-95391746D02*
G01*
X132796928Y-95565000D01*
X132796928Y-96815000D01*
X132813992Y-96988254D01*
X132864528Y-97154850D01*
X132946595Y-97308386D01*
X133057038Y-97442962D01*
X133191614Y-97553405D01*
X133345150Y-97635472D01*
X133511746Y-97686008D01*
X133673099Y-97701900D01*
X133725000Y-97753801D01*
X133725000Y-97815939D01*
X133764774Y-98015898D01*
X133842795Y-98204256D01*
X133943998Y-98355717D01*
X133943998Y-98394748D01*
X133785250Y-98236000D01*
X133358500Y-98232928D01*
X133234018Y-98245188D01*
X133114320Y-98281498D01*
X133004006Y-98340463D01*
X132907315Y-98419815D01*
X132827963Y-98516506D01*
X132768998Y-98626820D01*
X132732688Y-98746518D01*
X132720428Y-98871000D01*
X132723500Y-99460250D01*
X132882250Y-99619000D01*
X133944000Y-99619000D01*
X133944000Y-99599000D01*
X134198000Y-99599000D01*
X134198000Y-99619000D01*
X134218000Y-99619000D01*
X134218000Y-99873000D01*
X134198000Y-99873000D01*
X134198000Y-101097250D01*
X134356750Y-101256000D01*
X134679394Y-101258323D01*
X134682357Y-101663045D01*
X134410750Y-101665000D01*
X134252000Y-101823750D01*
X134252000Y-103048000D01*
X134272000Y-103048000D01*
X134272000Y-103302000D01*
X134252000Y-103302000D01*
X134252000Y-104526250D01*
X134410750Y-104685000D01*
X134704494Y-104687115D01*
X134707457Y-105091864D01*
X134410750Y-105094000D01*
X134252000Y-105252750D01*
X134252000Y-106473000D01*
X133998000Y-106473000D01*
X133998000Y-105252750D01*
X133839250Y-105094000D01*
X133412500Y-105090928D01*
X133288018Y-105103188D01*
X133168320Y-105139498D01*
X133058006Y-105198463D01*
X132961315Y-105277815D01*
X132881963Y-105374506D01*
X132822998Y-105484820D01*
X132786688Y-105604518D01*
X132774428Y-105729000D01*
X132777500Y-106318250D01*
X132932250Y-106473000D01*
X132142750Y-106473000D01*
X132297500Y-106318250D01*
X132300572Y-105729000D01*
X132288312Y-105604518D01*
X132252002Y-105484820D01*
X132193037Y-105374506D01*
X132113685Y-105277815D01*
X132016994Y-105198463D01*
X131906680Y-105139498D01*
X131786982Y-105103188D01*
X131662500Y-105090928D01*
X131235750Y-105094000D01*
X131077000Y-105252750D01*
X131077000Y-106473000D01*
X130823000Y-106473000D01*
X130823000Y-105252750D01*
X130771263Y-105201013D01*
X130762838Y-104050000D01*
X132774428Y-104050000D01*
X132786688Y-104174482D01*
X132822998Y-104294180D01*
X132881963Y-104404494D01*
X132961315Y-104501185D01*
X133058006Y-104580537D01*
X133168320Y-104639502D01*
X133288018Y-104675812D01*
X133412500Y-104688072D01*
X133839250Y-104685000D01*
X133998000Y-104526250D01*
X133998000Y-103302000D01*
X132936250Y-103302000D01*
X132777500Y-103460750D01*
X132774428Y-104050000D01*
X130762838Y-104050000D01*
X130750028Y-102300000D01*
X132774428Y-102300000D01*
X132777500Y-102889250D01*
X132936250Y-103048000D01*
X133998000Y-103048000D01*
X133998000Y-101823750D01*
X133839250Y-101665000D01*
X133412500Y-101661928D01*
X133288018Y-101674188D01*
X133168320Y-101710498D01*
X133058006Y-101769463D01*
X132961315Y-101848815D01*
X132881963Y-101945506D01*
X132822998Y-102055820D01*
X132786688Y-102175518D01*
X132774428Y-102300000D01*
X130750028Y-102300000D01*
X130741817Y-101178433D01*
X130823000Y-101097250D01*
X130823000Y-99873000D01*
X131077000Y-99873000D01*
X131077000Y-101097250D01*
X131235750Y-101256000D01*
X131662500Y-101259072D01*
X131786982Y-101246812D01*
X131906680Y-101210502D01*
X132016994Y-101151537D01*
X132113685Y-101072185D01*
X132193037Y-100975494D01*
X132252002Y-100865180D01*
X132288312Y-100745482D01*
X132300572Y-100621000D01*
X132720428Y-100621000D01*
X132732688Y-100745482D01*
X132768998Y-100865180D01*
X132827963Y-100975494D01*
X132907315Y-101072185D01*
X133004006Y-101151537D01*
X133114320Y-101210502D01*
X133234018Y-101246812D01*
X133358500Y-101259072D01*
X133785250Y-101256000D01*
X133944000Y-101097250D01*
X133944000Y-99873000D01*
X132882250Y-99873000D01*
X132723500Y-100031750D01*
X132720428Y-100621000D01*
X132300572Y-100621000D01*
X132297500Y-100031750D01*
X132138750Y-99873000D01*
X131077000Y-99873000D01*
X130823000Y-99873000D01*
X130803000Y-99873000D01*
X130803000Y-99619000D01*
X130823000Y-99619000D01*
X130823000Y-98394750D01*
X131077000Y-98394750D01*
X131077000Y-99619000D01*
X132138750Y-99619000D01*
X132297500Y-99460250D01*
X132300572Y-98871000D01*
X132288312Y-98746518D01*
X132252002Y-98626820D01*
X132193037Y-98516506D01*
X132113685Y-98419815D01*
X132016994Y-98340463D01*
X131906680Y-98281498D01*
X131786982Y-98245188D01*
X131662500Y-98232928D01*
X131235750Y-98236000D01*
X131077000Y-98394750D01*
X130823000Y-98394750D01*
X130720690Y-98292440D01*
X130715975Y-97648275D01*
X130823000Y-97541250D01*
X130823000Y-96317000D01*
X131077000Y-96317000D01*
X131077000Y-97541250D01*
X131235750Y-97700000D01*
X131662500Y-97703072D01*
X131786982Y-97690812D01*
X131906680Y-97654502D01*
X132016994Y-97595537D01*
X132113685Y-97516185D01*
X132193037Y-97419494D01*
X132252002Y-97309180D01*
X132288312Y-97189482D01*
X132300572Y-97065000D01*
X132297500Y-96475750D01*
X132138750Y-96317000D01*
X131077000Y-96317000D01*
X130823000Y-96317000D01*
X130803000Y-96317000D01*
X130803000Y-96063000D01*
X130823000Y-96063000D01*
X130823000Y-96043000D01*
X131077000Y-96043000D01*
X131077000Y-96063000D01*
X132138750Y-96063000D01*
X132297500Y-95904250D01*
X132300572Y-95315000D01*
X132299408Y-95303185D01*
X132840857Y-95303185D01*
X132813992Y-95391746D01*
G37*
G04 #@! TD.AperFunction*
D32*
X151736760Y-65754011D02*
X154044736Y-65949387D01*
X156334256Y-66300129D01*
X158594875Y-66804636D01*
X160816278Y-67460605D01*
X162988328Y-68265044D01*
X165101115Y-69214282D01*
X167145000Y-70303989D01*
X169110656Y-71529192D01*
X170989114Y-72884300D01*
X172771804Y-74363131D01*
X174450591Y-75958937D01*
X175042993Y-76603606D01*
X171095576Y-78645374D01*
X170821831Y-78462463D01*
X170506081Y-78331675D01*
X170170883Y-78265000D01*
X169829117Y-78265000D01*
X169493919Y-78331675D01*
X169178169Y-78462463D01*
X168894002Y-78652337D01*
X168652337Y-78894002D01*
X168462463Y-79178169D01*
X168331675Y-79493919D01*
X168265000Y-79829117D01*
X168265000Y-80109465D01*
X162956965Y-82855000D01*
X132278802Y-82855000D01*
X133239003Y-81894799D01*
X133268001Y-81871001D01*
X133294332Y-81838917D01*
X133362974Y-81755277D01*
X133433546Y-81623247D01*
X133461506Y-81531072D01*
X133477003Y-81479986D01*
X133488000Y-81368333D01*
X133488000Y-81368323D01*
X133491676Y-81331001D01*
X133488000Y-81293678D01*
X133488000Y-77207276D01*
X133526254Y-77203508D01*
X133692850Y-77152972D01*
X133846386Y-77070905D01*
X133980962Y-76960462D01*
X134091405Y-76825886D01*
X134173472Y-76672350D01*
X134186319Y-76630000D01*
X134825681Y-76630000D01*
X134838528Y-76672350D01*
X134920595Y-76825886D01*
X135031038Y-76960462D01*
X135165614Y-77070905D01*
X135319150Y-77152972D01*
X135485746Y-77203508D01*
X135659000Y-77220572D01*
X136909000Y-77220572D01*
X137082254Y-77203508D01*
X137248850Y-77152972D01*
X137402386Y-77070905D01*
X137536962Y-76960462D01*
X137647405Y-76825886D01*
X137729472Y-76672350D01*
X137780008Y-76505754D01*
X137797072Y-76332500D01*
X137797072Y-75407500D01*
X137780008Y-75234246D01*
X137729472Y-75067650D01*
X137647405Y-74914114D01*
X137536962Y-74779538D01*
X137402386Y-74669095D01*
X137248850Y-74587028D01*
X137082254Y-74536492D01*
X136909000Y-74519428D01*
X135659000Y-74519428D01*
X135485746Y-74536492D01*
X135319150Y-74587028D01*
X135165614Y-74669095D01*
X135031038Y-74779538D01*
X134920595Y-74914114D01*
X134838528Y-75067650D01*
X134825681Y-75110000D01*
X134186319Y-75110000D01*
X134173472Y-75067650D01*
X134091405Y-74914114D01*
X133980962Y-74779538D01*
X133846386Y-74669095D01*
X133692850Y-74587028D01*
X133526254Y-74536492D01*
X133353000Y-74519428D01*
X132103000Y-74519428D01*
X131929746Y-74536492D01*
X131763150Y-74587028D01*
X131609614Y-74669095D01*
X131475038Y-74779538D01*
X131364595Y-74914114D01*
X131282528Y-75067650D01*
X131231992Y-75234246D01*
X131214928Y-75407500D01*
X131214928Y-76332500D01*
X131231992Y-76505754D01*
X131282528Y-76672350D01*
X131364595Y-76825886D01*
X131475038Y-76960462D01*
X131609614Y-77070905D01*
X131763150Y-77152972D01*
X131929746Y-77203508D01*
X131968000Y-77207276D01*
X131968001Y-81016197D01*
X130129198Y-82855000D01*
X120320769Y-82855000D01*
X120597795Y-82355895D01*
X121856022Y-80411213D01*
X122291076Y-79829117D01*
X128265000Y-79829117D01*
X128265000Y-80170883D01*
X128331675Y-80506081D01*
X128462463Y-80821831D01*
X128652337Y-81105998D01*
X128894002Y-81347663D01*
X129178169Y-81537537D01*
X129493919Y-81668325D01*
X129829117Y-81735000D01*
X130170883Y-81735000D01*
X130506081Y-81668325D01*
X130821831Y-81537537D01*
X131105998Y-81347663D01*
X131347663Y-81105998D01*
X131537537Y-80821831D01*
X131668325Y-80506081D01*
X131735000Y-80170883D01*
X131735000Y-79829117D01*
X131668325Y-79493919D01*
X131537537Y-79178169D01*
X131347663Y-78894002D01*
X131105998Y-78652337D01*
X130821831Y-78462463D01*
X130506081Y-78331675D01*
X130170883Y-78265000D01*
X129829117Y-78265000D01*
X129493919Y-78331675D01*
X129178169Y-78462463D01*
X128894002Y-78652337D01*
X128652337Y-78894002D01*
X128462463Y-79178169D01*
X128331675Y-79493919D01*
X128265000Y-79829117D01*
X122291076Y-79829117D01*
X123242663Y-78555910D01*
X124751392Y-76798451D01*
X126375324Y-75146855D01*
X128107051Y-73608659D01*
X129938670Y-72190880D01*
X131861824Y-70899988D01*
X133867739Y-69741873D01*
X135709994Y-68838204D01*
X133003771Y-71544428D01*
X132103000Y-71544428D01*
X131929746Y-71561492D01*
X131763150Y-71612028D01*
X131609614Y-71694095D01*
X131475038Y-71804538D01*
X131364595Y-71939114D01*
X131282528Y-72092650D01*
X131231992Y-72259246D01*
X131214928Y-72432500D01*
X131214928Y-73357500D01*
X131231992Y-73530754D01*
X131282528Y-73697350D01*
X131364595Y-73850886D01*
X131475038Y-73985462D01*
X131609614Y-74095905D01*
X131763150Y-74177972D01*
X131929746Y-74228508D01*
X132103000Y-74245572D01*
X133353000Y-74245572D01*
X133526254Y-74228508D01*
X133692850Y-74177972D01*
X133846386Y-74095905D01*
X133980962Y-73985462D01*
X134091405Y-73850886D01*
X134173472Y-73697350D01*
X134224008Y-73530754D01*
X134241072Y-73357500D01*
X134241072Y-72456729D01*
X136646402Y-70051400D01*
X138106798Y-70051400D01*
X136613771Y-71544428D01*
X135659000Y-71544428D01*
X135485746Y-71561492D01*
X135319150Y-71612028D01*
X135165614Y-71694095D01*
X135031038Y-71804538D01*
X134920595Y-71939114D01*
X134838528Y-72092650D01*
X134787992Y-72259246D01*
X134770928Y-72432500D01*
X134770928Y-73357500D01*
X134787992Y-73530754D01*
X134838528Y-73697350D01*
X134920595Y-73850886D01*
X135031038Y-73985462D01*
X135165614Y-74095905D01*
X135319150Y-74177972D01*
X135485746Y-74228508D01*
X135659000Y-74245572D01*
X136909000Y-74245572D01*
X137082254Y-74228508D01*
X137248850Y-74177972D01*
X137402386Y-74095905D01*
X137536962Y-73985462D01*
X137647405Y-73850886D01*
X137729472Y-73697350D01*
X137756727Y-73607500D01*
X138326928Y-73607500D01*
X138339188Y-73731982D01*
X138375498Y-73851680D01*
X138434463Y-73961994D01*
X138513815Y-74058685D01*
X138610506Y-74138037D01*
X138720820Y-74197002D01*
X138840518Y-74233312D01*
X138965000Y-74245572D01*
X139554250Y-74242500D01*
X139713000Y-74083750D01*
X139713000Y-73022000D01*
X139967000Y-73022000D01*
X139967000Y-74083750D01*
X140125750Y-74242500D01*
X140715000Y-74245572D01*
X140839482Y-74233312D01*
X140959180Y-74197002D01*
X141069494Y-74138037D01*
X141166185Y-74058685D01*
X141245537Y-73961994D01*
X141304502Y-73851680D01*
X141340812Y-73731982D01*
X141353072Y-73607500D01*
X141350000Y-73180750D01*
X141191250Y-73022000D01*
X139967000Y-73022000D01*
X139713000Y-73022000D01*
X138488750Y-73022000D01*
X138330000Y-73180750D01*
X138326928Y-73607500D01*
X137756727Y-73607500D01*
X137780008Y-73530754D01*
X137797072Y-73357500D01*
X137797072Y-72510729D01*
X138382407Y-71925395D01*
X138375498Y-71938320D01*
X138339188Y-72058018D01*
X138326928Y-72182500D01*
X138330000Y-72609250D01*
X138488750Y-72768000D01*
X139713000Y-72768000D01*
X139713000Y-71706250D01*
X139967000Y-71706250D01*
X139967000Y-72768000D01*
X141191250Y-72768000D01*
X141350000Y-72609250D01*
X141353072Y-72182500D01*
X141340812Y-72058018D01*
X141304502Y-71938320D01*
X141245537Y-71828006D01*
X141166185Y-71731315D01*
X141069494Y-71651963D01*
X140959180Y-71592998D01*
X140839482Y-71556688D01*
X140715000Y-71544428D01*
X140125750Y-71547500D01*
X139967000Y-71706250D01*
X139713000Y-71706250D01*
X139554250Y-71547500D01*
X138965000Y-71544428D01*
X138840518Y-71556688D01*
X138720820Y-71592998D01*
X138707895Y-71599907D01*
X139392802Y-70915000D01*
X143766999Y-70915000D01*
X144922000Y-72070002D01*
X144922001Y-73242978D01*
X144918324Y-73280310D01*
X144922001Y-73317643D01*
X144932998Y-73429296D01*
X144942658Y-73461142D01*
X144976454Y-73572556D01*
X145047026Y-73704586D01*
X145118201Y-73791312D01*
X145141479Y-73819676D01*
X144882826Y-73561023D01*
X144892008Y-73530754D01*
X144909072Y-73357500D01*
X144909072Y-72432500D01*
X144892008Y-72259246D01*
X144841472Y-72092650D01*
X144759405Y-71939114D01*
X144648962Y-71804538D01*
X144514386Y-71694095D01*
X144360850Y-71612028D01*
X144194254Y-71561492D01*
X144021000Y-71544428D01*
X142771000Y-71544428D01*
X142597746Y-71561492D01*
X142431150Y-71612028D01*
X142277614Y-71694095D01*
X142143038Y-71804538D01*
X142032595Y-71939114D01*
X141950528Y-72092650D01*
X141899992Y-72259246D01*
X141882928Y-72432500D01*
X141882928Y-73357500D01*
X141899992Y-73530754D01*
X141950528Y-73697350D01*
X142032595Y-73850886D01*
X142143038Y-73985462D01*
X142277614Y-74095905D01*
X142431150Y-74177972D01*
X142597746Y-74228508D01*
X142771000Y-74245572D01*
X143417770Y-74245572D01*
X143691626Y-74519428D01*
X142771000Y-74519428D01*
X142597746Y-74536492D01*
X142431150Y-74587028D01*
X142277614Y-74669095D01*
X142143038Y-74779538D01*
X142032595Y-74914114D01*
X141950528Y-75067650D01*
X141937681Y-75110000D01*
X141298319Y-75110000D01*
X141285472Y-75067650D01*
X141203405Y-74914114D01*
X141092962Y-74779538D01*
X140958386Y-74669095D01*
X140804850Y-74587028D01*
X140638254Y-74536492D01*
X140465000Y-74519428D01*
X139215000Y-74519428D01*
X139041746Y-74536492D01*
X138875150Y-74587028D01*
X138721614Y-74669095D01*
X138587038Y-74779538D01*
X138476595Y-74914114D01*
X138394528Y-75067650D01*
X138343992Y-75234246D01*
X138326928Y-75407500D01*
X138326928Y-76332500D01*
X138343992Y-76505754D01*
X138394528Y-76672350D01*
X138476595Y-76825886D01*
X138587038Y-76960462D01*
X138721614Y-77070905D01*
X138875150Y-77152972D01*
X139041746Y-77203508D01*
X139215000Y-77220572D01*
X140465000Y-77220572D01*
X140638254Y-77203508D01*
X140804850Y-77152972D01*
X140958386Y-77070905D01*
X141092962Y-76960462D01*
X141203405Y-76825886D01*
X141285472Y-76672350D01*
X141298319Y-76630000D01*
X141937681Y-76630000D01*
X141950528Y-76672350D01*
X142032595Y-76825886D01*
X142143038Y-76960462D01*
X142277614Y-77070905D01*
X142431150Y-77152972D01*
X142597746Y-77203508D01*
X142661057Y-77209744D01*
X142690454Y-77306656D01*
X142761026Y-77438686D01*
X142832201Y-77525412D01*
X142856000Y-77554411D01*
X142884998Y-77578209D01*
X145210791Y-79904003D01*
X145234589Y-79933001D01*
X145350314Y-80027974D01*
X145482343Y-80098546D01*
X145625604Y-80142003D01*
X145737257Y-80153000D01*
X145737266Y-80153000D01*
X145774589Y-80156676D01*
X145811912Y-80153000D01*
X146402000Y-80153000D01*
X146402000Y-80170002D01*
X146506748Y-80170002D01*
X146402000Y-80274750D01*
X146413156Y-80376996D01*
X146424348Y-80411963D01*
X146413110Y-80449009D01*
X146398928Y-80593000D01*
X146398928Y-80793000D01*
X146413110Y-80936991D01*
X146455110Y-81075448D01*
X146523316Y-81203051D01*
X146615104Y-81314896D01*
X146726949Y-81406684D01*
X146854552Y-81474890D01*
X146993009Y-81516890D01*
X147137000Y-81531072D01*
X148387000Y-81531072D01*
X148530991Y-81516890D01*
X148669448Y-81474890D01*
X148797051Y-81406684D01*
X148908896Y-81314896D01*
X148937019Y-81280627D01*
X148947518Y-81283812D01*
X149072000Y-81296072D01*
X149626250Y-81293000D01*
X149785000Y-81134250D01*
X149785000Y-79845000D01*
X149765000Y-79845000D01*
X149765000Y-79591000D01*
X149785000Y-79591000D01*
X149785000Y-78301750D01*
X149626250Y-78143000D01*
X149072000Y-78139928D01*
X148947518Y-78152188D01*
X148937019Y-78155373D01*
X148908896Y-78121104D01*
X148797051Y-78029316D01*
X148669448Y-77961110D01*
X148530991Y-77919110D01*
X148387000Y-77904928D01*
X147137000Y-77904928D01*
X146993009Y-77919110D01*
X146854552Y-77961110D01*
X146813599Y-77983000D01*
X146075802Y-77983000D01*
X145426000Y-77333199D01*
X145426000Y-74456322D01*
X145429676Y-74418999D01*
X145426000Y-74381676D01*
X145426000Y-74381667D01*
X145415003Y-74270014D01*
X145371546Y-74126753D01*
X145300974Y-73994724D01*
X145274113Y-73961994D01*
X145229799Y-73907996D01*
X145229795Y-73907992D01*
X145206518Y-73879629D01*
X147326890Y-76000002D01*
X147350689Y-76029001D01*
X147466414Y-76123974D01*
X147598443Y-76194546D01*
X147741704Y-76238003D01*
X147853357Y-76249000D01*
X147853366Y-76249000D01*
X147890689Y-76252676D01*
X147928012Y-76249000D01*
X150468689Y-76249000D01*
X150415263Y-76302426D01*
X150301995Y-76471944D01*
X150223974Y-76660302D01*
X150184200Y-76860261D01*
X150184200Y-77064139D01*
X150223974Y-77264098D01*
X150301995Y-77452456D01*
X150415263Y-77621974D01*
X150559426Y-77766137D01*
X150728944Y-77879405D01*
X150917302Y-77957426D01*
X151095231Y-77992818D01*
X151026949Y-78029316D01*
X150915104Y-78121104D01*
X150886981Y-78155373D01*
X150876482Y-78152188D01*
X150752000Y-78139928D01*
X150197750Y-78143000D01*
X150039000Y-78301750D01*
X150039000Y-79591000D01*
X150059000Y-79591000D01*
X150059000Y-79845000D01*
X150039000Y-79845000D01*
X150039000Y-81134250D01*
X150197750Y-81293000D01*
X150752000Y-81296072D01*
X150838987Y-81287505D01*
X150892737Y-81351003D01*
X150990625Y-81428874D01*
X151101825Y-81486151D01*
X151222061Y-81520634D01*
X151346715Y-81530998D01*
X151776250Y-81528000D01*
X151935000Y-81369250D01*
X151935000Y-80881072D01*
X152189000Y-80881072D01*
X152189000Y-81369250D01*
X152347750Y-81528000D01*
X152777285Y-81530998D01*
X152901939Y-81520634D01*
X153022175Y-81486151D01*
X153133375Y-81428874D01*
X153231263Y-81351003D01*
X153312078Y-81255531D01*
X153372715Y-81146127D01*
X153410844Y-81026996D01*
X153422000Y-80924750D01*
X153317252Y-80820002D01*
X153422000Y-80820002D01*
X153422000Y-80803000D01*
X161156678Y-80803000D01*
X161194000Y-80806676D01*
X161231322Y-80803000D01*
X161231333Y-80803000D01*
X161342986Y-80792003D01*
X161486247Y-80748546D01*
X161618276Y-80677974D01*
X161734001Y-80583001D01*
X161757804Y-80553997D01*
X163851003Y-78460799D01*
X163880001Y-78437001D01*
X163974974Y-78321276D01*
X164045546Y-78189247D01*
X164089003Y-78045986D01*
X164100000Y-77934333D01*
X164100000Y-77934324D01*
X164103676Y-77897001D01*
X164100000Y-77859678D01*
X164100000Y-77833468D01*
X164116185Y-77820185D01*
X164195537Y-77723494D01*
X164254502Y-77613180D01*
X164290000Y-77496159D01*
X164325498Y-77613180D01*
X164384463Y-77723494D01*
X164463815Y-77820185D01*
X164560506Y-77899537D01*
X164670820Y-77958502D01*
X164790518Y-77994812D01*
X164915000Y-78007072D01*
X165565000Y-78007072D01*
X165689482Y-77994812D01*
X165809180Y-77958502D01*
X165919494Y-77899537D01*
X166016185Y-77820185D01*
X166095537Y-77723494D01*
X166154502Y-77613180D01*
X166190812Y-77493482D01*
X166203072Y-77369000D01*
X166203072Y-76149000D01*
X166190812Y-76024518D01*
X166154502Y-75904820D01*
X166095537Y-75794506D01*
X166016185Y-75697815D01*
X165919494Y-75618463D01*
X165809180Y-75559498D01*
X165689482Y-75523188D01*
X165565000Y-75510928D01*
X165447730Y-75510928D01*
X165098099Y-75161298D01*
X165145537Y-75103494D01*
X165204502Y-74993180D01*
X165240812Y-74873482D01*
X165253072Y-74749000D01*
X165253072Y-73529000D01*
X165240812Y-73404518D01*
X165204502Y-73284820D01*
X165145537Y-73174506D01*
X165066185Y-73077815D01*
X164969494Y-72998463D01*
X164859180Y-72939498D01*
X164739482Y-72903188D01*
X164615000Y-72890928D01*
X164478731Y-72890928D01*
X163390803Y-71803002D01*
X163367001Y-71773999D01*
X163251276Y-71679026D01*
X163119247Y-71608454D01*
X162975986Y-71564997D01*
X162864333Y-71554000D01*
X162864322Y-71554000D01*
X162827000Y-71550324D01*
X162789678Y-71554000D01*
X157657322Y-71554000D01*
X157620000Y-71550324D01*
X157582678Y-71554000D01*
X155752325Y-71554000D01*
X155715000Y-71550324D01*
X155677675Y-71554000D01*
X155677667Y-71554000D01*
X155566014Y-71564997D01*
X155422753Y-71608454D01*
X155290724Y-71679026D01*
X155174999Y-71773999D01*
X155151201Y-71802998D01*
X154612799Y-72341400D01*
X152655487Y-72341400D01*
X152639408Y-72178146D01*
X152588872Y-72011550D01*
X152506805Y-71858014D01*
X152396362Y-71723438D01*
X152261786Y-71612995D01*
X152108250Y-71530928D01*
X151941654Y-71480392D01*
X151768400Y-71463328D01*
X150605130Y-71463328D01*
X147922204Y-68780403D01*
X147898401Y-68751399D01*
X147782676Y-68656426D01*
X147650647Y-68585854D01*
X147507386Y-68542397D01*
X147395733Y-68531400D01*
X147395722Y-68531400D01*
X147358400Y-68527724D01*
X147321078Y-68531400D01*
X136412520Y-68531400D01*
X138090903Y-67844479D01*
X140288883Y-67113858D01*
X142531173Y-66533289D01*
X144807542Y-66105421D01*
X147107602Y-65832206D01*
X149420860Y-65714891D01*
X151736760Y-65754011D01*
G04 #@! TA.AperFunction,Conductor*
D33*
G36*
X151736760Y-65754011D02*
G01*
X154044736Y-65949387D01*
X156334256Y-66300129D01*
X158594875Y-66804636D01*
X160816278Y-67460605D01*
X162988328Y-68265044D01*
X165101115Y-69214282D01*
X167145000Y-70303989D01*
X169110656Y-71529192D01*
X170989114Y-72884300D01*
X172771804Y-74363131D01*
X174450591Y-75958937D01*
X175042993Y-76603606D01*
X171095576Y-78645374D01*
X170821831Y-78462463D01*
X170506081Y-78331675D01*
X170170883Y-78265000D01*
X169829117Y-78265000D01*
X169493919Y-78331675D01*
X169178169Y-78462463D01*
X168894002Y-78652337D01*
X168652337Y-78894002D01*
X168462463Y-79178169D01*
X168331675Y-79493919D01*
X168265000Y-79829117D01*
X168265000Y-80109465D01*
X162956965Y-82855000D01*
X132278802Y-82855000D01*
X133239003Y-81894799D01*
X133268001Y-81871001D01*
X133294332Y-81838917D01*
X133362974Y-81755277D01*
X133433546Y-81623247D01*
X133461506Y-81531072D01*
X133477003Y-81479986D01*
X133488000Y-81368333D01*
X133488000Y-81368323D01*
X133491676Y-81331001D01*
X133488000Y-81293678D01*
X133488000Y-77207276D01*
X133526254Y-77203508D01*
X133692850Y-77152972D01*
X133846386Y-77070905D01*
X133980962Y-76960462D01*
X134091405Y-76825886D01*
X134173472Y-76672350D01*
X134186319Y-76630000D01*
X134825681Y-76630000D01*
X134838528Y-76672350D01*
X134920595Y-76825886D01*
X135031038Y-76960462D01*
X135165614Y-77070905D01*
X135319150Y-77152972D01*
X135485746Y-77203508D01*
X135659000Y-77220572D01*
X136909000Y-77220572D01*
X137082254Y-77203508D01*
X137248850Y-77152972D01*
X137402386Y-77070905D01*
X137536962Y-76960462D01*
X137647405Y-76825886D01*
X137729472Y-76672350D01*
X137780008Y-76505754D01*
X137797072Y-76332500D01*
X137797072Y-75407500D01*
X137780008Y-75234246D01*
X137729472Y-75067650D01*
X137647405Y-74914114D01*
X137536962Y-74779538D01*
X137402386Y-74669095D01*
X137248850Y-74587028D01*
X137082254Y-74536492D01*
X136909000Y-74519428D01*
X135659000Y-74519428D01*
X135485746Y-74536492D01*
X135319150Y-74587028D01*
X135165614Y-74669095D01*
X135031038Y-74779538D01*
X134920595Y-74914114D01*
X134838528Y-75067650D01*
X134825681Y-75110000D01*
X134186319Y-75110000D01*
X134173472Y-75067650D01*
X134091405Y-74914114D01*
X133980962Y-74779538D01*
X133846386Y-74669095D01*
X133692850Y-74587028D01*
X133526254Y-74536492D01*
X133353000Y-74519428D01*
X132103000Y-74519428D01*
X131929746Y-74536492D01*
X131763150Y-74587028D01*
X131609614Y-74669095D01*
X131475038Y-74779538D01*
X131364595Y-74914114D01*
X131282528Y-75067650D01*
X131231992Y-75234246D01*
X131214928Y-75407500D01*
X131214928Y-76332500D01*
X131231992Y-76505754D01*
X131282528Y-76672350D01*
X131364595Y-76825886D01*
X131475038Y-76960462D01*
X131609614Y-77070905D01*
X131763150Y-77152972D01*
X131929746Y-77203508D01*
X131968000Y-77207276D01*
X131968001Y-81016197D01*
X130129198Y-82855000D01*
X120320769Y-82855000D01*
X120597795Y-82355895D01*
X121856022Y-80411213D01*
X122291076Y-79829117D01*
X128265000Y-79829117D01*
X128265000Y-80170883D01*
X128331675Y-80506081D01*
X128462463Y-80821831D01*
X128652337Y-81105998D01*
X128894002Y-81347663D01*
X129178169Y-81537537D01*
X129493919Y-81668325D01*
X129829117Y-81735000D01*
X130170883Y-81735000D01*
X130506081Y-81668325D01*
X130821831Y-81537537D01*
X131105998Y-81347663D01*
X131347663Y-81105998D01*
X131537537Y-80821831D01*
X131668325Y-80506081D01*
X131735000Y-80170883D01*
X131735000Y-79829117D01*
X131668325Y-79493919D01*
X131537537Y-79178169D01*
X131347663Y-78894002D01*
X131105998Y-78652337D01*
X130821831Y-78462463D01*
X130506081Y-78331675D01*
X130170883Y-78265000D01*
X129829117Y-78265000D01*
X129493919Y-78331675D01*
X129178169Y-78462463D01*
X128894002Y-78652337D01*
X128652337Y-78894002D01*
X128462463Y-79178169D01*
X128331675Y-79493919D01*
X128265000Y-79829117D01*
X122291076Y-79829117D01*
X123242663Y-78555910D01*
X124751392Y-76798451D01*
X126375324Y-75146855D01*
X128107051Y-73608659D01*
X129938670Y-72190880D01*
X131861824Y-70899988D01*
X133867739Y-69741873D01*
X135709994Y-68838204D01*
X133003771Y-71544428D01*
X132103000Y-71544428D01*
X131929746Y-71561492D01*
X131763150Y-71612028D01*
X131609614Y-71694095D01*
X131475038Y-71804538D01*
X131364595Y-71939114D01*
X131282528Y-72092650D01*
X131231992Y-72259246D01*
X131214928Y-72432500D01*
X131214928Y-73357500D01*
X131231992Y-73530754D01*
X131282528Y-73697350D01*
X131364595Y-73850886D01*
X131475038Y-73985462D01*
X131609614Y-74095905D01*
X131763150Y-74177972D01*
X131929746Y-74228508D01*
X132103000Y-74245572D01*
X133353000Y-74245572D01*
X133526254Y-74228508D01*
X133692850Y-74177972D01*
X133846386Y-74095905D01*
X133980962Y-73985462D01*
X134091405Y-73850886D01*
X134173472Y-73697350D01*
X134224008Y-73530754D01*
X134241072Y-73357500D01*
X134241072Y-72456729D01*
X136646402Y-70051400D01*
X138106798Y-70051400D01*
X136613771Y-71544428D01*
X135659000Y-71544428D01*
X135485746Y-71561492D01*
X135319150Y-71612028D01*
X135165614Y-71694095D01*
X135031038Y-71804538D01*
X134920595Y-71939114D01*
X134838528Y-72092650D01*
X134787992Y-72259246D01*
X134770928Y-72432500D01*
X134770928Y-73357500D01*
X134787992Y-73530754D01*
X134838528Y-73697350D01*
X134920595Y-73850886D01*
X135031038Y-73985462D01*
X135165614Y-74095905D01*
X135319150Y-74177972D01*
X135485746Y-74228508D01*
X135659000Y-74245572D01*
X136909000Y-74245572D01*
X137082254Y-74228508D01*
X137248850Y-74177972D01*
X137402386Y-74095905D01*
X137536962Y-73985462D01*
X137647405Y-73850886D01*
X137729472Y-73697350D01*
X137756727Y-73607500D01*
X138326928Y-73607500D01*
X138339188Y-73731982D01*
X138375498Y-73851680D01*
X138434463Y-73961994D01*
X138513815Y-74058685D01*
X138610506Y-74138037D01*
X138720820Y-74197002D01*
X138840518Y-74233312D01*
X138965000Y-74245572D01*
X139554250Y-74242500D01*
X139713000Y-74083750D01*
X139713000Y-73022000D01*
X139967000Y-73022000D01*
X139967000Y-74083750D01*
X140125750Y-74242500D01*
X140715000Y-74245572D01*
X140839482Y-74233312D01*
X140959180Y-74197002D01*
X141069494Y-74138037D01*
X141166185Y-74058685D01*
X141245537Y-73961994D01*
X141304502Y-73851680D01*
X141340812Y-73731982D01*
X141353072Y-73607500D01*
X141350000Y-73180750D01*
X141191250Y-73022000D01*
X139967000Y-73022000D01*
X139713000Y-73022000D01*
X138488750Y-73022000D01*
X138330000Y-73180750D01*
X138326928Y-73607500D01*
X137756727Y-73607500D01*
X137780008Y-73530754D01*
X137797072Y-73357500D01*
X137797072Y-72510729D01*
X138382407Y-71925395D01*
X138375498Y-71938320D01*
X138339188Y-72058018D01*
X138326928Y-72182500D01*
X138330000Y-72609250D01*
X138488750Y-72768000D01*
X139713000Y-72768000D01*
X139713000Y-71706250D01*
X139967000Y-71706250D01*
X139967000Y-72768000D01*
X141191250Y-72768000D01*
X141350000Y-72609250D01*
X141353072Y-72182500D01*
X141340812Y-72058018D01*
X141304502Y-71938320D01*
X141245537Y-71828006D01*
X141166185Y-71731315D01*
X141069494Y-71651963D01*
X140959180Y-71592998D01*
X140839482Y-71556688D01*
X140715000Y-71544428D01*
X140125750Y-71547500D01*
X139967000Y-71706250D01*
X139713000Y-71706250D01*
X139554250Y-71547500D01*
X138965000Y-71544428D01*
X138840518Y-71556688D01*
X138720820Y-71592998D01*
X138707895Y-71599907D01*
X139392802Y-70915000D01*
X143766999Y-70915000D01*
X144922000Y-72070002D01*
X144922001Y-73242978D01*
X144918324Y-73280310D01*
X144922001Y-73317643D01*
X144932998Y-73429296D01*
X144942658Y-73461142D01*
X144976454Y-73572556D01*
X145047026Y-73704586D01*
X145118201Y-73791312D01*
X145141479Y-73819676D01*
X144882826Y-73561023D01*
X144892008Y-73530754D01*
X144909072Y-73357500D01*
X144909072Y-72432500D01*
X144892008Y-72259246D01*
X144841472Y-72092650D01*
X144759405Y-71939114D01*
X144648962Y-71804538D01*
X144514386Y-71694095D01*
X144360850Y-71612028D01*
X144194254Y-71561492D01*
X144021000Y-71544428D01*
X142771000Y-71544428D01*
X142597746Y-71561492D01*
X142431150Y-71612028D01*
X142277614Y-71694095D01*
X142143038Y-71804538D01*
X142032595Y-71939114D01*
X141950528Y-72092650D01*
X141899992Y-72259246D01*
X141882928Y-72432500D01*
X141882928Y-73357500D01*
X141899992Y-73530754D01*
X141950528Y-73697350D01*
X142032595Y-73850886D01*
X142143038Y-73985462D01*
X142277614Y-74095905D01*
X142431150Y-74177972D01*
X142597746Y-74228508D01*
X142771000Y-74245572D01*
X143417770Y-74245572D01*
X143691626Y-74519428D01*
X142771000Y-74519428D01*
X142597746Y-74536492D01*
X142431150Y-74587028D01*
X142277614Y-74669095D01*
X142143038Y-74779538D01*
X142032595Y-74914114D01*
X141950528Y-75067650D01*
X141937681Y-75110000D01*
X141298319Y-75110000D01*
X141285472Y-75067650D01*
X141203405Y-74914114D01*
X141092962Y-74779538D01*
X140958386Y-74669095D01*
X140804850Y-74587028D01*
X140638254Y-74536492D01*
X140465000Y-74519428D01*
X139215000Y-74519428D01*
X139041746Y-74536492D01*
X138875150Y-74587028D01*
X138721614Y-74669095D01*
X138587038Y-74779538D01*
X138476595Y-74914114D01*
X138394528Y-75067650D01*
X138343992Y-75234246D01*
X138326928Y-75407500D01*
X138326928Y-76332500D01*
X138343992Y-76505754D01*
X138394528Y-76672350D01*
X138476595Y-76825886D01*
X138587038Y-76960462D01*
X138721614Y-77070905D01*
X138875150Y-77152972D01*
X139041746Y-77203508D01*
X139215000Y-77220572D01*
X140465000Y-77220572D01*
X140638254Y-77203508D01*
X140804850Y-77152972D01*
X140958386Y-77070905D01*
X141092962Y-76960462D01*
X141203405Y-76825886D01*
X141285472Y-76672350D01*
X141298319Y-76630000D01*
X141937681Y-76630000D01*
X141950528Y-76672350D01*
X142032595Y-76825886D01*
X142143038Y-76960462D01*
X142277614Y-77070905D01*
X142431150Y-77152972D01*
X142597746Y-77203508D01*
X142661057Y-77209744D01*
X142690454Y-77306656D01*
X142761026Y-77438686D01*
X142832201Y-77525412D01*
X142856000Y-77554411D01*
X142884998Y-77578209D01*
X145210791Y-79904003D01*
X145234589Y-79933001D01*
X145350314Y-80027974D01*
X145482343Y-80098546D01*
X145625604Y-80142003D01*
X145737257Y-80153000D01*
X145737266Y-80153000D01*
X145774589Y-80156676D01*
X145811912Y-80153000D01*
X146402000Y-80153000D01*
X146402000Y-80170002D01*
X146506748Y-80170002D01*
X146402000Y-80274750D01*
X146413156Y-80376996D01*
X146424348Y-80411963D01*
X146413110Y-80449009D01*
X146398928Y-80593000D01*
X146398928Y-80793000D01*
X146413110Y-80936991D01*
X146455110Y-81075448D01*
X146523316Y-81203051D01*
X146615104Y-81314896D01*
X146726949Y-81406684D01*
X146854552Y-81474890D01*
X146993009Y-81516890D01*
X147137000Y-81531072D01*
X148387000Y-81531072D01*
X148530991Y-81516890D01*
X148669448Y-81474890D01*
X148797051Y-81406684D01*
X148908896Y-81314896D01*
X148937019Y-81280627D01*
X148947518Y-81283812D01*
X149072000Y-81296072D01*
X149626250Y-81293000D01*
X149785000Y-81134250D01*
X149785000Y-79845000D01*
X149765000Y-79845000D01*
X149765000Y-79591000D01*
X149785000Y-79591000D01*
X149785000Y-78301750D01*
X149626250Y-78143000D01*
X149072000Y-78139928D01*
X148947518Y-78152188D01*
X148937019Y-78155373D01*
X148908896Y-78121104D01*
X148797051Y-78029316D01*
X148669448Y-77961110D01*
X148530991Y-77919110D01*
X148387000Y-77904928D01*
X147137000Y-77904928D01*
X146993009Y-77919110D01*
X146854552Y-77961110D01*
X146813599Y-77983000D01*
X146075802Y-77983000D01*
X145426000Y-77333199D01*
X145426000Y-74456322D01*
X145429676Y-74418999D01*
X145426000Y-74381676D01*
X145426000Y-74381667D01*
X145415003Y-74270014D01*
X145371546Y-74126753D01*
X145300974Y-73994724D01*
X145274113Y-73961994D01*
X145229799Y-73907996D01*
X145229795Y-73907992D01*
X145206518Y-73879629D01*
X147326890Y-76000002D01*
X147350689Y-76029001D01*
X147466414Y-76123974D01*
X147598443Y-76194546D01*
X147741704Y-76238003D01*
X147853357Y-76249000D01*
X147853366Y-76249000D01*
X147890689Y-76252676D01*
X147928012Y-76249000D01*
X150468689Y-76249000D01*
X150415263Y-76302426D01*
X150301995Y-76471944D01*
X150223974Y-76660302D01*
X150184200Y-76860261D01*
X150184200Y-77064139D01*
X150223974Y-77264098D01*
X150301995Y-77452456D01*
X150415263Y-77621974D01*
X150559426Y-77766137D01*
X150728944Y-77879405D01*
X150917302Y-77957426D01*
X151095231Y-77992818D01*
X151026949Y-78029316D01*
X150915104Y-78121104D01*
X150886981Y-78155373D01*
X150876482Y-78152188D01*
X150752000Y-78139928D01*
X150197750Y-78143000D01*
X150039000Y-78301750D01*
X150039000Y-79591000D01*
X150059000Y-79591000D01*
X150059000Y-79845000D01*
X150039000Y-79845000D01*
X150039000Y-81134250D01*
X150197750Y-81293000D01*
X150752000Y-81296072D01*
X150838987Y-81287505D01*
X150892737Y-81351003D01*
X150990625Y-81428874D01*
X151101825Y-81486151D01*
X151222061Y-81520634D01*
X151346715Y-81530998D01*
X151776250Y-81528000D01*
X151935000Y-81369250D01*
X151935000Y-80881072D01*
X152189000Y-80881072D01*
X152189000Y-81369250D01*
X152347750Y-81528000D01*
X152777285Y-81530998D01*
X152901939Y-81520634D01*
X153022175Y-81486151D01*
X153133375Y-81428874D01*
X153231263Y-81351003D01*
X153312078Y-81255531D01*
X153372715Y-81146127D01*
X153410844Y-81026996D01*
X153422000Y-80924750D01*
X153317252Y-80820002D01*
X153422000Y-80820002D01*
X153422000Y-80803000D01*
X161156678Y-80803000D01*
X161194000Y-80806676D01*
X161231322Y-80803000D01*
X161231333Y-80803000D01*
X161342986Y-80792003D01*
X161486247Y-80748546D01*
X161618276Y-80677974D01*
X161734001Y-80583001D01*
X161757804Y-80553997D01*
X163851003Y-78460799D01*
X163880001Y-78437001D01*
X163974974Y-78321276D01*
X164045546Y-78189247D01*
X164089003Y-78045986D01*
X164100000Y-77934333D01*
X164100000Y-77934324D01*
X164103676Y-77897001D01*
X164100000Y-77859678D01*
X164100000Y-77833468D01*
X164116185Y-77820185D01*
X164195537Y-77723494D01*
X164254502Y-77613180D01*
X164290000Y-77496159D01*
X164325498Y-77613180D01*
X164384463Y-77723494D01*
X164463815Y-77820185D01*
X164560506Y-77899537D01*
X164670820Y-77958502D01*
X164790518Y-77994812D01*
X164915000Y-78007072D01*
X165565000Y-78007072D01*
X165689482Y-77994812D01*
X165809180Y-77958502D01*
X165919494Y-77899537D01*
X166016185Y-77820185D01*
X166095537Y-77723494D01*
X166154502Y-77613180D01*
X166190812Y-77493482D01*
X166203072Y-77369000D01*
X166203072Y-76149000D01*
X166190812Y-76024518D01*
X166154502Y-75904820D01*
X166095537Y-75794506D01*
X166016185Y-75697815D01*
X165919494Y-75618463D01*
X165809180Y-75559498D01*
X165689482Y-75523188D01*
X165565000Y-75510928D01*
X165447730Y-75510928D01*
X165098099Y-75161298D01*
X165145537Y-75103494D01*
X165204502Y-74993180D01*
X165240812Y-74873482D01*
X165253072Y-74749000D01*
X165253072Y-73529000D01*
X165240812Y-73404518D01*
X165204502Y-73284820D01*
X165145537Y-73174506D01*
X165066185Y-73077815D01*
X164969494Y-72998463D01*
X164859180Y-72939498D01*
X164739482Y-72903188D01*
X164615000Y-72890928D01*
X164478731Y-72890928D01*
X163390803Y-71803002D01*
X163367001Y-71773999D01*
X163251276Y-71679026D01*
X163119247Y-71608454D01*
X162975986Y-71564997D01*
X162864333Y-71554000D01*
X162864322Y-71554000D01*
X162827000Y-71550324D01*
X162789678Y-71554000D01*
X157657322Y-71554000D01*
X157620000Y-71550324D01*
X157582678Y-71554000D01*
X155752325Y-71554000D01*
X155715000Y-71550324D01*
X155677675Y-71554000D01*
X155677667Y-71554000D01*
X155566014Y-71564997D01*
X155422753Y-71608454D01*
X155290724Y-71679026D01*
X155174999Y-71773999D01*
X155151201Y-71802998D01*
X154612799Y-72341400D01*
X152655487Y-72341400D01*
X152639408Y-72178146D01*
X152588872Y-72011550D01*
X152506805Y-71858014D01*
X152396362Y-71723438D01*
X152261786Y-71612995D01*
X152108250Y-71530928D01*
X151941654Y-71480392D01*
X151768400Y-71463328D01*
X150605130Y-71463328D01*
X147922204Y-68780403D01*
X147898401Y-68751399D01*
X147782676Y-68656426D01*
X147650647Y-68585854D01*
X147507386Y-68542397D01*
X147395733Y-68531400D01*
X147395722Y-68531400D01*
X147358400Y-68527724D01*
X147321078Y-68531400D01*
X136412520Y-68531400D01*
X138090903Y-67844479D01*
X140288883Y-67113858D01*
X142531173Y-66533289D01*
X144807542Y-66105421D01*
X147107602Y-65832206D01*
X149420860Y-65714891D01*
X151736760Y-65754011D01*
G37*
G04 #@! TD.AperFunction*
D32*
X162376928Y-77369000D02*
X162389188Y-77493482D01*
X162425498Y-77613180D01*
X162468524Y-77693674D01*
X160879199Y-79283000D01*
X157821801Y-79283000D01*
X158771004Y-78333798D01*
X158800001Y-78310001D01*
X158894974Y-78194276D01*
X158965546Y-78062247D01*
X159009003Y-77918986D01*
X159017200Y-77835766D01*
X159036185Y-77820185D01*
X159115537Y-77723494D01*
X159174502Y-77613180D01*
X159210000Y-77496159D01*
X159245498Y-77613180D01*
X159304463Y-77723494D01*
X159383815Y-77820185D01*
X159480506Y-77899537D01*
X159590820Y-77958502D01*
X159710518Y-77994812D01*
X159835000Y-78007072D01*
X159874250Y-78004000D01*
X160033000Y-77845250D01*
X160033000Y-76886000D01*
X160287000Y-76886000D01*
X160287000Y-77845250D01*
X160445750Y-78004000D01*
X160485000Y-78007072D01*
X160609482Y-77994812D01*
X160729180Y-77958502D01*
X160839494Y-77899537D01*
X160936185Y-77820185D01*
X161015537Y-77723494D01*
X161074502Y-77613180D01*
X161110812Y-77493482D01*
X161123072Y-77369000D01*
X161120000Y-77044750D01*
X160961250Y-76886000D01*
X160287000Y-76886000D01*
X160033000Y-76886000D01*
X160013000Y-76886000D01*
X160013000Y-76632000D01*
X160033000Y-76632000D01*
X160033000Y-76612000D01*
X160287000Y-76612000D01*
X160287000Y-76632000D01*
X160961250Y-76632000D01*
X161120000Y-76473250D01*
X161122125Y-76249000D01*
X162376928Y-76249000D01*
X162376928Y-77369000D01*
G04 #@! TA.AperFunction,Conductor*
D33*
G36*
X162376928Y-77369000D02*
G01*
X162389188Y-77493482D01*
X162425498Y-77613180D01*
X162468524Y-77693674D01*
X160879199Y-79283000D01*
X157821801Y-79283000D01*
X158771004Y-78333798D01*
X158800001Y-78310001D01*
X158894974Y-78194276D01*
X158965546Y-78062247D01*
X159009003Y-77918986D01*
X159017200Y-77835766D01*
X159036185Y-77820185D01*
X159115537Y-77723494D01*
X159174502Y-77613180D01*
X159210000Y-77496159D01*
X159245498Y-77613180D01*
X159304463Y-77723494D01*
X159383815Y-77820185D01*
X159480506Y-77899537D01*
X159590820Y-77958502D01*
X159710518Y-77994812D01*
X159835000Y-78007072D01*
X159874250Y-78004000D01*
X160033000Y-77845250D01*
X160033000Y-76886000D01*
X160287000Y-76886000D01*
X160287000Y-77845250D01*
X160445750Y-78004000D01*
X160485000Y-78007072D01*
X160609482Y-77994812D01*
X160729180Y-77958502D01*
X160839494Y-77899537D01*
X160936185Y-77820185D01*
X161015537Y-77723494D01*
X161074502Y-77613180D01*
X161110812Y-77493482D01*
X161123072Y-77369000D01*
X161120000Y-77044750D01*
X160961250Y-76886000D01*
X160287000Y-76886000D01*
X160033000Y-76886000D01*
X160013000Y-76886000D01*
X160013000Y-76632000D01*
X160033000Y-76632000D01*
X160033000Y-76612000D01*
X160287000Y-76612000D01*
X160287000Y-76632000D01*
X160961250Y-76632000D01*
X161120000Y-76473250D01*
X161122125Y-76249000D01*
X162376928Y-76249000D01*
X162376928Y-77369000D01*
G37*
G04 #@! TD.AperFunction*
D32*
X148541398Y-71549200D02*
X148541398Y-71631244D01*
X148311510Y-71509924D01*
X148299139Y-71511846D01*
X148025391Y-71611546D01*
X147776354Y-71762736D01*
X147561598Y-71959605D01*
X147389375Y-72194588D01*
X147266304Y-72458655D01*
X147197115Y-72741658D01*
X147341168Y-72974400D01*
X148541400Y-72974400D01*
X148541400Y-72954400D01*
X148795400Y-72954400D01*
X148795400Y-72974400D01*
X148815400Y-72974400D01*
X148815400Y-73228400D01*
X148795400Y-73228400D01*
X148795400Y-73248400D01*
X148541400Y-73248400D01*
X148541400Y-73228400D01*
X147341168Y-73228400D01*
X147197115Y-73461142D01*
X147266304Y-73744145D01*
X147306166Y-73829674D01*
X146442000Y-72965509D01*
X146442000Y-71792533D01*
X146445677Y-71755200D01*
X146431003Y-71606214D01*
X146387546Y-71462953D01*
X146316974Y-71330924D01*
X146245799Y-71244197D01*
X146222001Y-71215199D01*
X146193004Y-71191402D01*
X145053001Y-70051400D01*
X147043599Y-70051400D01*
X148541398Y-71549200D01*
G04 #@! TA.AperFunction,Conductor*
D33*
G36*
X148541398Y-71549200D02*
G01*
X148541398Y-71631244D01*
X148311510Y-71509924D01*
X148299139Y-71511846D01*
X148025391Y-71611546D01*
X147776354Y-71762736D01*
X147561598Y-71959605D01*
X147389375Y-72194588D01*
X147266304Y-72458655D01*
X147197115Y-72741658D01*
X147341168Y-72974400D01*
X148541400Y-72974400D01*
X148541400Y-72954400D01*
X148795400Y-72954400D01*
X148795400Y-72974400D01*
X148815400Y-72974400D01*
X148815400Y-73228400D01*
X148795400Y-73228400D01*
X148795400Y-73248400D01*
X148541400Y-73248400D01*
X148541400Y-73228400D01*
X147341168Y-73228400D01*
X147197115Y-73461142D01*
X147266304Y-73744145D01*
X147306166Y-73829674D01*
X146442000Y-72965509D01*
X146442000Y-71792533D01*
X146445677Y-71755200D01*
X146431003Y-71606214D01*
X146387546Y-71462953D01*
X146316974Y-71330924D01*
X146245799Y-71244197D01*
X146222001Y-71215199D01*
X146193004Y-71191402D01*
X145053001Y-70051400D01*
X147043599Y-70051400D01*
X148541398Y-71549200D01*
G37*
G04 #@! TD.AperFunction*
D32*
X129216826Y-83767373D02*
X127206199Y-85778000D01*
X125018322Y-85778000D01*
X124980999Y-85774324D01*
X124943676Y-85778000D01*
X124943667Y-85778000D01*
X124832014Y-85788997D01*
X124688753Y-85832454D01*
X124556724Y-85903026D01*
X124556722Y-85903027D01*
X124556723Y-85903027D01*
X124469996Y-85974201D01*
X124469992Y-85974205D01*
X124440999Y-85997999D01*
X124417205Y-86026992D01*
X123593398Y-86850801D01*
X123492482Y-86820188D01*
X123368000Y-86807928D01*
X122703750Y-86811000D01*
X122545000Y-86969750D01*
X122545000Y-87719000D01*
X122565000Y-87719000D01*
X122565000Y-87973000D01*
X122545000Y-87973000D01*
X122545000Y-87993000D01*
X122291000Y-87993000D01*
X122291000Y-87973000D01*
X120991750Y-87973000D01*
X120833000Y-88131750D01*
X120829928Y-88246000D01*
X120842188Y-88370482D01*
X120878498Y-88490180D01*
X120937463Y-88600494D01*
X121016815Y-88697185D01*
X121113506Y-88776537D01*
X121149918Y-88796000D01*
X121113506Y-88815463D01*
X121016815Y-88894815D01*
X120937463Y-88991506D01*
X120878498Y-89101820D01*
X120842188Y-89221518D01*
X120829928Y-89346000D01*
X120829928Y-90146000D01*
X120842188Y-90270482D01*
X120878498Y-90390180D01*
X120937463Y-90500494D01*
X121016815Y-90597185D01*
X121113506Y-90676537D01*
X121223820Y-90735502D01*
X121343518Y-90771812D01*
X121468000Y-90784072D01*
X121662013Y-90784072D01*
X121668998Y-90854986D01*
X121679868Y-90890821D01*
X121712454Y-90998246D01*
X121783026Y-91130276D01*
X121852570Y-91215015D01*
X121878000Y-91246001D01*
X121906998Y-91269799D01*
X122088327Y-91451128D01*
X121964200Y-91451128D01*
X121790946Y-91468192D01*
X121624350Y-91518728D01*
X121470814Y-91600795D01*
X121336238Y-91711238D01*
X121225795Y-91845814D01*
X121143728Y-91999350D01*
X121093192Y-92165946D01*
X121076128Y-92339200D01*
X121076128Y-93589200D01*
X121093192Y-93762454D01*
X121143728Y-93929050D01*
X121225795Y-94082586D01*
X121336238Y-94217162D01*
X121470814Y-94327605D01*
X121624350Y-94409672D01*
X121666701Y-94422519D01*
X121666701Y-95220997D01*
X120722605Y-96165094D01*
X120596448Y-96140000D01*
X120328552Y-96140000D01*
X120065803Y-96192264D01*
X119818299Y-96294784D01*
X119595551Y-96443619D01*
X119406119Y-96633051D01*
X119350572Y-96716183D01*
X119350572Y-96529475D01*
X119353475Y-96500000D01*
X119329630Y-96257898D01*
X119259011Y-96025099D01*
X119144333Y-95810551D01*
X118990002Y-95622498D01*
X118801949Y-95468167D01*
X118587401Y-95353489D01*
X118354602Y-95282870D01*
X118173165Y-95265000D01*
X117351835Y-95265000D01*
X117170398Y-95282870D01*
X116937599Y-95353489D01*
X116723051Y-95468167D01*
X116534998Y-95622498D01*
X116380667Y-95810551D01*
X116265989Y-96025099D01*
X116195370Y-96257898D01*
X116171525Y-96500000D01*
X116174428Y-96529475D01*
X116174428Y-97700000D01*
X116186688Y-97824482D01*
X116222998Y-97944180D01*
X116239472Y-97975000D01*
X116222998Y-98005820D01*
X116186688Y-98125518D01*
X116174428Y-98250000D01*
X116174428Y-99750000D01*
X116186688Y-99874482D01*
X116222998Y-99994180D01*
X116226109Y-100000000D01*
X116222998Y-100005820D01*
X116186688Y-100125518D01*
X116174428Y-100250000D01*
X116174428Y-101750000D01*
X116186688Y-101874482D01*
X116222998Y-101994180D01*
X116239472Y-102025000D01*
X116222998Y-102055820D01*
X116186688Y-102175518D01*
X116174428Y-102300000D01*
X116174428Y-103470525D01*
X116171525Y-103500000D01*
X116195370Y-103742102D01*
X116265989Y-103974901D01*
X116380667Y-104189449D01*
X116534998Y-104377502D01*
X116723051Y-104531833D01*
X116937599Y-104646511D01*
X117170398Y-104717130D01*
X117351835Y-104735000D01*
X118173165Y-104735000D01*
X118354602Y-104717130D01*
X118587401Y-104646511D01*
X118801949Y-104531833D01*
X118990002Y-104377502D01*
X119144333Y-104189449D01*
X119259011Y-103974901D01*
X119329630Y-103742102D01*
X119353475Y-103500000D01*
X119350572Y-103470525D01*
X119350572Y-103283817D01*
X119406119Y-103366949D01*
X119595551Y-103556381D01*
X119818299Y-103705216D01*
X120065803Y-103807736D01*
X120328552Y-103860000D01*
X120596448Y-103860000D01*
X120859197Y-103807736D01*
X121106701Y-103705216D01*
X121329449Y-103556381D01*
X121518881Y-103366949D01*
X121667716Y-103144201D01*
X121696854Y-103073856D01*
X123802326Y-105179328D01*
X123767615Y-105207815D01*
X123688263Y-105304506D01*
X123629298Y-105414820D01*
X123592988Y-105534518D01*
X123580728Y-105659000D01*
X123580728Y-107209000D01*
X123592988Y-107333482D01*
X123629298Y-107453180D01*
X123688263Y-107563494D01*
X123767615Y-107660185D01*
X123864306Y-107739537D01*
X123974620Y-107798502D01*
X124094318Y-107834812D01*
X124108800Y-107836238D01*
X124108801Y-112991762D01*
X124094318Y-112993188D01*
X123974620Y-113029498D01*
X123864306Y-113088463D01*
X123767615Y-113167815D01*
X123688263Y-113264506D01*
X123629298Y-113374820D01*
X123592988Y-113494518D01*
X123580728Y-113619000D01*
X123580728Y-115169000D01*
X123592988Y-115293482D01*
X123629298Y-115413180D01*
X123688263Y-115523494D01*
X123767615Y-115620185D01*
X123864306Y-115699537D01*
X123974620Y-115758502D01*
X124094318Y-115794812D01*
X124218800Y-115807072D01*
X125518800Y-115807072D01*
X125643282Y-115794812D01*
X125762980Y-115758502D01*
X125873294Y-115699537D01*
X125969985Y-115620185D01*
X126049337Y-115523494D01*
X126108302Y-115413180D01*
X126144612Y-115293482D01*
X126156872Y-115169000D01*
X126156872Y-113619000D01*
X126144612Y-113494518D01*
X126108302Y-113374820D01*
X126049337Y-113264506D01*
X125969985Y-113167815D01*
X125873294Y-113088463D01*
X125762980Y-113029498D01*
X125643282Y-112993188D01*
X125628800Y-112991762D01*
X125628800Y-107836238D01*
X125643282Y-107834812D01*
X125762980Y-107798502D01*
X125873294Y-107739537D01*
X125969985Y-107660185D01*
X126049337Y-107563494D01*
X126094500Y-107479000D01*
X126624428Y-107479000D01*
X126636688Y-107603482D01*
X126672998Y-107723180D01*
X126731963Y-107833494D01*
X126811315Y-107930185D01*
X126908006Y-108009537D01*
X127018320Y-108068502D01*
X127138018Y-108104812D01*
X127262500Y-108117072D01*
X127689250Y-108114000D01*
X127848000Y-107955250D01*
X127848000Y-106731000D01*
X128102000Y-106731000D01*
X128102000Y-107955250D01*
X128260750Y-108114000D01*
X128687500Y-108117072D01*
X128811982Y-108104812D01*
X128931680Y-108068502D01*
X129041994Y-108009537D01*
X129138685Y-107930185D01*
X129218037Y-107833494D01*
X129277002Y-107723180D01*
X129313312Y-107603482D01*
X129325572Y-107479000D01*
X129322500Y-106889750D01*
X129163750Y-106731000D01*
X128102000Y-106731000D01*
X127848000Y-106731000D01*
X126786250Y-106731000D01*
X126627500Y-106889750D01*
X126624428Y-107479000D01*
X126094500Y-107479000D01*
X126108302Y-107453180D01*
X126144612Y-107333482D01*
X126156872Y-107209000D01*
X126156872Y-105729000D01*
X126624428Y-105729000D01*
X126627500Y-106318250D01*
X126786250Y-106477000D01*
X127848000Y-106477000D01*
X127848000Y-105252750D01*
X128102000Y-105252750D01*
X128102000Y-106477000D01*
X129163750Y-106477000D01*
X129322500Y-106318250D01*
X129325572Y-105729000D01*
X129313312Y-105604518D01*
X129277002Y-105484820D01*
X129218037Y-105374506D01*
X129138685Y-105277815D01*
X129041994Y-105198463D01*
X128931680Y-105139498D01*
X128811982Y-105103188D01*
X128687500Y-105090928D01*
X128260750Y-105094000D01*
X128102000Y-105252750D01*
X127848000Y-105252750D01*
X127689250Y-105094000D01*
X127262500Y-105090928D01*
X127138018Y-105103188D01*
X127018320Y-105139498D01*
X126908006Y-105198463D01*
X126811315Y-105277815D01*
X126731963Y-105374506D01*
X126672998Y-105484820D01*
X126636688Y-105604518D01*
X126624428Y-105729000D01*
X126156872Y-105729000D01*
X126156872Y-105659000D01*
X126144612Y-105534518D01*
X126108302Y-105414820D01*
X126049337Y-105304506D01*
X125969985Y-105207815D01*
X125873294Y-105128463D01*
X125762980Y-105069498D01*
X125643282Y-105033188D01*
X125618665Y-105030763D01*
X125617803Y-105022014D01*
X125574346Y-104878753D01*
X125503774Y-104746724D01*
X125408801Y-104630999D01*
X125379803Y-104607201D01*
X121764972Y-100992371D01*
X121763312Y-100975518D01*
X121763155Y-100975000D01*
X121763312Y-100974482D01*
X121775572Y-100850000D01*
X121775572Y-100760000D01*
X124404289Y-100760000D01*
X124448226Y-100803937D01*
X124617744Y-100917205D01*
X124806102Y-100995226D01*
X125006061Y-101035000D01*
X125209939Y-101035000D01*
X125409898Y-100995226D01*
X125598256Y-100917205D01*
X125767774Y-100803937D01*
X125911937Y-100659774D01*
X126025205Y-100490256D01*
X126103226Y-100301898D01*
X126143000Y-100101939D01*
X126143000Y-99898061D01*
X126103226Y-99698102D01*
X126025205Y-99509744D01*
X125911937Y-99340226D01*
X125767774Y-99196063D01*
X125631241Y-99104835D01*
X125635000Y-99085939D01*
X125635000Y-98882061D01*
X125595226Y-98682102D01*
X125517205Y-98493744D01*
X125403937Y-98324226D01*
X125259774Y-98180063D01*
X125090256Y-98066795D01*
X124901898Y-97988774D01*
X124701939Y-97949000D01*
X124677802Y-97949000D01*
X125912703Y-96714099D01*
X125941701Y-96690301D01*
X126036674Y-96574576D01*
X126107246Y-96442547D01*
X126150703Y-96299286D01*
X126161700Y-96187633D01*
X126161700Y-96187624D01*
X126165376Y-96150301D01*
X126161700Y-96112978D01*
X126161700Y-94422519D01*
X126204050Y-94409672D01*
X126357586Y-94327605D01*
X126492162Y-94217162D01*
X126602605Y-94082586D01*
X126684672Y-93929050D01*
X126735208Y-93762454D01*
X126752272Y-93589200D01*
X126752272Y-92339200D01*
X126735208Y-92165946D01*
X126684672Y-91999350D01*
X126602605Y-91845814D01*
X126492162Y-91711238D01*
X126357586Y-91600795D01*
X126204050Y-91518728D01*
X126037454Y-91468192D01*
X125864200Y-91451128D01*
X124963429Y-91451128D01*
X124706750Y-91194449D01*
X124706750Y-90044500D01*
X127150928Y-90044500D01*
X127163188Y-90168982D01*
X127199498Y-90288680D01*
X127258463Y-90398994D01*
X127337815Y-90495685D01*
X127434506Y-90575037D01*
X127544820Y-90634002D01*
X127664518Y-90670312D01*
X127789000Y-90682572D01*
X128378250Y-90679500D01*
X128537000Y-90520750D01*
X128537000Y-89459000D01*
X128791000Y-89459000D01*
X128791000Y-90520750D01*
X128949750Y-90679500D01*
X129539000Y-90682572D01*
X129663482Y-90670312D01*
X129783180Y-90634002D01*
X129893494Y-90575037D01*
X129990185Y-90495685D01*
X130069537Y-90398994D01*
X130128502Y-90288680D01*
X130164812Y-90168982D01*
X130177072Y-90044500D01*
X130174000Y-89617750D01*
X130015250Y-89459000D01*
X128791000Y-89459000D01*
X128537000Y-89459000D01*
X127312750Y-89459000D01*
X127154000Y-89617750D01*
X127150928Y-90044500D01*
X124706750Y-90044500D01*
X124706750Y-89834072D01*
X126368000Y-89834072D01*
X126492482Y-89821812D01*
X126612180Y-89785502D01*
X126722494Y-89726537D01*
X126819185Y-89647185D01*
X126898537Y-89550494D01*
X126957502Y-89440180D01*
X126993812Y-89320482D01*
X127006072Y-89196000D01*
X127006072Y-89143729D01*
X127153639Y-88996162D01*
X127154000Y-89046250D01*
X127312750Y-89205000D01*
X128537000Y-89205000D01*
X128537000Y-88143250D01*
X128791000Y-88143250D01*
X128791000Y-89205000D01*
X130015250Y-89205000D01*
X130174000Y-89046250D01*
X130177072Y-88619500D01*
X130164812Y-88495018D01*
X130128502Y-88375320D01*
X130069537Y-88265006D01*
X129990185Y-88168315D01*
X129893494Y-88088963D01*
X129783180Y-88029998D01*
X129663482Y-87993688D01*
X129539000Y-87981428D01*
X128949750Y-87984500D01*
X128791000Y-88143250D01*
X128537000Y-88143250D01*
X128378250Y-87984500D01*
X128166406Y-87983396D01*
X130784745Y-85365057D01*
X130812525Y-85406632D01*
X131019368Y-85613475D01*
X131262589Y-85775990D01*
X131532842Y-85887932D01*
X131819740Y-85945000D01*
X132112260Y-85945000D01*
X132399158Y-85887932D01*
X132669411Y-85775990D01*
X132912632Y-85613475D01*
X133119475Y-85406632D01*
X133236000Y-85232240D01*
X133352525Y-85406632D01*
X133559368Y-85613475D01*
X133746000Y-85738179D01*
X133746001Y-87008668D01*
X133742324Y-87046000D01*
X133746001Y-87083332D01*
X133746001Y-87083333D01*
X133756998Y-87194986D01*
X133759071Y-87201820D01*
X133800454Y-87338246D01*
X133871026Y-87470276D01*
X133936054Y-87549512D01*
X133966000Y-87586001D01*
X133994998Y-87609799D01*
X137760127Y-91374928D01*
X136837500Y-91374928D01*
X136664246Y-91391992D01*
X136497650Y-91442528D01*
X136344114Y-91524595D01*
X136209538Y-91635038D01*
X136099095Y-91769614D01*
X136017028Y-91923150D01*
X135966492Y-92089746D01*
X135949428Y-92263000D01*
X135949428Y-93513000D01*
X135966492Y-93686254D01*
X136017028Y-93852850D01*
X136099095Y-94006386D01*
X136209538Y-94140962D01*
X136230299Y-94158000D01*
X135534795Y-94158000D01*
X135568037Y-94117494D01*
X135627002Y-94007180D01*
X135663312Y-93887482D01*
X135675572Y-93763000D01*
X135672500Y-93173750D01*
X135513750Y-93015000D01*
X134452000Y-93015000D01*
X134452000Y-93035000D01*
X134198000Y-93035000D01*
X134198000Y-93015000D01*
X133136250Y-93015000D01*
X132977500Y-93173750D01*
X132974428Y-93763000D01*
X132976416Y-93783185D01*
X129659137Y-93783185D01*
X129621814Y-93779509D01*
X129584491Y-93783185D01*
X129584482Y-93783185D01*
X129472829Y-93794182D01*
X129329568Y-93837639D01*
X129249681Y-93880340D01*
X129298974Y-93820276D01*
X129369546Y-93688247D01*
X129381618Y-93648450D01*
X129462254Y-93640508D01*
X129628850Y-93589972D01*
X129782386Y-93507905D01*
X129916962Y-93397462D01*
X130027405Y-93262886D01*
X130109472Y-93109350D01*
X130160008Y-92942754D01*
X130177072Y-92769500D01*
X130177072Y-92013000D01*
X132974428Y-92013000D01*
X132977500Y-92602250D01*
X133136250Y-92761000D01*
X134198000Y-92761000D01*
X134198000Y-91536750D01*
X134452000Y-91536750D01*
X134452000Y-92761000D01*
X135513750Y-92761000D01*
X135672500Y-92602250D01*
X135675572Y-92013000D01*
X135663312Y-91888518D01*
X135627002Y-91768820D01*
X135568037Y-91658506D01*
X135488685Y-91561815D01*
X135391994Y-91482463D01*
X135281680Y-91423498D01*
X135161982Y-91387188D01*
X135037500Y-91374928D01*
X134610750Y-91378000D01*
X134452000Y-91536750D01*
X134198000Y-91536750D01*
X134039250Y-91378000D01*
X133612500Y-91374928D01*
X133488018Y-91387188D01*
X133368320Y-91423498D01*
X133258006Y-91482463D01*
X133161315Y-91561815D01*
X133081963Y-91658506D01*
X133022998Y-91768820D01*
X132986688Y-91888518D01*
X132974428Y-92013000D01*
X130177072Y-92013000D01*
X130177072Y-91844500D01*
X130160008Y-91671246D01*
X130109472Y-91504650D01*
X130027405Y-91351114D01*
X129916962Y-91216538D01*
X129782386Y-91106095D01*
X129628850Y-91024028D01*
X129462254Y-90973492D01*
X129289000Y-90956428D01*
X128039000Y-90956428D01*
X127865746Y-90973492D01*
X127699150Y-91024028D01*
X127545614Y-91106095D01*
X127411038Y-91216538D01*
X127300595Y-91351114D01*
X127218528Y-91504650D01*
X127167992Y-91671246D01*
X127150928Y-91844500D01*
X127150928Y-92769500D01*
X127167992Y-92942754D01*
X127218528Y-93109350D01*
X127300595Y-93262886D01*
X127328250Y-93296584D01*
X127242226Y-93354063D01*
X127098063Y-93498226D01*
X126984795Y-93667744D01*
X126906774Y-93856102D01*
X126867000Y-94056061D01*
X126867000Y-94259939D01*
X126906774Y-94459898D01*
X126984795Y-94648256D01*
X127081630Y-94793180D01*
X127019114Y-94826595D01*
X126884538Y-94937038D01*
X126774095Y-95071614D01*
X126692028Y-95225150D01*
X126641492Y-95391746D01*
X126624428Y-95565000D01*
X126624428Y-96815000D01*
X126641492Y-96988254D01*
X126692028Y-97154850D01*
X126774095Y-97308386D01*
X126884538Y-97442962D01*
X127019114Y-97553405D01*
X127172650Y-97635472D01*
X127215001Y-97648319D01*
X127215000Y-98287681D01*
X127172650Y-98300528D01*
X127019114Y-98382595D01*
X126884538Y-98493038D01*
X126774095Y-98627614D01*
X126692028Y-98781150D01*
X126641492Y-98947746D01*
X126624428Y-99121000D01*
X126624428Y-100371000D01*
X126641492Y-100544254D01*
X126692028Y-100710850D01*
X126774095Y-100864386D01*
X126884538Y-100998962D01*
X127019114Y-101109405D01*
X127172650Y-101191472D01*
X127339246Y-101242008D01*
X127512500Y-101259072D01*
X128437500Y-101259072D01*
X128610754Y-101242008D01*
X128777350Y-101191472D01*
X128930886Y-101109405D01*
X129065462Y-100998962D01*
X129175905Y-100864386D01*
X129257972Y-100710850D01*
X129308508Y-100544254D01*
X129325572Y-100371000D01*
X129325572Y-99121000D01*
X129308508Y-98947746D01*
X129257972Y-98781150D01*
X129175905Y-98627614D01*
X129065462Y-98493038D01*
X128930886Y-98382595D01*
X128777350Y-98300528D01*
X128735000Y-98287681D01*
X128735000Y-97648319D01*
X128777350Y-97635472D01*
X128930886Y-97553405D01*
X129065462Y-97442962D01*
X129175905Y-97308386D01*
X129257972Y-97154850D01*
X129308508Y-96988254D01*
X129325572Y-96815000D01*
X129325572Y-95914229D01*
X129599428Y-95640374D01*
X129599428Y-96815000D01*
X129616492Y-96988254D01*
X129667028Y-97154850D01*
X129749095Y-97308386D01*
X129807002Y-97378946D01*
X129807001Y-98557054D01*
X129749095Y-98627614D01*
X129667028Y-98781150D01*
X129616492Y-98947746D01*
X129599428Y-99121000D01*
X129599428Y-100371000D01*
X129616492Y-100544254D01*
X129667028Y-100710850D01*
X129749095Y-100864386D01*
X129807001Y-100934945D01*
X129807000Y-105415056D01*
X129749095Y-105485614D01*
X129667028Y-105639150D01*
X129616492Y-105805746D01*
X129599428Y-105979000D01*
X129599428Y-107229000D01*
X129616492Y-107402254D01*
X129667028Y-107568850D01*
X129749095Y-107722386D01*
X129807000Y-107792944D01*
X129807000Y-108636000D01*
X129809440Y-108660776D01*
X129816667Y-108684601D01*
X129828403Y-108706557D01*
X129844197Y-108725803D01*
X129863443Y-108741597D01*
X129885399Y-108753333D01*
X129909224Y-108760560D01*
X129934000Y-108763000D01*
X129999439Y-108763000D01*
X129897038Y-108847038D01*
X129786595Y-108981614D01*
X129704528Y-109135150D01*
X129653992Y-109301746D01*
X129636928Y-109475000D01*
X129636928Y-110725000D01*
X129653992Y-110898254D01*
X129704528Y-111064850D01*
X129786595Y-111218386D01*
X129897038Y-111352962D01*
X130031614Y-111463405D01*
X130185150Y-111545472D01*
X130351746Y-111596008D01*
X130525000Y-111613072D01*
X131450000Y-111613072D01*
X131623254Y-111596008D01*
X131789850Y-111545472D01*
X131943386Y-111463405D01*
X132077962Y-111352962D01*
X132188405Y-111218386D01*
X132270472Y-111064850D01*
X132321008Y-110898254D01*
X132334625Y-110760000D01*
X132810928Y-110760000D01*
X132810928Y-110785000D01*
X132827992Y-110958254D01*
X132878528Y-111124850D01*
X132960595Y-111278386D01*
X133071038Y-111412962D01*
X133205614Y-111523405D01*
X133359150Y-111605472D01*
X133525746Y-111656008D01*
X133699000Y-111673072D01*
X134624000Y-111673072D01*
X134797254Y-111656008D01*
X134963850Y-111605472D01*
X135117386Y-111523405D01*
X135251962Y-111412962D01*
X135362405Y-111278386D01*
X135444472Y-111124850D01*
X135495008Y-110958254D01*
X135512072Y-110785000D01*
X135512072Y-109954874D01*
X135785928Y-110228730D01*
X135785928Y-110785000D01*
X135802992Y-110958254D01*
X135853528Y-111124850D01*
X135935595Y-111278386D01*
X136046038Y-111412962D01*
X136180614Y-111523405D01*
X136334150Y-111605472D01*
X136500746Y-111656008D01*
X136674000Y-111673072D01*
X136718726Y-111673072D01*
X134872408Y-113519391D01*
X134652260Y-113475600D01*
X134359740Y-113475600D01*
X134072842Y-113532668D01*
X133802589Y-113644610D01*
X133559368Y-113807125D01*
X133427513Y-113938980D01*
X133405502Y-113866420D01*
X133346537Y-113756106D01*
X133267185Y-113659415D01*
X133170494Y-113580063D01*
X133060180Y-113521098D01*
X132940482Y-113484788D01*
X132816000Y-113472528D01*
X132251750Y-113475600D01*
X132093000Y-113634350D01*
X132093000Y-114833600D01*
X132113000Y-114833600D01*
X132113000Y-115087600D01*
X132093000Y-115087600D01*
X132093000Y-116286850D01*
X132251750Y-116445600D01*
X132816000Y-116448672D01*
X132940482Y-116436412D01*
X133060180Y-116400102D01*
X133170494Y-116341137D01*
X133267185Y-116261785D01*
X133346537Y-116165094D01*
X133405502Y-116054780D01*
X133427513Y-115982220D01*
X133559368Y-116114075D01*
X133802589Y-116276590D01*
X134072842Y-116388532D01*
X134359740Y-116445600D01*
X134652260Y-116445600D01*
X134939158Y-116388532D01*
X135209411Y-116276590D01*
X135452632Y-116114075D01*
X135659475Y-115907232D01*
X135776000Y-115732840D01*
X135892525Y-115907232D01*
X136099368Y-116114075D01*
X136286000Y-116238779D01*
X136286001Y-117314103D01*
X136235150Y-117329528D01*
X136081614Y-117411595D01*
X135947038Y-117522038D01*
X135836595Y-117656614D01*
X135754528Y-117810150D01*
X135703992Y-117976746D01*
X135686928Y-118150000D01*
X135686928Y-119075000D01*
X135703992Y-119248254D01*
X135754528Y-119414850D01*
X135821422Y-119540000D01*
X134414802Y-119540000D01*
X131322350Y-116447549D01*
X131680250Y-116445600D01*
X131839000Y-116286850D01*
X131839000Y-115087600D01*
X130639750Y-115087600D01*
X130481000Y-115246350D01*
X130479051Y-115604250D01*
X128985401Y-114110600D01*
X130477928Y-114110600D01*
X130481000Y-114674850D01*
X130639750Y-114833600D01*
X131839000Y-114833600D01*
X131839000Y-113634350D01*
X131680250Y-113475600D01*
X131116000Y-113472528D01*
X130991518Y-113484788D01*
X130871820Y-113521098D01*
X130761506Y-113580063D01*
X130664815Y-113659415D01*
X130585463Y-113756106D01*
X130526498Y-113866420D01*
X130490188Y-113986118D01*
X130477928Y-114110600D01*
X128985401Y-114110600D01*
X128772500Y-113897699D01*
X128772500Y-111558319D01*
X128814850Y-111545472D01*
X128968386Y-111463405D01*
X129102962Y-111352962D01*
X129213405Y-111218386D01*
X129295472Y-111064850D01*
X129346008Y-110898254D01*
X129363072Y-110725000D01*
X129363072Y-109475000D01*
X129346008Y-109301746D01*
X129295472Y-109135150D01*
X129213405Y-108981614D01*
X129102962Y-108847038D01*
X128968386Y-108736595D01*
X128814850Y-108654528D01*
X128648254Y-108603992D01*
X128475000Y-108586928D01*
X127550000Y-108586928D01*
X127376746Y-108603992D01*
X127210150Y-108654528D01*
X127056614Y-108736595D01*
X126922038Y-108847038D01*
X126811595Y-108981614D01*
X126729528Y-109135150D01*
X126678992Y-109301746D01*
X126661928Y-109475000D01*
X126661928Y-110725000D01*
X126678992Y-110898254D01*
X126729528Y-111064850D01*
X126811595Y-111218386D01*
X126922038Y-111352962D01*
X127056614Y-111463405D01*
X127210150Y-111545472D01*
X127252500Y-111558319D01*
X127252501Y-114175168D01*
X127248824Y-114212500D01*
X127263498Y-114361485D01*
X127306954Y-114504746D01*
X127377526Y-114636776D01*
X127445008Y-114719002D01*
X127472500Y-114752501D01*
X127501498Y-114776299D01*
X133536200Y-120811002D01*
X133559999Y-120840001D01*
X133588997Y-120863799D01*
X133675723Y-120934974D01*
X133733252Y-120965724D01*
X133807753Y-121005546D01*
X133951014Y-121049003D01*
X134062667Y-121060000D01*
X134062676Y-121060000D01*
X134099999Y-121063676D01*
X134137322Y-121060000D01*
X135693330Y-121060000D01*
X135686928Y-121125000D01*
X135686928Y-122050000D01*
X135703992Y-122223254D01*
X135754528Y-122389850D01*
X135836595Y-122543386D01*
X135947038Y-122677962D01*
X136081614Y-122788405D01*
X136235150Y-122870472D01*
X136401746Y-122921008D01*
X136416716Y-122922482D01*
X136026998Y-123312201D01*
X135998000Y-123335999D01*
X135974202Y-123364997D01*
X135974201Y-123364998D01*
X135903026Y-123451724D01*
X135832454Y-123583754D01*
X135788998Y-123727015D01*
X135774324Y-123876000D01*
X135778001Y-123913332D01*
X135778001Y-124062724D01*
X135739746Y-124066492D01*
X135573150Y-124117028D01*
X135419614Y-124199095D01*
X135285038Y-124309538D01*
X135174595Y-124444114D01*
X135092528Y-124597650D01*
X135041992Y-124764246D01*
X135024928Y-124937500D01*
X135024928Y-125862500D01*
X135041992Y-126035754D01*
X135092528Y-126202350D01*
X135174595Y-126355886D01*
X135285038Y-126490462D01*
X135419614Y-126600905D01*
X135573150Y-126682972D01*
X135739746Y-126733508D01*
X135913000Y-126750572D01*
X137163000Y-126750572D01*
X137336254Y-126733508D01*
X137502850Y-126682972D01*
X137656386Y-126600905D01*
X137790962Y-126490462D01*
X137901405Y-126355886D01*
X137983472Y-126202350D01*
X138034008Y-126035754D01*
X138051072Y-125862500D01*
X138051072Y-124937500D01*
X138034008Y-124764246D01*
X137983472Y-124597650D01*
X137901405Y-124444114D01*
X137790962Y-124309538D01*
X137656386Y-124199095D01*
X137502850Y-124117028D01*
X137402281Y-124086521D01*
X137728802Y-123760000D01*
X138993960Y-123760000D01*
X138991700Y-123771361D01*
X138991700Y-123975239D01*
X139030402Y-124169810D01*
X138975614Y-124199095D01*
X138841038Y-124309538D01*
X138730595Y-124444114D01*
X138648528Y-124597650D01*
X138597992Y-124764246D01*
X138580928Y-124937500D01*
X138580928Y-125862500D01*
X138597992Y-126035754D01*
X138648528Y-126202350D01*
X138730595Y-126355886D01*
X138841038Y-126490462D01*
X138975614Y-126600905D01*
X139129150Y-126682972D01*
X139295746Y-126733508D01*
X139334001Y-126737276D01*
X139334001Y-127025028D01*
X139219000Y-127024428D01*
X139094518Y-127036688D01*
X138974820Y-127072998D01*
X138864506Y-127131963D01*
X138767815Y-127211315D01*
X138688463Y-127308006D01*
X138629498Y-127418320D01*
X138593188Y-127538018D01*
X138580928Y-127662500D01*
X138584000Y-128089250D01*
X138742750Y-128248000D01*
X139967000Y-128248000D01*
X139967000Y-128228000D01*
X140221000Y-128228000D01*
X140221000Y-128248000D01*
X141445250Y-128248000D01*
X141604000Y-128089250D01*
X141607072Y-127662500D01*
X141594812Y-127538018D01*
X141558502Y-127418320D01*
X141499537Y-127308006D01*
X141420185Y-127211315D01*
X141323494Y-127131963D01*
X141213180Y-127072998D01*
X141093482Y-127036688D01*
X140969000Y-127024428D01*
X140854000Y-127025028D01*
X140854000Y-126737276D01*
X140892254Y-126733508D01*
X141058850Y-126682972D01*
X141212386Y-126600905D01*
X141346962Y-126490462D01*
X141457405Y-126355886D01*
X141539472Y-126202350D01*
X141552319Y-126160000D01*
X145113199Y-126160000D01*
X145154199Y-126201000D01*
X145027740Y-126201000D01*
X144740842Y-126258068D01*
X144470589Y-126370010D01*
X144227368Y-126532525D01*
X144020525Y-126739368D01*
X143858010Y-126982589D01*
X143746068Y-127252842D01*
X143689000Y-127539740D01*
X143689000Y-127832260D01*
X143746068Y-128119158D01*
X143858010Y-128389411D01*
X144020525Y-128632632D01*
X144152380Y-128764487D01*
X144079820Y-128786498D01*
X143969506Y-128845463D01*
X143872815Y-128924815D01*
X143793463Y-129021506D01*
X143734498Y-129131820D01*
X143698188Y-129251518D01*
X143685928Y-129376000D01*
X143689000Y-129940250D01*
X143847750Y-130099000D01*
X145047000Y-130099000D01*
X145047000Y-130079000D01*
X145301000Y-130079000D01*
X145301000Y-130099000D01*
X145321000Y-130099000D01*
X145321000Y-130353000D01*
X145301000Y-130353000D01*
X145301000Y-131552250D01*
X145459750Y-131711000D01*
X146024000Y-131714072D01*
X146148482Y-131701812D01*
X146268180Y-131665502D01*
X146378494Y-131606537D01*
X146475185Y-131527185D01*
X146554537Y-131430494D01*
X146613502Y-131320180D01*
X146635513Y-131247620D01*
X146767368Y-131379475D01*
X147010589Y-131541990D01*
X147280842Y-131653932D01*
X147567740Y-131711000D01*
X147860260Y-131711000D01*
X148147158Y-131653932D01*
X148417411Y-131541990D01*
X148660632Y-131379475D01*
X148867475Y-131172632D01*
X148984000Y-130998240D01*
X149100525Y-131172632D01*
X149307368Y-131379475D01*
X149550589Y-131541990D01*
X149820842Y-131653932D01*
X150107740Y-131711000D01*
X150400260Y-131711000D01*
X150687158Y-131653932D01*
X150957411Y-131541990D01*
X151200632Y-131379475D01*
X151407475Y-131172632D01*
X151524000Y-130998240D01*
X151640525Y-131172632D01*
X151847368Y-131379475D01*
X152090589Y-131541990D01*
X152360842Y-131653932D01*
X152647740Y-131711000D01*
X152940260Y-131711000D01*
X153227158Y-131653932D01*
X153497411Y-131541990D01*
X153740632Y-131379475D01*
X153947475Y-131172632D01*
X154064000Y-130998240D01*
X154180525Y-131172632D01*
X154387368Y-131379475D01*
X154630589Y-131541990D01*
X154900842Y-131653932D01*
X155187740Y-131711000D01*
X155480260Y-131711000D01*
X155767158Y-131653932D01*
X156037411Y-131541990D01*
X156280632Y-131379475D01*
X156487475Y-131172632D01*
X156649990Y-130929411D01*
X156761932Y-130659158D01*
X156819000Y-130372260D01*
X156819000Y-130079740D01*
X156775209Y-129859592D01*
X157811004Y-128823798D01*
X157840001Y-128800001D01*
X157934974Y-128684276D01*
X158005546Y-128552247D01*
X158049003Y-128408986D01*
X158060000Y-128297333D01*
X158060000Y-128297323D01*
X158063676Y-128260000D01*
X158060000Y-128222677D01*
X158060000Y-124124823D01*
X158063676Y-124087500D01*
X158060000Y-124050177D01*
X158060000Y-124050167D01*
X158049003Y-123938514D01*
X158005546Y-123795253D01*
X157986703Y-123760000D01*
X157934974Y-123663223D01*
X157863799Y-123576497D01*
X157840001Y-123547499D01*
X157811003Y-123523701D01*
X156313072Y-122025771D01*
X156313072Y-121738463D01*
X156334973Y-121711776D01*
X156405545Y-121579746D01*
X156449002Y-121436486D01*
X156463676Y-121287501D01*
X156449002Y-121138515D01*
X156405545Y-120995254D01*
X156334973Y-120863225D01*
X156240000Y-120747500D01*
X156213897Y-120726078D01*
X156163405Y-120631614D01*
X156052962Y-120497038D01*
X155918386Y-120386595D01*
X155764850Y-120304528D01*
X155598254Y-120253992D01*
X155425000Y-120236928D01*
X154175000Y-120236928D01*
X154001746Y-120253992D01*
X153835150Y-120304528D01*
X153681614Y-120386595D01*
X153547038Y-120497038D01*
X153436595Y-120631614D01*
X153354528Y-120785150D01*
X153303992Y-120951746D01*
X153286928Y-121125000D01*
X153286928Y-122025770D01*
X152572699Y-122740000D01*
X144661808Y-122740000D01*
X144829254Y-122723508D01*
X144995850Y-122672972D01*
X145149386Y-122590905D01*
X145283962Y-122480462D01*
X145394405Y-122345886D01*
X145476472Y-122192350D01*
X145527008Y-122025754D01*
X145544072Y-121852500D01*
X145544072Y-120927500D01*
X145527008Y-120754246D01*
X145476472Y-120587650D01*
X145394405Y-120434114D01*
X145283962Y-120299538D01*
X145149386Y-120189095D01*
X144995850Y-120107028D01*
X144829254Y-120056492D01*
X144656000Y-120039428D01*
X143406000Y-120039428D01*
X143232746Y-120056492D01*
X143066150Y-120107028D01*
X142912614Y-120189095D01*
X142778038Y-120299538D01*
X142731296Y-120356494D01*
X142163804Y-119789002D01*
X142140001Y-119759999D01*
X142024276Y-119665026D01*
X141996347Y-119650097D01*
X142063405Y-119568386D01*
X142145472Y-119414850D01*
X142196008Y-119248254D01*
X142213072Y-119075000D01*
X142213072Y-118150000D01*
X142196008Y-117976746D01*
X142145472Y-117810150D01*
X142063405Y-117656614D01*
X141952962Y-117522038D01*
X141818386Y-117411595D01*
X141664850Y-117329528D01*
X141498254Y-117278992D01*
X141325000Y-117261928D01*
X140075000Y-117261928D01*
X139901746Y-117278992D01*
X139735150Y-117329528D01*
X139581614Y-117411595D01*
X139447038Y-117522038D01*
X139336595Y-117656614D01*
X139254528Y-117810150D01*
X139241681Y-117852500D01*
X138658319Y-117852500D01*
X138645472Y-117810150D01*
X138563405Y-117656614D01*
X138452962Y-117522038D01*
X138318386Y-117411595D01*
X138164850Y-117329528D01*
X137998254Y-117278992D01*
X137825000Y-117261928D01*
X137806000Y-117261928D01*
X137806000Y-116238778D01*
X137992632Y-116114075D01*
X138199475Y-115907232D01*
X138316000Y-115732840D01*
X138432525Y-115907232D01*
X138639368Y-116114075D01*
X138882589Y-116276590D01*
X139152842Y-116388532D01*
X139439740Y-116445600D01*
X139732260Y-116445600D01*
X140019158Y-116388532D01*
X140289411Y-116276590D01*
X140532632Y-116114075D01*
X140739475Y-115907232D01*
X140856000Y-115732840D01*
X140972525Y-115907232D01*
X141179368Y-116114075D01*
X141422589Y-116276590D01*
X141692842Y-116388532D01*
X141979740Y-116445600D01*
X142272260Y-116445600D01*
X142559158Y-116388532D01*
X142829411Y-116276590D01*
X143072632Y-116114075D01*
X143279475Y-115907232D01*
X143396000Y-115732840D01*
X143512525Y-115907232D01*
X143719368Y-116114075D01*
X143803745Y-116170454D01*
X143520002Y-116454197D01*
X143490999Y-116477999D01*
X143435871Y-116545174D01*
X143396026Y-116593724D01*
X143386471Y-116611600D01*
X143325454Y-116725754D01*
X143281997Y-116869015D01*
X143271000Y-116980668D01*
X143271000Y-116980678D01*
X143267324Y-117018000D01*
X143271000Y-117055323D01*
X143271000Y-117077724D01*
X143232746Y-117081492D01*
X143066150Y-117132028D01*
X142912614Y-117214095D01*
X142778038Y-117324538D01*
X142667595Y-117459114D01*
X142585528Y-117612650D01*
X142534992Y-117779246D01*
X142517928Y-117952500D01*
X142517928Y-118877500D01*
X142534992Y-119050754D01*
X142585528Y-119217350D01*
X142667595Y-119370886D01*
X142778038Y-119505462D01*
X142912614Y-119615905D01*
X143066150Y-119697972D01*
X143232746Y-119748508D01*
X143406000Y-119765572D01*
X144656000Y-119765572D01*
X144829254Y-119748508D01*
X144995850Y-119697972D01*
X145149386Y-119615905D01*
X145283962Y-119505462D01*
X145394405Y-119370886D01*
X145418931Y-119325000D01*
X153286928Y-119325000D01*
X153299188Y-119449482D01*
X153335498Y-119569180D01*
X153394463Y-119679494D01*
X153473815Y-119776185D01*
X153570506Y-119855537D01*
X153680820Y-119914502D01*
X153800518Y-119950812D01*
X153925000Y-119963072D01*
X154514250Y-119960000D01*
X154673000Y-119801250D01*
X154673000Y-118739500D01*
X154927000Y-118739500D01*
X154927000Y-119801250D01*
X155085750Y-119960000D01*
X155675000Y-119963072D01*
X155799482Y-119950812D01*
X155919180Y-119914502D01*
X156029494Y-119855537D01*
X156126185Y-119776185D01*
X156205537Y-119679494D01*
X156264502Y-119569180D01*
X156300812Y-119449482D01*
X156313072Y-119325000D01*
X156310000Y-118898250D01*
X156151250Y-118739500D01*
X154927000Y-118739500D01*
X154673000Y-118739500D01*
X153448750Y-118739500D01*
X153290000Y-118898250D01*
X153286928Y-119325000D01*
X145418931Y-119325000D01*
X145476472Y-119217350D01*
X145527008Y-119050754D01*
X145544072Y-118877500D01*
X145544072Y-117952500D01*
X145538902Y-117900000D01*
X153286928Y-117900000D01*
X153290000Y-118326750D01*
X153448750Y-118485500D01*
X154673000Y-118485500D01*
X154673000Y-117423750D01*
X154927000Y-117423750D01*
X154927000Y-118485500D01*
X156151250Y-118485500D01*
X156310000Y-118326750D01*
X156313072Y-117900000D01*
X156300812Y-117775518D01*
X156264502Y-117655820D01*
X156205537Y-117545506D01*
X156126185Y-117448815D01*
X156029494Y-117369463D01*
X155919180Y-117310498D01*
X155799482Y-117274188D01*
X155675000Y-117261928D01*
X155085750Y-117265000D01*
X154927000Y-117423750D01*
X154673000Y-117423750D01*
X154514250Y-117265000D01*
X153925000Y-117261928D01*
X153800518Y-117274188D01*
X153680820Y-117310498D01*
X153570506Y-117369463D01*
X153473815Y-117448815D01*
X153394463Y-117545506D01*
X153335498Y-117655820D01*
X153299188Y-117775518D01*
X153286928Y-117900000D01*
X145538902Y-117900000D01*
X145527008Y-117779246D01*
X145476472Y-117612650D01*
X145394405Y-117459114D01*
X145283962Y-117324538D01*
X145149386Y-117214095D01*
X144995850Y-117132028D01*
X144992722Y-117131079D01*
X145177002Y-116946800D01*
X145206001Y-116923001D01*
X145300974Y-116807276D01*
X145371546Y-116675247D01*
X145415003Y-116531986D01*
X145426000Y-116420333D01*
X145429677Y-116383000D01*
X145426000Y-116345667D01*
X145426000Y-116238778D01*
X145612632Y-116114075D01*
X145819475Y-115907232D01*
X145936000Y-115732840D01*
X146052525Y-115907232D01*
X146259368Y-116114075D01*
X146502589Y-116276590D01*
X146772842Y-116388532D01*
X147059740Y-116445600D01*
X147352260Y-116445600D01*
X147572408Y-116401810D01*
X148293201Y-117122603D01*
X148316999Y-117151601D01*
X148345997Y-117175399D01*
X148432724Y-117246574D01*
X148564753Y-117317146D01*
X148708014Y-117360603D01*
X148857000Y-117375277D01*
X148894333Y-117371600D01*
X150750078Y-117371600D01*
X150787400Y-117375276D01*
X150824722Y-117371600D01*
X150824733Y-117371600D01*
X150936386Y-117360603D01*
X151079647Y-117317146D01*
X151211676Y-117246574D01*
X151327401Y-117151601D01*
X151351204Y-117122597D01*
X153360800Y-115113002D01*
X153499748Y-115113002D01*
X153341000Y-115271750D01*
X153337928Y-115836000D01*
X153350188Y-115960482D01*
X153386498Y-116080180D01*
X153445463Y-116190494D01*
X153524815Y-116287185D01*
X153621506Y-116366537D01*
X153731820Y-116425502D01*
X153851518Y-116461812D01*
X153976000Y-116474072D01*
X154540250Y-116471000D01*
X154699000Y-116312250D01*
X154699000Y-115113000D01*
X154679000Y-115113000D01*
X154679000Y-114859000D01*
X154699000Y-114859000D01*
X154699000Y-114839000D01*
X154953000Y-114839000D01*
X154953000Y-114859000D01*
X154973000Y-114859000D01*
X154973000Y-115113000D01*
X154953000Y-115113000D01*
X154953000Y-116312250D01*
X155111750Y-116471000D01*
X155676000Y-116474072D01*
X155800482Y-116461812D01*
X155920180Y-116425502D01*
X156030494Y-116366537D01*
X156127185Y-116287185D01*
X156206537Y-116190494D01*
X156265502Y-116080180D01*
X156287513Y-116007620D01*
X156419368Y-116139475D01*
X156662589Y-116301990D01*
X156932842Y-116413932D01*
X157219740Y-116471000D01*
X157512260Y-116471000D01*
X157799158Y-116413932D01*
X158069411Y-116301990D01*
X158312632Y-116139475D01*
X158519475Y-115932632D01*
X158636000Y-115758240D01*
X158752525Y-115932632D01*
X158959368Y-116139475D01*
X159202589Y-116301990D01*
X159472842Y-116413932D01*
X159759740Y-116471000D01*
X160052260Y-116471000D01*
X160339158Y-116413932D01*
X160609411Y-116301990D01*
X160852632Y-116139475D01*
X161059475Y-115932632D01*
X161176000Y-115758240D01*
X161292525Y-115932632D01*
X161499368Y-116139475D01*
X161742589Y-116301990D01*
X162012842Y-116413932D01*
X162299740Y-116471000D01*
X162592260Y-116471000D01*
X162623874Y-116464712D01*
X168357907Y-119430590D01*
X168331675Y-119493919D01*
X168265000Y-119829117D01*
X168265000Y-120170883D01*
X168331675Y-120506081D01*
X168462463Y-120821831D01*
X168652337Y-121105998D01*
X168894002Y-121347663D01*
X169178169Y-121537537D01*
X169493919Y-121668325D01*
X169829117Y-121735000D01*
X170170883Y-121735000D01*
X170506081Y-121668325D01*
X170821831Y-121537537D01*
X171105998Y-121347663D01*
X171347663Y-121105998D01*
X171411710Y-121010144D01*
X175359411Y-123052058D01*
X174450591Y-124041063D01*
X172771804Y-125636869D01*
X170989114Y-127115700D01*
X169110656Y-128470808D01*
X167145000Y-129696011D01*
X165101115Y-130785718D01*
X162988328Y-131734956D01*
X160816278Y-132539395D01*
X158594875Y-133195364D01*
X156334256Y-133699871D01*
X154044736Y-134050613D01*
X151736760Y-134245989D01*
X149420860Y-134285109D01*
X147107602Y-134167794D01*
X144807542Y-133894579D01*
X142531173Y-133466711D01*
X140288883Y-132886142D01*
X138090903Y-132155521D01*
X135947261Y-131278181D01*
X135535087Y-131076000D01*
X143685928Y-131076000D01*
X143698188Y-131200482D01*
X143734498Y-131320180D01*
X143793463Y-131430494D01*
X143872815Y-131527185D01*
X143969506Y-131606537D01*
X144079820Y-131665502D01*
X144199518Y-131701812D01*
X144324000Y-131714072D01*
X144888250Y-131711000D01*
X145047000Y-131552250D01*
X145047000Y-130353000D01*
X143847750Y-130353000D01*
X143689000Y-130511750D01*
X143685928Y-131076000D01*
X135535087Y-131076000D01*
X133867739Y-130258127D01*
X131861824Y-129100012D01*
X129938670Y-127809120D01*
X128107051Y-126391341D01*
X127101382Y-125498061D01*
X132265000Y-125498061D01*
X132265000Y-125701939D01*
X132304774Y-125901898D01*
X132382795Y-126090256D01*
X132496063Y-126259774D01*
X132640226Y-126403937D01*
X132809744Y-126517205D01*
X132998102Y-126595226D01*
X133198061Y-126635000D01*
X133260199Y-126635000D01*
X135024928Y-128399730D01*
X135024928Y-128837500D01*
X135041992Y-129010754D01*
X135092528Y-129177350D01*
X135174595Y-129330886D01*
X135285038Y-129465462D01*
X135419614Y-129575905D01*
X135573150Y-129657972D01*
X135739746Y-129708508D01*
X135913000Y-129725572D01*
X137163000Y-129725572D01*
X137336254Y-129708508D01*
X137502850Y-129657972D01*
X137656386Y-129575905D01*
X137790962Y-129465462D01*
X137901405Y-129330886D01*
X137983472Y-129177350D01*
X138010727Y-129087500D01*
X138580928Y-129087500D01*
X138593188Y-129211982D01*
X138629498Y-129331680D01*
X138688463Y-129441994D01*
X138767815Y-129538685D01*
X138864506Y-129618037D01*
X138974820Y-129677002D01*
X139094518Y-129713312D01*
X139219000Y-129725572D01*
X139808250Y-129722500D01*
X139967000Y-129563750D01*
X139967000Y-128502000D01*
X140221000Y-128502000D01*
X140221000Y-129563750D01*
X140379750Y-129722500D01*
X140969000Y-129725572D01*
X141093482Y-129713312D01*
X141213180Y-129677002D01*
X141323494Y-129618037D01*
X141420185Y-129538685D01*
X141499537Y-129441994D01*
X141558502Y-129331680D01*
X141594812Y-129211982D01*
X141607072Y-129087500D01*
X141604000Y-128660750D01*
X141445250Y-128502000D01*
X140221000Y-128502000D01*
X139967000Y-128502000D01*
X138742750Y-128502000D01*
X138584000Y-128660750D01*
X138580928Y-129087500D01*
X138010727Y-129087500D01*
X138034008Y-129010754D01*
X138051072Y-128837500D01*
X138051072Y-127912500D01*
X138034008Y-127739246D01*
X137983472Y-127572650D01*
X137901405Y-127419114D01*
X137790962Y-127284538D01*
X137656386Y-127174095D01*
X137502850Y-127092028D01*
X137336254Y-127041492D01*
X137163000Y-127024428D01*
X135913000Y-127024428D01*
X135809430Y-127034629D01*
X134335000Y-125560199D01*
X134335000Y-125498061D01*
X134295226Y-125298102D01*
X134217205Y-125109744D01*
X134103937Y-124940226D01*
X133959774Y-124796063D01*
X133790256Y-124682795D01*
X133601898Y-124604774D01*
X133401939Y-124565000D01*
X133198061Y-124565000D01*
X132998102Y-124604774D01*
X132809744Y-124682795D01*
X132640226Y-124796063D01*
X132496063Y-124940226D01*
X132382795Y-125109744D01*
X132304774Y-125298102D01*
X132265000Y-125498061D01*
X127101382Y-125498061D01*
X126375324Y-124853145D01*
X124751392Y-123201549D01*
X123242663Y-121444090D01*
X122035644Y-119829117D01*
X128265000Y-119829117D01*
X128265000Y-120170883D01*
X128331675Y-120506081D01*
X128462463Y-120821831D01*
X128652337Y-121105998D01*
X128894002Y-121347663D01*
X129178169Y-121537537D01*
X129493919Y-121668325D01*
X129829117Y-121735000D01*
X130170883Y-121735000D01*
X130506081Y-121668325D01*
X130821831Y-121537537D01*
X131105998Y-121347663D01*
X131347663Y-121105998D01*
X131537537Y-120821831D01*
X131668325Y-120506081D01*
X131735000Y-120170883D01*
X131735000Y-119829117D01*
X131668325Y-119493919D01*
X131537537Y-119178169D01*
X131347663Y-118894002D01*
X131105998Y-118652337D01*
X130821831Y-118462463D01*
X130506081Y-118331675D01*
X130170883Y-118265000D01*
X129829117Y-118265000D01*
X129493919Y-118331675D01*
X129178169Y-118462463D01*
X128894002Y-118652337D01*
X128652337Y-118894002D01*
X128462463Y-119178169D01*
X128331675Y-119493919D01*
X128265000Y-119829117D01*
X122035644Y-119829117D01*
X121856022Y-119588787D01*
X120597795Y-117644105D01*
X119566705Y-115786436D01*
X119594318Y-115794812D01*
X119718800Y-115807072D01*
X121018800Y-115807072D01*
X121143282Y-115794812D01*
X121262980Y-115758502D01*
X121373294Y-115699537D01*
X121469985Y-115620185D01*
X121549337Y-115523494D01*
X121608302Y-115413180D01*
X121644612Y-115293482D01*
X121656872Y-115169000D01*
X121656872Y-113619000D01*
X121644612Y-113494518D01*
X121608302Y-113374820D01*
X121549337Y-113264506D01*
X121469985Y-113167815D01*
X121373294Y-113088463D01*
X121262980Y-113029498D01*
X121143282Y-112993188D01*
X121128800Y-112991762D01*
X121128800Y-107836238D01*
X121143282Y-107834812D01*
X121262980Y-107798502D01*
X121373294Y-107739537D01*
X121469985Y-107660185D01*
X121549337Y-107563494D01*
X121608302Y-107453180D01*
X121644612Y-107333482D01*
X121656872Y-107209000D01*
X121656872Y-105659000D01*
X121644612Y-105534518D01*
X121608302Y-105414820D01*
X121549337Y-105304506D01*
X121469985Y-105207815D01*
X121373294Y-105128463D01*
X121262980Y-105069498D01*
X121143282Y-105033188D01*
X121018800Y-105020928D01*
X119718800Y-105020928D01*
X119594318Y-105033188D01*
X119474620Y-105069498D01*
X119364306Y-105128463D01*
X119267615Y-105207815D01*
X119188263Y-105304506D01*
X119129298Y-105414820D01*
X119092988Y-105534518D01*
X119080728Y-105659000D01*
X119080728Y-107209000D01*
X119092988Y-107333482D01*
X119129298Y-107453180D01*
X119188263Y-107563494D01*
X119267615Y-107660185D01*
X119364306Y-107739537D01*
X119474620Y-107798502D01*
X119594318Y-107834812D01*
X119608800Y-107836238D01*
X119608801Y-112991762D01*
X119594318Y-112993188D01*
X119474620Y-113029498D01*
X119364306Y-113088463D01*
X119267615Y-113167815D01*
X119188263Y-113264506D01*
X119129298Y-113374820D01*
X119092988Y-113494518D01*
X119080728Y-113619000D01*
X119080728Y-114782290D01*
X118488937Y-113522462D01*
X117647928Y-111364308D01*
X116954533Y-109154302D01*
X116411918Y-106902526D01*
X116022558Y-104619256D01*
X115788229Y-102314909D01*
X115710000Y-100000000D01*
X115788229Y-97685091D01*
X116022558Y-95380744D01*
X116411918Y-93097474D01*
X116954533Y-90845698D01*
X117647928Y-88635692D01*
X118111537Y-87446000D01*
X120829928Y-87446000D01*
X120833000Y-87560250D01*
X120991750Y-87719000D01*
X122291000Y-87719000D01*
X122291000Y-86969750D01*
X122132250Y-86811000D01*
X121468000Y-86807928D01*
X121343518Y-86820188D01*
X121223820Y-86856498D01*
X121113506Y-86915463D01*
X121016815Y-86994815D01*
X120937463Y-87091506D01*
X120878498Y-87201820D01*
X120842188Y-87321518D01*
X120829928Y-87446000D01*
X118111537Y-87446000D01*
X118488937Y-86477538D01*
X119473724Y-84381084D01*
X119824217Y-83749617D01*
X129216826Y-83767373D01*
G04 #@! TA.AperFunction,Conductor*
D33*
G36*
X129216826Y-83767373D02*
G01*
X127206199Y-85778000D01*
X125018322Y-85778000D01*
X124980999Y-85774324D01*
X124943676Y-85778000D01*
X124943667Y-85778000D01*
X124832014Y-85788997D01*
X124688753Y-85832454D01*
X124556724Y-85903026D01*
X124556722Y-85903027D01*
X124556723Y-85903027D01*
X124469996Y-85974201D01*
X124469992Y-85974205D01*
X124440999Y-85997999D01*
X124417205Y-86026992D01*
X123593398Y-86850801D01*
X123492482Y-86820188D01*
X123368000Y-86807928D01*
X122703750Y-86811000D01*
X122545000Y-86969750D01*
X122545000Y-87719000D01*
X122565000Y-87719000D01*
X122565000Y-87973000D01*
X122545000Y-87973000D01*
X122545000Y-87993000D01*
X122291000Y-87993000D01*
X122291000Y-87973000D01*
X120991750Y-87973000D01*
X120833000Y-88131750D01*
X120829928Y-88246000D01*
X120842188Y-88370482D01*
X120878498Y-88490180D01*
X120937463Y-88600494D01*
X121016815Y-88697185D01*
X121113506Y-88776537D01*
X121149918Y-88796000D01*
X121113506Y-88815463D01*
X121016815Y-88894815D01*
X120937463Y-88991506D01*
X120878498Y-89101820D01*
X120842188Y-89221518D01*
X120829928Y-89346000D01*
X120829928Y-90146000D01*
X120842188Y-90270482D01*
X120878498Y-90390180D01*
X120937463Y-90500494D01*
X121016815Y-90597185D01*
X121113506Y-90676537D01*
X121223820Y-90735502D01*
X121343518Y-90771812D01*
X121468000Y-90784072D01*
X121662013Y-90784072D01*
X121668998Y-90854986D01*
X121679868Y-90890821D01*
X121712454Y-90998246D01*
X121783026Y-91130276D01*
X121852570Y-91215015D01*
X121878000Y-91246001D01*
X121906998Y-91269799D01*
X122088327Y-91451128D01*
X121964200Y-91451128D01*
X121790946Y-91468192D01*
X121624350Y-91518728D01*
X121470814Y-91600795D01*
X121336238Y-91711238D01*
X121225795Y-91845814D01*
X121143728Y-91999350D01*
X121093192Y-92165946D01*
X121076128Y-92339200D01*
X121076128Y-93589200D01*
X121093192Y-93762454D01*
X121143728Y-93929050D01*
X121225795Y-94082586D01*
X121336238Y-94217162D01*
X121470814Y-94327605D01*
X121624350Y-94409672D01*
X121666701Y-94422519D01*
X121666701Y-95220997D01*
X120722605Y-96165094D01*
X120596448Y-96140000D01*
X120328552Y-96140000D01*
X120065803Y-96192264D01*
X119818299Y-96294784D01*
X119595551Y-96443619D01*
X119406119Y-96633051D01*
X119350572Y-96716183D01*
X119350572Y-96529475D01*
X119353475Y-96500000D01*
X119329630Y-96257898D01*
X119259011Y-96025099D01*
X119144333Y-95810551D01*
X118990002Y-95622498D01*
X118801949Y-95468167D01*
X118587401Y-95353489D01*
X118354602Y-95282870D01*
X118173165Y-95265000D01*
X117351835Y-95265000D01*
X117170398Y-95282870D01*
X116937599Y-95353489D01*
X116723051Y-95468167D01*
X116534998Y-95622498D01*
X116380667Y-95810551D01*
X116265989Y-96025099D01*
X116195370Y-96257898D01*
X116171525Y-96500000D01*
X116174428Y-96529475D01*
X116174428Y-97700000D01*
X116186688Y-97824482D01*
X116222998Y-97944180D01*
X116239472Y-97975000D01*
X116222998Y-98005820D01*
X116186688Y-98125518D01*
X116174428Y-98250000D01*
X116174428Y-99750000D01*
X116186688Y-99874482D01*
X116222998Y-99994180D01*
X116226109Y-100000000D01*
X116222998Y-100005820D01*
X116186688Y-100125518D01*
X116174428Y-100250000D01*
X116174428Y-101750000D01*
X116186688Y-101874482D01*
X116222998Y-101994180D01*
X116239472Y-102025000D01*
X116222998Y-102055820D01*
X116186688Y-102175518D01*
X116174428Y-102300000D01*
X116174428Y-103470525D01*
X116171525Y-103500000D01*
X116195370Y-103742102D01*
X116265989Y-103974901D01*
X116380667Y-104189449D01*
X116534998Y-104377502D01*
X116723051Y-104531833D01*
X116937599Y-104646511D01*
X117170398Y-104717130D01*
X117351835Y-104735000D01*
X118173165Y-104735000D01*
X118354602Y-104717130D01*
X118587401Y-104646511D01*
X118801949Y-104531833D01*
X118990002Y-104377502D01*
X119144333Y-104189449D01*
X119259011Y-103974901D01*
X119329630Y-103742102D01*
X119353475Y-103500000D01*
X119350572Y-103470525D01*
X119350572Y-103283817D01*
X119406119Y-103366949D01*
X119595551Y-103556381D01*
X119818299Y-103705216D01*
X120065803Y-103807736D01*
X120328552Y-103860000D01*
X120596448Y-103860000D01*
X120859197Y-103807736D01*
X121106701Y-103705216D01*
X121329449Y-103556381D01*
X121518881Y-103366949D01*
X121667716Y-103144201D01*
X121696854Y-103073856D01*
X123802326Y-105179328D01*
X123767615Y-105207815D01*
X123688263Y-105304506D01*
X123629298Y-105414820D01*
X123592988Y-105534518D01*
X123580728Y-105659000D01*
X123580728Y-107209000D01*
X123592988Y-107333482D01*
X123629298Y-107453180D01*
X123688263Y-107563494D01*
X123767615Y-107660185D01*
X123864306Y-107739537D01*
X123974620Y-107798502D01*
X124094318Y-107834812D01*
X124108800Y-107836238D01*
X124108801Y-112991762D01*
X124094318Y-112993188D01*
X123974620Y-113029498D01*
X123864306Y-113088463D01*
X123767615Y-113167815D01*
X123688263Y-113264506D01*
X123629298Y-113374820D01*
X123592988Y-113494518D01*
X123580728Y-113619000D01*
X123580728Y-115169000D01*
X123592988Y-115293482D01*
X123629298Y-115413180D01*
X123688263Y-115523494D01*
X123767615Y-115620185D01*
X123864306Y-115699537D01*
X123974620Y-115758502D01*
X124094318Y-115794812D01*
X124218800Y-115807072D01*
X125518800Y-115807072D01*
X125643282Y-115794812D01*
X125762980Y-115758502D01*
X125873294Y-115699537D01*
X125969985Y-115620185D01*
X126049337Y-115523494D01*
X126108302Y-115413180D01*
X126144612Y-115293482D01*
X126156872Y-115169000D01*
X126156872Y-113619000D01*
X126144612Y-113494518D01*
X126108302Y-113374820D01*
X126049337Y-113264506D01*
X125969985Y-113167815D01*
X125873294Y-113088463D01*
X125762980Y-113029498D01*
X125643282Y-112993188D01*
X125628800Y-112991762D01*
X125628800Y-107836238D01*
X125643282Y-107834812D01*
X125762980Y-107798502D01*
X125873294Y-107739537D01*
X125969985Y-107660185D01*
X126049337Y-107563494D01*
X126094500Y-107479000D01*
X126624428Y-107479000D01*
X126636688Y-107603482D01*
X126672998Y-107723180D01*
X126731963Y-107833494D01*
X126811315Y-107930185D01*
X126908006Y-108009537D01*
X127018320Y-108068502D01*
X127138018Y-108104812D01*
X127262500Y-108117072D01*
X127689250Y-108114000D01*
X127848000Y-107955250D01*
X127848000Y-106731000D01*
X128102000Y-106731000D01*
X128102000Y-107955250D01*
X128260750Y-108114000D01*
X128687500Y-108117072D01*
X128811982Y-108104812D01*
X128931680Y-108068502D01*
X129041994Y-108009537D01*
X129138685Y-107930185D01*
X129218037Y-107833494D01*
X129277002Y-107723180D01*
X129313312Y-107603482D01*
X129325572Y-107479000D01*
X129322500Y-106889750D01*
X129163750Y-106731000D01*
X128102000Y-106731000D01*
X127848000Y-106731000D01*
X126786250Y-106731000D01*
X126627500Y-106889750D01*
X126624428Y-107479000D01*
X126094500Y-107479000D01*
X126108302Y-107453180D01*
X126144612Y-107333482D01*
X126156872Y-107209000D01*
X126156872Y-105729000D01*
X126624428Y-105729000D01*
X126627500Y-106318250D01*
X126786250Y-106477000D01*
X127848000Y-106477000D01*
X127848000Y-105252750D01*
X128102000Y-105252750D01*
X128102000Y-106477000D01*
X129163750Y-106477000D01*
X129322500Y-106318250D01*
X129325572Y-105729000D01*
X129313312Y-105604518D01*
X129277002Y-105484820D01*
X129218037Y-105374506D01*
X129138685Y-105277815D01*
X129041994Y-105198463D01*
X128931680Y-105139498D01*
X128811982Y-105103188D01*
X128687500Y-105090928D01*
X128260750Y-105094000D01*
X128102000Y-105252750D01*
X127848000Y-105252750D01*
X127689250Y-105094000D01*
X127262500Y-105090928D01*
X127138018Y-105103188D01*
X127018320Y-105139498D01*
X126908006Y-105198463D01*
X126811315Y-105277815D01*
X126731963Y-105374506D01*
X126672998Y-105484820D01*
X126636688Y-105604518D01*
X126624428Y-105729000D01*
X126156872Y-105729000D01*
X126156872Y-105659000D01*
X126144612Y-105534518D01*
X126108302Y-105414820D01*
X126049337Y-105304506D01*
X125969985Y-105207815D01*
X125873294Y-105128463D01*
X125762980Y-105069498D01*
X125643282Y-105033188D01*
X125618665Y-105030763D01*
X125617803Y-105022014D01*
X125574346Y-104878753D01*
X125503774Y-104746724D01*
X125408801Y-104630999D01*
X125379803Y-104607201D01*
X121764972Y-100992371D01*
X121763312Y-100975518D01*
X121763155Y-100975000D01*
X121763312Y-100974482D01*
X121775572Y-100850000D01*
X121775572Y-100760000D01*
X124404289Y-100760000D01*
X124448226Y-100803937D01*
X124617744Y-100917205D01*
X124806102Y-100995226D01*
X125006061Y-101035000D01*
X125209939Y-101035000D01*
X125409898Y-100995226D01*
X125598256Y-100917205D01*
X125767774Y-100803937D01*
X125911937Y-100659774D01*
X126025205Y-100490256D01*
X126103226Y-100301898D01*
X126143000Y-100101939D01*
X126143000Y-99898061D01*
X126103226Y-99698102D01*
X126025205Y-99509744D01*
X125911937Y-99340226D01*
X125767774Y-99196063D01*
X125631241Y-99104835D01*
X125635000Y-99085939D01*
X125635000Y-98882061D01*
X125595226Y-98682102D01*
X125517205Y-98493744D01*
X125403937Y-98324226D01*
X125259774Y-98180063D01*
X125090256Y-98066795D01*
X124901898Y-97988774D01*
X124701939Y-97949000D01*
X124677802Y-97949000D01*
X125912703Y-96714099D01*
X125941701Y-96690301D01*
X126036674Y-96574576D01*
X126107246Y-96442547D01*
X126150703Y-96299286D01*
X126161700Y-96187633D01*
X126161700Y-96187624D01*
X126165376Y-96150301D01*
X126161700Y-96112978D01*
X126161700Y-94422519D01*
X126204050Y-94409672D01*
X126357586Y-94327605D01*
X126492162Y-94217162D01*
X126602605Y-94082586D01*
X126684672Y-93929050D01*
X126735208Y-93762454D01*
X126752272Y-93589200D01*
X126752272Y-92339200D01*
X126735208Y-92165946D01*
X126684672Y-91999350D01*
X126602605Y-91845814D01*
X126492162Y-91711238D01*
X126357586Y-91600795D01*
X126204050Y-91518728D01*
X126037454Y-91468192D01*
X125864200Y-91451128D01*
X124963429Y-91451128D01*
X124706750Y-91194449D01*
X124706750Y-90044500D01*
X127150928Y-90044500D01*
X127163188Y-90168982D01*
X127199498Y-90288680D01*
X127258463Y-90398994D01*
X127337815Y-90495685D01*
X127434506Y-90575037D01*
X127544820Y-90634002D01*
X127664518Y-90670312D01*
X127789000Y-90682572D01*
X128378250Y-90679500D01*
X128537000Y-90520750D01*
X128537000Y-89459000D01*
X128791000Y-89459000D01*
X128791000Y-90520750D01*
X128949750Y-90679500D01*
X129539000Y-90682572D01*
X129663482Y-90670312D01*
X129783180Y-90634002D01*
X129893494Y-90575037D01*
X129990185Y-90495685D01*
X130069537Y-90398994D01*
X130128502Y-90288680D01*
X130164812Y-90168982D01*
X130177072Y-90044500D01*
X130174000Y-89617750D01*
X130015250Y-89459000D01*
X128791000Y-89459000D01*
X128537000Y-89459000D01*
X127312750Y-89459000D01*
X127154000Y-89617750D01*
X127150928Y-90044500D01*
X124706750Y-90044500D01*
X124706750Y-89834072D01*
X126368000Y-89834072D01*
X126492482Y-89821812D01*
X126612180Y-89785502D01*
X126722494Y-89726537D01*
X126819185Y-89647185D01*
X126898537Y-89550494D01*
X126957502Y-89440180D01*
X126993812Y-89320482D01*
X127006072Y-89196000D01*
X127006072Y-89143729D01*
X127153639Y-88996162D01*
X127154000Y-89046250D01*
X127312750Y-89205000D01*
X128537000Y-89205000D01*
X128537000Y-88143250D01*
X128791000Y-88143250D01*
X128791000Y-89205000D01*
X130015250Y-89205000D01*
X130174000Y-89046250D01*
X130177072Y-88619500D01*
X130164812Y-88495018D01*
X130128502Y-88375320D01*
X130069537Y-88265006D01*
X129990185Y-88168315D01*
X129893494Y-88088963D01*
X129783180Y-88029998D01*
X129663482Y-87993688D01*
X129539000Y-87981428D01*
X128949750Y-87984500D01*
X128791000Y-88143250D01*
X128537000Y-88143250D01*
X128378250Y-87984500D01*
X128166406Y-87983396D01*
X130784745Y-85365057D01*
X130812525Y-85406632D01*
X131019368Y-85613475D01*
X131262589Y-85775990D01*
X131532842Y-85887932D01*
X131819740Y-85945000D01*
X132112260Y-85945000D01*
X132399158Y-85887932D01*
X132669411Y-85775990D01*
X132912632Y-85613475D01*
X133119475Y-85406632D01*
X133236000Y-85232240D01*
X133352525Y-85406632D01*
X133559368Y-85613475D01*
X133746000Y-85738179D01*
X133746001Y-87008668D01*
X133742324Y-87046000D01*
X133746001Y-87083332D01*
X133746001Y-87083333D01*
X133756998Y-87194986D01*
X133759071Y-87201820D01*
X133800454Y-87338246D01*
X133871026Y-87470276D01*
X133936054Y-87549512D01*
X133966000Y-87586001D01*
X133994998Y-87609799D01*
X137760127Y-91374928D01*
X136837500Y-91374928D01*
X136664246Y-91391992D01*
X136497650Y-91442528D01*
X136344114Y-91524595D01*
X136209538Y-91635038D01*
X136099095Y-91769614D01*
X136017028Y-91923150D01*
X135966492Y-92089746D01*
X135949428Y-92263000D01*
X135949428Y-93513000D01*
X135966492Y-93686254D01*
X136017028Y-93852850D01*
X136099095Y-94006386D01*
X136209538Y-94140962D01*
X136230299Y-94158000D01*
X135534795Y-94158000D01*
X135568037Y-94117494D01*
X135627002Y-94007180D01*
X135663312Y-93887482D01*
X135675572Y-93763000D01*
X135672500Y-93173750D01*
X135513750Y-93015000D01*
X134452000Y-93015000D01*
X134452000Y-93035000D01*
X134198000Y-93035000D01*
X134198000Y-93015000D01*
X133136250Y-93015000D01*
X132977500Y-93173750D01*
X132974428Y-93763000D01*
X132976416Y-93783185D01*
X129659137Y-93783185D01*
X129621814Y-93779509D01*
X129584491Y-93783185D01*
X129584482Y-93783185D01*
X129472829Y-93794182D01*
X129329568Y-93837639D01*
X129249681Y-93880340D01*
X129298974Y-93820276D01*
X129369546Y-93688247D01*
X129381618Y-93648450D01*
X129462254Y-93640508D01*
X129628850Y-93589972D01*
X129782386Y-93507905D01*
X129916962Y-93397462D01*
X130027405Y-93262886D01*
X130109472Y-93109350D01*
X130160008Y-92942754D01*
X130177072Y-92769500D01*
X130177072Y-92013000D01*
X132974428Y-92013000D01*
X132977500Y-92602250D01*
X133136250Y-92761000D01*
X134198000Y-92761000D01*
X134198000Y-91536750D01*
X134452000Y-91536750D01*
X134452000Y-92761000D01*
X135513750Y-92761000D01*
X135672500Y-92602250D01*
X135675572Y-92013000D01*
X135663312Y-91888518D01*
X135627002Y-91768820D01*
X135568037Y-91658506D01*
X135488685Y-91561815D01*
X135391994Y-91482463D01*
X135281680Y-91423498D01*
X135161982Y-91387188D01*
X135037500Y-91374928D01*
X134610750Y-91378000D01*
X134452000Y-91536750D01*
X134198000Y-91536750D01*
X134039250Y-91378000D01*
X133612500Y-91374928D01*
X133488018Y-91387188D01*
X133368320Y-91423498D01*
X133258006Y-91482463D01*
X133161315Y-91561815D01*
X133081963Y-91658506D01*
X133022998Y-91768820D01*
X132986688Y-91888518D01*
X132974428Y-92013000D01*
X130177072Y-92013000D01*
X130177072Y-91844500D01*
X130160008Y-91671246D01*
X130109472Y-91504650D01*
X130027405Y-91351114D01*
X129916962Y-91216538D01*
X129782386Y-91106095D01*
X129628850Y-91024028D01*
X129462254Y-90973492D01*
X129289000Y-90956428D01*
X128039000Y-90956428D01*
X127865746Y-90973492D01*
X127699150Y-91024028D01*
X127545614Y-91106095D01*
X127411038Y-91216538D01*
X127300595Y-91351114D01*
X127218528Y-91504650D01*
X127167992Y-91671246D01*
X127150928Y-91844500D01*
X127150928Y-92769500D01*
X127167992Y-92942754D01*
X127218528Y-93109350D01*
X127300595Y-93262886D01*
X127328250Y-93296584D01*
X127242226Y-93354063D01*
X127098063Y-93498226D01*
X126984795Y-93667744D01*
X126906774Y-93856102D01*
X126867000Y-94056061D01*
X126867000Y-94259939D01*
X126906774Y-94459898D01*
X126984795Y-94648256D01*
X127081630Y-94793180D01*
X127019114Y-94826595D01*
X126884538Y-94937038D01*
X126774095Y-95071614D01*
X126692028Y-95225150D01*
X126641492Y-95391746D01*
X126624428Y-95565000D01*
X126624428Y-96815000D01*
X126641492Y-96988254D01*
X126692028Y-97154850D01*
X126774095Y-97308386D01*
X126884538Y-97442962D01*
X127019114Y-97553405D01*
X127172650Y-97635472D01*
X127215001Y-97648319D01*
X127215000Y-98287681D01*
X127172650Y-98300528D01*
X127019114Y-98382595D01*
X126884538Y-98493038D01*
X126774095Y-98627614D01*
X126692028Y-98781150D01*
X126641492Y-98947746D01*
X126624428Y-99121000D01*
X126624428Y-100371000D01*
X126641492Y-100544254D01*
X126692028Y-100710850D01*
X126774095Y-100864386D01*
X126884538Y-100998962D01*
X127019114Y-101109405D01*
X127172650Y-101191472D01*
X127339246Y-101242008D01*
X127512500Y-101259072D01*
X128437500Y-101259072D01*
X128610754Y-101242008D01*
X128777350Y-101191472D01*
X128930886Y-101109405D01*
X129065462Y-100998962D01*
X129175905Y-100864386D01*
X129257972Y-100710850D01*
X129308508Y-100544254D01*
X129325572Y-100371000D01*
X129325572Y-99121000D01*
X129308508Y-98947746D01*
X129257972Y-98781150D01*
X129175905Y-98627614D01*
X129065462Y-98493038D01*
X128930886Y-98382595D01*
X128777350Y-98300528D01*
X128735000Y-98287681D01*
X128735000Y-97648319D01*
X128777350Y-97635472D01*
X128930886Y-97553405D01*
X129065462Y-97442962D01*
X129175905Y-97308386D01*
X129257972Y-97154850D01*
X129308508Y-96988254D01*
X129325572Y-96815000D01*
X129325572Y-95914229D01*
X129599428Y-95640374D01*
X129599428Y-96815000D01*
X129616492Y-96988254D01*
X129667028Y-97154850D01*
X129749095Y-97308386D01*
X129807002Y-97378946D01*
X129807001Y-98557054D01*
X129749095Y-98627614D01*
X129667028Y-98781150D01*
X129616492Y-98947746D01*
X129599428Y-99121000D01*
X129599428Y-100371000D01*
X129616492Y-100544254D01*
X129667028Y-100710850D01*
X129749095Y-100864386D01*
X129807001Y-100934945D01*
X129807000Y-105415056D01*
X129749095Y-105485614D01*
X129667028Y-105639150D01*
X129616492Y-105805746D01*
X129599428Y-105979000D01*
X129599428Y-107229000D01*
X129616492Y-107402254D01*
X129667028Y-107568850D01*
X129749095Y-107722386D01*
X129807000Y-107792944D01*
X129807000Y-108636000D01*
X129809440Y-108660776D01*
X129816667Y-108684601D01*
X129828403Y-108706557D01*
X129844197Y-108725803D01*
X129863443Y-108741597D01*
X129885399Y-108753333D01*
X129909224Y-108760560D01*
X129934000Y-108763000D01*
X129999439Y-108763000D01*
X129897038Y-108847038D01*
X129786595Y-108981614D01*
X129704528Y-109135150D01*
X129653992Y-109301746D01*
X129636928Y-109475000D01*
X129636928Y-110725000D01*
X129653992Y-110898254D01*
X129704528Y-111064850D01*
X129786595Y-111218386D01*
X129897038Y-111352962D01*
X130031614Y-111463405D01*
X130185150Y-111545472D01*
X130351746Y-111596008D01*
X130525000Y-111613072D01*
X131450000Y-111613072D01*
X131623254Y-111596008D01*
X131789850Y-111545472D01*
X131943386Y-111463405D01*
X132077962Y-111352962D01*
X132188405Y-111218386D01*
X132270472Y-111064850D01*
X132321008Y-110898254D01*
X132334625Y-110760000D01*
X132810928Y-110760000D01*
X132810928Y-110785000D01*
X132827992Y-110958254D01*
X132878528Y-111124850D01*
X132960595Y-111278386D01*
X133071038Y-111412962D01*
X133205614Y-111523405D01*
X133359150Y-111605472D01*
X133525746Y-111656008D01*
X133699000Y-111673072D01*
X134624000Y-111673072D01*
X134797254Y-111656008D01*
X134963850Y-111605472D01*
X135117386Y-111523405D01*
X135251962Y-111412962D01*
X135362405Y-111278386D01*
X135444472Y-111124850D01*
X135495008Y-110958254D01*
X135512072Y-110785000D01*
X135512072Y-109954874D01*
X135785928Y-110228730D01*
X135785928Y-110785000D01*
X135802992Y-110958254D01*
X135853528Y-111124850D01*
X135935595Y-111278386D01*
X136046038Y-111412962D01*
X136180614Y-111523405D01*
X136334150Y-111605472D01*
X136500746Y-111656008D01*
X136674000Y-111673072D01*
X136718726Y-111673072D01*
X134872408Y-113519391D01*
X134652260Y-113475600D01*
X134359740Y-113475600D01*
X134072842Y-113532668D01*
X133802589Y-113644610D01*
X133559368Y-113807125D01*
X133427513Y-113938980D01*
X133405502Y-113866420D01*
X133346537Y-113756106D01*
X133267185Y-113659415D01*
X133170494Y-113580063D01*
X133060180Y-113521098D01*
X132940482Y-113484788D01*
X132816000Y-113472528D01*
X132251750Y-113475600D01*
X132093000Y-113634350D01*
X132093000Y-114833600D01*
X132113000Y-114833600D01*
X132113000Y-115087600D01*
X132093000Y-115087600D01*
X132093000Y-116286850D01*
X132251750Y-116445600D01*
X132816000Y-116448672D01*
X132940482Y-116436412D01*
X133060180Y-116400102D01*
X133170494Y-116341137D01*
X133267185Y-116261785D01*
X133346537Y-116165094D01*
X133405502Y-116054780D01*
X133427513Y-115982220D01*
X133559368Y-116114075D01*
X133802589Y-116276590D01*
X134072842Y-116388532D01*
X134359740Y-116445600D01*
X134652260Y-116445600D01*
X134939158Y-116388532D01*
X135209411Y-116276590D01*
X135452632Y-116114075D01*
X135659475Y-115907232D01*
X135776000Y-115732840D01*
X135892525Y-115907232D01*
X136099368Y-116114075D01*
X136286000Y-116238779D01*
X136286001Y-117314103D01*
X136235150Y-117329528D01*
X136081614Y-117411595D01*
X135947038Y-117522038D01*
X135836595Y-117656614D01*
X135754528Y-117810150D01*
X135703992Y-117976746D01*
X135686928Y-118150000D01*
X135686928Y-119075000D01*
X135703992Y-119248254D01*
X135754528Y-119414850D01*
X135821422Y-119540000D01*
X134414802Y-119540000D01*
X131322350Y-116447549D01*
X131680250Y-116445600D01*
X131839000Y-116286850D01*
X131839000Y-115087600D01*
X130639750Y-115087600D01*
X130481000Y-115246350D01*
X130479051Y-115604250D01*
X128985401Y-114110600D01*
X130477928Y-114110600D01*
X130481000Y-114674850D01*
X130639750Y-114833600D01*
X131839000Y-114833600D01*
X131839000Y-113634350D01*
X131680250Y-113475600D01*
X131116000Y-113472528D01*
X130991518Y-113484788D01*
X130871820Y-113521098D01*
X130761506Y-113580063D01*
X130664815Y-113659415D01*
X130585463Y-113756106D01*
X130526498Y-113866420D01*
X130490188Y-113986118D01*
X130477928Y-114110600D01*
X128985401Y-114110600D01*
X128772500Y-113897699D01*
X128772500Y-111558319D01*
X128814850Y-111545472D01*
X128968386Y-111463405D01*
X129102962Y-111352962D01*
X129213405Y-111218386D01*
X129295472Y-111064850D01*
X129346008Y-110898254D01*
X129363072Y-110725000D01*
X129363072Y-109475000D01*
X129346008Y-109301746D01*
X129295472Y-109135150D01*
X129213405Y-108981614D01*
X129102962Y-108847038D01*
X128968386Y-108736595D01*
X128814850Y-108654528D01*
X128648254Y-108603992D01*
X128475000Y-108586928D01*
X127550000Y-108586928D01*
X127376746Y-108603992D01*
X127210150Y-108654528D01*
X127056614Y-108736595D01*
X126922038Y-108847038D01*
X126811595Y-108981614D01*
X126729528Y-109135150D01*
X126678992Y-109301746D01*
X126661928Y-109475000D01*
X126661928Y-110725000D01*
X126678992Y-110898254D01*
X126729528Y-111064850D01*
X126811595Y-111218386D01*
X126922038Y-111352962D01*
X127056614Y-111463405D01*
X127210150Y-111545472D01*
X127252500Y-111558319D01*
X127252501Y-114175168D01*
X127248824Y-114212500D01*
X127263498Y-114361485D01*
X127306954Y-114504746D01*
X127377526Y-114636776D01*
X127445008Y-114719002D01*
X127472500Y-114752501D01*
X127501498Y-114776299D01*
X133536200Y-120811002D01*
X133559999Y-120840001D01*
X133588997Y-120863799D01*
X133675723Y-120934974D01*
X133733252Y-120965724D01*
X133807753Y-121005546D01*
X133951014Y-121049003D01*
X134062667Y-121060000D01*
X134062676Y-121060000D01*
X134099999Y-121063676D01*
X134137322Y-121060000D01*
X135693330Y-121060000D01*
X135686928Y-121125000D01*
X135686928Y-122050000D01*
X135703992Y-122223254D01*
X135754528Y-122389850D01*
X135836595Y-122543386D01*
X135947038Y-122677962D01*
X136081614Y-122788405D01*
X136235150Y-122870472D01*
X136401746Y-122921008D01*
X136416716Y-122922482D01*
X136026998Y-123312201D01*
X135998000Y-123335999D01*
X135974202Y-123364997D01*
X135974201Y-123364998D01*
X135903026Y-123451724D01*
X135832454Y-123583754D01*
X135788998Y-123727015D01*
X135774324Y-123876000D01*
X135778001Y-123913332D01*
X135778001Y-124062724D01*
X135739746Y-124066492D01*
X135573150Y-124117028D01*
X135419614Y-124199095D01*
X135285038Y-124309538D01*
X135174595Y-124444114D01*
X135092528Y-124597650D01*
X135041992Y-124764246D01*
X135024928Y-124937500D01*
X135024928Y-125862500D01*
X135041992Y-126035754D01*
X135092528Y-126202350D01*
X135174595Y-126355886D01*
X135285038Y-126490462D01*
X135419614Y-126600905D01*
X135573150Y-126682972D01*
X135739746Y-126733508D01*
X135913000Y-126750572D01*
X137163000Y-126750572D01*
X137336254Y-126733508D01*
X137502850Y-126682972D01*
X137656386Y-126600905D01*
X137790962Y-126490462D01*
X137901405Y-126355886D01*
X137983472Y-126202350D01*
X138034008Y-126035754D01*
X138051072Y-125862500D01*
X138051072Y-124937500D01*
X138034008Y-124764246D01*
X137983472Y-124597650D01*
X137901405Y-124444114D01*
X137790962Y-124309538D01*
X137656386Y-124199095D01*
X137502850Y-124117028D01*
X137402281Y-124086521D01*
X137728802Y-123760000D01*
X138993960Y-123760000D01*
X138991700Y-123771361D01*
X138991700Y-123975239D01*
X139030402Y-124169810D01*
X138975614Y-124199095D01*
X138841038Y-124309538D01*
X138730595Y-124444114D01*
X138648528Y-124597650D01*
X138597992Y-124764246D01*
X138580928Y-124937500D01*
X138580928Y-125862500D01*
X138597992Y-126035754D01*
X138648528Y-126202350D01*
X138730595Y-126355886D01*
X138841038Y-126490462D01*
X138975614Y-126600905D01*
X139129150Y-126682972D01*
X139295746Y-126733508D01*
X139334001Y-126737276D01*
X139334001Y-127025028D01*
X139219000Y-127024428D01*
X139094518Y-127036688D01*
X138974820Y-127072998D01*
X138864506Y-127131963D01*
X138767815Y-127211315D01*
X138688463Y-127308006D01*
X138629498Y-127418320D01*
X138593188Y-127538018D01*
X138580928Y-127662500D01*
X138584000Y-128089250D01*
X138742750Y-128248000D01*
X139967000Y-128248000D01*
X139967000Y-128228000D01*
X140221000Y-128228000D01*
X140221000Y-128248000D01*
X141445250Y-128248000D01*
X141604000Y-128089250D01*
X141607072Y-127662500D01*
X141594812Y-127538018D01*
X141558502Y-127418320D01*
X141499537Y-127308006D01*
X141420185Y-127211315D01*
X141323494Y-127131963D01*
X141213180Y-127072998D01*
X141093482Y-127036688D01*
X140969000Y-127024428D01*
X140854000Y-127025028D01*
X140854000Y-126737276D01*
X140892254Y-126733508D01*
X141058850Y-126682972D01*
X141212386Y-126600905D01*
X141346962Y-126490462D01*
X141457405Y-126355886D01*
X141539472Y-126202350D01*
X141552319Y-126160000D01*
X145113199Y-126160000D01*
X145154199Y-126201000D01*
X145027740Y-126201000D01*
X144740842Y-126258068D01*
X144470589Y-126370010D01*
X144227368Y-126532525D01*
X144020525Y-126739368D01*
X143858010Y-126982589D01*
X143746068Y-127252842D01*
X143689000Y-127539740D01*
X143689000Y-127832260D01*
X143746068Y-128119158D01*
X143858010Y-128389411D01*
X144020525Y-128632632D01*
X144152380Y-128764487D01*
X144079820Y-128786498D01*
X143969506Y-128845463D01*
X143872815Y-128924815D01*
X143793463Y-129021506D01*
X143734498Y-129131820D01*
X143698188Y-129251518D01*
X143685928Y-129376000D01*
X143689000Y-129940250D01*
X143847750Y-130099000D01*
X145047000Y-130099000D01*
X145047000Y-130079000D01*
X145301000Y-130079000D01*
X145301000Y-130099000D01*
X145321000Y-130099000D01*
X145321000Y-130353000D01*
X145301000Y-130353000D01*
X145301000Y-131552250D01*
X145459750Y-131711000D01*
X146024000Y-131714072D01*
X146148482Y-131701812D01*
X146268180Y-131665502D01*
X146378494Y-131606537D01*
X146475185Y-131527185D01*
X146554537Y-131430494D01*
X146613502Y-131320180D01*
X146635513Y-131247620D01*
X146767368Y-131379475D01*
X147010589Y-131541990D01*
X147280842Y-131653932D01*
X147567740Y-131711000D01*
X147860260Y-131711000D01*
X148147158Y-131653932D01*
X148417411Y-131541990D01*
X148660632Y-131379475D01*
X148867475Y-131172632D01*
X148984000Y-130998240D01*
X149100525Y-131172632D01*
X149307368Y-131379475D01*
X149550589Y-131541990D01*
X149820842Y-131653932D01*
X150107740Y-131711000D01*
X150400260Y-131711000D01*
X150687158Y-131653932D01*
X150957411Y-131541990D01*
X151200632Y-131379475D01*
X151407475Y-131172632D01*
X151524000Y-130998240D01*
X151640525Y-131172632D01*
X151847368Y-131379475D01*
X152090589Y-131541990D01*
X152360842Y-131653932D01*
X152647740Y-131711000D01*
X152940260Y-131711000D01*
X153227158Y-131653932D01*
X153497411Y-131541990D01*
X153740632Y-131379475D01*
X153947475Y-131172632D01*
X154064000Y-130998240D01*
X154180525Y-131172632D01*
X154387368Y-131379475D01*
X154630589Y-131541990D01*
X154900842Y-131653932D01*
X155187740Y-131711000D01*
X155480260Y-131711000D01*
X155767158Y-131653932D01*
X156037411Y-131541990D01*
X156280632Y-131379475D01*
X156487475Y-131172632D01*
X156649990Y-130929411D01*
X156761932Y-130659158D01*
X156819000Y-130372260D01*
X156819000Y-130079740D01*
X156775209Y-129859592D01*
X157811004Y-128823798D01*
X157840001Y-128800001D01*
X157934974Y-128684276D01*
X158005546Y-128552247D01*
X158049003Y-128408986D01*
X158060000Y-128297333D01*
X158060000Y-128297323D01*
X158063676Y-128260000D01*
X158060000Y-128222677D01*
X158060000Y-124124823D01*
X158063676Y-124087500D01*
X158060000Y-124050177D01*
X158060000Y-124050167D01*
X158049003Y-123938514D01*
X158005546Y-123795253D01*
X157986703Y-123760000D01*
X157934974Y-123663223D01*
X157863799Y-123576497D01*
X157840001Y-123547499D01*
X157811003Y-123523701D01*
X156313072Y-122025771D01*
X156313072Y-121738463D01*
X156334973Y-121711776D01*
X156405545Y-121579746D01*
X156449002Y-121436486D01*
X156463676Y-121287501D01*
X156449002Y-121138515D01*
X156405545Y-120995254D01*
X156334973Y-120863225D01*
X156240000Y-120747500D01*
X156213897Y-120726078D01*
X156163405Y-120631614D01*
X156052962Y-120497038D01*
X155918386Y-120386595D01*
X155764850Y-120304528D01*
X155598254Y-120253992D01*
X155425000Y-120236928D01*
X154175000Y-120236928D01*
X154001746Y-120253992D01*
X153835150Y-120304528D01*
X153681614Y-120386595D01*
X153547038Y-120497038D01*
X153436595Y-120631614D01*
X153354528Y-120785150D01*
X153303992Y-120951746D01*
X153286928Y-121125000D01*
X153286928Y-122025770D01*
X152572699Y-122740000D01*
X144661808Y-122740000D01*
X144829254Y-122723508D01*
X144995850Y-122672972D01*
X145149386Y-122590905D01*
X145283962Y-122480462D01*
X145394405Y-122345886D01*
X145476472Y-122192350D01*
X145527008Y-122025754D01*
X145544072Y-121852500D01*
X145544072Y-120927500D01*
X145527008Y-120754246D01*
X145476472Y-120587650D01*
X145394405Y-120434114D01*
X145283962Y-120299538D01*
X145149386Y-120189095D01*
X144995850Y-120107028D01*
X144829254Y-120056492D01*
X144656000Y-120039428D01*
X143406000Y-120039428D01*
X143232746Y-120056492D01*
X143066150Y-120107028D01*
X142912614Y-120189095D01*
X142778038Y-120299538D01*
X142731296Y-120356494D01*
X142163804Y-119789002D01*
X142140001Y-119759999D01*
X142024276Y-119665026D01*
X141996347Y-119650097D01*
X142063405Y-119568386D01*
X142145472Y-119414850D01*
X142196008Y-119248254D01*
X142213072Y-119075000D01*
X142213072Y-118150000D01*
X142196008Y-117976746D01*
X142145472Y-117810150D01*
X142063405Y-117656614D01*
X141952962Y-117522038D01*
X141818386Y-117411595D01*
X141664850Y-117329528D01*
X141498254Y-117278992D01*
X141325000Y-117261928D01*
X140075000Y-117261928D01*
X139901746Y-117278992D01*
X139735150Y-117329528D01*
X139581614Y-117411595D01*
X139447038Y-117522038D01*
X139336595Y-117656614D01*
X139254528Y-117810150D01*
X139241681Y-117852500D01*
X138658319Y-117852500D01*
X138645472Y-117810150D01*
X138563405Y-117656614D01*
X138452962Y-117522038D01*
X138318386Y-117411595D01*
X138164850Y-117329528D01*
X137998254Y-117278992D01*
X137825000Y-117261928D01*
X137806000Y-117261928D01*
X137806000Y-116238778D01*
X137992632Y-116114075D01*
X138199475Y-115907232D01*
X138316000Y-115732840D01*
X138432525Y-115907232D01*
X138639368Y-116114075D01*
X138882589Y-116276590D01*
X139152842Y-116388532D01*
X139439740Y-116445600D01*
X139732260Y-116445600D01*
X140019158Y-116388532D01*
X140289411Y-116276590D01*
X140532632Y-116114075D01*
X140739475Y-115907232D01*
X140856000Y-115732840D01*
X140972525Y-115907232D01*
X141179368Y-116114075D01*
X141422589Y-116276590D01*
X141692842Y-116388532D01*
X141979740Y-116445600D01*
X142272260Y-116445600D01*
X142559158Y-116388532D01*
X142829411Y-116276590D01*
X143072632Y-116114075D01*
X143279475Y-115907232D01*
X143396000Y-115732840D01*
X143512525Y-115907232D01*
X143719368Y-116114075D01*
X143803745Y-116170454D01*
X143520002Y-116454197D01*
X143490999Y-116477999D01*
X143435871Y-116545174D01*
X143396026Y-116593724D01*
X143386471Y-116611600D01*
X143325454Y-116725754D01*
X143281997Y-116869015D01*
X143271000Y-116980668D01*
X143271000Y-116980678D01*
X143267324Y-117018000D01*
X143271000Y-117055323D01*
X143271000Y-117077724D01*
X143232746Y-117081492D01*
X143066150Y-117132028D01*
X142912614Y-117214095D01*
X142778038Y-117324538D01*
X142667595Y-117459114D01*
X142585528Y-117612650D01*
X142534992Y-117779246D01*
X142517928Y-117952500D01*
X142517928Y-118877500D01*
X142534992Y-119050754D01*
X142585528Y-119217350D01*
X142667595Y-119370886D01*
X142778038Y-119505462D01*
X142912614Y-119615905D01*
X143066150Y-119697972D01*
X143232746Y-119748508D01*
X143406000Y-119765572D01*
X144656000Y-119765572D01*
X144829254Y-119748508D01*
X144995850Y-119697972D01*
X145149386Y-119615905D01*
X145283962Y-119505462D01*
X145394405Y-119370886D01*
X145418931Y-119325000D01*
X153286928Y-119325000D01*
X153299188Y-119449482D01*
X153335498Y-119569180D01*
X153394463Y-119679494D01*
X153473815Y-119776185D01*
X153570506Y-119855537D01*
X153680820Y-119914502D01*
X153800518Y-119950812D01*
X153925000Y-119963072D01*
X154514250Y-119960000D01*
X154673000Y-119801250D01*
X154673000Y-118739500D01*
X154927000Y-118739500D01*
X154927000Y-119801250D01*
X155085750Y-119960000D01*
X155675000Y-119963072D01*
X155799482Y-119950812D01*
X155919180Y-119914502D01*
X156029494Y-119855537D01*
X156126185Y-119776185D01*
X156205537Y-119679494D01*
X156264502Y-119569180D01*
X156300812Y-119449482D01*
X156313072Y-119325000D01*
X156310000Y-118898250D01*
X156151250Y-118739500D01*
X154927000Y-118739500D01*
X154673000Y-118739500D01*
X153448750Y-118739500D01*
X153290000Y-118898250D01*
X153286928Y-119325000D01*
X145418931Y-119325000D01*
X145476472Y-119217350D01*
X145527008Y-119050754D01*
X145544072Y-118877500D01*
X145544072Y-117952500D01*
X145538902Y-117900000D01*
X153286928Y-117900000D01*
X153290000Y-118326750D01*
X153448750Y-118485500D01*
X154673000Y-118485500D01*
X154673000Y-117423750D01*
X154927000Y-117423750D01*
X154927000Y-118485500D01*
X156151250Y-118485500D01*
X156310000Y-118326750D01*
X156313072Y-117900000D01*
X156300812Y-117775518D01*
X156264502Y-117655820D01*
X156205537Y-117545506D01*
X156126185Y-117448815D01*
X156029494Y-117369463D01*
X155919180Y-117310498D01*
X155799482Y-117274188D01*
X155675000Y-117261928D01*
X155085750Y-117265000D01*
X154927000Y-117423750D01*
X154673000Y-117423750D01*
X154514250Y-117265000D01*
X153925000Y-117261928D01*
X153800518Y-117274188D01*
X153680820Y-117310498D01*
X153570506Y-117369463D01*
X153473815Y-117448815D01*
X153394463Y-117545506D01*
X153335498Y-117655820D01*
X153299188Y-117775518D01*
X153286928Y-117900000D01*
X145538902Y-117900000D01*
X145527008Y-117779246D01*
X145476472Y-117612650D01*
X145394405Y-117459114D01*
X145283962Y-117324538D01*
X145149386Y-117214095D01*
X144995850Y-117132028D01*
X144992722Y-117131079D01*
X145177002Y-116946800D01*
X145206001Y-116923001D01*
X145300974Y-116807276D01*
X145371546Y-116675247D01*
X145415003Y-116531986D01*
X145426000Y-116420333D01*
X145429677Y-116383000D01*
X145426000Y-116345667D01*
X145426000Y-116238778D01*
X145612632Y-116114075D01*
X145819475Y-115907232D01*
X145936000Y-115732840D01*
X146052525Y-115907232D01*
X146259368Y-116114075D01*
X146502589Y-116276590D01*
X146772842Y-116388532D01*
X147059740Y-116445600D01*
X147352260Y-116445600D01*
X147572408Y-116401810D01*
X148293201Y-117122603D01*
X148316999Y-117151601D01*
X148345997Y-117175399D01*
X148432724Y-117246574D01*
X148564753Y-117317146D01*
X148708014Y-117360603D01*
X148857000Y-117375277D01*
X148894333Y-117371600D01*
X150750078Y-117371600D01*
X150787400Y-117375276D01*
X150824722Y-117371600D01*
X150824733Y-117371600D01*
X150936386Y-117360603D01*
X151079647Y-117317146D01*
X151211676Y-117246574D01*
X151327401Y-117151601D01*
X151351204Y-117122597D01*
X153360800Y-115113002D01*
X153499748Y-115113002D01*
X153341000Y-115271750D01*
X153337928Y-115836000D01*
X153350188Y-115960482D01*
X153386498Y-116080180D01*
X153445463Y-116190494D01*
X153524815Y-116287185D01*
X153621506Y-116366537D01*
X153731820Y-116425502D01*
X153851518Y-116461812D01*
X153976000Y-116474072D01*
X154540250Y-116471000D01*
X154699000Y-116312250D01*
X154699000Y-115113000D01*
X154679000Y-115113000D01*
X154679000Y-114859000D01*
X154699000Y-114859000D01*
X154699000Y-114839000D01*
X154953000Y-114839000D01*
X154953000Y-114859000D01*
X154973000Y-114859000D01*
X154973000Y-115113000D01*
X154953000Y-115113000D01*
X154953000Y-116312250D01*
X155111750Y-116471000D01*
X155676000Y-116474072D01*
X155800482Y-116461812D01*
X155920180Y-116425502D01*
X156030494Y-116366537D01*
X156127185Y-116287185D01*
X156206537Y-116190494D01*
X156265502Y-116080180D01*
X156287513Y-116007620D01*
X156419368Y-116139475D01*
X156662589Y-116301990D01*
X156932842Y-116413932D01*
X157219740Y-116471000D01*
X157512260Y-116471000D01*
X157799158Y-116413932D01*
X158069411Y-116301990D01*
X158312632Y-116139475D01*
X158519475Y-115932632D01*
X158636000Y-115758240D01*
X158752525Y-115932632D01*
X158959368Y-116139475D01*
X159202589Y-116301990D01*
X159472842Y-116413932D01*
X159759740Y-116471000D01*
X160052260Y-116471000D01*
X160339158Y-116413932D01*
X160609411Y-116301990D01*
X160852632Y-116139475D01*
X161059475Y-115932632D01*
X161176000Y-115758240D01*
X161292525Y-115932632D01*
X161499368Y-116139475D01*
X161742589Y-116301990D01*
X162012842Y-116413932D01*
X162299740Y-116471000D01*
X162592260Y-116471000D01*
X162623874Y-116464712D01*
X168357907Y-119430590D01*
X168331675Y-119493919D01*
X168265000Y-119829117D01*
X168265000Y-120170883D01*
X168331675Y-120506081D01*
X168462463Y-120821831D01*
X168652337Y-121105998D01*
X168894002Y-121347663D01*
X169178169Y-121537537D01*
X169493919Y-121668325D01*
X169829117Y-121735000D01*
X170170883Y-121735000D01*
X170506081Y-121668325D01*
X170821831Y-121537537D01*
X171105998Y-121347663D01*
X171347663Y-121105998D01*
X171411710Y-121010144D01*
X175359411Y-123052058D01*
X174450591Y-124041063D01*
X172771804Y-125636869D01*
X170989114Y-127115700D01*
X169110656Y-128470808D01*
X167145000Y-129696011D01*
X165101115Y-130785718D01*
X162988328Y-131734956D01*
X160816278Y-132539395D01*
X158594875Y-133195364D01*
X156334256Y-133699871D01*
X154044736Y-134050613D01*
X151736760Y-134245989D01*
X149420860Y-134285109D01*
X147107602Y-134167794D01*
X144807542Y-133894579D01*
X142531173Y-133466711D01*
X140288883Y-132886142D01*
X138090903Y-132155521D01*
X135947261Y-131278181D01*
X135535087Y-131076000D01*
X143685928Y-131076000D01*
X143698188Y-131200482D01*
X143734498Y-131320180D01*
X143793463Y-131430494D01*
X143872815Y-131527185D01*
X143969506Y-131606537D01*
X144079820Y-131665502D01*
X144199518Y-131701812D01*
X144324000Y-131714072D01*
X144888250Y-131711000D01*
X145047000Y-131552250D01*
X145047000Y-130353000D01*
X143847750Y-130353000D01*
X143689000Y-130511750D01*
X143685928Y-131076000D01*
X135535087Y-131076000D01*
X133867739Y-130258127D01*
X131861824Y-129100012D01*
X129938670Y-127809120D01*
X128107051Y-126391341D01*
X127101382Y-125498061D01*
X132265000Y-125498061D01*
X132265000Y-125701939D01*
X132304774Y-125901898D01*
X132382795Y-126090256D01*
X132496063Y-126259774D01*
X132640226Y-126403937D01*
X132809744Y-126517205D01*
X132998102Y-126595226D01*
X133198061Y-126635000D01*
X133260199Y-126635000D01*
X135024928Y-128399730D01*
X135024928Y-128837500D01*
X135041992Y-129010754D01*
X135092528Y-129177350D01*
X135174595Y-129330886D01*
X135285038Y-129465462D01*
X135419614Y-129575905D01*
X135573150Y-129657972D01*
X135739746Y-129708508D01*
X135913000Y-129725572D01*
X137163000Y-129725572D01*
X137336254Y-129708508D01*
X137502850Y-129657972D01*
X137656386Y-129575905D01*
X137790962Y-129465462D01*
X137901405Y-129330886D01*
X137983472Y-129177350D01*
X138010727Y-129087500D01*
X138580928Y-129087500D01*
X138593188Y-129211982D01*
X138629498Y-129331680D01*
X138688463Y-129441994D01*
X138767815Y-129538685D01*
X138864506Y-129618037D01*
X138974820Y-129677002D01*
X139094518Y-129713312D01*
X139219000Y-129725572D01*
X139808250Y-129722500D01*
X139967000Y-129563750D01*
X139967000Y-128502000D01*
X140221000Y-128502000D01*
X140221000Y-129563750D01*
X140379750Y-129722500D01*
X140969000Y-129725572D01*
X141093482Y-129713312D01*
X141213180Y-129677002D01*
X141323494Y-129618037D01*
X141420185Y-129538685D01*
X141499537Y-129441994D01*
X141558502Y-129331680D01*
X141594812Y-129211982D01*
X141607072Y-129087500D01*
X141604000Y-128660750D01*
X141445250Y-128502000D01*
X140221000Y-128502000D01*
X139967000Y-128502000D01*
X138742750Y-128502000D01*
X138584000Y-128660750D01*
X138580928Y-129087500D01*
X138010727Y-129087500D01*
X138034008Y-129010754D01*
X138051072Y-128837500D01*
X138051072Y-127912500D01*
X138034008Y-127739246D01*
X137983472Y-127572650D01*
X137901405Y-127419114D01*
X137790962Y-127284538D01*
X137656386Y-127174095D01*
X137502850Y-127092028D01*
X137336254Y-127041492D01*
X137163000Y-127024428D01*
X135913000Y-127024428D01*
X135809430Y-127034629D01*
X134335000Y-125560199D01*
X134335000Y-125498061D01*
X134295226Y-125298102D01*
X134217205Y-125109744D01*
X134103937Y-124940226D01*
X133959774Y-124796063D01*
X133790256Y-124682795D01*
X133601898Y-124604774D01*
X133401939Y-124565000D01*
X133198061Y-124565000D01*
X132998102Y-124604774D01*
X132809744Y-124682795D01*
X132640226Y-124796063D01*
X132496063Y-124940226D01*
X132382795Y-125109744D01*
X132304774Y-125298102D01*
X132265000Y-125498061D01*
X127101382Y-125498061D01*
X126375324Y-124853145D01*
X124751392Y-123201549D01*
X123242663Y-121444090D01*
X122035644Y-119829117D01*
X128265000Y-119829117D01*
X128265000Y-120170883D01*
X128331675Y-120506081D01*
X128462463Y-120821831D01*
X128652337Y-121105998D01*
X128894002Y-121347663D01*
X129178169Y-121537537D01*
X129493919Y-121668325D01*
X129829117Y-121735000D01*
X130170883Y-121735000D01*
X130506081Y-121668325D01*
X130821831Y-121537537D01*
X131105998Y-121347663D01*
X131347663Y-121105998D01*
X131537537Y-120821831D01*
X131668325Y-120506081D01*
X131735000Y-120170883D01*
X131735000Y-119829117D01*
X131668325Y-119493919D01*
X131537537Y-119178169D01*
X131347663Y-118894002D01*
X131105998Y-118652337D01*
X130821831Y-118462463D01*
X130506081Y-118331675D01*
X130170883Y-118265000D01*
X129829117Y-118265000D01*
X129493919Y-118331675D01*
X129178169Y-118462463D01*
X128894002Y-118652337D01*
X128652337Y-118894002D01*
X128462463Y-119178169D01*
X128331675Y-119493919D01*
X128265000Y-119829117D01*
X122035644Y-119829117D01*
X121856022Y-119588787D01*
X120597795Y-117644105D01*
X119566705Y-115786436D01*
X119594318Y-115794812D01*
X119718800Y-115807072D01*
X121018800Y-115807072D01*
X121143282Y-115794812D01*
X121262980Y-115758502D01*
X121373294Y-115699537D01*
X121469985Y-115620185D01*
X121549337Y-115523494D01*
X121608302Y-115413180D01*
X121644612Y-115293482D01*
X121656872Y-115169000D01*
X121656872Y-113619000D01*
X121644612Y-113494518D01*
X121608302Y-113374820D01*
X121549337Y-113264506D01*
X121469985Y-113167815D01*
X121373294Y-113088463D01*
X121262980Y-113029498D01*
X121143282Y-112993188D01*
X121128800Y-112991762D01*
X121128800Y-107836238D01*
X121143282Y-107834812D01*
X121262980Y-107798502D01*
X121373294Y-107739537D01*
X121469985Y-107660185D01*
X121549337Y-107563494D01*
X121608302Y-107453180D01*
X121644612Y-107333482D01*
X121656872Y-107209000D01*
X121656872Y-105659000D01*
X121644612Y-105534518D01*
X121608302Y-105414820D01*
X121549337Y-105304506D01*
X121469985Y-105207815D01*
X121373294Y-105128463D01*
X121262980Y-105069498D01*
X121143282Y-105033188D01*
X121018800Y-105020928D01*
X119718800Y-105020928D01*
X119594318Y-105033188D01*
X119474620Y-105069498D01*
X119364306Y-105128463D01*
X119267615Y-105207815D01*
X119188263Y-105304506D01*
X119129298Y-105414820D01*
X119092988Y-105534518D01*
X119080728Y-105659000D01*
X119080728Y-107209000D01*
X119092988Y-107333482D01*
X119129298Y-107453180D01*
X119188263Y-107563494D01*
X119267615Y-107660185D01*
X119364306Y-107739537D01*
X119474620Y-107798502D01*
X119594318Y-107834812D01*
X119608800Y-107836238D01*
X119608801Y-112991762D01*
X119594318Y-112993188D01*
X119474620Y-113029498D01*
X119364306Y-113088463D01*
X119267615Y-113167815D01*
X119188263Y-113264506D01*
X119129298Y-113374820D01*
X119092988Y-113494518D01*
X119080728Y-113619000D01*
X119080728Y-114782290D01*
X118488937Y-113522462D01*
X117647928Y-111364308D01*
X116954533Y-109154302D01*
X116411918Y-106902526D01*
X116022558Y-104619256D01*
X115788229Y-102314909D01*
X115710000Y-100000000D01*
X115788229Y-97685091D01*
X116022558Y-95380744D01*
X116411918Y-93097474D01*
X116954533Y-90845698D01*
X117647928Y-88635692D01*
X118111537Y-87446000D01*
X120829928Y-87446000D01*
X120833000Y-87560250D01*
X120991750Y-87719000D01*
X122291000Y-87719000D01*
X122291000Y-86969750D01*
X122132250Y-86811000D01*
X121468000Y-86807928D01*
X121343518Y-86820188D01*
X121223820Y-86856498D01*
X121113506Y-86915463D01*
X121016815Y-86994815D01*
X120937463Y-87091506D01*
X120878498Y-87201820D01*
X120842188Y-87321518D01*
X120829928Y-87446000D01*
X118111537Y-87446000D01*
X118488937Y-86477538D01*
X119473724Y-84381084D01*
X119824217Y-83749617D01*
X129216826Y-83767373D01*
G37*
G04 #@! TD.AperFunction*
D32*
X143360611Y-100911003D02*
X143384409Y-100940001D01*
X143413407Y-100963799D01*
X143500133Y-101034974D01*
X143620268Y-101099188D01*
X143632163Y-101105546D01*
X143775424Y-101149003D01*
X143887077Y-101160000D01*
X143887086Y-101160000D01*
X143924409Y-101163676D01*
X143961732Y-101160000D01*
X144540019Y-101160000D01*
X144588759Y-101200000D01*
X144544348Y-101236447D01*
X144508277Y-101240000D01*
X144508267Y-101240000D01*
X144396614Y-101250997D01*
X144260629Y-101292247D01*
X144253353Y-101294454D01*
X144121323Y-101365026D01*
X144037683Y-101433668D01*
X144005599Y-101459999D01*
X143981801Y-101488997D01*
X143330799Y-102140000D01*
X143268661Y-102140000D01*
X143068702Y-102179774D01*
X142880344Y-102257795D01*
X142710826Y-102371063D01*
X142588844Y-102493045D01*
X142261857Y-102166058D01*
X142337371Y-102053043D01*
X142441775Y-101800989D01*
X142495000Y-101533411D01*
X142495000Y-101260589D01*
X142441775Y-100993011D01*
X142337371Y-100740957D01*
X142185799Y-100514114D01*
X141992886Y-100321201D01*
X141766043Y-100169629D01*
X141513989Y-100065225D01*
X141246411Y-100012000D01*
X140973589Y-100012000D01*
X140706011Y-100065225D01*
X140453957Y-100169629D01*
X140227114Y-100321201D01*
X140034201Y-100514114D01*
X139882629Y-100740957D01*
X139778225Y-100993011D01*
X139725000Y-101260589D01*
X139725000Y-101533411D01*
X139753833Y-101678365D01*
X139017199Y-102415000D01*
X138437276Y-102415000D01*
X138433508Y-102376746D01*
X138382972Y-102210150D01*
X138300905Y-102056614D01*
X138190462Y-101922038D01*
X138055886Y-101811595D01*
X137902350Y-101729528D01*
X137735754Y-101678992D01*
X137562500Y-101661928D01*
X136637500Y-101661928D01*
X136501334Y-101675339D01*
X136501334Y-101257864D01*
X136760250Y-101256000D01*
X136919000Y-101097250D01*
X136919000Y-99873000D01*
X137173000Y-99873000D01*
X137173000Y-101097250D01*
X137331750Y-101256000D01*
X137758500Y-101259072D01*
X137882982Y-101246812D01*
X138002680Y-101210502D01*
X138112994Y-101151537D01*
X138209685Y-101072185D01*
X138289037Y-100975494D01*
X138348002Y-100865180D01*
X138384312Y-100745482D01*
X138396572Y-100621000D01*
X138393500Y-100031750D01*
X138234750Y-99873000D01*
X137173000Y-99873000D01*
X136919000Y-99873000D01*
X136899000Y-99873000D01*
X136899000Y-99619000D01*
X136919000Y-99619000D01*
X136919000Y-98394750D01*
X137173000Y-98394750D01*
X137173000Y-99619000D01*
X138234750Y-99619000D01*
X138393500Y-99460250D01*
X138396572Y-98871000D01*
X138384312Y-98746518D01*
X138348002Y-98626820D01*
X138289037Y-98516506D01*
X138209685Y-98419815D01*
X138112994Y-98340463D01*
X138002680Y-98281498D01*
X137882982Y-98245188D01*
X137758500Y-98232928D01*
X137331750Y-98236000D01*
X137173000Y-98394750D01*
X136919000Y-98394750D01*
X136760250Y-98236000D01*
X136501334Y-98234136D01*
X136501335Y-97687445D01*
X136660000Y-97703072D01*
X137585000Y-97703072D01*
X137758254Y-97686008D01*
X137924850Y-97635472D01*
X138078386Y-97553405D01*
X138212962Y-97442962D01*
X138323405Y-97308386D01*
X138405472Y-97154850D01*
X138456008Y-96988254D01*
X138459776Y-96950000D01*
X139399609Y-96950000D01*
X143360611Y-100911003D01*
G04 #@! TA.AperFunction,Conductor*
D33*
G36*
X143360611Y-100911003D02*
G01*
X143384409Y-100940001D01*
X143413407Y-100963799D01*
X143500133Y-101034974D01*
X143620268Y-101099188D01*
X143632163Y-101105546D01*
X143775424Y-101149003D01*
X143887077Y-101160000D01*
X143887086Y-101160000D01*
X143924409Y-101163676D01*
X143961732Y-101160000D01*
X144540019Y-101160000D01*
X144588759Y-101200000D01*
X144544348Y-101236447D01*
X144508277Y-101240000D01*
X144508267Y-101240000D01*
X144396614Y-101250997D01*
X144260629Y-101292247D01*
X144253353Y-101294454D01*
X144121323Y-101365026D01*
X144037683Y-101433668D01*
X144005599Y-101459999D01*
X143981801Y-101488997D01*
X143330799Y-102140000D01*
X143268661Y-102140000D01*
X143068702Y-102179774D01*
X142880344Y-102257795D01*
X142710826Y-102371063D01*
X142588844Y-102493045D01*
X142261857Y-102166058D01*
X142337371Y-102053043D01*
X142441775Y-101800989D01*
X142495000Y-101533411D01*
X142495000Y-101260589D01*
X142441775Y-100993011D01*
X142337371Y-100740957D01*
X142185799Y-100514114D01*
X141992886Y-100321201D01*
X141766043Y-100169629D01*
X141513989Y-100065225D01*
X141246411Y-100012000D01*
X140973589Y-100012000D01*
X140706011Y-100065225D01*
X140453957Y-100169629D01*
X140227114Y-100321201D01*
X140034201Y-100514114D01*
X139882629Y-100740957D01*
X139778225Y-100993011D01*
X139725000Y-101260589D01*
X139725000Y-101533411D01*
X139753833Y-101678365D01*
X139017199Y-102415000D01*
X138437276Y-102415000D01*
X138433508Y-102376746D01*
X138382972Y-102210150D01*
X138300905Y-102056614D01*
X138190462Y-101922038D01*
X138055886Y-101811595D01*
X137902350Y-101729528D01*
X137735754Y-101678992D01*
X137562500Y-101661928D01*
X136637500Y-101661928D01*
X136501334Y-101675339D01*
X136501334Y-101257864D01*
X136760250Y-101256000D01*
X136919000Y-101097250D01*
X136919000Y-99873000D01*
X137173000Y-99873000D01*
X137173000Y-101097250D01*
X137331750Y-101256000D01*
X137758500Y-101259072D01*
X137882982Y-101246812D01*
X138002680Y-101210502D01*
X138112994Y-101151537D01*
X138209685Y-101072185D01*
X138289037Y-100975494D01*
X138348002Y-100865180D01*
X138384312Y-100745482D01*
X138396572Y-100621000D01*
X138393500Y-100031750D01*
X138234750Y-99873000D01*
X137173000Y-99873000D01*
X136919000Y-99873000D01*
X136899000Y-99873000D01*
X136899000Y-99619000D01*
X136919000Y-99619000D01*
X136919000Y-98394750D01*
X137173000Y-98394750D01*
X137173000Y-99619000D01*
X138234750Y-99619000D01*
X138393500Y-99460250D01*
X138396572Y-98871000D01*
X138384312Y-98746518D01*
X138348002Y-98626820D01*
X138289037Y-98516506D01*
X138209685Y-98419815D01*
X138112994Y-98340463D01*
X138002680Y-98281498D01*
X137882982Y-98245188D01*
X137758500Y-98232928D01*
X137331750Y-98236000D01*
X137173000Y-98394750D01*
X136919000Y-98394750D01*
X136760250Y-98236000D01*
X136501334Y-98234136D01*
X136501335Y-97687445D01*
X136660000Y-97703072D01*
X137585000Y-97703072D01*
X137758254Y-97686008D01*
X137924850Y-97635472D01*
X138078386Y-97553405D01*
X138212962Y-97442962D01*
X138323405Y-97308386D01*
X138405472Y-97154850D01*
X138456008Y-96988254D01*
X138459776Y-96950000D01*
X139399609Y-96950000D01*
X143360611Y-100911003D01*
G37*
G04 #@! TD.AperFunction*
M02*
