M48
; DRILL file {KiCad 5.1.7+dfsg1-1~bpo10+1} date Wed Nov 11 15:52:34 2020
; FORMAT={3:3/ absolute / metric / suppress leading zeros}
; #@! TF.CreationDate,2020-11-11T15:52:34-05:00
; #@! TF.GenerationSoftware,Kicad,Pcbnew,5.1.7+dfsg1-1~bpo10+1
FMAT,2
METRIC,TZ
T1C0.400
T2C0.600
T3C0.800
T4C0.850
T5C1.000
T6C1.550
T7C2.200
%
G90
G05
T1
X124600Y-98984
X125108Y-100000
X127902Y-94158
X132000Y-102000
X132220Y-104572
X133300Y-125600
X134354Y-88127
X134760Y-97714
X135014Y-108382
X137300Y-94195
X138062Y-74346
X140027Y-123873
X142634Y-97714
X143371Y-103175
X143904Y-98984
X144000Y-92500
X144336Y-104242
X144500Y-93500
X145911Y-80118
X149238Y-97714
X151219Y-76962
X155772Y-98800
X156096Y-102032
X158382Y-99492
X159144Y-100254
X159647Y-101925
X160927Y-101011
X161303Y-78283
X161684Y-97206
X161735Y-100229
X162802Y-99492
X166612Y-87910
X172000Y-95000
X176924Y-97460
T2
X178550Y-100000
T3
X141110Y-101397
X141110Y-106277
T4
X120463Y-97500
X120463Y-102500
T5
X145174Y-127686
X145174Y-130226
X147714Y-127686
X147714Y-130226
X150254Y-127686
X150254Y-130226
X152794Y-127686
X152794Y-130226
X155334Y-127686
X155334Y-130226
X131966Y-114961
X134506Y-114961
X137046Y-114961
X139586Y-114961
X142126Y-114961
X144666Y-114961
X147206Y-114961
X149746Y-114961
X131966Y-84460
X134506Y-84460
X137046Y-84460
X139586Y-84460
X142126Y-84460
X144666Y-84460
X147206Y-84460
X149746Y-84460
X152286Y-84460
X154826Y-84460
X157366Y-84460
X159906Y-84460
X162446Y-84460
X164986Y-84460
X148668Y-73101
X151168Y-73101
X154826Y-114986
X157366Y-114986
X159906Y-114986
X162446Y-114986
X164986Y-114986
X167526Y-114986
T6
X178702Y-88316
T7
X130000Y-120000
X170000Y-120000
X130000Y-80000
X170000Y-80000
T2
G00X117413Y-96500
M15
G01X118113Y-96500
M16
G05
G00X118113Y-103500
M15
G01X117413Y-103500
M16
G05
T0
M30
