G04 #@! TF.GenerationSoftware,KiCad,Pcbnew,5.1.7+dfsg1-1~bpo10+1*
G04 #@! TF.CreationDate,2020-11-11T15:52:25-05:00*
G04 #@! TF.ProjectId,board,626f6172-642e-46b6-9963-61645f706362,rev?*
G04 #@! TF.SameCoordinates,Original*
G04 #@! TF.FileFunction,Soldermask,Bot*
G04 #@! TF.FilePolarity,Negative*
%FSLAX46Y46*%
G04 Gerber Fmt 4.6, Leading zero omitted, Abs format (unit mm)*
G04 Created by KiCad (PCBNEW 5.1.7+dfsg1-1~bpo10+1) date 2020-11-11 15:52:25*
%MOMM*%
%LPD*%
G01*
G04 APERTURE LIST*
%ADD10O,1.801600X1.801600*%
%ADD11C,2.301600*%
%ADD12C,1.601600*%
%ADD13O,1.801600X2.101600*%
%ADD14C,1.101600*%
%ADD15O,2.001600X1.301600*%
%ADD16C,1.551600*%
%ADD17C,0.100000*%
G04 APERTURE END LIST*
G36*
G01*
X164136000Y-83559200D02*
X165836000Y-83559200D01*
G75*
G02*
X165886800Y-83610000I0J-50800D01*
G01*
X165886800Y-85310000D01*
G75*
G02*
X165836000Y-85360800I-50800J0D01*
G01*
X164136000Y-85360800D01*
G75*
G02*
X164085200Y-85310000I0J50800D01*
G01*
X164085200Y-83610000D01*
G75*
G02*
X164136000Y-83559200I50800J0D01*
G01*
G37*
D10*
X162446000Y-84460000D03*
X159906000Y-84460000D03*
X157366000Y-84460000D03*
X154826000Y-84460000D03*
X152286000Y-84460000D03*
X149746000Y-84460000D03*
X147206000Y-84460000D03*
X144666000Y-84460000D03*
X142126000Y-84460000D03*
X139586000Y-84460000D03*
X137046000Y-84460000D03*
X134506000Y-84460000D03*
X131966000Y-84460000D03*
D11*
X130000000Y-120000000D03*
X170000000Y-120000000D03*
X130000000Y-80000000D03*
X170000000Y-80000000D03*
D12*
X141110000Y-106277000D03*
X141110000Y-101397000D03*
D13*
X148668400Y-73101400D03*
G36*
G01*
X152069200Y-72315541D02*
X152069200Y-73887259D01*
G75*
G02*
X151804259Y-74152200I-264941J0D01*
G01*
X150532541Y-74152200D01*
G75*
G02*
X150267600Y-73887259I0J264941D01*
G01*
X150267600Y-72315541D01*
G75*
G02*
X150532541Y-72050600I264941J0D01*
G01*
X151804259Y-72050600D01*
G75*
G02*
X152069200Y-72315541I0J-264941D01*
G01*
G37*
D10*
X155334000Y-127686000D03*
X155334000Y-130226000D03*
X152794000Y-127686000D03*
X152794000Y-130226000D03*
X150254000Y-127686000D03*
X150254000Y-130226000D03*
X147714000Y-127686000D03*
X147714000Y-130226000D03*
X145174000Y-127686000D03*
G36*
G01*
X146024000Y-131126800D02*
X144324000Y-131126800D01*
G75*
G02*
X144273200Y-131076000I0J50800D01*
G01*
X144273200Y-129376000D01*
G75*
G02*
X144324000Y-129325200I50800J0D01*
G01*
X146024000Y-129325200D01*
G75*
G02*
X146074800Y-129376000I0J-50800D01*
G01*
X146074800Y-131076000D01*
G75*
G02*
X146024000Y-131126800I-50800J0D01*
G01*
G37*
D14*
X178550000Y-100000000D03*
G36*
G01*
X178040000Y-99449200D02*
X179090000Y-99449200D01*
G75*
G02*
X179140800Y-99500000I0J-50800D01*
G01*
X179140800Y-100500000D01*
G75*
G02*
X179090000Y-100550800I-50800J0D01*
G01*
X178040000Y-100550800D01*
G75*
G02*
X177989200Y-100500000I0J50800D01*
G01*
X177989200Y-99500000D01*
G75*
G02*
X178040000Y-99449200I50800J0D01*
G01*
G37*
G36*
G01*
X178970000Y-97949200D02*
X181170000Y-97949200D01*
G75*
G02*
X181220800Y-98000000I0J-50800D01*
G01*
X181220800Y-99050000D01*
G75*
G02*
X181170000Y-99100800I-50800J0D01*
G01*
X178970000Y-99100800D01*
G75*
G02*
X178919200Y-99050000I0J50800D01*
G01*
X178919200Y-98000000D01*
G75*
G02*
X178970000Y-97949200I50800J0D01*
G01*
G37*
G36*
G01*
X178970000Y-100899200D02*
X181170000Y-100899200D01*
G75*
G02*
X181220800Y-100950000I0J-50800D01*
G01*
X181220800Y-102000000D01*
G75*
G02*
X181170000Y-102050800I-50800J0D01*
G01*
X178970000Y-102050800D01*
G75*
G02*
X178919200Y-102000000I0J50800D01*
G01*
X178919200Y-100950000D01*
G75*
G02*
X178970000Y-100899200I50800J0D01*
G01*
G37*
G36*
G01*
X178968000Y-96647200D02*
X183032000Y-96647200D01*
G75*
G02*
X183082800Y-96698000I0J-50800D01*
G01*
X183082800Y-98222000D01*
G75*
G02*
X183032000Y-98272800I-50800J0D01*
G01*
X178968000Y-98272800D01*
G75*
G02*
X178917200Y-98222000I0J50800D01*
G01*
X178917200Y-96698000D01*
G75*
G02*
X178968000Y-96647200I50800J0D01*
G01*
G37*
G36*
G01*
X178968000Y-101727200D02*
X183032000Y-101727200D01*
G75*
G02*
X183082800Y-101778000I0J-50800D01*
G01*
X183082800Y-103302000D01*
G75*
G02*
X183032000Y-103352800I-50800J0D01*
G01*
X178968000Y-103352800D01*
G75*
G02*
X178917200Y-103302000I0J50800D01*
G01*
X178917200Y-101778000D01*
G75*
G02*
X178968000Y-101727200I50800J0D01*
G01*
G37*
D15*
X117762500Y-103500000D03*
X117762500Y-96500000D03*
D16*
X120462500Y-102500000D03*
X120462500Y-97500000D03*
G36*
G01*
X132816000Y-115861400D02*
X131116000Y-115861400D01*
G75*
G02*
X131065200Y-115810600I0J50800D01*
G01*
X131065200Y-114110600D01*
G75*
G02*
X131116000Y-114059800I50800J0D01*
G01*
X132816000Y-114059800D01*
G75*
G02*
X132866800Y-114110600I0J-50800D01*
G01*
X132866800Y-115810600D01*
G75*
G02*
X132816000Y-115861400I-50800J0D01*
G01*
G37*
D10*
X134506000Y-114960600D03*
X137046000Y-114960600D03*
X139586000Y-114960600D03*
X142126000Y-114960600D03*
X144666000Y-114960600D03*
X147206000Y-114960600D03*
X149746000Y-114960600D03*
G36*
G01*
X155676000Y-115886800D02*
X153976000Y-115886800D01*
G75*
G02*
X153925200Y-115836000I0J50800D01*
G01*
X153925200Y-114136000D01*
G75*
G02*
X153976000Y-114085200I50800J0D01*
G01*
X155676000Y-114085200D01*
G75*
G02*
X155726800Y-114136000I0J-50800D01*
G01*
X155726800Y-115836000D01*
G75*
G02*
X155676000Y-115886800I-50800J0D01*
G01*
G37*
X157366000Y-114986000D03*
X159906000Y-114986000D03*
X162446000Y-114986000D03*
X164986000Y-114986000D03*
X167526000Y-114986000D03*
G36*
G01*
X177376200Y-89381841D02*
X177376200Y-87250159D01*
G75*
G02*
X177636159Y-86990200I259959J0D01*
G01*
X179767841Y-86990200D01*
G75*
G02*
X180027800Y-87250159I0J-259959D01*
G01*
X180027800Y-89381841D01*
G75*
G02*
X179767841Y-89641800I-259959J0D01*
G01*
X177636159Y-89641800D01*
G75*
G02*
X177376200Y-89381841I0J259959D01*
G01*
G37*
D17*
G36*
X177378190Y-89381645D02*
G01*
X177383165Y-89432161D01*
X177397845Y-89480554D01*
X177421682Y-89525150D01*
X177453761Y-89564239D01*
X177492850Y-89596318D01*
X177537446Y-89620155D01*
X177585839Y-89634835D01*
X177636355Y-89639810D01*
X177637981Y-89640975D01*
X177637785Y-89642965D01*
X177636159Y-89643800D01*
X177541810Y-89643800D01*
X177541614Y-89643790D01*
X177504483Y-89640133D01*
X177504098Y-89640057D01*
X177474291Y-89631015D01*
X177473929Y-89630865D01*
X177446470Y-89616188D01*
X177446144Y-89615970D01*
X177422067Y-89596210D01*
X177421790Y-89595933D01*
X177402030Y-89571856D01*
X177401812Y-89571530D01*
X177387135Y-89544071D01*
X177386985Y-89543709D01*
X177377943Y-89513902D01*
X177377867Y-89513517D01*
X177374210Y-89476386D01*
X177374200Y-89476190D01*
X177374200Y-89381841D01*
X177375200Y-89380109D01*
X177377200Y-89380109D01*
X177378190Y-89381645D01*
G37*
G36*
X180028965Y-89380215D02*
G01*
X180029800Y-89381841D01*
X180029800Y-89476190D01*
X180029790Y-89476386D01*
X180026133Y-89513517D01*
X180026057Y-89513902D01*
X180017015Y-89543709D01*
X180016865Y-89544071D01*
X180002188Y-89571530D01*
X180001970Y-89571856D01*
X179982210Y-89595933D01*
X179981933Y-89596210D01*
X179957856Y-89615970D01*
X179957530Y-89616188D01*
X179930071Y-89630865D01*
X179929709Y-89631015D01*
X179899902Y-89640057D01*
X179899517Y-89640133D01*
X179862386Y-89643790D01*
X179862190Y-89643800D01*
X179767841Y-89643800D01*
X179766109Y-89642800D01*
X179766109Y-89640800D01*
X179767645Y-89639810D01*
X179818161Y-89634835D01*
X179866554Y-89620155D01*
X179911150Y-89596318D01*
X179950239Y-89564239D01*
X179982318Y-89525150D01*
X180006155Y-89480554D01*
X180020835Y-89432161D01*
X180025810Y-89381645D01*
X180026975Y-89380019D01*
X180028965Y-89380215D01*
G37*
G36*
X177637891Y-86989200D02*
G01*
X177637891Y-86991200D01*
X177636355Y-86992190D01*
X177585839Y-86997165D01*
X177537446Y-87011845D01*
X177492850Y-87035682D01*
X177453761Y-87067761D01*
X177421682Y-87106850D01*
X177397845Y-87151446D01*
X177383165Y-87199839D01*
X177378190Y-87250355D01*
X177377025Y-87251981D01*
X177375035Y-87251785D01*
X177374200Y-87250159D01*
X177374200Y-87155810D01*
X177374210Y-87155614D01*
X177377867Y-87118483D01*
X177377943Y-87118098D01*
X177386985Y-87088291D01*
X177387135Y-87087929D01*
X177401812Y-87060470D01*
X177402030Y-87060144D01*
X177421790Y-87036067D01*
X177422067Y-87035790D01*
X177446144Y-87016030D01*
X177446470Y-87015812D01*
X177473929Y-87001135D01*
X177474291Y-87000985D01*
X177504098Y-86991943D01*
X177504483Y-86991867D01*
X177541614Y-86988210D01*
X177541810Y-86988200D01*
X177636159Y-86988200D01*
X177637891Y-86989200D01*
G37*
G36*
X179862386Y-86988210D02*
G01*
X179899517Y-86991867D01*
X179899902Y-86991943D01*
X179929709Y-87000985D01*
X179930071Y-87001135D01*
X179957530Y-87015812D01*
X179957856Y-87016030D01*
X179981933Y-87035790D01*
X179982210Y-87036067D01*
X180001970Y-87060144D01*
X180002188Y-87060470D01*
X180016865Y-87087929D01*
X180017015Y-87088291D01*
X180026057Y-87118098D01*
X180026133Y-87118483D01*
X180029790Y-87155614D01*
X180029800Y-87155810D01*
X180029800Y-87250159D01*
X180028800Y-87251891D01*
X180026800Y-87251891D01*
X180025810Y-87250355D01*
X180020835Y-87199839D01*
X180006155Y-87151446D01*
X179982318Y-87106850D01*
X179950239Y-87067761D01*
X179911150Y-87035682D01*
X179866554Y-87011845D01*
X179818161Y-86997165D01*
X179767645Y-86992190D01*
X179766019Y-86991025D01*
X179766215Y-86989035D01*
X179767841Y-86988200D01*
X179862190Y-86988200D01*
X179862386Y-86988210D01*
G37*
G36*
X152070365Y-73885633D02*
G01*
X152071200Y-73887259D01*
X152071200Y-73969354D01*
X152071190Y-73969550D01*
X152067202Y-74010047D01*
X152067126Y-74010432D01*
X152057105Y-74043466D01*
X152056955Y-74043828D01*
X152040682Y-74074272D01*
X152040464Y-74074598D01*
X152018563Y-74101286D01*
X152018286Y-74101563D01*
X151991598Y-74123464D01*
X151991272Y-74123682D01*
X151960828Y-74139955D01*
X151960466Y-74140105D01*
X151927432Y-74150126D01*
X151927047Y-74150202D01*
X151886550Y-74154190D01*
X151886354Y-74154200D01*
X151804259Y-74154200D01*
X151802527Y-74153200D01*
X151802527Y-74151200D01*
X151804063Y-74150210D01*
X151855551Y-74145139D01*
X151904879Y-74130176D01*
X151950336Y-74105878D01*
X151990180Y-74073180D01*
X152022878Y-74033336D01*
X152047176Y-73987879D01*
X152062139Y-73938551D01*
X152067210Y-73887063D01*
X152068375Y-73885437D01*
X152070365Y-73885633D01*
G37*
G36*
X150269590Y-73887063D02*
G01*
X150274661Y-73938551D01*
X150289624Y-73987879D01*
X150313922Y-74033336D01*
X150346620Y-74073180D01*
X150386464Y-74105878D01*
X150431921Y-74130176D01*
X150481249Y-74145139D01*
X150532737Y-74150210D01*
X150534363Y-74151375D01*
X150534167Y-74153365D01*
X150532541Y-74154200D01*
X150450446Y-74154200D01*
X150450250Y-74154190D01*
X150409753Y-74150202D01*
X150409368Y-74150126D01*
X150376334Y-74140105D01*
X150375972Y-74139955D01*
X150345528Y-74123682D01*
X150345202Y-74123464D01*
X150318514Y-74101563D01*
X150318237Y-74101286D01*
X150296336Y-74074598D01*
X150296118Y-74074272D01*
X150279845Y-74043828D01*
X150279695Y-74043466D01*
X150269674Y-74010432D01*
X150269598Y-74010047D01*
X150265610Y-73969550D01*
X150265600Y-73969354D01*
X150265600Y-73887259D01*
X150266600Y-73885527D01*
X150268600Y-73885527D01*
X150269590Y-73887063D01*
G37*
G36*
X150534273Y-72049600D02*
G01*
X150534273Y-72051600D01*
X150532737Y-72052590D01*
X150481249Y-72057661D01*
X150431921Y-72072624D01*
X150386464Y-72096922D01*
X150346620Y-72129620D01*
X150313922Y-72169464D01*
X150289624Y-72214921D01*
X150274661Y-72264249D01*
X150269590Y-72315737D01*
X150268425Y-72317363D01*
X150266435Y-72317167D01*
X150265600Y-72315541D01*
X150265600Y-72233446D01*
X150265610Y-72233250D01*
X150269598Y-72192753D01*
X150269674Y-72192368D01*
X150279695Y-72159334D01*
X150279845Y-72158972D01*
X150296118Y-72128528D01*
X150296336Y-72128202D01*
X150318237Y-72101514D01*
X150318514Y-72101237D01*
X150345202Y-72079336D01*
X150345528Y-72079118D01*
X150375972Y-72062845D01*
X150376334Y-72062695D01*
X150409368Y-72052674D01*
X150409753Y-72052598D01*
X150450250Y-72048610D01*
X150450446Y-72048600D01*
X150532541Y-72048600D01*
X150534273Y-72049600D01*
G37*
G36*
X151886550Y-72048610D02*
G01*
X151927047Y-72052598D01*
X151927432Y-72052674D01*
X151960466Y-72062695D01*
X151960828Y-72062845D01*
X151991272Y-72079118D01*
X151991598Y-72079336D01*
X152018286Y-72101237D01*
X152018563Y-72101514D01*
X152040464Y-72128202D01*
X152040682Y-72128528D01*
X152056955Y-72158972D01*
X152057105Y-72159334D01*
X152067126Y-72192368D01*
X152067202Y-72192753D01*
X152071190Y-72233250D01*
X152071200Y-72233446D01*
X152071200Y-72315541D01*
X152070200Y-72317273D01*
X152068200Y-72317273D01*
X152067210Y-72315737D01*
X152062139Y-72264249D01*
X152047176Y-72214921D01*
X152022878Y-72169464D01*
X151990180Y-72129620D01*
X151950336Y-72096922D01*
X151904879Y-72072624D01*
X151855551Y-72057661D01*
X151804063Y-72052590D01*
X151802437Y-72051425D01*
X151802633Y-72049435D01*
X151804259Y-72048600D01*
X151886354Y-72048600D01*
X151886550Y-72048610D01*
G37*
M02*
