G04 #@! TF.GenerationSoftware,KiCad,Pcbnew,5.1.6+dfsg1-1~bpo10+1*
G04 #@! TF.CreationDate,2020-09-28T23:40:52-04:00*
G04 #@! TF.ProjectId,board,626f6172-642e-46b6-9963-61645f706362,rev?*
G04 #@! TF.SameCoordinates,Original*
G04 #@! TF.FileFunction,Copper,L2,Bot*
G04 #@! TF.FilePolarity,Positive*
%FSLAX46Y46*%
G04 Gerber Fmt 4.6, Leading zero omitted, Abs format (unit mm)*
G04 Created by KiCad (PCBNEW 5.1.6+dfsg1-1~bpo10+1) date 2020-09-28 23:40:52*
%MOMM*%
%LPD*%
G01*
G04 APERTURE LIST*
G04 #@! TA.AperFunction,ComponentPad*
%ADD10C,1.500000*%
G04 #@! TD*
G04 #@! TA.AperFunction,ComponentPad*
%ADD11O,1.700000X2.000000*%
G04 #@! TD*
G04 #@! TA.AperFunction,ComponentPad*
%ADD12O,1.700000X1.700000*%
G04 #@! TD*
G04 #@! TA.AperFunction,ComponentPad*
%ADD13R,1.700000X1.700000*%
G04 #@! TD*
G04 #@! TA.AperFunction,ComponentPad*
%ADD14C,1.000000*%
G04 #@! TD*
G04 #@! TA.AperFunction,SMDPad,CuDef*
%ADD15R,1.050000X1.000000*%
G04 #@! TD*
G04 #@! TA.AperFunction,SMDPad,CuDef*
%ADD16R,2.200000X1.050000*%
G04 #@! TD*
G04 #@! TA.AperFunction,SMDPad,CuDef*
%ADD17R,4.064000X1.524000*%
G04 #@! TD*
G04 #@! TA.AperFunction,ComponentPad*
%ADD18O,1.900000X1.200000*%
G04 #@! TD*
G04 #@! TA.AperFunction,ComponentPad*
%ADD19C,1.450000*%
G04 #@! TD*
G04 #@! TA.AperFunction,ViaPad*
%ADD20C,0.800000*%
G04 #@! TD*
G04 #@! TA.AperFunction,Conductor*
%ADD21C,0.250000*%
G04 #@! TD*
G04 #@! TA.AperFunction,Conductor*
%ADD22C,0.254000*%
G04 #@! TD*
G04 APERTURE END LIST*
D10*
X141110000Y-105515000D03*
X141110000Y-100635000D03*
D11*
X148668400Y-73101400D03*
G04 #@! TA.AperFunction,ComponentPad*
G36*
G01*
X152018400Y-72351400D02*
X152018400Y-73851400D01*
G75*
G02*
X151768400Y-74101400I-250000J0D01*
G01*
X150568400Y-74101400D01*
G75*
G02*
X150318400Y-73851400I0J250000D01*
G01*
X150318400Y-72351400D01*
G75*
G02*
X150568400Y-72101400I250000J0D01*
G01*
X151768400Y-72101400D01*
G75*
G02*
X152018400Y-72351400I0J-250000D01*
G01*
G37*
G04 #@! TD.AperFunction*
D12*
X155334000Y-127686000D03*
X155334000Y-130226000D03*
X152794000Y-127686000D03*
X152794000Y-130226000D03*
X150254000Y-127686000D03*
X150254000Y-130226000D03*
X147714000Y-127686000D03*
X147714000Y-130226000D03*
X145174000Y-127686000D03*
D13*
X145174000Y-130226000D03*
D12*
X128422400Y-84460000D03*
X130962400Y-84460000D03*
X133502400Y-84460000D03*
X136042400Y-84460000D03*
X138582400Y-84460000D03*
X141122400Y-84460000D03*
X143662400Y-84460000D03*
X146202400Y-84460000D03*
X148742400Y-84460000D03*
X151282400Y-84460000D03*
X153822400Y-84460000D03*
X156362400Y-84460000D03*
D13*
X158902400Y-84460000D03*
D14*
X177550000Y-100000000D03*
D15*
X177565000Y-100000000D03*
D16*
X179070000Y-98525000D03*
X179070000Y-101475000D03*
D17*
X180000000Y-97460000D03*
X180000000Y-102540000D03*
D18*
X116762500Y-103500000D03*
X116762500Y-96500000D03*
D19*
X119462500Y-102500000D03*
X119462500Y-97500000D03*
D13*
X163944600Y-84455200D03*
D12*
X166484600Y-84455200D03*
X169024600Y-84455200D03*
X171564600Y-84455200D03*
X174104600Y-84455200D03*
D13*
X141135400Y-114960600D03*
D12*
X143675400Y-114960600D03*
X146215400Y-114960600D03*
X148755400Y-114960600D03*
X151295400Y-114960600D03*
X153835400Y-114960600D03*
X156375400Y-114960600D03*
X158915400Y-114960600D03*
D20*
X143904000Y-98984000D03*
X124092000Y-88824000D03*
X132220000Y-104572000D03*
X156096000Y-70028000D03*
X156604000Y-79318000D03*
X147460000Y-121336000D03*
X156096000Y-102032000D03*
X150508000Y-112192000D03*
X172352000Y-122860000D03*
X147282200Y-71094800D03*
X145910600Y-80118000D03*
X139941609Y-71094800D03*
X132000000Y-102000000D03*
X134353600Y-88126600D03*
X149009400Y-112954000D03*
X166612410Y-87909600D03*
X162034940Y-86939740D03*
X134760000Y-94412000D03*
X134500000Y-109000000D03*
X141872000Y-107366000D03*
X143370600Y-103175000D03*
X151219200Y-76962200D03*
X171564600Y-103435400D03*
X169964400Y-110820400D03*
X154445000Y-106756400D03*
X157620000Y-98730000D03*
X159647347Y-101925000D03*
X158382000Y-99492000D03*
X162801600Y-99492000D03*
X159144000Y-100254000D03*
X161734800Y-100228600D03*
X128500000Y-111000000D03*
X122499994Y-111000000D03*
X144335800Y-104241800D03*
X124600000Y-98984000D03*
X144000000Y-92500000D03*
X125108000Y-100000000D03*
X144499984Y-93500000D03*
X151270000Y-106832600D03*
X152997212Y-106781800D03*
X149238000Y-97714000D03*
X160922000Y-97714000D03*
X136571358Y-122190178D03*
X140144802Y-122199600D03*
D21*
X180000000Y-102540000D02*
X176924000Y-102540000D01*
X176924000Y-102540000D02*
X175400000Y-104064000D01*
X179070000Y-101475000D02*
X176465000Y-101475000D01*
X176465000Y-101475000D02*
X175400000Y-102540000D01*
X175400000Y-102540000D02*
X175400000Y-104064000D01*
X179070000Y-98525000D02*
X177429998Y-98525000D01*
X175400000Y-100554998D02*
X175400000Y-102540000D01*
X175423499Y-100531499D02*
X175400000Y-100554998D01*
X177429998Y-98525000D02*
X175423499Y-100531499D01*
X175400000Y-104064000D02*
X175400000Y-120828000D01*
X175400000Y-120828000D02*
X172860000Y-123368000D01*
X139941600Y-71094800D02*
X139941609Y-71094800D01*
X147282200Y-71094800D02*
X139941600Y-71094800D01*
X175400000Y-98984000D02*
X175400000Y-100508000D01*
X175400000Y-100508000D02*
X175423499Y-100531499D01*
X180000000Y-97460000D02*
X176924000Y-97460000D01*
X176924000Y-97460000D02*
X175400000Y-98984000D01*
X134353600Y-87960400D02*
X134353600Y-88126600D01*
X134455200Y-87858800D02*
X134353600Y-87960400D01*
X161303000Y-87858800D02*
X134455200Y-87858800D01*
X143142000Y-112954000D02*
X141135400Y-114960600D01*
X149009400Y-112954000D02*
X143142000Y-112954000D01*
X166561610Y-87858800D02*
X166612410Y-87909600D01*
X161303000Y-87858800D02*
X166561610Y-87858800D01*
X162034940Y-87126860D02*
X162034940Y-86939740D01*
X161303000Y-87858800D02*
X162034940Y-87126860D01*
X134760000Y-94412000D02*
X134760000Y-108740000D01*
X134760000Y-108740000D02*
X134500000Y-109000000D01*
X141872000Y-107366000D02*
X143370600Y-105867400D01*
X143370600Y-105867400D02*
X143370600Y-103175000D01*
X151219200Y-73152200D02*
X151168400Y-73101400D01*
X151219200Y-76962200D02*
X151219200Y-73152200D01*
X171564600Y-84455200D02*
X171564600Y-103435400D01*
X158763000Y-112573000D02*
X156375400Y-114960600D01*
X169964400Y-110820400D02*
X168211800Y-112573000D01*
X168211800Y-112573000D02*
X158763000Y-112573000D01*
X156375400Y-114960600D02*
X156375400Y-108686800D01*
X156375400Y-108686800D02*
X154445000Y-106756400D01*
X157620000Y-99897653D02*
X159647347Y-101925000D01*
X157620000Y-98730000D02*
X157620000Y-99897653D01*
X158382000Y-99492000D02*
X162801600Y-99492000D01*
X161709400Y-100254000D02*
X161734800Y-100228600D01*
X159144000Y-100254000D02*
X161709400Y-100254000D01*
X123000000Y-111000000D02*
X122499994Y-111000000D01*
X128500000Y-111000000D02*
X123000000Y-111000000D01*
X144386598Y-104292598D02*
X144335800Y-104241800D01*
X145174000Y-127686000D02*
X143091200Y-125603200D01*
X137376200Y-117297400D02*
X137376200Y-113563600D01*
X143091200Y-125603200D02*
X143091200Y-123012400D01*
X143091200Y-123012400D02*
X137376200Y-117297400D01*
X137376200Y-113563600D02*
X144386598Y-106553202D01*
X144386598Y-106553202D02*
X144386598Y-104292598D01*
X124600000Y-98984000D02*
X131084000Y-92500000D01*
X131084000Y-92500000D02*
X144000000Y-92500000D01*
X131608000Y-93500000D02*
X144499984Y-93500000D01*
X125108000Y-100000000D02*
X131608000Y-93500000D01*
X151295400Y-114960600D02*
X151295400Y-106858000D01*
X151295400Y-106858000D02*
X151270000Y-106832600D01*
X152946400Y-106832612D02*
X152997212Y-106781800D01*
X153835400Y-114960600D02*
X152946400Y-114071600D01*
X152946400Y-114071600D02*
X152946400Y-106832612D01*
X149238000Y-97714000D02*
X160922000Y-97714000D01*
X136571358Y-122190178D02*
X140135380Y-122190178D01*
X140135380Y-122190178D02*
X140144802Y-122199600D01*
D22*
G36*
X151736760Y-65754011D02*
G01*
X154044736Y-65949387D01*
X156334256Y-66300129D01*
X158594875Y-66804636D01*
X160816278Y-67460605D01*
X162988328Y-68265044D01*
X165101115Y-69214282D01*
X167145000Y-70303989D01*
X169110656Y-71529192D01*
X170989114Y-72884300D01*
X172771804Y-74363131D01*
X174450591Y-75958937D01*
X175042993Y-76603606D01*
X171095576Y-78645374D01*
X170821831Y-78462463D01*
X170506081Y-78331675D01*
X170170883Y-78265000D01*
X169829117Y-78265000D01*
X169493919Y-78331675D01*
X169178169Y-78462463D01*
X168894002Y-78652337D01*
X168652337Y-78894002D01*
X168462463Y-79178169D01*
X168331675Y-79493919D01*
X168265000Y-79829117D01*
X168265000Y-80109465D01*
X160390472Y-84182497D01*
X160390472Y-83610000D01*
X160378212Y-83485518D01*
X160341902Y-83365820D01*
X160282937Y-83255506D01*
X160203585Y-83158815D01*
X160106894Y-83079463D01*
X159996580Y-83020498D01*
X159876882Y-82984188D01*
X159752400Y-82971928D01*
X158052400Y-82971928D01*
X157927918Y-82984188D01*
X157808220Y-83020498D01*
X157697906Y-83079463D01*
X157601215Y-83158815D01*
X157521863Y-83255506D01*
X157462898Y-83365820D01*
X157440887Y-83438380D01*
X157309032Y-83306525D01*
X157065811Y-83144010D01*
X156795558Y-83032068D01*
X156508660Y-82975000D01*
X156216140Y-82975000D01*
X155929242Y-83032068D01*
X155658989Y-83144010D01*
X155415768Y-83306525D01*
X155208925Y-83513368D01*
X155092400Y-83687760D01*
X154975875Y-83513368D01*
X154769032Y-83306525D01*
X154525811Y-83144010D01*
X154255558Y-83032068D01*
X153968660Y-82975000D01*
X153676140Y-82975000D01*
X153389242Y-83032068D01*
X153118989Y-83144010D01*
X152875768Y-83306525D01*
X152668925Y-83513368D01*
X152552400Y-83687760D01*
X152435875Y-83513368D01*
X152229032Y-83306525D01*
X151985811Y-83144010D01*
X151715558Y-83032068D01*
X151428660Y-82975000D01*
X151136140Y-82975000D01*
X150849242Y-83032068D01*
X150578989Y-83144010D01*
X150335768Y-83306525D01*
X150128925Y-83513368D01*
X150012400Y-83687760D01*
X149895875Y-83513368D01*
X149689032Y-83306525D01*
X149445811Y-83144010D01*
X149175558Y-83032068D01*
X148888660Y-82975000D01*
X148596140Y-82975000D01*
X148309242Y-83032068D01*
X148038989Y-83144010D01*
X147795768Y-83306525D01*
X147588925Y-83513368D01*
X147472400Y-83687760D01*
X147355875Y-83513368D01*
X147149032Y-83306525D01*
X146905811Y-83144010D01*
X146635558Y-83032068D01*
X146348660Y-82975000D01*
X146056140Y-82975000D01*
X145769242Y-83032068D01*
X145498989Y-83144010D01*
X145255768Y-83306525D01*
X145048925Y-83513368D01*
X144932400Y-83687760D01*
X144815875Y-83513368D01*
X144609032Y-83306525D01*
X144365811Y-83144010D01*
X144095558Y-83032068D01*
X143808660Y-82975000D01*
X143516140Y-82975000D01*
X143229242Y-83032068D01*
X142958989Y-83144010D01*
X142715768Y-83306525D01*
X142508925Y-83513368D01*
X142392400Y-83687760D01*
X142275875Y-83513368D01*
X142069032Y-83306525D01*
X141825811Y-83144010D01*
X141555558Y-83032068D01*
X141268660Y-82975000D01*
X140976140Y-82975000D01*
X140689242Y-83032068D01*
X140418989Y-83144010D01*
X140175768Y-83306525D01*
X139968925Y-83513368D01*
X139852400Y-83687760D01*
X139735875Y-83513368D01*
X139529032Y-83306525D01*
X139285811Y-83144010D01*
X139015558Y-83032068D01*
X138728660Y-82975000D01*
X138436140Y-82975000D01*
X138149242Y-83032068D01*
X137878989Y-83144010D01*
X137635768Y-83306525D01*
X137428925Y-83513368D01*
X137312400Y-83687760D01*
X137195875Y-83513368D01*
X136989032Y-83306525D01*
X136745811Y-83144010D01*
X136475558Y-83032068D01*
X136188660Y-82975000D01*
X135896140Y-82975000D01*
X135609242Y-83032068D01*
X135338989Y-83144010D01*
X135095768Y-83306525D01*
X134888925Y-83513368D01*
X134772400Y-83687760D01*
X134655875Y-83513368D01*
X134449032Y-83306525D01*
X134205811Y-83144010D01*
X133935558Y-83032068D01*
X133648660Y-82975000D01*
X133356140Y-82975000D01*
X133069242Y-83032068D01*
X132798989Y-83144010D01*
X132555768Y-83306525D01*
X132348925Y-83513368D01*
X132232400Y-83687760D01*
X132115875Y-83513368D01*
X131909032Y-83306525D01*
X131665811Y-83144010D01*
X131395558Y-83032068D01*
X131108660Y-82975000D01*
X130816140Y-82975000D01*
X130529242Y-83032068D01*
X130258989Y-83144010D01*
X130015768Y-83306525D01*
X129808925Y-83513368D01*
X129692400Y-83687760D01*
X129575875Y-83513368D01*
X129369032Y-83306525D01*
X129125811Y-83144010D01*
X128855558Y-83032068D01*
X128568660Y-82975000D01*
X128276140Y-82975000D01*
X127989242Y-83032068D01*
X127718989Y-83144010D01*
X127475768Y-83306525D01*
X127268925Y-83513368D01*
X127106410Y-83756589D01*
X126994468Y-84026842D01*
X126937400Y-84313740D01*
X126937400Y-84606260D01*
X126994468Y-84893158D01*
X127106410Y-85163411D01*
X127268925Y-85406632D01*
X127475768Y-85613475D01*
X127718989Y-85775990D01*
X127989242Y-85887932D01*
X128276140Y-85945000D01*
X128568660Y-85945000D01*
X128855558Y-85887932D01*
X129125811Y-85775990D01*
X129369032Y-85613475D01*
X129575875Y-85406632D01*
X129692400Y-85232240D01*
X129808925Y-85406632D01*
X130015768Y-85613475D01*
X130258989Y-85775990D01*
X130529242Y-85887932D01*
X130816140Y-85945000D01*
X131108660Y-85945000D01*
X131395558Y-85887932D01*
X131665811Y-85775990D01*
X131909032Y-85613475D01*
X132115875Y-85406632D01*
X132232400Y-85232240D01*
X132348925Y-85406632D01*
X132555768Y-85613475D01*
X132798989Y-85775990D01*
X133069242Y-85887932D01*
X133356140Y-85945000D01*
X133648660Y-85945000D01*
X133935558Y-85887932D01*
X134205811Y-85775990D01*
X134449032Y-85613475D01*
X134655875Y-85406632D01*
X134772400Y-85232240D01*
X134888925Y-85406632D01*
X135095768Y-85613475D01*
X135338989Y-85775990D01*
X135609242Y-85887932D01*
X135896140Y-85945000D01*
X136188660Y-85945000D01*
X136475558Y-85887932D01*
X136745811Y-85775990D01*
X136989032Y-85613475D01*
X137195875Y-85406632D01*
X137312400Y-85232240D01*
X137428925Y-85406632D01*
X137635768Y-85613475D01*
X137878989Y-85775990D01*
X138149242Y-85887932D01*
X138436140Y-85945000D01*
X138728660Y-85945000D01*
X139015558Y-85887932D01*
X139285811Y-85775990D01*
X139529032Y-85613475D01*
X139735875Y-85406632D01*
X139852400Y-85232240D01*
X139968925Y-85406632D01*
X140175768Y-85613475D01*
X140418989Y-85775990D01*
X140689242Y-85887932D01*
X140976140Y-85945000D01*
X141268660Y-85945000D01*
X141555558Y-85887932D01*
X141825811Y-85775990D01*
X142069032Y-85613475D01*
X142275875Y-85406632D01*
X142392400Y-85232240D01*
X142508925Y-85406632D01*
X142715768Y-85613475D01*
X142958989Y-85775990D01*
X143229242Y-85887932D01*
X143516140Y-85945000D01*
X143808660Y-85945000D01*
X144095558Y-85887932D01*
X144365811Y-85775990D01*
X144609032Y-85613475D01*
X144815875Y-85406632D01*
X144932400Y-85232240D01*
X145048925Y-85406632D01*
X145255768Y-85613475D01*
X145498989Y-85775990D01*
X145769242Y-85887932D01*
X146056140Y-85945000D01*
X146348660Y-85945000D01*
X146635558Y-85887932D01*
X146905811Y-85775990D01*
X147149032Y-85613475D01*
X147355875Y-85406632D01*
X147472400Y-85232240D01*
X147588925Y-85406632D01*
X147795768Y-85613475D01*
X148038989Y-85775990D01*
X148309242Y-85887932D01*
X148596140Y-85945000D01*
X148888660Y-85945000D01*
X149175558Y-85887932D01*
X149445811Y-85775990D01*
X149689032Y-85613475D01*
X149895875Y-85406632D01*
X150012400Y-85232240D01*
X150128925Y-85406632D01*
X150335768Y-85613475D01*
X150578989Y-85775990D01*
X150849242Y-85887932D01*
X151136140Y-85945000D01*
X151428660Y-85945000D01*
X151715558Y-85887932D01*
X151985811Y-85775990D01*
X152229032Y-85613475D01*
X152435875Y-85406632D01*
X152552400Y-85232240D01*
X152668925Y-85406632D01*
X152875768Y-85613475D01*
X153118989Y-85775990D01*
X153389242Y-85887932D01*
X153676140Y-85945000D01*
X153968660Y-85945000D01*
X154255558Y-85887932D01*
X154525811Y-85775990D01*
X154769032Y-85613475D01*
X154975875Y-85406632D01*
X155092400Y-85232240D01*
X155208925Y-85406632D01*
X155415768Y-85613475D01*
X155658989Y-85775990D01*
X155929242Y-85887932D01*
X156216140Y-85945000D01*
X156508660Y-85945000D01*
X156795558Y-85887932D01*
X157065811Y-85775990D01*
X157309032Y-85613475D01*
X157440887Y-85481620D01*
X157462898Y-85554180D01*
X157521863Y-85664494D01*
X157522880Y-85665734D01*
X156545653Y-86171196D01*
X156533443Y-86178403D01*
X156514197Y-86194197D01*
X156498403Y-86213443D01*
X156486667Y-86235399D01*
X156479440Y-86259224D01*
X156477000Y-86284000D01*
X156477000Y-87098800D01*
X134492522Y-87098800D01*
X134490966Y-87098647D01*
X134455539Y-87091600D01*
X134251661Y-87091600D01*
X134051702Y-87131374D01*
X133863344Y-87209395D01*
X133693826Y-87322663D01*
X133549663Y-87466826D01*
X133436395Y-87636344D01*
X133358374Y-87824702D01*
X133318600Y-88024661D01*
X133318600Y-88228539D01*
X133358374Y-88428498D01*
X133436395Y-88616856D01*
X133549663Y-88786374D01*
X133693826Y-88930537D01*
X133863344Y-89043805D01*
X134051702Y-89121826D01*
X134251661Y-89161600D01*
X134455539Y-89161600D01*
X134655498Y-89121826D01*
X134843856Y-89043805D01*
X135013374Y-88930537D01*
X135157537Y-88786374D01*
X135269506Y-88618800D01*
X156477000Y-88618800D01*
X156477000Y-96954000D01*
X149941711Y-96954000D01*
X149897774Y-96910063D01*
X149728256Y-96796795D01*
X149539898Y-96718774D01*
X149339939Y-96679000D01*
X149136061Y-96679000D01*
X148936102Y-96718774D01*
X148747744Y-96796795D01*
X148578226Y-96910063D01*
X148434063Y-97054226D01*
X148320795Y-97223744D01*
X148242774Y-97412102D01*
X148203000Y-97612061D01*
X148203000Y-97815939D01*
X148242774Y-98015898D01*
X148320795Y-98204256D01*
X148434063Y-98373774D01*
X148578226Y-98517937D01*
X148747744Y-98631205D01*
X148936102Y-98709226D01*
X149136061Y-98749000D01*
X149339939Y-98749000D01*
X149539898Y-98709226D01*
X149728256Y-98631205D01*
X149897774Y-98517937D01*
X149941711Y-98474000D01*
X156477000Y-98474000D01*
X156477000Y-107713598D01*
X155480000Y-106716599D01*
X155480000Y-106654461D01*
X155440226Y-106454502D01*
X155362205Y-106266144D01*
X155248937Y-106096626D01*
X155104774Y-105952463D01*
X154935256Y-105839195D01*
X154746898Y-105761174D01*
X154546939Y-105721400D01*
X154343061Y-105721400D01*
X154143102Y-105761174D01*
X153954744Y-105839195D01*
X153785226Y-105952463D01*
X153708406Y-106029283D01*
X153656986Y-105977863D01*
X153487468Y-105864595D01*
X153299110Y-105786574D01*
X153099151Y-105746800D01*
X152895273Y-105746800D01*
X152695314Y-105786574D01*
X152506956Y-105864595D01*
X152337438Y-105977863D01*
X152193275Y-106122026D01*
X152116634Y-106236727D01*
X152073937Y-106172826D01*
X151929774Y-106028663D01*
X151760256Y-105915395D01*
X151571898Y-105837374D01*
X151371939Y-105797600D01*
X151168061Y-105797600D01*
X150968102Y-105837374D01*
X150779744Y-105915395D01*
X150610226Y-106028663D01*
X150466063Y-106172826D01*
X150352795Y-106342344D01*
X150274774Y-106530702D01*
X150235000Y-106730661D01*
X150235000Y-106934539D01*
X150274774Y-107134498D01*
X150352795Y-107322856D01*
X150466063Y-107492374D01*
X150535401Y-107561712D01*
X150535400Y-113682421D01*
X150348768Y-113807125D01*
X150141925Y-114013968D01*
X150025400Y-114188360D01*
X149908875Y-114013968D01*
X149702032Y-113807125D01*
X149648795Y-113771553D01*
X149669174Y-113757937D01*
X149813337Y-113613774D01*
X149926605Y-113444256D01*
X150004626Y-113255898D01*
X150044400Y-113055939D01*
X150044400Y-112852061D01*
X150004626Y-112652102D01*
X149926605Y-112463744D01*
X149813337Y-112294226D01*
X149669174Y-112150063D01*
X149499656Y-112036795D01*
X149311298Y-111958774D01*
X149111339Y-111919000D01*
X148907461Y-111919000D01*
X148707502Y-111958774D01*
X148519144Y-112036795D01*
X148349626Y-112150063D01*
X148305689Y-112194000D01*
X143179323Y-112194000D01*
X143142000Y-112190324D01*
X143104677Y-112194000D01*
X143104667Y-112194000D01*
X142993014Y-112204997D01*
X142849753Y-112248454D01*
X142717723Y-112319026D01*
X142634083Y-112387668D01*
X142601999Y-112413999D01*
X142578201Y-112442997D01*
X141548671Y-113472528D01*
X140285400Y-113472528D01*
X140160918Y-113484788D01*
X140041220Y-113521098D01*
X139930906Y-113580063D01*
X139834215Y-113659415D01*
X139754863Y-113756106D01*
X139695898Y-113866420D01*
X139659588Y-113986118D01*
X139647328Y-114110600D01*
X139647328Y-115810600D01*
X139659588Y-115935082D01*
X139695898Y-116054780D01*
X139754863Y-116165094D01*
X139834215Y-116261785D01*
X139930906Y-116341137D01*
X140041220Y-116400102D01*
X140160918Y-116436412D01*
X140285400Y-116448672D01*
X141985400Y-116448672D01*
X142109882Y-116436412D01*
X142229580Y-116400102D01*
X142339894Y-116341137D01*
X142436585Y-116261785D01*
X142515937Y-116165094D01*
X142574902Y-116054780D01*
X142596913Y-115982220D01*
X142728768Y-116114075D01*
X142971989Y-116276590D01*
X143242242Y-116388532D01*
X143529140Y-116445600D01*
X143821660Y-116445600D01*
X144108558Y-116388532D01*
X144378811Y-116276590D01*
X144622032Y-116114075D01*
X144828875Y-115907232D01*
X144945400Y-115732840D01*
X145061925Y-115907232D01*
X145268768Y-116114075D01*
X145511989Y-116276590D01*
X145782242Y-116388532D01*
X146069140Y-116445600D01*
X146361660Y-116445600D01*
X146648558Y-116388532D01*
X146918811Y-116276590D01*
X147162032Y-116114075D01*
X147368875Y-115907232D01*
X147485400Y-115732840D01*
X147601925Y-115907232D01*
X147808768Y-116114075D01*
X148051989Y-116276590D01*
X148322242Y-116388532D01*
X148609140Y-116445600D01*
X148901660Y-116445600D01*
X149188558Y-116388532D01*
X149458811Y-116276590D01*
X149702032Y-116114075D01*
X149908875Y-115907232D01*
X150025400Y-115732840D01*
X150141925Y-115907232D01*
X150348768Y-116114075D01*
X150591989Y-116276590D01*
X150862242Y-116388532D01*
X151149140Y-116445600D01*
X151441660Y-116445600D01*
X151728558Y-116388532D01*
X151998811Y-116276590D01*
X152242032Y-116114075D01*
X152448875Y-115907232D01*
X152565400Y-115732840D01*
X152681925Y-115907232D01*
X152888768Y-116114075D01*
X153131989Y-116276590D01*
X153402242Y-116388532D01*
X153689140Y-116445600D01*
X153981660Y-116445600D01*
X154268558Y-116388532D01*
X154538811Y-116276590D01*
X154782032Y-116114075D01*
X154988875Y-115907232D01*
X155105400Y-115732840D01*
X155221925Y-115907232D01*
X155428768Y-116114075D01*
X155671989Y-116276590D01*
X155942242Y-116388532D01*
X156229140Y-116445600D01*
X156521660Y-116445600D01*
X156808558Y-116388532D01*
X157078811Y-116276590D01*
X157322032Y-116114075D01*
X157528875Y-115907232D01*
X157650595Y-115725066D01*
X157720222Y-115841955D01*
X157915131Y-116058188D01*
X158148480Y-116232241D01*
X158411301Y-116357425D01*
X158558510Y-116402076D01*
X158788400Y-116280755D01*
X158788400Y-115087600D01*
X158768400Y-115087600D01*
X158768400Y-114833600D01*
X158788400Y-114833600D01*
X158788400Y-114813600D01*
X159042400Y-114813600D01*
X159042400Y-114833600D01*
X159062400Y-114833600D01*
X159062400Y-115087600D01*
X159042400Y-115087600D01*
X159042400Y-116280755D01*
X159272290Y-116402076D01*
X159419499Y-116357425D01*
X159682320Y-116232241D01*
X159915669Y-116058188D01*
X160110578Y-115841955D01*
X160259557Y-115591852D01*
X160356881Y-115317491D01*
X160338608Y-115282677D01*
X168357907Y-119430590D01*
X168331675Y-119493919D01*
X168265000Y-119829117D01*
X168265000Y-120170883D01*
X168331675Y-120506081D01*
X168462463Y-120821831D01*
X168652337Y-121105998D01*
X168894002Y-121347663D01*
X169178169Y-121537537D01*
X169493919Y-121668325D01*
X169829117Y-121735000D01*
X170170883Y-121735000D01*
X170506081Y-121668325D01*
X170821831Y-121537537D01*
X171105998Y-121347663D01*
X171347663Y-121105998D01*
X171411710Y-121010144D01*
X175359411Y-123052058D01*
X174450591Y-124041063D01*
X172771804Y-125636869D01*
X170989114Y-127115700D01*
X169110656Y-128470808D01*
X167145000Y-129696011D01*
X165101115Y-130785718D01*
X162988328Y-131734956D01*
X160816278Y-132539395D01*
X158594875Y-133195364D01*
X156334256Y-133699871D01*
X154044736Y-134050613D01*
X151736760Y-134245989D01*
X149420860Y-134285109D01*
X147107602Y-134167794D01*
X144807542Y-133894579D01*
X142531173Y-133466711D01*
X140288883Y-132886142D01*
X138090903Y-132155521D01*
X135947261Y-131278181D01*
X133867739Y-130258127D01*
X131861824Y-129100012D01*
X129938670Y-127809120D01*
X128107051Y-126391341D01*
X126375324Y-124853145D01*
X124751392Y-123201549D01*
X123795647Y-122088239D01*
X135536358Y-122088239D01*
X135536358Y-122292117D01*
X135576132Y-122492076D01*
X135654153Y-122680434D01*
X135767421Y-122849952D01*
X135911584Y-122994115D01*
X136081102Y-123107383D01*
X136269460Y-123185404D01*
X136469419Y-123225178D01*
X136673297Y-123225178D01*
X136873256Y-123185404D01*
X137061614Y-123107383D01*
X137231132Y-122994115D01*
X137275069Y-122950178D01*
X139431669Y-122950178D01*
X139485028Y-123003537D01*
X139654546Y-123116805D01*
X139842904Y-123194826D01*
X140042863Y-123234600D01*
X140246741Y-123234600D01*
X140446700Y-123194826D01*
X140635058Y-123116805D01*
X140804576Y-123003537D01*
X140948739Y-122859374D01*
X141062007Y-122689856D01*
X141140028Y-122501498D01*
X141179802Y-122301539D01*
X141179802Y-122175804D01*
X142331201Y-123327203D01*
X142331200Y-125565877D01*
X142327524Y-125603200D01*
X142331200Y-125640522D01*
X142331200Y-125640532D01*
X142342197Y-125752185D01*
X142385654Y-125895446D01*
X142456226Y-126027476D01*
X142496071Y-126076026D01*
X142551199Y-126143201D01*
X142580203Y-126167004D01*
X143732790Y-127319592D01*
X143689000Y-127539740D01*
X143689000Y-127832260D01*
X143746068Y-128119158D01*
X143858010Y-128389411D01*
X144020525Y-128632632D01*
X144152380Y-128764487D01*
X144079820Y-128786498D01*
X143969506Y-128845463D01*
X143872815Y-128924815D01*
X143793463Y-129021506D01*
X143734498Y-129131820D01*
X143698188Y-129251518D01*
X143685928Y-129376000D01*
X143685928Y-131076000D01*
X143698188Y-131200482D01*
X143734498Y-131320180D01*
X143793463Y-131430494D01*
X143872815Y-131527185D01*
X143969506Y-131606537D01*
X144079820Y-131665502D01*
X144199518Y-131701812D01*
X144324000Y-131714072D01*
X146024000Y-131714072D01*
X146148482Y-131701812D01*
X146268180Y-131665502D01*
X146378494Y-131606537D01*
X146475185Y-131527185D01*
X146554537Y-131430494D01*
X146613502Y-131320180D01*
X146637966Y-131239534D01*
X146713731Y-131323588D01*
X146947080Y-131497641D01*
X147209901Y-131622825D01*
X147357110Y-131667476D01*
X147587000Y-131546155D01*
X147587000Y-130353000D01*
X147841000Y-130353000D01*
X147841000Y-131546155D01*
X148070890Y-131667476D01*
X148218099Y-131622825D01*
X148480920Y-131497641D01*
X148714269Y-131323588D01*
X148909178Y-131107355D01*
X148984000Y-130981745D01*
X149058822Y-131107355D01*
X149253731Y-131323588D01*
X149487080Y-131497641D01*
X149749901Y-131622825D01*
X149897110Y-131667476D01*
X150127000Y-131546155D01*
X150127000Y-130353000D01*
X147841000Y-130353000D01*
X147587000Y-130353000D01*
X147567000Y-130353000D01*
X147567000Y-130099000D01*
X147587000Y-130099000D01*
X147587000Y-130079000D01*
X147841000Y-130079000D01*
X147841000Y-130099000D01*
X150127000Y-130099000D01*
X150127000Y-130079000D01*
X150381000Y-130079000D01*
X150381000Y-130099000D01*
X150401000Y-130099000D01*
X150401000Y-130353000D01*
X150381000Y-130353000D01*
X150381000Y-131546155D01*
X150610890Y-131667476D01*
X150758099Y-131622825D01*
X151020920Y-131497641D01*
X151254269Y-131323588D01*
X151449178Y-131107355D01*
X151518805Y-130990466D01*
X151640525Y-131172632D01*
X151847368Y-131379475D01*
X152090589Y-131541990D01*
X152360842Y-131653932D01*
X152647740Y-131711000D01*
X152940260Y-131711000D01*
X153227158Y-131653932D01*
X153497411Y-131541990D01*
X153740632Y-131379475D01*
X153947475Y-131172632D01*
X154069195Y-130990466D01*
X154138822Y-131107355D01*
X154333731Y-131323588D01*
X154567080Y-131497641D01*
X154829901Y-131622825D01*
X154977110Y-131667476D01*
X155207000Y-131546155D01*
X155207000Y-130353000D01*
X155461000Y-130353000D01*
X155461000Y-131546155D01*
X155690890Y-131667476D01*
X155838099Y-131622825D01*
X156100920Y-131497641D01*
X156334269Y-131323588D01*
X156529178Y-131107355D01*
X156678157Y-130857252D01*
X156775481Y-130582891D01*
X156654814Y-130353000D01*
X155461000Y-130353000D01*
X155207000Y-130353000D01*
X155187000Y-130353000D01*
X155187000Y-130099000D01*
X155207000Y-130099000D01*
X155207000Y-130079000D01*
X155461000Y-130079000D01*
X155461000Y-130099000D01*
X156654814Y-130099000D01*
X156775481Y-129869109D01*
X156678157Y-129594748D01*
X156529178Y-129344645D01*
X156334269Y-129128412D01*
X156104594Y-128957100D01*
X156280632Y-128839475D01*
X156487475Y-128632632D01*
X156649990Y-128389411D01*
X156761932Y-128119158D01*
X156819000Y-127832260D01*
X156819000Y-127539740D01*
X156761932Y-127252842D01*
X156649990Y-126982589D01*
X156487475Y-126739368D01*
X156280632Y-126532525D01*
X156037411Y-126370010D01*
X155767158Y-126258068D01*
X155480260Y-126201000D01*
X155187740Y-126201000D01*
X154900842Y-126258068D01*
X154630589Y-126370010D01*
X154387368Y-126532525D01*
X154180525Y-126739368D01*
X154064000Y-126913760D01*
X153947475Y-126739368D01*
X153740632Y-126532525D01*
X153497411Y-126370010D01*
X153227158Y-126258068D01*
X152940260Y-126201000D01*
X152647740Y-126201000D01*
X152360842Y-126258068D01*
X152090589Y-126370010D01*
X151847368Y-126532525D01*
X151640525Y-126739368D01*
X151524000Y-126913760D01*
X151407475Y-126739368D01*
X151200632Y-126532525D01*
X150957411Y-126370010D01*
X150687158Y-126258068D01*
X150400260Y-126201000D01*
X150107740Y-126201000D01*
X149820842Y-126258068D01*
X149550589Y-126370010D01*
X149307368Y-126532525D01*
X149100525Y-126739368D01*
X148984000Y-126913760D01*
X148867475Y-126739368D01*
X148660632Y-126532525D01*
X148417411Y-126370010D01*
X148147158Y-126258068D01*
X147860260Y-126201000D01*
X147567740Y-126201000D01*
X147280842Y-126258068D01*
X147010589Y-126370010D01*
X146767368Y-126532525D01*
X146560525Y-126739368D01*
X146444000Y-126913760D01*
X146327475Y-126739368D01*
X146120632Y-126532525D01*
X145877411Y-126370010D01*
X145607158Y-126258068D01*
X145320260Y-126201000D01*
X145027740Y-126201000D01*
X144807592Y-126244790D01*
X143851200Y-125288399D01*
X143851200Y-123049733D01*
X143854877Y-123012400D01*
X143840203Y-122863414D01*
X143796746Y-122720153D01*
X143726174Y-122588124D01*
X143654999Y-122501397D01*
X143631201Y-122472399D01*
X143602203Y-122448601D01*
X138136200Y-116982599D01*
X138136200Y-113878401D01*
X144897602Y-107117000D01*
X144926599Y-107093203D01*
X144963166Y-107048646D01*
X145021572Y-106977479D01*
X145092144Y-106845449D01*
X145099661Y-106820667D01*
X145135601Y-106702188D01*
X145146598Y-106590535D01*
X145146598Y-106590525D01*
X145150274Y-106553202D01*
X145146598Y-106515879D01*
X145146598Y-104891306D01*
X145253005Y-104732056D01*
X145331026Y-104543698D01*
X145370800Y-104343739D01*
X145370800Y-104139861D01*
X145331026Y-103939902D01*
X145253005Y-103751544D01*
X145139737Y-103582026D01*
X144995574Y-103437863D01*
X144826056Y-103324595D01*
X144637698Y-103246574D01*
X144437739Y-103206800D01*
X144405600Y-103206800D01*
X144405600Y-103073061D01*
X144365826Y-102873102D01*
X144287805Y-102684744D01*
X144174537Y-102515226D01*
X144030374Y-102371063D01*
X143860856Y-102257795D01*
X143672498Y-102179774D01*
X143472539Y-102140000D01*
X143268661Y-102140000D01*
X143068702Y-102179774D01*
X142880344Y-102257795D01*
X142710826Y-102371063D01*
X142566663Y-102515226D01*
X142453395Y-102684744D01*
X142375374Y-102873102D01*
X142335600Y-103073061D01*
X142335600Y-103276939D01*
X142375374Y-103476898D01*
X142453395Y-103665256D01*
X142566663Y-103834774D01*
X142610601Y-103878712D01*
X142610600Y-105552597D01*
X142490832Y-105672366D01*
X142495000Y-105651411D01*
X142495000Y-105378589D01*
X142441775Y-105111011D01*
X142337371Y-104858957D01*
X142185799Y-104632114D01*
X141992886Y-104439201D01*
X141766043Y-104287629D01*
X141513989Y-104183225D01*
X141246411Y-104130000D01*
X140973589Y-104130000D01*
X140706011Y-104183225D01*
X140453957Y-104287629D01*
X140227114Y-104439201D01*
X140034201Y-104632114D01*
X139882629Y-104858957D01*
X139778225Y-105111011D01*
X139725000Y-105378589D01*
X139725000Y-105651411D01*
X139778225Y-105918989D01*
X139882629Y-106171043D01*
X140034201Y-106397886D01*
X140227114Y-106590799D01*
X140453957Y-106742371D01*
X140706011Y-106846775D01*
X140946943Y-106894700D01*
X140876774Y-107064102D01*
X140837000Y-107264061D01*
X140837000Y-107467939D01*
X140876774Y-107667898D01*
X140954795Y-107856256D01*
X141068063Y-108025774D01*
X141212226Y-108169937D01*
X141381744Y-108283205D01*
X141523200Y-108341798D01*
X136865198Y-112999801D01*
X136836200Y-113023599D01*
X136812402Y-113052597D01*
X136812401Y-113052598D01*
X136741226Y-113139324D01*
X136670654Y-113271354D01*
X136655110Y-113322598D01*
X136627198Y-113414614D01*
X136622235Y-113465003D01*
X136612524Y-113563600D01*
X136616201Y-113600932D01*
X136616200Y-117260077D01*
X136612524Y-117297400D01*
X136616200Y-117334722D01*
X136616200Y-117334732D01*
X136627197Y-117446385D01*
X136670654Y-117589646D01*
X136741226Y-117721676D01*
X136781071Y-117770226D01*
X136836199Y-117837401D01*
X136865203Y-117861204D01*
X140168598Y-121164600D01*
X140042863Y-121164600D01*
X139842904Y-121204374D01*
X139654546Y-121282395D01*
X139485028Y-121395663D01*
X139450513Y-121430178D01*
X137275069Y-121430178D01*
X137231132Y-121386241D01*
X137061614Y-121272973D01*
X136873256Y-121194952D01*
X136673297Y-121155178D01*
X136469419Y-121155178D01*
X136269460Y-121194952D01*
X136081102Y-121272973D01*
X135911584Y-121386241D01*
X135767421Y-121530404D01*
X135654153Y-121699922D01*
X135576132Y-121888280D01*
X135536358Y-122088239D01*
X123795647Y-122088239D01*
X123242663Y-121444090D01*
X122035644Y-119829117D01*
X128265000Y-119829117D01*
X128265000Y-120170883D01*
X128331675Y-120506081D01*
X128462463Y-120821831D01*
X128652337Y-121105998D01*
X128894002Y-121347663D01*
X129178169Y-121537537D01*
X129493919Y-121668325D01*
X129829117Y-121735000D01*
X130170883Y-121735000D01*
X130506081Y-121668325D01*
X130821831Y-121537537D01*
X131105998Y-121347663D01*
X131347663Y-121105998D01*
X131537537Y-120821831D01*
X131668325Y-120506081D01*
X131735000Y-120170883D01*
X131735000Y-119829117D01*
X131668325Y-119493919D01*
X131537537Y-119178169D01*
X131347663Y-118894002D01*
X131105998Y-118652337D01*
X130821831Y-118462463D01*
X130506081Y-118331675D01*
X130170883Y-118265000D01*
X129829117Y-118265000D01*
X129493919Y-118331675D01*
X129178169Y-118462463D01*
X128894002Y-118652337D01*
X128652337Y-118894002D01*
X128462463Y-119178169D01*
X128331675Y-119493919D01*
X128265000Y-119829117D01*
X122035644Y-119829117D01*
X121856022Y-119588787D01*
X120597795Y-117644105D01*
X119473724Y-115618916D01*
X118488937Y-113522462D01*
X117647928Y-111364308D01*
X117501642Y-110898061D01*
X121464994Y-110898061D01*
X121464994Y-111101939D01*
X121504768Y-111301898D01*
X121582789Y-111490256D01*
X121696057Y-111659774D01*
X121840220Y-111803937D01*
X122009738Y-111917205D01*
X122198096Y-111995226D01*
X122398055Y-112035000D01*
X122601933Y-112035000D01*
X122801892Y-111995226D01*
X122990250Y-111917205D01*
X123159768Y-111803937D01*
X123203705Y-111760000D01*
X127796289Y-111760000D01*
X127840226Y-111803937D01*
X128009744Y-111917205D01*
X128198102Y-111995226D01*
X128398061Y-112035000D01*
X128601939Y-112035000D01*
X128801898Y-111995226D01*
X128990256Y-111917205D01*
X129159774Y-111803937D01*
X129303937Y-111659774D01*
X129417205Y-111490256D01*
X129495226Y-111301898D01*
X129535000Y-111101939D01*
X129535000Y-110898061D01*
X129495226Y-110698102D01*
X129417205Y-110509744D01*
X129303937Y-110340226D01*
X129159774Y-110196063D01*
X128990256Y-110082795D01*
X128801898Y-110004774D01*
X128601939Y-109965000D01*
X128398061Y-109965000D01*
X128198102Y-110004774D01*
X128009744Y-110082795D01*
X127840226Y-110196063D01*
X127796289Y-110240000D01*
X123203705Y-110240000D01*
X123159768Y-110196063D01*
X122990250Y-110082795D01*
X122801892Y-110004774D01*
X122601933Y-109965000D01*
X122398055Y-109965000D01*
X122198096Y-110004774D01*
X122009738Y-110082795D01*
X121840220Y-110196063D01*
X121696057Y-110340226D01*
X121582789Y-110509744D01*
X121504768Y-110698102D01*
X121464994Y-110898061D01*
X117501642Y-110898061D01*
X116954533Y-109154302D01*
X116411918Y-106902526D01*
X116033024Y-104680632D01*
X116047004Y-104686493D01*
X116285500Y-104735000D01*
X116635500Y-104735000D01*
X116635500Y-103627000D01*
X116889500Y-103627000D01*
X116889500Y-104735000D01*
X117239500Y-104735000D01*
X117477996Y-104686493D01*
X117702446Y-104592390D01*
X117904225Y-104456307D01*
X118075578Y-104283474D01*
X118209921Y-104080533D01*
X118302091Y-103855282D01*
X118305962Y-103817609D01*
X118181231Y-103627000D01*
X116889500Y-103627000D01*
X116635500Y-103627000D01*
X116615500Y-103627000D01*
X116615500Y-103439133D01*
X118702972Y-103439133D01*
X118765465Y-103675450D01*
X119008178Y-103788850D01*
X119268349Y-103852719D01*
X119535982Y-103864604D01*
X119800791Y-103824048D01*
X120052600Y-103732609D01*
X120159535Y-103675450D01*
X120222028Y-103439133D01*
X119462500Y-102679605D01*
X118702972Y-103439133D01*
X116615500Y-103439133D01*
X116615500Y-103373000D01*
X116635500Y-103373000D01*
X116635500Y-102265000D01*
X116889500Y-102265000D01*
X116889500Y-103373000D01*
X118181231Y-103373000D01*
X118295003Y-103199138D01*
X118523367Y-103259528D01*
X119282895Y-102500000D01*
X119642105Y-102500000D01*
X120401633Y-103259528D01*
X120637950Y-103197035D01*
X120751350Y-102954322D01*
X120815219Y-102694151D01*
X120827104Y-102426518D01*
X120786548Y-102161709D01*
X120695109Y-101909900D01*
X120637950Y-101802965D01*
X120401633Y-101740472D01*
X119642105Y-102500000D01*
X119282895Y-102500000D01*
X118523367Y-101740472D01*
X118287050Y-101802965D01*
X118173650Y-102045678D01*
X118109781Y-102305849D01*
X118097896Y-102573482D01*
X118133115Y-102803442D01*
X118075578Y-102716526D01*
X117904225Y-102543693D01*
X117702446Y-102407610D01*
X117477996Y-102313507D01*
X117239500Y-102265000D01*
X116889500Y-102265000D01*
X116635500Y-102265000D01*
X116285500Y-102265000D01*
X116047004Y-102313507D01*
X115822554Y-102407610D01*
X115799254Y-102423324D01*
X115788229Y-102314909D01*
X115762748Y-101560867D01*
X118702972Y-101560867D01*
X119462500Y-102320395D01*
X120222028Y-101560867D01*
X120159535Y-101324550D01*
X119916822Y-101211150D01*
X119656651Y-101147281D01*
X119389018Y-101135396D01*
X119124209Y-101175952D01*
X118872400Y-101267391D01*
X118765465Y-101324550D01*
X118702972Y-101560867D01*
X115762748Y-101560867D01*
X115710000Y-100000000D01*
X115747778Y-98882061D01*
X123565000Y-98882061D01*
X123565000Y-99085939D01*
X123604774Y-99285898D01*
X123682795Y-99474256D01*
X123796063Y-99643774D01*
X123940226Y-99787937D01*
X124076759Y-99879165D01*
X124073000Y-99898061D01*
X124073000Y-100101939D01*
X124112774Y-100301898D01*
X124190795Y-100490256D01*
X124304063Y-100659774D01*
X124448226Y-100803937D01*
X124617744Y-100917205D01*
X124806102Y-100995226D01*
X125006061Y-101035000D01*
X125209939Y-101035000D01*
X125409898Y-100995226D01*
X125598256Y-100917205D01*
X125767774Y-100803937D01*
X125911937Y-100659774D01*
X126025205Y-100490256D01*
X126103226Y-100301898D01*
X126143000Y-100101939D01*
X126143000Y-100039801D01*
X131922802Y-94260000D01*
X133734958Y-94260000D01*
X133725000Y-94310061D01*
X133725000Y-94513939D01*
X133764774Y-94713898D01*
X133842795Y-94902256D01*
X133956063Y-95071774D01*
X134000000Y-95115711D01*
X134000001Y-108089305D01*
X133840226Y-108196063D01*
X133696063Y-108340226D01*
X133582795Y-108509744D01*
X133504774Y-108698102D01*
X133465000Y-108898061D01*
X133465000Y-109101939D01*
X133504774Y-109301898D01*
X133582795Y-109490256D01*
X133696063Y-109659774D01*
X133840226Y-109803937D01*
X134009744Y-109917205D01*
X134198102Y-109995226D01*
X134398061Y-110035000D01*
X134601939Y-110035000D01*
X134801898Y-109995226D01*
X134990256Y-109917205D01*
X135159774Y-109803937D01*
X135303937Y-109659774D01*
X135417205Y-109490256D01*
X135495226Y-109301898D01*
X135535000Y-109101939D01*
X135535000Y-108898061D01*
X135517015Y-108807642D01*
X135520000Y-108777333D01*
X135523677Y-108740000D01*
X135520000Y-108702667D01*
X135520000Y-100498589D01*
X139725000Y-100498589D01*
X139725000Y-100771411D01*
X139778225Y-101038989D01*
X139882629Y-101291043D01*
X140034201Y-101517886D01*
X140227114Y-101710799D01*
X140453957Y-101862371D01*
X140706011Y-101966775D01*
X140973589Y-102020000D01*
X141246411Y-102020000D01*
X141513989Y-101966775D01*
X141766043Y-101862371D01*
X141992886Y-101710799D01*
X142185799Y-101517886D01*
X142337371Y-101291043D01*
X142441775Y-101038989D01*
X142495000Y-100771411D01*
X142495000Y-100498589D01*
X142441775Y-100231011D01*
X142337371Y-99978957D01*
X142185799Y-99752114D01*
X141992886Y-99559201D01*
X141766043Y-99407629D01*
X141513989Y-99303225D01*
X141246411Y-99250000D01*
X140973589Y-99250000D01*
X140706011Y-99303225D01*
X140453957Y-99407629D01*
X140227114Y-99559201D01*
X140034201Y-99752114D01*
X139882629Y-99978957D01*
X139778225Y-100231011D01*
X139725000Y-100498589D01*
X135520000Y-100498589D01*
X135520000Y-95115711D01*
X135563937Y-95071774D01*
X135677205Y-94902256D01*
X135755226Y-94713898D01*
X135795000Y-94513939D01*
X135795000Y-94310061D01*
X135785042Y-94260000D01*
X143796273Y-94260000D01*
X143840210Y-94303937D01*
X144009728Y-94417205D01*
X144198086Y-94495226D01*
X144398045Y-94535000D01*
X144601923Y-94535000D01*
X144801882Y-94495226D01*
X144990240Y-94417205D01*
X145159758Y-94303937D01*
X145303921Y-94159774D01*
X145417189Y-93990256D01*
X145495210Y-93801898D01*
X145534984Y-93601939D01*
X145534984Y-93398061D01*
X145495210Y-93198102D01*
X145417189Y-93009744D01*
X145303921Y-92840226D01*
X145159758Y-92696063D01*
X145033110Y-92611440D01*
X145035000Y-92601939D01*
X145035000Y-92398061D01*
X144995226Y-92198102D01*
X144917205Y-92009744D01*
X144803937Y-91840226D01*
X144659774Y-91696063D01*
X144490256Y-91582795D01*
X144301898Y-91504774D01*
X144101939Y-91465000D01*
X143898061Y-91465000D01*
X143698102Y-91504774D01*
X143509744Y-91582795D01*
X143340226Y-91696063D01*
X143296289Y-91740000D01*
X131121325Y-91740000D01*
X131084000Y-91736324D01*
X131046675Y-91740000D01*
X131046667Y-91740000D01*
X130935014Y-91750997D01*
X130791753Y-91794454D01*
X130659724Y-91865026D01*
X130543999Y-91959999D01*
X130520201Y-91988997D01*
X124560199Y-97949000D01*
X124498061Y-97949000D01*
X124298102Y-97988774D01*
X124109744Y-98066795D01*
X123940226Y-98180063D01*
X123796063Y-98324226D01*
X123682795Y-98493744D01*
X123604774Y-98682102D01*
X123565000Y-98882061D01*
X115747778Y-98882061D01*
X115762747Y-98439133D01*
X118702972Y-98439133D01*
X118765465Y-98675450D01*
X119008178Y-98788850D01*
X119268349Y-98852719D01*
X119535982Y-98864604D01*
X119800791Y-98824048D01*
X120052600Y-98732609D01*
X120159535Y-98675450D01*
X120222028Y-98439133D01*
X119462500Y-97679605D01*
X118702972Y-98439133D01*
X115762747Y-98439133D01*
X115788229Y-97685091D01*
X115799254Y-97576676D01*
X115822554Y-97592390D01*
X116047004Y-97686493D01*
X116285500Y-97735000D01*
X116635500Y-97735000D01*
X116635500Y-96627000D01*
X116889500Y-96627000D01*
X116889500Y-97735000D01*
X117239500Y-97735000D01*
X117477996Y-97686493D01*
X117702446Y-97592390D01*
X117904225Y-97456307D01*
X118075578Y-97283474D01*
X118138671Y-97188164D01*
X118109781Y-97305849D01*
X118097896Y-97573482D01*
X118138452Y-97838291D01*
X118229891Y-98090100D01*
X118287050Y-98197035D01*
X118523367Y-98259528D01*
X119282895Y-97500000D01*
X119642105Y-97500000D01*
X120401633Y-98259528D01*
X120637950Y-98197035D01*
X120751350Y-97954322D01*
X120815219Y-97694151D01*
X120827104Y-97426518D01*
X120786548Y-97161709D01*
X120695109Y-96909900D01*
X120637950Y-96802965D01*
X120401633Y-96740472D01*
X119642105Y-97500000D01*
X119282895Y-97500000D01*
X118523367Y-96740472D01*
X118295003Y-96800862D01*
X118181231Y-96627000D01*
X116889500Y-96627000D01*
X116635500Y-96627000D01*
X116615500Y-96627000D01*
X116615500Y-96560867D01*
X118702972Y-96560867D01*
X119462500Y-97320395D01*
X120222028Y-96560867D01*
X120159535Y-96324550D01*
X119916822Y-96211150D01*
X119656651Y-96147281D01*
X119389018Y-96135396D01*
X119124209Y-96175952D01*
X118872400Y-96267391D01*
X118765465Y-96324550D01*
X118702972Y-96560867D01*
X116615500Y-96560867D01*
X116615500Y-96373000D01*
X116635500Y-96373000D01*
X116635500Y-95265000D01*
X116889500Y-95265000D01*
X116889500Y-96373000D01*
X118181231Y-96373000D01*
X118305962Y-96182391D01*
X118302091Y-96144718D01*
X118209921Y-95919467D01*
X118075578Y-95716526D01*
X117904225Y-95543693D01*
X117702446Y-95407610D01*
X117477996Y-95313507D01*
X117239500Y-95265000D01*
X116889500Y-95265000D01*
X116635500Y-95265000D01*
X116285500Y-95265000D01*
X116047004Y-95313507D01*
X116033024Y-95319368D01*
X116411918Y-93097474D01*
X116954533Y-90845698D01*
X117647928Y-88635692D01*
X118488937Y-86477538D01*
X119473724Y-84381084D01*
X120597795Y-82355895D01*
X121856022Y-80411213D01*
X122291076Y-79829117D01*
X128265000Y-79829117D01*
X128265000Y-80170883D01*
X128331675Y-80506081D01*
X128462463Y-80821831D01*
X128652337Y-81105998D01*
X128894002Y-81347663D01*
X129178169Y-81537537D01*
X129493919Y-81668325D01*
X129829117Y-81735000D01*
X130170883Y-81735000D01*
X130506081Y-81668325D01*
X130821831Y-81537537D01*
X131105998Y-81347663D01*
X131347663Y-81105998D01*
X131537537Y-80821831D01*
X131668325Y-80506081D01*
X131735000Y-80170883D01*
X131735000Y-79829117D01*
X131668325Y-79493919D01*
X131537537Y-79178169D01*
X131347663Y-78894002D01*
X131105998Y-78652337D01*
X130821831Y-78462463D01*
X130506081Y-78331675D01*
X130170883Y-78265000D01*
X129829117Y-78265000D01*
X129493919Y-78331675D01*
X129178169Y-78462463D01*
X128894002Y-78652337D01*
X128652337Y-78894002D01*
X128462463Y-79178169D01*
X128331675Y-79493919D01*
X128265000Y-79829117D01*
X122291076Y-79829117D01*
X123242663Y-78555910D01*
X124751392Y-76798451D01*
X126375324Y-75146855D01*
X128107051Y-73608659D01*
X128297627Y-73461142D01*
X147197115Y-73461142D01*
X147266304Y-73744145D01*
X147389375Y-74008212D01*
X147561598Y-74243195D01*
X147776354Y-74440064D01*
X148025391Y-74591254D01*
X148299139Y-74690954D01*
X148311510Y-74692876D01*
X148541400Y-74571555D01*
X148541400Y-73228400D01*
X147341168Y-73228400D01*
X147197115Y-73461142D01*
X128297627Y-73461142D01*
X129227123Y-72741658D01*
X147197115Y-72741658D01*
X147341168Y-72974400D01*
X148541400Y-72974400D01*
X148541400Y-71631245D01*
X148795400Y-71631245D01*
X148795400Y-72974400D01*
X148815400Y-72974400D01*
X148815400Y-73228400D01*
X148795400Y-73228400D01*
X148795400Y-74571555D01*
X149025290Y-74692876D01*
X149037661Y-74690954D01*
X149311409Y-74591254D01*
X149560446Y-74440064D01*
X149775202Y-74243195D01*
X149775486Y-74242807D01*
X149829995Y-74344786D01*
X149940438Y-74479362D01*
X150075014Y-74589805D01*
X150228550Y-74671872D01*
X150395146Y-74722408D01*
X150459201Y-74728717D01*
X150459200Y-76258489D01*
X150415263Y-76302426D01*
X150301995Y-76471944D01*
X150223974Y-76660302D01*
X150184200Y-76860261D01*
X150184200Y-77064139D01*
X150223974Y-77264098D01*
X150301995Y-77452456D01*
X150415263Y-77621974D01*
X150559426Y-77766137D01*
X150728944Y-77879405D01*
X150917302Y-77957426D01*
X151117261Y-77997200D01*
X151321139Y-77997200D01*
X151521098Y-77957426D01*
X151709456Y-77879405D01*
X151878974Y-77766137D01*
X152023137Y-77621974D01*
X152136405Y-77452456D01*
X152214426Y-77264098D01*
X152254200Y-77064139D01*
X152254200Y-76860261D01*
X152214426Y-76660302D01*
X152136405Y-76471944D01*
X152023137Y-76302426D01*
X151979200Y-76258489D01*
X151979200Y-74711019D01*
X152108250Y-74671872D01*
X152261786Y-74589805D01*
X152396362Y-74479362D01*
X152506805Y-74344786D01*
X152588872Y-74191250D01*
X152639408Y-74024654D01*
X152656472Y-73851400D01*
X152656472Y-72351400D01*
X152639408Y-72178146D01*
X152588872Y-72011550D01*
X152506805Y-71858014D01*
X152396362Y-71723438D01*
X152261786Y-71612995D01*
X152108250Y-71530928D01*
X151941654Y-71480392D01*
X151768400Y-71463328D01*
X150568400Y-71463328D01*
X150395146Y-71480392D01*
X150228550Y-71530928D01*
X150075014Y-71612995D01*
X149940438Y-71723438D01*
X149829995Y-71858014D01*
X149775486Y-71959993D01*
X149775202Y-71959605D01*
X149560446Y-71762736D01*
X149311409Y-71611546D01*
X149037661Y-71511846D01*
X149025290Y-71509924D01*
X148795400Y-71631245D01*
X148541400Y-71631245D01*
X148311510Y-71509924D01*
X148299139Y-71511846D01*
X148025391Y-71611546D01*
X147776354Y-71762736D01*
X147561598Y-71959605D01*
X147389375Y-72194588D01*
X147266304Y-72458655D01*
X147197115Y-72741658D01*
X129227123Y-72741658D01*
X129938670Y-72190880D01*
X131861824Y-70899988D01*
X133867739Y-69741873D01*
X135947261Y-68721819D01*
X138090903Y-67844479D01*
X140288883Y-67113858D01*
X142531173Y-66533289D01*
X144807542Y-66105421D01*
X147107602Y-65832206D01*
X149420860Y-65714891D01*
X151736760Y-65754011D01*
G37*
X151736760Y-65754011D02*
X154044736Y-65949387D01*
X156334256Y-66300129D01*
X158594875Y-66804636D01*
X160816278Y-67460605D01*
X162988328Y-68265044D01*
X165101115Y-69214282D01*
X167145000Y-70303989D01*
X169110656Y-71529192D01*
X170989114Y-72884300D01*
X172771804Y-74363131D01*
X174450591Y-75958937D01*
X175042993Y-76603606D01*
X171095576Y-78645374D01*
X170821831Y-78462463D01*
X170506081Y-78331675D01*
X170170883Y-78265000D01*
X169829117Y-78265000D01*
X169493919Y-78331675D01*
X169178169Y-78462463D01*
X168894002Y-78652337D01*
X168652337Y-78894002D01*
X168462463Y-79178169D01*
X168331675Y-79493919D01*
X168265000Y-79829117D01*
X168265000Y-80109465D01*
X160390472Y-84182497D01*
X160390472Y-83610000D01*
X160378212Y-83485518D01*
X160341902Y-83365820D01*
X160282937Y-83255506D01*
X160203585Y-83158815D01*
X160106894Y-83079463D01*
X159996580Y-83020498D01*
X159876882Y-82984188D01*
X159752400Y-82971928D01*
X158052400Y-82971928D01*
X157927918Y-82984188D01*
X157808220Y-83020498D01*
X157697906Y-83079463D01*
X157601215Y-83158815D01*
X157521863Y-83255506D01*
X157462898Y-83365820D01*
X157440887Y-83438380D01*
X157309032Y-83306525D01*
X157065811Y-83144010D01*
X156795558Y-83032068D01*
X156508660Y-82975000D01*
X156216140Y-82975000D01*
X155929242Y-83032068D01*
X155658989Y-83144010D01*
X155415768Y-83306525D01*
X155208925Y-83513368D01*
X155092400Y-83687760D01*
X154975875Y-83513368D01*
X154769032Y-83306525D01*
X154525811Y-83144010D01*
X154255558Y-83032068D01*
X153968660Y-82975000D01*
X153676140Y-82975000D01*
X153389242Y-83032068D01*
X153118989Y-83144010D01*
X152875768Y-83306525D01*
X152668925Y-83513368D01*
X152552400Y-83687760D01*
X152435875Y-83513368D01*
X152229032Y-83306525D01*
X151985811Y-83144010D01*
X151715558Y-83032068D01*
X151428660Y-82975000D01*
X151136140Y-82975000D01*
X150849242Y-83032068D01*
X150578989Y-83144010D01*
X150335768Y-83306525D01*
X150128925Y-83513368D01*
X150012400Y-83687760D01*
X149895875Y-83513368D01*
X149689032Y-83306525D01*
X149445811Y-83144010D01*
X149175558Y-83032068D01*
X148888660Y-82975000D01*
X148596140Y-82975000D01*
X148309242Y-83032068D01*
X148038989Y-83144010D01*
X147795768Y-83306525D01*
X147588925Y-83513368D01*
X147472400Y-83687760D01*
X147355875Y-83513368D01*
X147149032Y-83306525D01*
X146905811Y-83144010D01*
X146635558Y-83032068D01*
X146348660Y-82975000D01*
X146056140Y-82975000D01*
X145769242Y-83032068D01*
X145498989Y-83144010D01*
X145255768Y-83306525D01*
X145048925Y-83513368D01*
X144932400Y-83687760D01*
X144815875Y-83513368D01*
X144609032Y-83306525D01*
X144365811Y-83144010D01*
X144095558Y-83032068D01*
X143808660Y-82975000D01*
X143516140Y-82975000D01*
X143229242Y-83032068D01*
X142958989Y-83144010D01*
X142715768Y-83306525D01*
X142508925Y-83513368D01*
X142392400Y-83687760D01*
X142275875Y-83513368D01*
X142069032Y-83306525D01*
X141825811Y-83144010D01*
X141555558Y-83032068D01*
X141268660Y-82975000D01*
X140976140Y-82975000D01*
X140689242Y-83032068D01*
X140418989Y-83144010D01*
X140175768Y-83306525D01*
X139968925Y-83513368D01*
X139852400Y-83687760D01*
X139735875Y-83513368D01*
X139529032Y-83306525D01*
X139285811Y-83144010D01*
X139015558Y-83032068D01*
X138728660Y-82975000D01*
X138436140Y-82975000D01*
X138149242Y-83032068D01*
X137878989Y-83144010D01*
X137635768Y-83306525D01*
X137428925Y-83513368D01*
X137312400Y-83687760D01*
X137195875Y-83513368D01*
X136989032Y-83306525D01*
X136745811Y-83144010D01*
X136475558Y-83032068D01*
X136188660Y-82975000D01*
X135896140Y-82975000D01*
X135609242Y-83032068D01*
X135338989Y-83144010D01*
X135095768Y-83306525D01*
X134888925Y-83513368D01*
X134772400Y-83687760D01*
X134655875Y-83513368D01*
X134449032Y-83306525D01*
X134205811Y-83144010D01*
X133935558Y-83032068D01*
X133648660Y-82975000D01*
X133356140Y-82975000D01*
X133069242Y-83032068D01*
X132798989Y-83144010D01*
X132555768Y-83306525D01*
X132348925Y-83513368D01*
X132232400Y-83687760D01*
X132115875Y-83513368D01*
X131909032Y-83306525D01*
X131665811Y-83144010D01*
X131395558Y-83032068D01*
X131108660Y-82975000D01*
X130816140Y-82975000D01*
X130529242Y-83032068D01*
X130258989Y-83144010D01*
X130015768Y-83306525D01*
X129808925Y-83513368D01*
X129692400Y-83687760D01*
X129575875Y-83513368D01*
X129369032Y-83306525D01*
X129125811Y-83144010D01*
X128855558Y-83032068D01*
X128568660Y-82975000D01*
X128276140Y-82975000D01*
X127989242Y-83032068D01*
X127718989Y-83144010D01*
X127475768Y-83306525D01*
X127268925Y-83513368D01*
X127106410Y-83756589D01*
X126994468Y-84026842D01*
X126937400Y-84313740D01*
X126937400Y-84606260D01*
X126994468Y-84893158D01*
X127106410Y-85163411D01*
X127268925Y-85406632D01*
X127475768Y-85613475D01*
X127718989Y-85775990D01*
X127989242Y-85887932D01*
X128276140Y-85945000D01*
X128568660Y-85945000D01*
X128855558Y-85887932D01*
X129125811Y-85775990D01*
X129369032Y-85613475D01*
X129575875Y-85406632D01*
X129692400Y-85232240D01*
X129808925Y-85406632D01*
X130015768Y-85613475D01*
X130258989Y-85775990D01*
X130529242Y-85887932D01*
X130816140Y-85945000D01*
X131108660Y-85945000D01*
X131395558Y-85887932D01*
X131665811Y-85775990D01*
X131909032Y-85613475D01*
X132115875Y-85406632D01*
X132232400Y-85232240D01*
X132348925Y-85406632D01*
X132555768Y-85613475D01*
X132798989Y-85775990D01*
X133069242Y-85887932D01*
X133356140Y-85945000D01*
X133648660Y-85945000D01*
X133935558Y-85887932D01*
X134205811Y-85775990D01*
X134449032Y-85613475D01*
X134655875Y-85406632D01*
X134772400Y-85232240D01*
X134888925Y-85406632D01*
X135095768Y-85613475D01*
X135338989Y-85775990D01*
X135609242Y-85887932D01*
X135896140Y-85945000D01*
X136188660Y-85945000D01*
X136475558Y-85887932D01*
X136745811Y-85775990D01*
X136989032Y-85613475D01*
X137195875Y-85406632D01*
X137312400Y-85232240D01*
X137428925Y-85406632D01*
X137635768Y-85613475D01*
X137878989Y-85775990D01*
X138149242Y-85887932D01*
X138436140Y-85945000D01*
X138728660Y-85945000D01*
X139015558Y-85887932D01*
X139285811Y-85775990D01*
X139529032Y-85613475D01*
X139735875Y-85406632D01*
X139852400Y-85232240D01*
X139968925Y-85406632D01*
X140175768Y-85613475D01*
X140418989Y-85775990D01*
X140689242Y-85887932D01*
X140976140Y-85945000D01*
X141268660Y-85945000D01*
X141555558Y-85887932D01*
X141825811Y-85775990D01*
X142069032Y-85613475D01*
X142275875Y-85406632D01*
X142392400Y-85232240D01*
X142508925Y-85406632D01*
X142715768Y-85613475D01*
X142958989Y-85775990D01*
X143229242Y-85887932D01*
X143516140Y-85945000D01*
X143808660Y-85945000D01*
X144095558Y-85887932D01*
X144365811Y-85775990D01*
X144609032Y-85613475D01*
X144815875Y-85406632D01*
X144932400Y-85232240D01*
X145048925Y-85406632D01*
X145255768Y-85613475D01*
X145498989Y-85775990D01*
X145769242Y-85887932D01*
X146056140Y-85945000D01*
X146348660Y-85945000D01*
X146635558Y-85887932D01*
X146905811Y-85775990D01*
X147149032Y-85613475D01*
X147355875Y-85406632D01*
X147472400Y-85232240D01*
X147588925Y-85406632D01*
X147795768Y-85613475D01*
X148038989Y-85775990D01*
X148309242Y-85887932D01*
X148596140Y-85945000D01*
X148888660Y-85945000D01*
X149175558Y-85887932D01*
X149445811Y-85775990D01*
X149689032Y-85613475D01*
X149895875Y-85406632D01*
X150012400Y-85232240D01*
X150128925Y-85406632D01*
X150335768Y-85613475D01*
X150578989Y-85775990D01*
X150849242Y-85887932D01*
X151136140Y-85945000D01*
X151428660Y-85945000D01*
X151715558Y-85887932D01*
X151985811Y-85775990D01*
X152229032Y-85613475D01*
X152435875Y-85406632D01*
X152552400Y-85232240D01*
X152668925Y-85406632D01*
X152875768Y-85613475D01*
X153118989Y-85775990D01*
X153389242Y-85887932D01*
X153676140Y-85945000D01*
X153968660Y-85945000D01*
X154255558Y-85887932D01*
X154525811Y-85775990D01*
X154769032Y-85613475D01*
X154975875Y-85406632D01*
X155092400Y-85232240D01*
X155208925Y-85406632D01*
X155415768Y-85613475D01*
X155658989Y-85775990D01*
X155929242Y-85887932D01*
X156216140Y-85945000D01*
X156508660Y-85945000D01*
X156795558Y-85887932D01*
X157065811Y-85775990D01*
X157309032Y-85613475D01*
X157440887Y-85481620D01*
X157462898Y-85554180D01*
X157521863Y-85664494D01*
X157522880Y-85665734D01*
X156545653Y-86171196D01*
X156533443Y-86178403D01*
X156514197Y-86194197D01*
X156498403Y-86213443D01*
X156486667Y-86235399D01*
X156479440Y-86259224D01*
X156477000Y-86284000D01*
X156477000Y-87098800D01*
X134492522Y-87098800D01*
X134490966Y-87098647D01*
X134455539Y-87091600D01*
X134251661Y-87091600D01*
X134051702Y-87131374D01*
X133863344Y-87209395D01*
X133693826Y-87322663D01*
X133549663Y-87466826D01*
X133436395Y-87636344D01*
X133358374Y-87824702D01*
X133318600Y-88024661D01*
X133318600Y-88228539D01*
X133358374Y-88428498D01*
X133436395Y-88616856D01*
X133549663Y-88786374D01*
X133693826Y-88930537D01*
X133863344Y-89043805D01*
X134051702Y-89121826D01*
X134251661Y-89161600D01*
X134455539Y-89161600D01*
X134655498Y-89121826D01*
X134843856Y-89043805D01*
X135013374Y-88930537D01*
X135157537Y-88786374D01*
X135269506Y-88618800D01*
X156477000Y-88618800D01*
X156477000Y-96954000D01*
X149941711Y-96954000D01*
X149897774Y-96910063D01*
X149728256Y-96796795D01*
X149539898Y-96718774D01*
X149339939Y-96679000D01*
X149136061Y-96679000D01*
X148936102Y-96718774D01*
X148747744Y-96796795D01*
X148578226Y-96910063D01*
X148434063Y-97054226D01*
X148320795Y-97223744D01*
X148242774Y-97412102D01*
X148203000Y-97612061D01*
X148203000Y-97815939D01*
X148242774Y-98015898D01*
X148320795Y-98204256D01*
X148434063Y-98373774D01*
X148578226Y-98517937D01*
X148747744Y-98631205D01*
X148936102Y-98709226D01*
X149136061Y-98749000D01*
X149339939Y-98749000D01*
X149539898Y-98709226D01*
X149728256Y-98631205D01*
X149897774Y-98517937D01*
X149941711Y-98474000D01*
X156477000Y-98474000D01*
X156477000Y-107713598D01*
X155480000Y-106716599D01*
X155480000Y-106654461D01*
X155440226Y-106454502D01*
X155362205Y-106266144D01*
X155248937Y-106096626D01*
X155104774Y-105952463D01*
X154935256Y-105839195D01*
X154746898Y-105761174D01*
X154546939Y-105721400D01*
X154343061Y-105721400D01*
X154143102Y-105761174D01*
X153954744Y-105839195D01*
X153785226Y-105952463D01*
X153708406Y-106029283D01*
X153656986Y-105977863D01*
X153487468Y-105864595D01*
X153299110Y-105786574D01*
X153099151Y-105746800D01*
X152895273Y-105746800D01*
X152695314Y-105786574D01*
X152506956Y-105864595D01*
X152337438Y-105977863D01*
X152193275Y-106122026D01*
X152116634Y-106236727D01*
X152073937Y-106172826D01*
X151929774Y-106028663D01*
X151760256Y-105915395D01*
X151571898Y-105837374D01*
X151371939Y-105797600D01*
X151168061Y-105797600D01*
X150968102Y-105837374D01*
X150779744Y-105915395D01*
X150610226Y-106028663D01*
X150466063Y-106172826D01*
X150352795Y-106342344D01*
X150274774Y-106530702D01*
X150235000Y-106730661D01*
X150235000Y-106934539D01*
X150274774Y-107134498D01*
X150352795Y-107322856D01*
X150466063Y-107492374D01*
X150535401Y-107561712D01*
X150535400Y-113682421D01*
X150348768Y-113807125D01*
X150141925Y-114013968D01*
X150025400Y-114188360D01*
X149908875Y-114013968D01*
X149702032Y-113807125D01*
X149648795Y-113771553D01*
X149669174Y-113757937D01*
X149813337Y-113613774D01*
X149926605Y-113444256D01*
X150004626Y-113255898D01*
X150044400Y-113055939D01*
X150044400Y-112852061D01*
X150004626Y-112652102D01*
X149926605Y-112463744D01*
X149813337Y-112294226D01*
X149669174Y-112150063D01*
X149499656Y-112036795D01*
X149311298Y-111958774D01*
X149111339Y-111919000D01*
X148907461Y-111919000D01*
X148707502Y-111958774D01*
X148519144Y-112036795D01*
X148349626Y-112150063D01*
X148305689Y-112194000D01*
X143179323Y-112194000D01*
X143142000Y-112190324D01*
X143104677Y-112194000D01*
X143104667Y-112194000D01*
X142993014Y-112204997D01*
X142849753Y-112248454D01*
X142717723Y-112319026D01*
X142634083Y-112387668D01*
X142601999Y-112413999D01*
X142578201Y-112442997D01*
X141548671Y-113472528D01*
X140285400Y-113472528D01*
X140160918Y-113484788D01*
X140041220Y-113521098D01*
X139930906Y-113580063D01*
X139834215Y-113659415D01*
X139754863Y-113756106D01*
X139695898Y-113866420D01*
X139659588Y-113986118D01*
X139647328Y-114110600D01*
X139647328Y-115810600D01*
X139659588Y-115935082D01*
X139695898Y-116054780D01*
X139754863Y-116165094D01*
X139834215Y-116261785D01*
X139930906Y-116341137D01*
X140041220Y-116400102D01*
X140160918Y-116436412D01*
X140285400Y-116448672D01*
X141985400Y-116448672D01*
X142109882Y-116436412D01*
X142229580Y-116400102D01*
X142339894Y-116341137D01*
X142436585Y-116261785D01*
X142515937Y-116165094D01*
X142574902Y-116054780D01*
X142596913Y-115982220D01*
X142728768Y-116114075D01*
X142971989Y-116276590D01*
X143242242Y-116388532D01*
X143529140Y-116445600D01*
X143821660Y-116445600D01*
X144108558Y-116388532D01*
X144378811Y-116276590D01*
X144622032Y-116114075D01*
X144828875Y-115907232D01*
X144945400Y-115732840D01*
X145061925Y-115907232D01*
X145268768Y-116114075D01*
X145511989Y-116276590D01*
X145782242Y-116388532D01*
X146069140Y-116445600D01*
X146361660Y-116445600D01*
X146648558Y-116388532D01*
X146918811Y-116276590D01*
X147162032Y-116114075D01*
X147368875Y-115907232D01*
X147485400Y-115732840D01*
X147601925Y-115907232D01*
X147808768Y-116114075D01*
X148051989Y-116276590D01*
X148322242Y-116388532D01*
X148609140Y-116445600D01*
X148901660Y-116445600D01*
X149188558Y-116388532D01*
X149458811Y-116276590D01*
X149702032Y-116114075D01*
X149908875Y-115907232D01*
X150025400Y-115732840D01*
X150141925Y-115907232D01*
X150348768Y-116114075D01*
X150591989Y-116276590D01*
X150862242Y-116388532D01*
X151149140Y-116445600D01*
X151441660Y-116445600D01*
X151728558Y-116388532D01*
X151998811Y-116276590D01*
X152242032Y-116114075D01*
X152448875Y-115907232D01*
X152565400Y-115732840D01*
X152681925Y-115907232D01*
X152888768Y-116114075D01*
X153131989Y-116276590D01*
X153402242Y-116388532D01*
X153689140Y-116445600D01*
X153981660Y-116445600D01*
X154268558Y-116388532D01*
X154538811Y-116276590D01*
X154782032Y-116114075D01*
X154988875Y-115907232D01*
X155105400Y-115732840D01*
X155221925Y-115907232D01*
X155428768Y-116114075D01*
X155671989Y-116276590D01*
X155942242Y-116388532D01*
X156229140Y-116445600D01*
X156521660Y-116445600D01*
X156808558Y-116388532D01*
X157078811Y-116276590D01*
X157322032Y-116114075D01*
X157528875Y-115907232D01*
X157650595Y-115725066D01*
X157720222Y-115841955D01*
X157915131Y-116058188D01*
X158148480Y-116232241D01*
X158411301Y-116357425D01*
X158558510Y-116402076D01*
X158788400Y-116280755D01*
X158788400Y-115087600D01*
X158768400Y-115087600D01*
X158768400Y-114833600D01*
X158788400Y-114833600D01*
X158788400Y-114813600D01*
X159042400Y-114813600D01*
X159042400Y-114833600D01*
X159062400Y-114833600D01*
X159062400Y-115087600D01*
X159042400Y-115087600D01*
X159042400Y-116280755D01*
X159272290Y-116402076D01*
X159419499Y-116357425D01*
X159682320Y-116232241D01*
X159915669Y-116058188D01*
X160110578Y-115841955D01*
X160259557Y-115591852D01*
X160356881Y-115317491D01*
X160338608Y-115282677D01*
X168357907Y-119430590D01*
X168331675Y-119493919D01*
X168265000Y-119829117D01*
X168265000Y-120170883D01*
X168331675Y-120506081D01*
X168462463Y-120821831D01*
X168652337Y-121105998D01*
X168894002Y-121347663D01*
X169178169Y-121537537D01*
X169493919Y-121668325D01*
X169829117Y-121735000D01*
X170170883Y-121735000D01*
X170506081Y-121668325D01*
X170821831Y-121537537D01*
X171105998Y-121347663D01*
X171347663Y-121105998D01*
X171411710Y-121010144D01*
X175359411Y-123052058D01*
X174450591Y-124041063D01*
X172771804Y-125636869D01*
X170989114Y-127115700D01*
X169110656Y-128470808D01*
X167145000Y-129696011D01*
X165101115Y-130785718D01*
X162988328Y-131734956D01*
X160816278Y-132539395D01*
X158594875Y-133195364D01*
X156334256Y-133699871D01*
X154044736Y-134050613D01*
X151736760Y-134245989D01*
X149420860Y-134285109D01*
X147107602Y-134167794D01*
X144807542Y-133894579D01*
X142531173Y-133466711D01*
X140288883Y-132886142D01*
X138090903Y-132155521D01*
X135947261Y-131278181D01*
X133867739Y-130258127D01*
X131861824Y-129100012D01*
X129938670Y-127809120D01*
X128107051Y-126391341D01*
X126375324Y-124853145D01*
X124751392Y-123201549D01*
X123795647Y-122088239D01*
X135536358Y-122088239D01*
X135536358Y-122292117D01*
X135576132Y-122492076D01*
X135654153Y-122680434D01*
X135767421Y-122849952D01*
X135911584Y-122994115D01*
X136081102Y-123107383D01*
X136269460Y-123185404D01*
X136469419Y-123225178D01*
X136673297Y-123225178D01*
X136873256Y-123185404D01*
X137061614Y-123107383D01*
X137231132Y-122994115D01*
X137275069Y-122950178D01*
X139431669Y-122950178D01*
X139485028Y-123003537D01*
X139654546Y-123116805D01*
X139842904Y-123194826D01*
X140042863Y-123234600D01*
X140246741Y-123234600D01*
X140446700Y-123194826D01*
X140635058Y-123116805D01*
X140804576Y-123003537D01*
X140948739Y-122859374D01*
X141062007Y-122689856D01*
X141140028Y-122501498D01*
X141179802Y-122301539D01*
X141179802Y-122175804D01*
X142331201Y-123327203D01*
X142331200Y-125565877D01*
X142327524Y-125603200D01*
X142331200Y-125640522D01*
X142331200Y-125640532D01*
X142342197Y-125752185D01*
X142385654Y-125895446D01*
X142456226Y-126027476D01*
X142496071Y-126076026D01*
X142551199Y-126143201D01*
X142580203Y-126167004D01*
X143732790Y-127319592D01*
X143689000Y-127539740D01*
X143689000Y-127832260D01*
X143746068Y-128119158D01*
X143858010Y-128389411D01*
X144020525Y-128632632D01*
X144152380Y-128764487D01*
X144079820Y-128786498D01*
X143969506Y-128845463D01*
X143872815Y-128924815D01*
X143793463Y-129021506D01*
X143734498Y-129131820D01*
X143698188Y-129251518D01*
X143685928Y-129376000D01*
X143685928Y-131076000D01*
X143698188Y-131200482D01*
X143734498Y-131320180D01*
X143793463Y-131430494D01*
X143872815Y-131527185D01*
X143969506Y-131606537D01*
X144079820Y-131665502D01*
X144199518Y-131701812D01*
X144324000Y-131714072D01*
X146024000Y-131714072D01*
X146148482Y-131701812D01*
X146268180Y-131665502D01*
X146378494Y-131606537D01*
X146475185Y-131527185D01*
X146554537Y-131430494D01*
X146613502Y-131320180D01*
X146637966Y-131239534D01*
X146713731Y-131323588D01*
X146947080Y-131497641D01*
X147209901Y-131622825D01*
X147357110Y-131667476D01*
X147587000Y-131546155D01*
X147587000Y-130353000D01*
X147841000Y-130353000D01*
X147841000Y-131546155D01*
X148070890Y-131667476D01*
X148218099Y-131622825D01*
X148480920Y-131497641D01*
X148714269Y-131323588D01*
X148909178Y-131107355D01*
X148984000Y-130981745D01*
X149058822Y-131107355D01*
X149253731Y-131323588D01*
X149487080Y-131497641D01*
X149749901Y-131622825D01*
X149897110Y-131667476D01*
X150127000Y-131546155D01*
X150127000Y-130353000D01*
X147841000Y-130353000D01*
X147587000Y-130353000D01*
X147567000Y-130353000D01*
X147567000Y-130099000D01*
X147587000Y-130099000D01*
X147587000Y-130079000D01*
X147841000Y-130079000D01*
X147841000Y-130099000D01*
X150127000Y-130099000D01*
X150127000Y-130079000D01*
X150381000Y-130079000D01*
X150381000Y-130099000D01*
X150401000Y-130099000D01*
X150401000Y-130353000D01*
X150381000Y-130353000D01*
X150381000Y-131546155D01*
X150610890Y-131667476D01*
X150758099Y-131622825D01*
X151020920Y-131497641D01*
X151254269Y-131323588D01*
X151449178Y-131107355D01*
X151518805Y-130990466D01*
X151640525Y-131172632D01*
X151847368Y-131379475D01*
X152090589Y-131541990D01*
X152360842Y-131653932D01*
X152647740Y-131711000D01*
X152940260Y-131711000D01*
X153227158Y-131653932D01*
X153497411Y-131541990D01*
X153740632Y-131379475D01*
X153947475Y-131172632D01*
X154069195Y-130990466D01*
X154138822Y-131107355D01*
X154333731Y-131323588D01*
X154567080Y-131497641D01*
X154829901Y-131622825D01*
X154977110Y-131667476D01*
X155207000Y-131546155D01*
X155207000Y-130353000D01*
X155461000Y-130353000D01*
X155461000Y-131546155D01*
X155690890Y-131667476D01*
X155838099Y-131622825D01*
X156100920Y-131497641D01*
X156334269Y-131323588D01*
X156529178Y-131107355D01*
X156678157Y-130857252D01*
X156775481Y-130582891D01*
X156654814Y-130353000D01*
X155461000Y-130353000D01*
X155207000Y-130353000D01*
X155187000Y-130353000D01*
X155187000Y-130099000D01*
X155207000Y-130099000D01*
X155207000Y-130079000D01*
X155461000Y-130079000D01*
X155461000Y-130099000D01*
X156654814Y-130099000D01*
X156775481Y-129869109D01*
X156678157Y-129594748D01*
X156529178Y-129344645D01*
X156334269Y-129128412D01*
X156104594Y-128957100D01*
X156280632Y-128839475D01*
X156487475Y-128632632D01*
X156649990Y-128389411D01*
X156761932Y-128119158D01*
X156819000Y-127832260D01*
X156819000Y-127539740D01*
X156761932Y-127252842D01*
X156649990Y-126982589D01*
X156487475Y-126739368D01*
X156280632Y-126532525D01*
X156037411Y-126370010D01*
X155767158Y-126258068D01*
X155480260Y-126201000D01*
X155187740Y-126201000D01*
X154900842Y-126258068D01*
X154630589Y-126370010D01*
X154387368Y-126532525D01*
X154180525Y-126739368D01*
X154064000Y-126913760D01*
X153947475Y-126739368D01*
X153740632Y-126532525D01*
X153497411Y-126370010D01*
X153227158Y-126258068D01*
X152940260Y-126201000D01*
X152647740Y-126201000D01*
X152360842Y-126258068D01*
X152090589Y-126370010D01*
X151847368Y-126532525D01*
X151640525Y-126739368D01*
X151524000Y-126913760D01*
X151407475Y-126739368D01*
X151200632Y-126532525D01*
X150957411Y-126370010D01*
X150687158Y-126258068D01*
X150400260Y-126201000D01*
X150107740Y-126201000D01*
X149820842Y-126258068D01*
X149550589Y-126370010D01*
X149307368Y-126532525D01*
X149100525Y-126739368D01*
X148984000Y-126913760D01*
X148867475Y-126739368D01*
X148660632Y-126532525D01*
X148417411Y-126370010D01*
X148147158Y-126258068D01*
X147860260Y-126201000D01*
X147567740Y-126201000D01*
X147280842Y-126258068D01*
X147010589Y-126370010D01*
X146767368Y-126532525D01*
X146560525Y-126739368D01*
X146444000Y-126913760D01*
X146327475Y-126739368D01*
X146120632Y-126532525D01*
X145877411Y-126370010D01*
X145607158Y-126258068D01*
X145320260Y-126201000D01*
X145027740Y-126201000D01*
X144807592Y-126244790D01*
X143851200Y-125288399D01*
X143851200Y-123049733D01*
X143854877Y-123012400D01*
X143840203Y-122863414D01*
X143796746Y-122720153D01*
X143726174Y-122588124D01*
X143654999Y-122501397D01*
X143631201Y-122472399D01*
X143602203Y-122448601D01*
X138136200Y-116982599D01*
X138136200Y-113878401D01*
X144897602Y-107117000D01*
X144926599Y-107093203D01*
X144963166Y-107048646D01*
X145021572Y-106977479D01*
X145092144Y-106845449D01*
X145099661Y-106820667D01*
X145135601Y-106702188D01*
X145146598Y-106590535D01*
X145146598Y-106590525D01*
X145150274Y-106553202D01*
X145146598Y-106515879D01*
X145146598Y-104891306D01*
X145253005Y-104732056D01*
X145331026Y-104543698D01*
X145370800Y-104343739D01*
X145370800Y-104139861D01*
X145331026Y-103939902D01*
X145253005Y-103751544D01*
X145139737Y-103582026D01*
X144995574Y-103437863D01*
X144826056Y-103324595D01*
X144637698Y-103246574D01*
X144437739Y-103206800D01*
X144405600Y-103206800D01*
X144405600Y-103073061D01*
X144365826Y-102873102D01*
X144287805Y-102684744D01*
X144174537Y-102515226D01*
X144030374Y-102371063D01*
X143860856Y-102257795D01*
X143672498Y-102179774D01*
X143472539Y-102140000D01*
X143268661Y-102140000D01*
X143068702Y-102179774D01*
X142880344Y-102257795D01*
X142710826Y-102371063D01*
X142566663Y-102515226D01*
X142453395Y-102684744D01*
X142375374Y-102873102D01*
X142335600Y-103073061D01*
X142335600Y-103276939D01*
X142375374Y-103476898D01*
X142453395Y-103665256D01*
X142566663Y-103834774D01*
X142610601Y-103878712D01*
X142610600Y-105552597D01*
X142490832Y-105672366D01*
X142495000Y-105651411D01*
X142495000Y-105378589D01*
X142441775Y-105111011D01*
X142337371Y-104858957D01*
X142185799Y-104632114D01*
X141992886Y-104439201D01*
X141766043Y-104287629D01*
X141513989Y-104183225D01*
X141246411Y-104130000D01*
X140973589Y-104130000D01*
X140706011Y-104183225D01*
X140453957Y-104287629D01*
X140227114Y-104439201D01*
X140034201Y-104632114D01*
X139882629Y-104858957D01*
X139778225Y-105111011D01*
X139725000Y-105378589D01*
X139725000Y-105651411D01*
X139778225Y-105918989D01*
X139882629Y-106171043D01*
X140034201Y-106397886D01*
X140227114Y-106590799D01*
X140453957Y-106742371D01*
X140706011Y-106846775D01*
X140946943Y-106894700D01*
X140876774Y-107064102D01*
X140837000Y-107264061D01*
X140837000Y-107467939D01*
X140876774Y-107667898D01*
X140954795Y-107856256D01*
X141068063Y-108025774D01*
X141212226Y-108169937D01*
X141381744Y-108283205D01*
X141523200Y-108341798D01*
X136865198Y-112999801D01*
X136836200Y-113023599D01*
X136812402Y-113052597D01*
X136812401Y-113052598D01*
X136741226Y-113139324D01*
X136670654Y-113271354D01*
X136655110Y-113322598D01*
X136627198Y-113414614D01*
X136622235Y-113465003D01*
X136612524Y-113563600D01*
X136616201Y-113600932D01*
X136616200Y-117260077D01*
X136612524Y-117297400D01*
X136616200Y-117334722D01*
X136616200Y-117334732D01*
X136627197Y-117446385D01*
X136670654Y-117589646D01*
X136741226Y-117721676D01*
X136781071Y-117770226D01*
X136836199Y-117837401D01*
X136865203Y-117861204D01*
X140168598Y-121164600D01*
X140042863Y-121164600D01*
X139842904Y-121204374D01*
X139654546Y-121282395D01*
X139485028Y-121395663D01*
X139450513Y-121430178D01*
X137275069Y-121430178D01*
X137231132Y-121386241D01*
X137061614Y-121272973D01*
X136873256Y-121194952D01*
X136673297Y-121155178D01*
X136469419Y-121155178D01*
X136269460Y-121194952D01*
X136081102Y-121272973D01*
X135911584Y-121386241D01*
X135767421Y-121530404D01*
X135654153Y-121699922D01*
X135576132Y-121888280D01*
X135536358Y-122088239D01*
X123795647Y-122088239D01*
X123242663Y-121444090D01*
X122035644Y-119829117D01*
X128265000Y-119829117D01*
X128265000Y-120170883D01*
X128331675Y-120506081D01*
X128462463Y-120821831D01*
X128652337Y-121105998D01*
X128894002Y-121347663D01*
X129178169Y-121537537D01*
X129493919Y-121668325D01*
X129829117Y-121735000D01*
X130170883Y-121735000D01*
X130506081Y-121668325D01*
X130821831Y-121537537D01*
X131105998Y-121347663D01*
X131347663Y-121105998D01*
X131537537Y-120821831D01*
X131668325Y-120506081D01*
X131735000Y-120170883D01*
X131735000Y-119829117D01*
X131668325Y-119493919D01*
X131537537Y-119178169D01*
X131347663Y-118894002D01*
X131105998Y-118652337D01*
X130821831Y-118462463D01*
X130506081Y-118331675D01*
X130170883Y-118265000D01*
X129829117Y-118265000D01*
X129493919Y-118331675D01*
X129178169Y-118462463D01*
X128894002Y-118652337D01*
X128652337Y-118894002D01*
X128462463Y-119178169D01*
X128331675Y-119493919D01*
X128265000Y-119829117D01*
X122035644Y-119829117D01*
X121856022Y-119588787D01*
X120597795Y-117644105D01*
X119473724Y-115618916D01*
X118488937Y-113522462D01*
X117647928Y-111364308D01*
X117501642Y-110898061D01*
X121464994Y-110898061D01*
X121464994Y-111101939D01*
X121504768Y-111301898D01*
X121582789Y-111490256D01*
X121696057Y-111659774D01*
X121840220Y-111803937D01*
X122009738Y-111917205D01*
X122198096Y-111995226D01*
X122398055Y-112035000D01*
X122601933Y-112035000D01*
X122801892Y-111995226D01*
X122990250Y-111917205D01*
X123159768Y-111803937D01*
X123203705Y-111760000D01*
X127796289Y-111760000D01*
X127840226Y-111803937D01*
X128009744Y-111917205D01*
X128198102Y-111995226D01*
X128398061Y-112035000D01*
X128601939Y-112035000D01*
X128801898Y-111995226D01*
X128990256Y-111917205D01*
X129159774Y-111803937D01*
X129303937Y-111659774D01*
X129417205Y-111490256D01*
X129495226Y-111301898D01*
X129535000Y-111101939D01*
X129535000Y-110898061D01*
X129495226Y-110698102D01*
X129417205Y-110509744D01*
X129303937Y-110340226D01*
X129159774Y-110196063D01*
X128990256Y-110082795D01*
X128801898Y-110004774D01*
X128601939Y-109965000D01*
X128398061Y-109965000D01*
X128198102Y-110004774D01*
X128009744Y-110082795D01*
X127840226Y-110196063D01*
X127796289Y-110240000D01*
X123203705Y-110240000D01*
X123159768Y-110196063D01*
X122990250Y-110082795D01*
X122801892Y-110004774D01*
X122601933Y-109965000D01*
X122398055Y-109965000D01*
X122198096Y-110004774D01*
X122009738Y-110082795D01*
X121840220Y-110196063D01*
X121696057Y-110340226D01*
X121582789Y-110509744D01*
X121504768Y-110698102D01*
X121464994Y-110898061D01*
X117501642Y-110898061D01*
X116954533Y-109154302D01*
X116411918Y-106902526D01*
X116033024Y-104680632D01*
X116047004Y-104686493D01*
X116285500Y-104735000D01*
X116635500Y-104735000D01*
X116635500Y-103627000D01*
X116889500Y-103627000D01*
X116889500Y-104735000D01*
X117239500Y-104735000D01*
X117477996Y-104686493D01*
X117702446Y-104592390D01*
X117904225Y-104456307D01*
X118075578Y-104283474D01*
X118209921Y-104080533D01*
X118302091Y-103855282D01*
X118305962Y-103817609D01*
X118181231Y-103627000D01*
X116889500Y-103627000D01*
X116635500Y-103627000D01*
X116615500Y-103627000D01*
X116615500Y-103439133D01*
X118702972Y-103439133D01*
X118765465Y-103675450D01*
X119008178Y-103788850D01*
X119268349Y-103852719D01*
X119535982Y-103864604D01*
X119800791Y-103824048D01*
X120052600Y-103732609D01*
X120159535Y-103675450D01*
X120222028Y-103439133D01*
X119462500Y-102679605D01*
X118702972Y-103439133D01*
X116615500Y-103439133D01*
X116615500Y-103373000D01*
X116635500Y-103373000D01*
X116635500Y-102265000D01*
X116889500Y-102265000D01*
X116889500Y-103373000D01*
X118181231Y-103373000D01*
X118295003Y-103199138D01*
X118523367Y-103259528D01*
X119282895Y-102500000D01*
X119642105Y-102500000D01*
X120401633Y-103259528D01*
X120637950Y-103197035D01*
X120751350Y-102954322D01*
X120815219Y-102694151D01*
X120827104Y-102426518D01*
X120786548Y-102161709D01*
X120695109Y-101909900D01*
X120637950Y-101802965D01*
X120401633Y-101740472D01*
X119642105Y-102500000D01*
X119282895Y-102500000D01*
X118523367Y-101740472D01*
X118287050Y-101802965D01*
X118173650Y-102045678D01*
X118109781Y-102305849D01*
X118097896Y-102573482D01*
X118133115Y-102803442D01*
X118075578Y-102716526D01*
X117904225Y-102543693D01*
X117702446Y-102407610D01*
X117477996Y-102313507D01*
X117239500Y-102265000D01*
X116889500Y-102265000D01*
X116635500Y-102265000D01*
X116285500Y-102265000D01*
X116047004Y-102313507D01*
X115822554Y-102407610D01*
X115799254Y-102423324D01*
X115788229Y-102314909D01*
X115762748Y-101560867D01*
X118702972Y-101560867D01*
X119462500Y-102320395D01*
X120222028Y-101560867D01*
X120159535Y-101324550D01*
X119916822Y-101211150D01*
X119656651Y-101147281D01*
X119389018Y-101135396D01*
X119124209Y-101175952D01*
X118872400Y-101267391D01*
X118765465Y-101324550D01*
X118702972Y-101560867D01*
X115762748Y-101560867D01*
X115710000Y-100000000D01*
X115747778Y-98882061D01*
X123565000Y-98882061D01*
X123565000Y-99085939D01*
X123604774Y-99285898D01*
X123682795Y-99474256D01*
X123796063Y-99643774D01*
X123940226Y-99787937D01*
X124076759Y-99879165D01*
X124073000Y-99898061D01*
X124073000Y-100101939D01*
X124112774Y-100301898D01*
X124190795Y-100490256D01*
X124304063Y-100659774D01*
X124448226Y-100803937D01*
X124617744Y-100917205D01*
X124806102Y-100995226D01*
X125006061Y-101035000D01*
X125209939Y-101035000D01*
X125409898Y-100995226D01*
X125598256Y-100917205D01*
X125767774Y-100803937D01*
X125911937Y-100659774D01*
X126025205Y-100490256D01*
X126103226Y-100301898D01*
X126143000Y-100101939D01*
X126143000Y-100039801D01*
X131922802Y-94260000D01*
X133734958Y-94260000D01*
X133725000Y-94310061D01*
X133725000Y-94513939D01*
X133764774Y-94713898D01*
X133842795Y-94902256D01*
X133956063Y-95071774D01*
X134000000Y-95115711D01*
X134000001Y-108089305D01*
X133840226Y-108196063D01*
X133696063Y-108340226D01*
X133582795Y-108509744D01*
X133504774Y-108698102D01*
X133465000Y-108898061D01*
X133465000Y-109101939D01*
X133504774Y-109301898D01*
X133582795Y-109490256D01*
X133696063Y-109659774D01*
X133840226Y-109803937D01*
X134009744Y-109917205D01*
X134198102Y-109995226D01*
X134398061Y-110035000D01*
X134601939Y-110035000D01*
X134801898Y-109995226D01*
X134990256Y-109917205D01*
X135159774Y-109803937D01*
X135303937Y-109659774D01*
X135417205Y-109490256D01*
X135495226Y-109301898D01*
X135535000Y-109101939D01*
X135535000Y-108898061D01*
X135517015Y-108807642D01*
X135520000Y-108777333D01*
X135523677Y-108740000D01*
X135520000Y-108702667D01*
X135520000Y-100498589D01*
X139725000Y-100498589D01*
X139725000Y-100771411D01*
X139778225Y-101038989D01*
X139882629Y-101291043D01*
X140034201Y-101517886D01*
X140227114Y-101710799D01*
X140453957Y-101862371D01*
X140706011Y-101966775D01*
X140973589Y-102020000D01*
X141246411Y-102020000D01*
X141513989Y-101966775D01*
X141766043Y-101862371D01*
X141992886Y-101710799D01*
X142185799Y-101517886D01*
X142337371Y-101291043D01*
X142441775Y-101038989D01*
X142495000Y-100771411D01*
X142495000Y-100498589D01*
X142441775Y-100231011D01*
X142337371Y-99978957D01*
X142185799Y-99752114D01*
X141992886Y-99559201D01*
X141766043Y-99407629D01*
X141513989Y-99303225D01*
X141246411Y-99250000D01*
X140973589Y-99250000D01*
X140706011Y-99303225D01*
X140453957Y-99407629D01*
X140227114Y-99559201D01*
X140034201Y-99752114D01*
X139882629Y-99978957D01*
X139778225Y-100231011D01*
X139725000Y-100498589D01*
X135520000Y-100498589D01*
X135520000Y-95115711D01*
X135563937Y-95071774D01*
X135677205Y-94902256D01*
X135755226Y-94713898D01*
X135795000Y-94513939D01*
X135795000Y-94310061D01*
X135785042Y-94260000D01*
X143796273Y-94260000D01*
X143840210Y-94303937D01*
X144009728Y-94417205D01*
X144198086Y-94495226D01*
X144398045Y-94535000D01*
X144601923Y-94535000D01*
X144801882Y-94495226D01*
X144990240Y-94417205D01*
X145159758Y-94303937D01*
X145303921Y-94159774D01*
X145417189Y-93990256D01*
X145495210Y-93801898D01*
X145534984Y-93601939D01*
X145534984Y-93398061D01*
X145495210Y-93198102D01*
X145417189Y-93009744D01*
X145303921Y-92840226D01*
X145159758Y-92696063D01*
X145033110Y-92611440D01*
X145035000Y-92601939D01*
X145035000Y-92398061D01*
X144995226Y-92198102D01*
X144917205Y-92009744D01*
X144803937Y-91840226D01*
X144659774Y-91696063D01*
X144490256Y-91582795D01*
X144301898Y-91504774D01*
X144101939Y-91465000D01*
X143898061Y-91465000D01*
X143698102Y-91504774D01*
X143509744Y-91582795D01*
X143340226Y-91696063D01*
X143296289Y-91740000D01*
X131121325Y-91740000D01*
X131084000Y-91736324D01*
X131046675Y-91740000D01*
X131046667Y-91740000D01*
X130935014Y-91750997D01*
X130791753Y-91794454D01*
X130659724Y-91865026D01*
X130543999Y-91959999D01*
X130520201Y-91988997D01*
X124560199Y-97949000D01*
X124498061Y-97949000D01*
X124298102Y-97988774D01*
X124109744Y-98066795D01*
X123940226Y-98180063D01*
X123796063Y-98324226D01*
X123682795Y-98493744D01*
X123604774Y-98682102D01*
X123565000Y-98882061D01*
X115747778Y-98882061D01*
X115762747Y-98439133D01*
X118702972Y-98439133D01*
X118765465Y-98675450D01*
X119008178Y-98788850D01*
X119268349Y-98852719D01*
X119535982Y-98864604D01*
X119800791Y-98824048D01*
X120052600Y-98732609D01*
X120159535Y-98675450D01*
X120222028Y-98439133D01*
X119462500Y-97679605D01*
X118702972Y-98439133D01*
X115762747Y-98439133D01*
X115788229Y-97685091D01*
X115799254Y-97576676D01*
X115822554Y-97592390D01*
X116047004Y-97686493D01*
X116285500Y-97735000D01*
X116635500Y-97735000D01*
X116635500Y-96627000D01*
X116889500Y-96627000D01*
X116889500Y-97735000D01*
X117239500Y-97735000D01*
X117477996Y-97686493D01*
X117702446Y-97592390D01*
X117904225Y-97456307D01*
X118075578Y-97283474D01*
X118138671Y-97188164D01*
X118109781Y-97305849D01*
X118097896Y-97573482D01*
X118138452Y-97838291D01*
X118229891Y-98090100D01*
X118287050Y-98197035D01*
X118523367Y-98259528D01*
X119282895Y-97500000D01*
X119642105Y-97500000D01*
X120401633Y-98259528D01*
X120637950Y-98197035D01*
X120751350Y-97954322D01*
X120815219Y-97694151D01*
X120827104Y-97426518D01*
X120786548Y-97161709D01*
X120695109Y-96909900D01*
X120637950Y-96802965D01*
X120401633Y-96740472D01*
X119642105Y-97500000D01*
X119282895Y-97500000D01*
X118523367Y-96740472D01*
X118295003Y-96800862D01*
X118181231Y-96627000D01*
X116889500Y-96627000D01*
X116635500Y-96627000D01*
X116615500Y-96627000D01*
X116615500Y-96560867D01*
X118702972Y-96560867D01*
X119462500Y-97320395D01*
X120222028Y-96560867D01*
X120159535Y-96324550D01*
X119916822Y-96211150D01*
X119656651Y-96147281D01*
X119389018Y-96135396D01*
X119124209Y-96175952D01*
X118872400Y-96267391D01*
X118765465Y-96324550D01*
X118702972Y-96560867D01*
X116615500Y-96560867D01*
X116615500Y-96373000D01*
X116635500Y-96373000D01*
X116635500Y-95265000D01*
X116889500Y-95265000D01*
X116889500Y-96373000D01*
X118181231Y-96373000D01*
X118305962Y-96182391D01*
X118302091Y-96144718D01*
X118209921Y-95919467D01*
X118075578Y-95716526D01*
X117904225Y-95543693D01*
X117702446Y-95407610D01*
X117477996Y-95313507D01*
X117239500Y-95265000D01*
X116889500Y-95265000D01*
X116635500Y-95265000D01*
X116285500Y-95265000D01*
X116047004Y-95313507D01*
X116033024Y-95319368D01*
X116411918Y-93097474D01*
X116954533Y-90845698D01*
X117647928Y-88635692D01*
X118488937Y-86477538D01*
X119473724Y-84381084D01*
X120597795Y-82355895D01*
X121856022Y-80411213D01*
X122291076Y-79829117D01*
X128265000Y-79829117D01*
X128265000Y-80170883D01*
X128331675Y-80506081D01*
X128462463Y-80821831D01*
X128652337Y-81105998D01*
X128894002Y-81347663D01*
X129178169Y-81537537D01*
X129493919Y-81668325D01*
X129829117Y-81735000D01*
X130170883Y-81735000D01*
X130506081Y-81668325D01*
X130821831Y-81537537D01*
X131105998Y-81347663D01*
X131347663Y-81105998D01*
X131537537Y-80821831D01*
X131668325Y-80506081D01*
X131735000Y-80170883D01*
X131735000Y-79829117D01*
X131668325Y-79493919D01*
X131537537Y-79178169D01*
X131347663Y-78894002D01*
X131105998Y-78652337D01*
X130821831Y-78462463D01*
X130506081Y-78331675D01*
X130170883Y-78265000D01*
X129829117Y-78265000D01*
X129493919Y-78331675D01*
X129178169Y-78462463D01*
X128894002Y-78652337D01*
X128652337Y-78894002D01*
X128462463Y-79178169D01*
X128331675Y-79493919D01*
X128265000Y-79829117D01*
X122291076Y-79829117D01*
X123242663Y-78555910D01*
X124751392Y-76798451D01*
X126375324Y-75146855D01*
X128107051Y-73608659D01*
X128297627Y-73461142D01*
X147197115Y-73461142D01*
X147266304Y-73744145D01*
X147389375Y-74008212D01*
X147561598Y-74243195D01*
X147776354Y-74440064D01*
X148025391Y-74591254D01*
X148299139Y-74690954D01*
X148311510Y-74692876D01*
X148541400Y-74571555D01*
X148541400Y-73228400D01*
X147341168Y-73228400D01*
X147197115Y-73461142D01*
X128297627Y-73461142D01*
X129227123Y-72741658D01*
X147197115Y-72741658D01*
X147341168Y-72974400D01*
X148541400Y-72974400D01*
X148541400Y-71631245D01*
X148795400Y-71631245D01*
X148795400Y-72974400D01*
X148815400Y-72974400D01*
X148815400Y-73228400D01*
X148795400Y-73228400D01*
X148795400Y-74571555D01*
X149025290Y-74692876D01*
X149037661Y-74690954D01*
X149311409Y-74591254D01*
X149560446Y-74440064D01*
X149775202Y-74243195D01*
X149775486Y-74242807D01*
X149829995Y-74344786D01*
X149940438Y-74479362D01*
X150075014Y-74589805D01*
X150228550Y-74671872D01*
X150395146Y-74722408D01*
X150459201Y-74728717D01*
X150459200Y-76258489D01*
X150415263Y-76302426D01*
X150301995Y-76471944D01*
X150223974Y-76660302D01*
X150184200Y-76860261D01*
X150184200Y-77064139D01*
X150223974Y-77264098D01*
X150301995Y-77452456D01*
X150415263Y-77621974D01*
X150559426Y-77766137D01*
X150728944Y-77879405D01*
X150917302Y-77957426D01*
X151117261Y-77997200D01*
X151321139Y-77997200D01*
X151521098Y-77957426D01*
X151709456Y-77879405D01*
X151878974Y-77766137D01*
X152023137Y-77621974D01*
X152136405Y-77452456D01*
X152214426Y-77264098D01*
X152254200Y-77064139D01*
X152254200Y-76860261D01*
X152214426Y-76660302D01*
X152136405Y-76471944D01*
X152023137Y-76302426D01*
X151979200Y-76258489D01*
X151979200Y-74711019D01*
X152108250Y-74671872D01*
X152261786Y-74589805D01*
X152396362Y-74479362D01*
X152506805Y-74344786D01*
X152588872Y-74191250D01*
X152639408Y-74024654D01*
X152656472Y-73851400D01*
X152656472Y-72351400D01*
X152639408Y-72178146D01*
X152588872Y-72011550D01*
X152506805Y-71858014D01*
X152396362Y-71723438D01*
X152261786Y-71612995D01*
X152108250Y-71530928D01*
X151941654Y-71480392D01*
X151768400Y-71463328D01*
X150568400Y-71463328D01*
X150395146Y-71480392D01*
X150228550Y-71530928D01*
X150075014Y-71612995D01*
X149940438Y-71723438D01*
X149829995Y-71858014D01*
X149775486Y-71959993D01*
X149775202Y-71959605D01*
X149560446Y-71762736D01*
X149311409Y-71611546D01*
X149037661Y-71511846D01*
X149025290Y-71509924D01*
X148795400Y-71631245D01*
X148541400Y-71631245D01*
X148311510Y-71509924D01*
X148299139Y-71511846D01*
X148025391Y-71611546D01*
X147776354Y-71762736D01*
X147561598Y-71959605D01*
X147389375Y-72194588D01*
X147266304Y-72458655D01*
X147197115Y-72741658D01*
X129227123Y-72741658D01*
X129938670Y-72190880D01*
X131861824Y-70899988D01*
X133867739Y-69741873D01*
X135947261Y-68721819D01*
X138090903Y-67844479D01*
X140288883Y-67113858D01*
X142531173Y-66533289D01*
X144807542Y-66105421D01*
X147107602Y-65832206D01*
X149420860Y-65714891D01*
X151736760Y-65754011D01*
M02*
