G04 #@! TF.GenerationSoftware,KiCad,Pcbnew,5.1.7+dfsg1-1~bpo10+1*
G04 #@! TF.CreationDate,2020-11-11T15:52:25-05:00*
G04 #@! TF.ProjectId,board,626f6172-642e-46b6-9963-61645f706362,rev?*
G04 #@! TF.SameCoordinates,Original*
G04 #@! TF.FileFunction,Soldermask,Top*
G04 #@! TF.FilePolarity,Negative*
%FSLAX46Y46*%
G04 Gerber Fmt 4.6, Leading zero omitted, Abs format (unit mm)*
G04 Created by KiCad (PCBNEW 5.1.7+dfsg1-1~bpo10+1) date 2020-11-11 15:52:25*
%MOMM*%
%LPD*%
G01*
G04 APERTURE LIST*
%ADD10O,1.801600X1.801600*%
%ADD11C,2.301600*%
%ADD12C,1.601600*%
%ADD13O,1.801600X2.101600*%
%ADD14C,1.101600*%
%ADD15O,2.001600X1.301600*%
%ADD16C,1.551600*%
%ADD17C,0.100000*%
G04 APERTURE END LIST*
G36*
G01*
X124417200Y-89196000D02*
X124417200Y-88396000D01*
G75*
G02*
X124468000Y-88345200I50800J0D01*
G01*
X126368000Y-88345200D01*
G75*
G02*
X126418800Y-88396000I0J-50800D01*
G01*
X126418800Y-89196000D01*
G75*
G02*
X126368000Y-89246800I-50800J0D01*
G01*
X124468000Y-89246800D01*
G75*
G02*
X124417200Y-89196000I0J50800D01*
G01*
G37*
G36*
G01*
X121417200Y-90146000D02*
X121417200Y-89346000D01*
G75*
G02*
X121468000Y-89295200I50800J0D01*
G01*
X123368000Y-89295200D01*
G75*
G02*
X123418800Y-89346000I0J-50800D01*
G01*
X123418800Y-90146000D01*
G75*
G02*
X123368000Y-90196800I-50800J0D01*
G01*
X121468000Y-90196800D01*
G75*
G02*
X121417200Y-90146000I0J50800D01*
G01*
G37*
G36*
G01*
X121417200Y-88246000D02*
X121417200Y-87446000D01*
G75*
G02*
X121468000Y-87395200I50800J0D01*
G01*
X123368000Y-87395200D01*
G75*
G02*
X123418800Y-87446000I0J-50800D01*
G01*
X123418800Y-88246000D01*
G75*
G02*
X123368000Y-88296800I-50800J0D01*
G01*
X121468000Y-88296800D01*
G75*
G02*
X121417200Y-88246000I0J50800D01*
G01*
G37*
G36*
G01*
X164136000Y-83559200D02*
X165836000Y-83559200D01*
G75*
G02*
X165886800Y-83610000I0J-50800D01*
G01*
X165886800Y-85310000D01*
G75*
G02*
X165836000Y-85360800I-50800J0D01*
G01*
X164136000Y-85360800D01*
G75*
G02*
X164085200Y-85310000I0J50800D01*
G01*
X164085200Y-83610000D01*
G75*
G02*
X164136000Y-83559200I50800J0D01*
G01*
G37*
D10*
X162446000Y-84460000D03*
X159906000Y-84460000D03*
X157366000Y-84460000D03*
X154826000Y-84460000D03*
X152286000Y-84460000D03*
X149746000Y-84460000D03*
X147206000Y-84460000D03*
X144666000Y-84460000D03*
X142126000Y-84460000D03*
X139586000Y-84460000D03*
X137046000Y-84460000D03*
X134506000Y-84460000D03*
X131966000Y-84460000D03*
D11*
X130000000Y-120000000D03*
X170000000Y-120000000D03*
X130000000Y-80000000D03*
X170000000Y-80000000D03*
G36*
G01*
X160600000Y-93300800D02*
X159400000Y-93300800D01*
G75*
G02*
X159349200Y-93250000I0J50800D01*
G01*
X159349200Y-90750000D01*
G75*
G02*
X159400000Y-90699200I50800J0D01*
G01*
X160600000Y-90699200D01*
G75*
G02*
X160650800Y-90750000I0J-50800D01*
G01*
X160650800Y-93250000D01*
G75*
G02*
X160600000Y-93300800I-50800J0D01*
G01*
G37*
G36*
G01*
X162600000Y-93300800D02*
X161400000Y-93300800D01*
G75*
G02*
X161349200Y-93250000I0J50800D01*
G01*
X161349200Y-90750000D01*
G75*
G02*
X161400000Y-90699200I50800J0D01*
G01*
X162600000Y-90699200D01*
G75*
G02*
X162650800Y-90750000I0J-50800D01*
G01*
X162650800Y-93250000D01*
G75*
G02*
X162600000Y-93300800I-50800J0D01*
G01*
G37*
G36*
G01*
X164600000Y-93300800D02*
X163400000Y-93300800D01*
G75*
G02*
X163349200Y-93250000I0J50800D01*
G01*
X163349200Y-90750000D01*
G75*
G02*
X163400000Y-90699200I50800J0D01*
G01*
X164600000Y-90699200D01*
G75*
G02*
X164650800Y-90750000I0J-50800D01*
G01*
X164650800Y-93250000D01*
G75*
G02*
X164600000Y-93300800I-50800J0D01*
G01*
G37*
G36*
G01*
X166600000Y-93300800D02*
X165400000Y-93300800D01*
G75*
G02*
X165349200Y-93250000I0J50800D01*
G01*
X165349200Y-90750000D01*
G75*
G02*
X165400000Y-90699200I50800J0D01*
G01*
X166600000Y-90699200D01*
G75*
G02*
X166650800Y-90750000I0J-50800D01*
G01*
X166650800Y-93250000D01*
G75*
G02*
X166600000Y-93300800I-50800J0D01*
G01*
G37*
G36*
G01*
X168600000Y-93300800D02*
X167400000Y-93300800D01*
G75*
G02*
X167349200Y-93250000I0J50800D01*
G01*
X167349200Y-90750000D01*
G75*
G02*
X167400000Y-90699200I50800J0D01*
G01*
X168600000Y-90699200D01*
G75*
G02*
X168650800Y-90750000I0J-50800D01*
G01*
X168650800Y-93250000D01*
G75*
G02*
X168600000Y-93300800I-50800J0D01*
G01*
G37*
G36*
G01*
X170600000Y-93300800D02*
X169400000Y-93300800D01*
G75*
G02*
X169349200Y-93250000I0J50800D01*
G01*
X169349200Y-90750000D01*
G75*
G02*
X169400000Y-90699200I50800J0D01*
G01*
X170600000Y-90699200D01*
G75*
G02*
X170650800Y-90750000I0J-50800D01*
G01*
X170650800Y-93250000D01*
G75*
G02*
X170600000Y-93300800I-50800J0D01*
G01*
G37*
G36*
G01*
X172600000Y-93300800D02*
X171400000Y-93300800D01*
G75*
G02*
X171349200Y-93250000I0J50800D01*
G01*
X171349200Y-90750000D01*
G75*
G02*
X171400000Y-90699200I50800J0D01*
G01*
X172600000Y-90699200D01*
G75*
G02*
X172650800Y-90750000I0J-50800D01*
G01*
X172650800Y-93250000D01*
G75*
G02*
X172600000Y-93300800I-50800J0D01*
G01*
G37*
G36*
G01*
X174600000Y-93300800D02*
X173400000Y-93300800D01*
G75*
G02*
X173349200Y-93250000I0J50800D01*
G01*
X173349200Y-90750000D01*
G75*
G02*
X173400000Y-90699200I50800J0D01*
G01*
X174600000Y-90699200D01*
G75*
G02*
X174650800Y-90750000I0J-50800D01*
G01*
X174650800Y-93250000D01*
G75*
G02*
X174600000Y-93300800I-50800J0D01*
G01*
G37*
G36*
G01*
X174600000Y-109300800D02*
X173400000Y-109300800D01*
G75*
G02*
X173349200Y-109250000I0J50800D01*
G01*
X173349200Y-106750000D01*
G75*
G02*
X173400000Y-106699200I50800J0D01*
G01*
X174600000Y-106699200D01*
G75*
G02*
X174650800Y-106750000I0J-50800D01*
G01*
X174650800Y-109250000D01*
G75*
G02*
X174600000Y-109300800I-50800J0D01*
G01*
G37*
G36*
G01*
X172600000Y-109300800D02*
X171400000Y-109300800D01*
G75*
G02*
X171349200Y-109250000I0J50800D01*
G01*
X171349200Y-106750000D01*
G75*
G02*
X171400000Y-106699200I50800J0D01*
G01*
X172600000Y-106699200D01*
G75*
G02*
X172650800Y-106750000I0J-50800D01*
G01*
X172650800Y-109250000D01*
G75*
G02*
X172600000Y-109300800I-50800J0D01*
G01*
G37*
G36*
G01*
X170600000Y-109300800D02*
X169400000Y-109300800D01*
G75*
G02*
X169349200Y-109250000I0J50800D01*
G01*
X169349200Y-106750000D01*
G75*
G02*
X169400000Y-106699200I50800J0D01*
G01*
X170600000Y-106699200D01*
G75*
G02*
X170650800Y-106750000I0J-50800D01*
G01*
X170650800Y-109250000D01*
G75*
G02*
X170600000Y-109300800I-50800J0D01*
G01*
G37*
G36*
G01*
X168600000Y-109300800D02*
X167400000Y-109300800D01*
G75*
G02*
X167349200Y-109250000I0J50800D01*
G01*
X167349200Y-106750000D01*
G75*
G02*
X167400000Y-106699200I50800J0D01*
G01*
X168600000Y-106699200D01*
G75*
G02*
X168650800Y-106750000I0J-50800D01*
G01*
X168650800Y-109250000D01*
G75*
G02*
X168600000Y-109300800I-50800J0D01*
G01*
G37*
G36*
G01*
X166600000Y-109300800D02*
X165400000Y-109300800D01*
G75*
G02*
X165349200Y-109250000I0J50800D01*
G01*
X165349200Y-106750000D01*
G75*
G02*
X165400000Y-106699200I50800J0D01*
G01*
X166600000Y-106699200D01*
G75*
G02*
X166650800Y-106750000I0J-50800D01*
G01*
X166650800Y-109250000D01*
G75*
G02*
X166600000Y-109300800I-50800J0D01*
G01*
G37*
G36*
G01*
X164600000Y-109300800D02*
X163400000Y-109300800D01*
G75*
G02*
X163349200Y-109250000I0J50800D01*
G01*
X163349200Y-106750000D01*
G75*
G02*
X163400000Y-106699200I50800J0D01*
G01*
X164600000Y-106699200D01*
G75*
G02*
X164650800Y-106750000I0J-50800D01*
G01*
X164650800Y-109250000D01*
G75*
G02*
X164600000Y-109300800I-50800J0D01*
G01*
G37*
G36*
G01*
X162600000Y-109300800D02*
X161400000Y-109300800D01*
G75*
G02*
X161349200Y-109250000I0J50800D01*
G01*
X161349200Y-106750000D01*
G75*
G02*
X161400000Y-106699200I50800J0D01*
G01*
X162600000Y-106699200D01*
G75*
G02*
X162650800Y-106750000I0J-50800D01*
G01*
X162650800Y-109250000D01*
G75*
G02*
X162600000Y-109300800I-50800J0D01*
G01*
G37*
G36*
G01*
X160600000Y-109300800D02*
X159400000Y-109300800D01*
G75*
G02*
X159349200Y-109250000I0J50800D01*
G01*
X159349200Y-106750000D01*
G75*
G02*
X159400000Y-106699200I50800J0D01*
G01*
X160600000Y-106699200D01*
G75*
G02*
X160650800Y-106750000I0J-50800D01*
G01*
X160650800Y-109250000D01*
G75*
G02*
X160600000Y-109300800I-50800J0D01*
G01*
G37*
G36*
G01*
X149021200Y-80658000D02*
X149021200Y-78778000D01*
G75*
G02*
X149072000Y-78727200I50800J0D01*
G01*
X150752000Y-78727200D01*
G75*
G02*
X150802800Y-78778000I0J-50800D01*
G01*
X150802800Y-80658000D01*
G75*
G02*
X150752000Y-80708800I-50800J0D01*
G01*
X149072000Y-80708800D01*
G75*
G02*
X149021200Y-80658000I0J50800D01*
G01*
G37*
G36*
G01*
X151286200Y-78868400D02*
X151286200Y-78617600D01*
G75*
G02*
X151411600Y-78492200I125400J0D01*
G01*
X152712400Y-78492200D01*
G75*
G02*
X152837800Y-78617600I0J-125400D01*
G01*
X152837800Y-78868400D01*
G75*
G02*
X152712400Y-78993800I-125400J0D01*
G01*
X151411600Y-78993800D01*
G75*
G02*
X151286200Y-78868400I0J125400D01*
G01*
G37*
G36*
G01*
X151286200Y-79518400D02*
X151286200Y-79267600D01*
G75*
G02*
X151411600Y-79142200I125400J0D01*
G01*
X152712400Y-79142200D01*
G75*
G02*
X152837800Y-79267600I0J-125400D01*
G01*
X152837800Y-79518400D01*
G75*
G02*
X152712400Y-79643800I-125400J0D01*
G01*
X151411600Y-79643800D01*
G75*
G02*
X151286200Y-79518400I0J125400D01*
G01*
G37*
G36*
G01*
X151286200Y-80168400D02*
X151286200Y-79917600D01*
G75*
G02*
X151411600Y-79792200I125400J0D01*
G01*
X152712400Y-79792200D01*
G75*
G02*
X152837800Y-79917600I0J-125400D01*
G01*
X152837800Y-80168400D01*
G75*
G02*
X152712400Y-80293800I-125400J0D01*
G01*
X151411600Y-80293800D01*
G75*
G02*
X151286200Y-80168400I0J125400D01*
G01*
G37*
G36*
G01*
X151286200Y-80818400D02*
X151286200Y-80567600D01*
G75*
G02*
X151411600Y-80442200I125400J0D01*
G01*
X152712400Y-80442200D01*
G75*
G02*
X152837800Y-80567600I0J-125400D01*
G01*
X152837800Y-80818400D01*
G75*
G02*
X152712400Y-80943800I-125400J0D01*
G01*
X151411600Y-80943800D01*
G75*
G02*
X151286200Y-80818400I0J125400D01*
G01*
G37*
G36*
G01*
X146986200Y-80818400D02*
X146986200Y-80567600D01*
G75*
G02*
X147111600Y-80442200I125400J0D01*
G01*
X148412400Y-80442200D01*
G75*
G02*
X148537800Y-80567600I0J-125400D01*
G01*
X148537800Y-80818400D01*
G75*
G02*
X148412400Y-80943800I-125400J0D01*
G01*
X147111600Y-80943800D01*
G75*
G02*
X146986200Y-80818400I0J125400D01*
G01*
G37*
G36*
G01*
X146986200Y-80168400D02*
X146986200Y-79917600D01*
G75*
G02*
X147111600Y-79792200I125400J0D01*
G01*
X148412400Y-79792200D01*
G75*
G02*
X148537800Y-79917600I0J-125400D01*
G01*
X148537800Y-80168400D01*
G75*
G02*
X148412400Y-80293800I-125400J0D01*
G01*
X147111600Y-80293800D01*
G75*
G02*
X146986200Y-80168400I0J125400D01*
G01*
G37*
G36*
G01*
X146986200Y-79518400D02*
X146986200Y-79267600D01*
G75*
G02*
X147111600Y-79142200I125400J0D01*
G01*
X148412400Y-79142200D01*
G75*
G02*
X148537800Y-79267600I0J-125400D01*
G01*
X148537800Y-79518400D01*
G75*
G02*
X148412400Y-79643800I-125400J0D01*
G01*
X147111600Y-79643800D01*
G75*
G02*
X146986200Y-79518400I0J125400D01*
G01*
G37*
G36*
G01*
X146986200Y-78868400D02*
X146986200Y-78617600D01*
G75*
G02*
X147111600Y-78492200I125400J0D01*
G01*
X148412400Y-78492200D01*
G75*
G02*
X148537800Y-78617600I0J-125400D01*
G01*
X148537800Y-78868400D01*
G75*
G02*
X148412400Y-78993800I-125400J0D01*
G01*
X147111600Y-78993800D01*
G75*
G02*
X146986200Y-78868400I0J125400D01*
G01*
G37*
G36*
G01*
X132070024Y-75106700D02*
X133385976Y-75106700D01*
G75*
G02*
X133653800Y-75374524I0J-267824D01*
G01*
X133653800Y-76365476D01*
G75*
G02*
X133385976Y-76633300I-267824J0D01*
G01*
X132070024Y-76633300D01*
G75*
G02*
X131802200Y-76365476I0J267824D01*
G01*
X131802200Y-75374524D01*
G75*
G02*
X132070024Y-75106700I267824J0D01*
G01*
G37*
G36*
G01*
X132070024Y-72131700D02*
X133385976Y-72131700D01*
G75*
G02*
X133653800Y-72399524I0J-267824D01*
G01*
X133653800Y-73390476D01*
G75*
G02*
X133385976Y-73658300I-267824J0D01*
G01*
X132070024Y-73658300D01*
G75*
G02*
X131802200Y-73390476I0J267824D01*
G01*
X131802200Y-72399524D01*
G75*
G02*
X132070024Y-72131700I267824J0D01*
G01*
G37*
D12*
X141110000Y-106277000D03*
X141110000Y-101397000D03*
G36*
G01*
X143373024Y-120626700D02*
X144688976Y-120626700D01*
G75*
G02*
X144956800Y-120894524I0J-267824D01*
G01*
X144956800Y-121885476D01*
G75*
G02*
X144688976Y-122153300I-267824J0D01*
G01*
X143373024Y-122153300D01*
G75*
G02*
X143105200Y-121885476I0J267824D01*
G01*
X143105200Y-120894524D01*
G75*
G02*
X143373024Y-120626700I267824J0D01*
G01*
G37*
G36*
G01*
X143373024Y-117651700D02*
X144688976Y-117651700D01*
G75*
G02*
X144956800Y-117919524I0J-267824D01*
G01*
X144956800Y-118910476D01*
G75*
G02*
X144688976Y-119178300I-267824J0D01*
G01*
X143373024Y-119178300D01*
G75*
G02*
X143105200Y-118910476I0J267824D01*
G01*
X143105200Y-117919524D01*
G75*
G02*
X143373024Y-117651700I267824J0D01*
G01*
G37*
G36*
G01*
X135880024Y-127611700D02*
X137195976Y-127611700D01*
G75*
G02*
X137463800Y-127879524I0J-267824D01*
G01*
X137463800Y-128870476D01*
G75*
G02*
X137195976Y-129138300I-267824J0D01*
G01*
X135880024Y-129138300D01*
G75*
G02*
X135612200Y-128870476I0J267824D01*
G01*
X135612200Y-127879524D01*
G75*
G02*
X135880024Y-127611700I267824J0D01*
G01*
G37*
G36*
G01*
X135880024Y-124636700D02*
X137195976Y-124636700D01*
G75*
G02*
X137463800Y-124904524I0J-267824D01*
G01*
X137463800Y-125895476D01*
G75*
G02*
X137195976Y-126163300I-267824J0D01*
G01*
X135880024Y-126163300D01*
G75*
G02*
X135612200Y-125895476I0J267824D01*
G01*
X135612200Y-124904524D01*
G75*
G02*
X135880024Y-124636700I267824J0D01*
G01*
G37*
G36*
G01*
X155819024Y-107799700D02*
X157134976Y-107799700D01*
G75*
G02*
X157402800Y-108067524I0J-267824D01*
G01*
X157402800Y-109058476D01*
G75*
G02*
X157134976Y-109326300I-267824J0D01*
G01*
X155819024Y-109326300D01*
G75*
G02*
X155551200Y-109058476I0J267824D01*
G01*
X155551200Y-108067524D01*
G75*
G02*
X155819024Y-107799700I267824J0D01*
G01*
G37*
G36*
G01*
X155819024Y-104824700D02*
X157134976Y-104824700D01*
G75*
G02*
X157402800Y-105092524I0J-267824D01*
G01*
X157402800Y-106083476D01*
G75*
G02*
X157134976Y-106351300I-267824J0D01*
G01*
X155819024Y-106351300D01*
G75*
G02*
X155551200Y-106083476I0J267824D01*
G01*
X155551200Y-105092524D01*
G75*
G02*
X155819024Y-104824700I267824J0D01*
G01*
G37*
G36*
G01*
X140497976Y-73658300D02*
X139182024Y-73658300D01*
G75*
G02*
X138914200Y-73390476I0J267824D01*
G01*
X138914200Y-72399524D01*
G75*
G02*
X139182024Y-72131700I267824J0D01*
G01*
X140497976Y-72131700D01*
G75*
G02*
X140765800Y-72399524I0J-267824D01*
G01*
X140765800Y-73390476D01*
G75*
G02*
X140497976Y-73658300I-267824J0D01*
G01*
G37*
G36*
G01*
X140497976Y-76633300D02*
X139182024Y-76633300D01*
G75*
G02*
X138914200Y-76365476I0J267824D01*
G01*
X138914200Y-75374524D01*
G75*
G02*
X139182024Y-75106700I267824J0D01*
G01*
X140497976Y-75106700D01*
G75*
G02*
X140765800Y-75374524I0J-267824D01*
G01*
X140765800Y-76365476D01*
G75*
G02*
X140497976Y-76633300I-267824J0D01*
G01*
G37*
G36*
G01*
X144053976Y-73658300D02*
X142738024Y-73658300D01*
G75*
G02*
X142470200Y-73390476I0J267824D01*
G01*
X142470200Y-72399524D01*
G75*
G02*
X142738024Y-72131700I267824J0D01*
G01*
X144053976Y-72131700D01*
G75*
G02*
X144321800Y-72399524I0J-267824D01*
G01*
X144321800Y-73390476D01*
G75*
G02*
X144053976Y-73658300I-267824J0D01*
G01*
G37*
G36*
G01*
X144053976Y-76633300D02*
X142738024Y-76633300D01*
G75*
G02*
X142470200Y-76365476I0J267824D01*
G01*
X142470200Y-75374524D01*
G75*
G02*
X142738024Y-75106700I267824J0D01*
G01*
X144053976Y-75106700D01*
G75*
G02*
X144321800Y-75374524I0J-267824D01*
G01*
X144321800Y-76365476D01*
G75*
G02*
X144053976Y-76633300I-267824J0D01*
G01*
G37*
G36*
G01*
X136536700Y-93545976D02*
X136536700Y-92230024D01*
G75*
G02*
X136804524Y-91962200I267824J0D01*
G01*
X137795476Y-91962200D01*
G75*
G02*
X138063300Y-92230024I0J-267824D01*
G01*
X138063300Y-93545976D01*
G75*
G02*
X137795476Y-93813800I-267824J0D01*
G01*
X136804524Y-93813800D01*
G75*
G02*
X136536700Y-93545976I0J267824D01*
G01*
G37*
G36*
G01*
X133561700Y-93545976D02*
X133561700Y-92230024D01*
G75*
G02*
X133829524Y-91962200I267824J0D01*
G01*
X134820476Y-91962200D01*
G75*
G02*
X135088300Y-92230024I0J-267824D01*
G01*
X135088300Y-93545976D01*
G75*
G02*
X134820476Y-93813800I-267824J0D01*
G01*
X133829524Y-93813800D01*
G75*
G02*
X133561700Y-93545976I0J267824D01*
G01*
G37*
G36*
G01*
X123190000Y-92306224D02*
X123190000Y-93622176D01*
G75*
G02*
X122922176Y-93890000I-267824J0D01*
G01*
X121931224Y-93890000D01*
G75*
G02*
X121663400Y-93622176I0J267824D01*
G01*
X121663400Y-92306224D01*
G75*
G02*
X121931224Y-92038400I267824J0D01*
G01*
X122922176Y-92038400D01*
G75*
G02*
X123190000Y-92306224I0J-267824D01*
G01*
G37*
G36*
G01*
X126165000Y-92306224D02*
X126165000Y-93622176D01*
G75*
G02*
X125897176Y-93890000I-267824J0D01*
G01*
X124906224Y-93890000D01*
G75*
G02*
X124638400Y-93622176I0J267824D01*
G01*
X124638400Y-92306224D01*
G75*
G02*
X124906224Y-92038400I267824J0D01*
G01*
X125897176Y-92038400D01*
G75*
G02*
X126165000Y-92306224I0J-267824D01*
G01*
G37*
G36*
G01*
X154142024Y-120824200D02*
X155457976Y-120824200D01*
G75*
G02*
X155725800Y-121092024I0J-267824D01*
G01*
X155725800Y-122082976D01*
G75*
G02*
X155457976Y-122350800I-267824J0D01*
G01*
X154142024Y-122350800D01*
G75*
G02*
X153874200Y-122082976I0J267824D01*
G01*
X153874200Y-121092024D01*
G75*
G02*
X154142024Y-120824200I267824J0D01*
G01*
G37*
G36*
G01*
X154142024Y-117849200D02*
X155457976Y-117849200D01*
G75*
G02*
X155725800Y-118117024I0J-267824D01*
G01*
X155725800Y-119107976D01*
G75*
G02*
X155457976Y-119375800I-267824J0D01*
G01*
X154142024Y-119375800D01*
G75*
G02*
X153874200Y-119107976I0J267824D01*
G01*
X153874200Y-118117024D01*
G75*
G02*
X154142024Y-117849200I267824J0D01*
G01*
G37*
G36*
G01*
X128775800Y-109442024D02*
X128775800Y-110757976D01*
G75*
G02*
X128507976Y-111025800I-267824J0D01*
G01*
X127517024Y-111025800D01*
G75*
G02*
X127249200Y-110757976I0J267824D01*
G01*
X127249200Y-109442024D01*
G75*
G02*
X127517024Y-109174200I267824J0D01*
G01*
X128507976Y-109174200D01*
G75*
G02*
X128775800Y-109442024I0J-267824D01*
G01*
G37*
G36*
G01*
X131750800Y-109442024D02*
X131750800Y-110757976D01*
G75*
G02*
X131482976Y-111025800I-267824J0D01*
G01*
X130492024Y-111025800D01*
G75*
G02*
X130224200Y-110757976I0J267824D01*
G01*
X130224200Y-109442024D01*
G75*
G02*
X130492024Y-109174200I267824J0D01*
G01*
X131482976Y-109174200D01*
G75*
G02*
X131750800Y-109442024I0J-267824D01*
G01*
G37*
G36*
G01*
X152390024Y-109704700D02*
X153705976Y-109704700D01*
G75*
G02*
X153973800Y-109972524I0J-267824D01*
G01*
X153973800Y-110963476D01*
G75*
G02*
X153705976Y-111231300I-267824J0D01*
G01*
X152390024Y-111231300D01*
G75*
G02*
X152122200Y-110963476I0J267824D01*
G01*
X152122200Y-109972524D01*
G75*
G02*
X152390024Y-109704700I267824J0D01*
G01*
G37*
G36*
G01*
X152390024Y-106729700D02*
X153705976Y-106729700D01*
G75*
G02*
X153973800Y-106997524I0J-267824D01*
G01*
X153973800Y-107988476D01*
G75*
G02*
X153705976Y-108256300I-267824J0D01*
G01*
X152390024Y-108256300D01*
G75*
G02*
X152122200Y-107988476I0J267824D01*
G01*
X152122200Y-106997524D01*
G75*
G02*
X152390024Y-106729700I267824J0D01*
G01*
G37*
G36*
G01*
X136941976Y-73658300D02*
X135626024Y-73658300D01*
G75*
G02*
X135358200Y-73390476I0J267824D01*
G01*
X135358200Y-72399524D01*
G75*
G02*
X135626024Y-72131700I267824J0D01*
G01*
X136941976Y-72131700D01*
G75*
G02*
X137209800Y-72399524I0J-267824D01*
G01*
X137209800Y-73390476D01*
G75*
G02*
X136941976Y-73658300I-267824J0D01*
G01*
G37*
G36*
G01*
X136941976Y-76633300D02*
X135626024Y-76633300D01*
G75*
G02*
X135358200Y-76365476I0J267824D01*
G01*
X135358200Y-75374524D01*
G75*
G02*
X135626024Y-75106700I267824J0D01*
G01*
X136941976Y-75106700D01*
G75*
G02*
X137209800Y-75374524I0J-267824D01*
G01*
X137209800Y-76365476D01*
G75*
G02*
X136941976Y-76633300I-267824J0D01*
G01*
G37*
G36*
G01*
X136336700Y-107261976D02*
X136336700Y-105946024D01*
G75*
G02*
X136604524Y-105678200I267824J0D01*
G01*
X137595476Y-105678200D01*
G75*
G02*
X137863300Y-105946024I0J-267824D01*
G01*
X137863300Y-107261976D01*
G75*
G02*
X137595476Y-107529800I-267824J0D01*
G01*
X136604524Y-107529800D01*
G75*
G02*
X136336700Y-107261976I0J267824D01*
G01*
G37*
G36*
G01*
X133361700Y-107261976D02*
X133361700Y-105946024D01*
G75*
G02*
X133629524Y-105678200I267824J0D01*
G01*
X134620476Y-105678200D01*
G75*
G02*
X134888300Y-105946024I0J-267824D01*
G01*
X134888300Y-107261976D01*
G75*
G02*
X134620476Y-107529800I-267824J0D01*
G01*
X133629524Y-107529800D01*
G75*
G02*
X133361700Y-107261976I0J267824D01*
G01*
G37*
G36*
G01*
X140042024Y-120824200D02*
X141357976Y-120824200D01*
G75*
G02*
X141625800Y-121092024I0J-267824D01*
G01*
X141625800Y-122082976D01*
G75*
G02*
X141357976Y-122350800I-267824J0D01*
G01*
X140042024Y-122350800D01*
G75*
G02*
X139774200Y-122082976I0J267824D01*
G01*
X139774200Y-121092024D01*
G75*
G02*
X140042024Y-120824200I267824J0D01*
G01*
G37*
G36*
G01*
X140042024Y-117849200D02*
X141357976Y-117849200D01*
G75*
G02*
X141625800Y-118117024I0J-267824D01*
G01*
X141625800Y-119107976D01*
G75*
G02*
X141357976Y-119375800I-267824J0D01*
G01*
X140042024Y-119375800D01*
G75*
G02*
X139774200Y-119107976I0J267824D01*
G01*
X139774200Y-118117024D01*
G75*
G02*
X140042024Y-117849200I267824J0D01*
G01*
G37*
G36*
G01*
X130186700Y-107261976D02*
X130186700Y-105946024D01*
G75*
G02*
X130454524Y-105678200I267824J0D01*
G01*
X131445476Y-105678200D01*
G75*
G02*
X131713300Y-105946024I0J-267824D01*
G01*
X131713300Y-107261976D01*
G75*
G02*
X131445476Y-107529800I-267824J0D01*
G01*
X130454524Y-107529800D01*
G75*
G02*
X130186700Y-107261976I0J267824D01*
G01*
G37*
G36*
G01*
X127211700Y-107261976D02*
X127211700Y-105946024D01*
G75*
G02*
X127479524Y-105678200I267824J0D01*
G01*
X128470476Y-105678200D01*
G75*
G02*
X128738300Y-105946024I0J-267824D01*
G01*
X128738300Y-107261976D01*
G75*
G02*
X128470476Y-107529800I-267824J0D01*
G01*
X127479524Y-107529800D01*
G75*
G02*
X127211700Y-107261976I0J267824D01*
G01*
G37*
G36*
G01*
X140751976Y-126163300D02*
X139436024Y-126163300D01*
G75*
G02*
X139168200Y-125895476I0J267824D01*
G01*
X139168200Y-124904524D01*
G75*
G02*
X139436024Y-124636700I267824J0D01*
G01*
X140751976Y-124636700D01*
G75*
G02*
X141019800Y-124904524I0J-267824D01*
G01*
X141019800Y-125895476D01*
G75*
G02*
X140751976Y-126163300I-267824J0D01*
G01*
G37*
G36*
G01*
X140751976Y-129138300D02*
X139436024Y-129138300D01*
G75*
G02*
X139168200Y-128870476I0J267824D01*
G01*
X139168200Y-127879524D01*
G75*
G02*
X139436024Y-127611700I267824J0D01*
G01*
X140751976Y-127611700D01*
G75*
G02*
X141019800Y-127879524I0J-267824D01*
G01*
X141019800Y-128870476D01*
G75*
G02*
X140751976Y-129138300I-267824J0D01*
G01*
G37*
G36*
G01*
X134834300Y-99088024D02*
X134834300Y-100403976D01*
G75*
G02*
X134566476Y-100671800I-267824J0D01*
G01*
X133575524Y-100671800D01*
G75*
G02*
X133307700Y-100403976I0J267824D01*
G01*
X133307700Y-99088024D01*
G75*
G02*
X133575524Y-98820200I267824J0D01*
G01*
X134566476Y-98820200D01*
G75*
G02*
X134834300Y-99088024I0J-267824D01*
G01*
G37*
G36*
G01*
X137809300Y-99088024D02*
X137809300Y-100403976D01*
G75*
G02*
X137541476Y-100671800I-267824J0D01*
G01*
X136550524Y-100671800D01*
G75*
G02*
X136282700Y-100403976I0J267824D01*
G01*
X136282700Y-99088024D01*
G75*
G02*
X136550524Y-98820200I267824J0D01*
G01*
X137541476Y-98820200D01*
G75*
G02*
X137809300Y-99088024I0J-267824D01*
G01*
G37*
G36*
G01*
X159535000Y-74799800D02*
X158885000Y-74799800D01*
G75*
G02*
X158834200Y-74749000I0J50800D01*
G01*
X158834200Y-73529000D01*
G75*
G02*
X158885000Y-73478200I50800J0D01*
G01*
X159535000Y-73478200D01*
G75*
G02*
X159585800Y-73529000I0J-50800D01*
G01*
X159585800Y-74749000D01*
G75*
G02*
X159535000Y-74799800I-50800J0D01*
G01*
G37*
G36*
G01*
X160485000Y-77419800D02*
X159835000Y-77419800D01*
G75*
G02*
X159784200Y-77369000I0J50800D01*
G01*
X159784200Y-76149000D01*
G75*
G02*
X159835000Y-76098200I50800J0D01*
G01*
X160485000Y-76098200D01*
G75*
G02*
X160535800Y-76149000I0J-50800D01*
G01*
X160535800Y-77369000D01*
G75*
G02*
X160485000Y-77419800I-50800J0D01*
G01*
G37*
G36*
G01*
X158585000Y-77419800D02*
X157935000Y-77419800D01*
G75*
G02*
X157884200Y-77369000I0J50800D01*
G01*
X157884200Y-76149000D01*
G75*
G02*
X157935000Y-76098200I50800J0D01*
G01*
X158585000Y-76098200D01*
G75*
G02*
X158635800Y-76149000I0J-50800D01*
G01*
X158635800Y-77369000D01*
G75*
G02*
X158585000Y-77419800I-50800J0D01*
G01*
G37*
G36*
G01*
X128006024Y-91543700D02*
X129321976Y-91543700D01*
G75*
G02*
X129589800Y-91811524I0J-267824D01*
G01*
X129589800Y-92802476D01*
G75*
G02*
X129321976Y-93070300I-267824J0D01*
G01*
X128006024Y-93070300D01*
G75*
G02*
X127738200Y-92802476I0J267824D01*
G01*
X127738200Y-91811524D01*
G75*
G02*
X128006024Y-91543700I267824J0D01*
G01*
G37*
G36*
G01*
X128006024Y-88568700D02*
X129321976Y-88568700D01*
G75*
G02*
X129589800Y-88836524I0J-267824D01*
G01*
X129589800Y-89827476D01*
G75*
G02*
X129321976Y-90095300I-267824J0D01*
G01*
X128006024Y-90095300D01*
G75*
G02*
X127738200Y-89827476I0J267824D01*
G01*
X127738200Y-88836524D01*
G75*
G02*
X128006024Y-88568700I267824J0D01*
G01*
G37*
G36*
G01*
X164615000Y-74799800D02*
X163965000Y-74799800D01*
G75*
G02*
X163914200Y-74749000I0J50800D01*
G01*
X163914200Y-73529000D01*
G75*
G02*
X163965000Y-73478200I50800J0D01*
G01*
X164615000Y-73478200D01*
G75*
G02*
X164665800Y-73529000I0J-50800D01*
G01*
X164665800Y-74749000D01*
G75*
G02*
X164615000Y-74799800I-50800J0D01*
G01*
G37*
G36*
G01*
X165565000Y-77419800D02*
X164915000Y-77419800D01*
G75*
G02*
X164864200Y-77369000I0J50800D01*
G01*
X164864200Y-76149000D01*
G75*
G02*
X164915000Y-76098200I50800J0D01*
G01*
X165565000Y-76098200D01*
G75*
G02*
X165615800Y-76149000I0J-50800D01*
G01*
X165615800Y-77369000D01*
G75*
G02*
X165565000Y-77419800I-50800J0D01*
G01*
G37*
G36*
G01*
X163665000Y-77419800D02*
X163015000Y-77419800D01*
G75*
G02*
X162964200Y-77369000I0J50800D01*
G01*
X162964200Y-76149000D01*
G75*
G02*
X163015000Y-76098200I50800J0D01*
G01*
X163665000Y-76098200D01*
G75*
G02*
X163715800Y-76149000I0J-50800D01*
G01*
X163715800Y-77369000D01*
G75*
G02*
X163665000Y-77419800I-50800J0D01*
G01*
G37*
G36*
G01*
X136336700Y-103832976D02*
X136336700Y-102517024D01*
G75*
G02*
X136604524Y-102249200I267824J0D01*
G01*
X137595476Y-102249200D01*
G75*
G02*
X137863300Y-102517024I0J-267824D01*
G01*
X137863300Y-103832976D01*
G75*
G02*
X137595476Y-104100800I-267824J0D01*
G01*
X136604524Y-104100800D01*
G75*
G02*
X136336700Y-103832976I0J267824D01*
G01*
G37*
G36*
G01*
X133361700Y-103832976D02*
X133361700Y-102517024D01*
G75*
G02*
X133629524Y-102249200I267824J0D01*
G01*
X134620476Y-102249200D01*
G75*
G02*
X134888300Y-102517024I0J-267824D01*
G01*
X134888300Y-103832976D01*
G75*
G02*
X134620476Y-104100800I-267824J0D01*
G01*
X133629524Y-104100800D01*
G75*
G02*
X133361700Y-103832976I0J267824D01*
G01*
G37*
G36*
G01*
X136542024Y-120824200D02*
X137857976Y-120824200D01*
G75*
G02*
X138125800Y-121092024I0J-267824D01*
G01*
X138125800Y-122082976D01*
G75*
G02*
X137857976Y-122350800I-267824J0D01*
G01*
X136542024Y-122350800D01*
G75*
G02*
X136274200Y-122082976I0J267824D01*
G01*
X136274200Y-121092024D01*
G75*
G02*
X136542024Y-120824200I267824J0D01*
G01*
G37*
G36*
G01*
X136542024Y-117849200D02*
X137857976Y-117849200D01*
G75*
G02*
X138125800Y-118117024I0J-267824D01*
G01*
X138125800Y-119107976D01*
G75*
G02*
X137857976Y-119375800I-267824J0D01*
G01*
X136542024Y-119375800D01*
G75*
G02*
X136274200Y-119107976I0J267824D01*
G01*
X136274200Y-118117024D01*
G75*
G02*
X136542024Y-117849200I267824J0D01*
G01*
G37*
G36*
G01*
X130186700Y-96847976D02*
X130186700Y-95532024D01*
G75*
G02*
X130454524Y-95264200I267824J0D01*
G01*
X131445476Y-95264200D01*
G75*
G02*
X131713300Y-95532024I0J-267824D01*
G01*
X131713300Y-96847976D01*
G75*
G02*
X131445476Y-97115800I-267824J0D01*
G01*
X130454524Y-97115800D01*
G75*
G02*
X130186700Y-96847976I0J267824D01*
G01*
G37*
G36*
G01*
X127211700Y-96847976D02*
X127211700Y-95532024D01*
G75*
G02*
X127479524Y-95264200I267824J0D01*
G01*
X128470476Y-95264200D01*
G75*
G02*
X128738300Y-95532024I0J-267824D01*
G01*
X128738300Y-96847976D01*
G75*
G02*
X128470476Y-97115800I-267824J0D01*
G01*
X127479524Y-97115800D01*
G75*
G02*
X127211700Y-96847976I0J267824D01*
G01*
G37*
G36*
G01*
X130186700Y-100403976D02*
X130186700Y-99088024D01*
G75*
G02*
X130454524Y-98820200I267824J0D01*
G01*
X131445476Y-98820200D01*
G75*
G02*
X131713300Y-99088024I0J-267824D01*
G01*
X131713300Y-100403976D01*
G75*
G02*
X131445476Y-100671800I-267824J0D01*
G01*
X130454524Y-100671800D01*
G75*
G02*
X130186700Y-100403976I0J267824D01*
G01*
G37*
G36*
G01*
X127211700Y-100403976D02*
X127211700Y-99088024D01*
G75*
G02*
X127479524Y-98820200I267824J0D01*
G01*
X128470476Y-98820200D01*
G75*
G02*
X128738300Y-99088024I0J-267824D01*
G01*
X128738300Y-100403976D01*
G75*
G02*
X128470476Y-100671800I-267824J0D01*
G01*
X127479524Y-100671800D01*
G75*
G02*
X127211700Y-100403976I0J267824D01*
G01*
G37*
G36*
G01*
X173620700Y-85163976D02*
X173620700Y-83848024D01*
G75*
G02*
X173888524Y-83580200I267824J0D01*
G01*
X174879476Y-83580200D01*
G75*
G02*
X175147300Y-83848024I0J-267824D01*
G01*
X175147300Y-85163976D01*
G75*
G02*
X174879476Y-85431800I-267824J0D01*
G01*
X173888524Y-85431800D01*
G75*
G02*
X173620700Y-85163976I0J267824D01*
G01*
G37*
G36*
G01*
X170645700Y-85163976D02*
X170645700Y-83848024D01*
G75*
G02*
X170913524Y-83580200I267824J0D01*
G01*
X171904476Y-83580200D01*
G75*
G02*
X172172300Y-83848024I0J-267824D01*
G01*
X172172300Y-85163976D01*
G75*
G02*
X171904476Y-85431800I-267824J0D01*
G01*
X170913524Y-85431800D01*
G75*
G02*
X170645700Y-85163976I0J267824D01*
G01*
G37*
G36*
G01*
X134924800Y-109502024D02*
X134924800Y-110817976D01*
G75*
G02*
X134656976Y-111085800I-267824J0D01*
G01*
X133666024Y-111085800D01*
G75*
G02*
X133398200Y-110817976I0J267824D01*
G01*
X133398200Y-109502024D01*
G75*
G02*
X133666024Y-109234200I267824J0D01*
G01*
X134656976Y-109234200D01*
G75*
G02*
X134924800Y-109502024I0J-267824D01*
G01*
G37*
G36*
G01*
X137899800Y-109502024D02*
X137899800Y-110817976D01*
G75*
G02*
X137631976Y-111085800I-267824J0D01*
G01*
X136641024Y-111085800D01*
G75*
G02*
X136373200Y-110817976I0J267824D01*
G01*
X136373200Y-109502024D01*
G75*
G02*
X136641024Y-109234200I267824J0D01*
G01*
X137631976Y-109234200D01*
G75*
G02*
X137899800Y-109502024I0J-267824D01*
G01*
G37*
D13*
X148668400Y-73101400D03*
G36*
G01*
X152069200Y-72315541D02*
X152069200Y-73887259D01*
G75*
G02*
X151804259Y-74152200I-264941J0D01*
G01*
X150532541Y-74152200D01*
G75*
G02*
X150267600Y-73887259I0J264941D01*
G01*
X150267600Y-72315541D01*
G75*
G02*
X150532541Y-72050600I264941J0D01*
G01*
X151804259Y-72050600D01*
G75*
G02*
X152069200Y-72315541I0J-264941D01*
G01*
G37*
D10*
X155334000Y-127686000D03*
X155334000Y-130226000D03*
X152794000Y-127686000D03*
X152794000Y-130226000D03*
X150254000Y-127686000D03*
X150254000Y-130226000D03*
X147714000Y-127686000D03*
X147714000Y-130226000D03*
X145174000Y-127686000D03*
G36*
G01*
X146024000Y-131126800D02*
X144324000Y-131126800D01*
G75*
G02*
X144273200Y-131076000I0J50800D01*
G01*
X144273200Y-129376000D01*
G75*
G02*
X144324000Y-129325200I50800J0D01*
G01*
X146024000Y-129325200D01*
G75*
G02*
X146074800Y-129376000I0J-50800D01*
G01*
X146074800Y-131076000D01*
G75*
G02*
X146024000Y-131126800I-50800J0D01*
G01*
G37*
D14*
X178550000Y-100000000D03*
G36*
G01*
X178970000Y-97894200D02*
X181170000Y-97894200D01*
G75*
G02*
X181220800Y-97945000I0J-50800D01*
G01*
X181220800Y-98995000D01*
G75*
G02*
X181170000Y-99045800I-50800J0D01*
G01*
X178970000Y-99045800D01*
G75*
G02*
X178919200Y-98995000I0J50800D01*
G01*
X178919200Y-97945000D01*
G75*
G02*
X178970000Y-97894200I50800J0D01*
G01*
G37*
G36*
G01*
X178970000Y-100954200D02*
X181170000Y-100954200D01*
G75*
G02*
X181220800Y-101005000I0J-50800D01*
G01*
X181220800Y-102055000D01*
G75*
G02*
X181170000Y-102105800I-50800J0D01*
G01*
X178970000Y-102105800D01*
G75*
G02*
X178919200Y-102055000I0J50800D01*
G01*
X178919200Y-101005000D01*
G75*
G02*
X178970000Y-100954200I50800J0D01*
G01*
G37*
G36*
G01*
X178968000Y-99187200D02*
X183032000Y-99187200D01*
G75*
G02*
X183082800Y-99238000I0J-50800D01*
G01*
X183082800Y-100762000D01*
G75*
G02*
X183032000Y-100812800I-50800J0D01*
G01*
X178968000Y-100812800D01*
G75*
G02*
X178917200Y-100762000I0J50800D01*
G01*
X178917200Y-99238000D01*
G75*
G02*
X178968000Y-99187200I50800J0D01*
G01*
G37*
G36*
G01*
X178968000Y-96647200D02*
X183032000Y-96647200D01*
G75*
G02*
X183082800Y-96698000I0J-50800D01*
G01*
X183082800Y-98222000D01*
G75*
G02*
X183032000Y-98272800I-50800J0D01*
G01*
X178968000Y-98272800D01*
G75*
G02*
X178917200Y-98222000I0J50800D01*
G01*
X178917200Y-96698000D01*
G75*
G02*
X178968000Y-96647200I50800J0D01*
G01*
G37*
G36*
G01*
X178968000Y-101727200D02*
X183032000Y-101727200D01*
G75*
G02*
X183082800Y-101778000I0J-50800D01*
G01*
X183082800Y-103302000D01*
G75*
G02*
X183032000Y-103352800I-50800J0D01*
G01*
X178968000Y-103352800D01*
G75*
G02*
X178917200Y-103302000I0J50800D01*
G01*
X178917200Y-101778000D01*
G75*
G02*
X178968000Y-101727200I50800J0D01*
G01*
G37*
G36*
G01*
X146600800Y-102525000D02*
X146600800Y-103075000D01*
G75*
G02*
X146550000Y-103125800I-50800J0D01*
G01*
X144950000Y-103125800D01*
G75*
G02*
X144899200Y-103075000I0J50800D01*
G01*
X144899200Y-102525000D01*
G75*
G02*
X144950000Y-102474200I50800J0D01*
G01*
X146550000Y-102474200D01*
G75*
G02*
X146600800Y-102525000I0J-50800D01*
G01*
G37*
G36*
G01*
X146600800Y-101725000D02*
X146600800Y-102275000D01*
G75*
G02*
X146550000Y-102325800I-50800J0D01*
G01*
X144950000Y-102325800D01*
G75*
G02*
X144899200Y-102275000I0J50800D01*
G01*
X144899200Y-101725000D01*
G75*
G02*
X144950000Y-101674200I50800J0D01*
G01*
X146550000Y-101674200D01*
G75*
G02*
X146600800Y-101725000I0J-50800D01*
G01*
G37*
G36*
G01*
X146600800Y-100925000D02*
X146600800Y-101475000D01*
G75*
G02*
X146550000Y-101525800I-50800J0D01*
G01*
X144950000Y-101525800D01*
G75*
G02*
X144899200Y-101475000I0J50800D01*
G01*
X144899200Y-100925000D01*
G75*
G02*
X144950000Y-100874200I50800J0D01*
G01*
X146550000Y-100874200D01*
G75*
G02*
X146600800Y-100925000I0J-50800D01*
G01*
G37*
G36*
G01*
X146600800Y-100125000D02*
X146600800Y-100675000D01*
G75*
G02*
X146550000Y-100725800I-50800J0D01*
G01*
X144950000Y-100725800D01*
G75*
G02*
X144899200Y-100675000I0J50800D01*
G01*
X144899200Y-100125000D01*
G75*
G02*
X144950000Y-100074200I50800J0D01*
G01*
X146550000Y-100074200D01*
G75*
G02*
X146600800Y-100125000I0J-50800D01*
G01*
G37*
G36*
G01*
X146600800Y-99325000D02*
X146600800Y-99875000D01*
G75*
G02*
X146550000Y-99925800I-50800J0D01*
G01*
X144950000Y-99925800D01*
G75*
G02*
X144899200Y-99875000I0J50800D01*
G01*
X144899200Y-99325000D01*
G75*
G02*
X144950000Y-99274200I50800J0D01*
G01*
X146550000Y-99274200D01*
G75*
G02*
X146600800Y-99325000I0J-50800D01*
G01*
G37*
G36*
G01*
X146600800Y-98525000D02*
X146600800Y-99075000D01*
G75*
G02*
X146550000Y-99125800I-50800J0D01*
G01*
X144950000Y-99125800D01*
G75*
G02*
X144899200Y-99075000I0J50800D01*
G01*
X144899200Y-98525000D01*
G75*
G02*
X144950000Y-98474200I50800J0D01*
G01*
X146550000Y-98474200D01*
G75*
G02*
X146600800Y-98525000I0J-50800D01*
G01*
G37*
G36*
G01*
X146600800Y-97725000D02*
X146600800Y-98275000D01*
G75*
G02*
X146550000Y-98325800I-50800J0D01*
G01*
X144950000Y-98325800D01*
G75*
G02*
X144899200Y-98275000I0J50800D01*
G01*
X144899200Y-97725000D01*
G75*
G02*
X144950000Y-97674200I50800J0D01*
G01*
X146550000Y-97674200D01*
G75*
G02*
X146600800Y-97725000I0J-50800D01*
G01*
G37*
G36*
G01*
X146600800Y-96925000D02*
X146600800Y-97475000D01*
G75*
G02*
X146550000Y-97525800I-50800J0D01*
G01*
X144950000Y-97525800D01*
G75*
G02*
X144899200Y-97475000I0J50800D01*
G01*
X144899200Y-96925000D01*
G75*
G02*
X144950000Y-96874200I50800J0D01*
G01*
X146550000Y-96874200D01*
G75*
G02*
X146600800Y-96925000I0J-50800D01*
G01*
G37*
G36*
G01*
X147475000Y-96600800D02*
X146925000Y-96600800D01*
G75*
G02*
X146874200Y-96550000I0J50800D01*
G01*
X146874200Y-94950000D01*
G75*
G02*
X146925000Y-94899200I50800J0D01*
G01*
X147475000Y-94899200D01*
G75*
G02*
X147525800Y-94950000I0J-50800D01*
G01*
X147525800Y-96550000D01*
G75*
G02*
X147475000Y-96600800I-50800J0D01*
G01*
G37*
G36*
G01*
X148275000Y-96600800D02*
X147725000Y-96600800D01*
G75*
G02*
X147674200Y-96550000I0J50800D01*
G01*
X147674200Y-94950000D01*
G75*
G02*
X147725000Y-94899200I50800J0D01*
G01*
X148275000Y-94899200D01*
G75*
G02*
X148325800Y-94950000I0J-50800D01*
G01*
X148325800Y-96550000D01*
G75*
G02*
X148275000Y-96600800I-50800J0D01*
G01*
G37*
G36*
G01*
X149075000Y-96600800D02*
X148525000Y-96600800D01*
G75*
G02*
X148474200Y-96550000I0J50800D01*
G01*
X148474200Y-94950000D01*
G75*
G02*
X148525000Y-94899200I50800J0D01*
G01*
X149075000Y-94899200D01*
G75*
G02*
X149125800Y-94950000I0J-50800D01*
G01*
X149125800Y-96550000D01*
G75*
G02*
X149075000Y-96600800I-50800J0D01*
G01*
G37*
G36*
G01*
X149875000Y-96600800D02*
X149325000Y-96600800D01*
G75*
G02*
X149274200Y-96550000I0J50800D01*
G01*
X149274200Y-94950000D01*
G75*
G02*
X149325000Y-94899200I50800J0D01*
G01*
X149875000Y-94899200D01*
G75*
G02*
X149925800Y-94950000I0J-50800D01*
G01*
X149925800Y-96550000D01*
G75*
G02*
X149875000Y-96600800I-50800J0D01*
G01*
G37*
G36*
G01*
X150675000Y-96600800D02*
X150125000Y-96600800D01*
G75*
G02*
X150074200Y-96550000I0J50800D01*
G01*
X150074200Y-94950000D01*
G75*
G02*
X150125000Y-94899200I50800J0D01*
G01*
X150675000Y-94899200D01*
G75*
G02*
X150725800Y-94950000I0J-50800D01*
G01*
X150725800Y-96550000D01*
G75*
G02*
X150675000Y-96600800I-50800J0D01*
G01*
G37*
G36*
G01*
X151475000Y-96600800D02*
X150925000Y-96600800D01*
G75*
G02*
X150874200Y-96550000I0J50800D01*
G01*
X150874200Y-94950000D01*
G75*
G02*
X150925000Y-94899200I50800J0D01*
G01*
X151475000Y-94899200D01*
G75*
G02*
X151525800Y-94950000I0J-50800D01*
G01*
X151525800Y-96550000D01*
G75*
G02*
X151475000Y-96600800I-50800J0D01*
G01*
G37*
G36*
G01*
X152275000Y-96600800D02*
X151725000Y-96600800D01*
G75*
G02*
X151674200Y-96550000I0J50800D01*
G01*
X151674200Y-94950000D01*
G75*
G02*
X151725000Y-94899200I50800J0D01*
G01*
X152275000Y-94899200D01*
G75*
G02*
X152325800Y-94950000I0J-50800D01*
G01*
X152325800Y-96550000D01*
G75*
G02*
X152275000Y-96600800I-50800J0D01*
G01*
G37*
G36*
G01*
X153075000Y-96600800D02*
X152525000Y-96600800D01*
G75*
G02*
X152474200Y-96550000I0J50800D01*
G01*
X152474200Y-94950000D01*
G75*
G02*
X152525000Y-94899200I50800J0D01*
G01*
X153075000Y-94899200D01*
G75*
G02*
X153125800Y-94950000I0J-50800D01*
G01*
X153125800Y-96550000D01*
G75*
G02*
X153075000Y-96600800I-50800J0D01*
G01*
G37*
G36*
G01*
X155100800Y-96925000D02*
X155100800Y-97475000D01*
G75*
G02*
X155050000Y-97525800I-50800J0D01*
G01*
X153450000Y-97525800D01*
G75*
G02*
X153399200Y-97475000I0J50800D01*
G01*
X153399200Y-96925000D01*
G75*
G02*
X153450000Y-96874200I50800J0D01*
G01*
X155050000Y-96874200D01*
G75*
G02*
X155100800Y-96925000I0J-50800D01*
G01*
G37*
G36*
G01*
X155100800Y-97725000D02*
X155100800Y-98275000D01*
G75*
G02*
X155050000Y-98325800I-50800J0D01*
G01*
X153450000Y-98325800D01*
G75*
G02*
X153399200Y-98275000I0J50800D01*
G01*
X153399200Y-97725000D01*
G75*
G02*
X153450000Y-97674200I50800J0D01*
G01*
X155050000Y-97674200D01*
G75*
G02*
X155100800Y-97725000I0J-50800D01*
G01*
G37*
G36*
G01*
X155100800Y-98525000D02*
X155100800Y-99075000D01*
G75*
G02*
X155050000Y-99125800I-50800J0D01*
G01*
X153450000Y-99125800D01*
G75*
G02*
X153399200Y-99075000I0J50800D01*
G01*
X153399200Y-98525000D01*
G75*
G02*
X153450000Y-98474200I50800J0D01*
G01*
X155050000Y-98474200D01*
G75*
G02*
X155100800Y-98525000I0J-50800D01*
G01*
G37*
G36*
G01*
X155100800Y-99325000D02*
X155100800Y-99875000D01*
G75*
G02*
X155050000Y-99925800I-50800J0D01*
G01*
X153450000Y-99925800D01*
G75*
G02*
X153399200Y-99875000I0J50800D01*
G01*
X153399200Y-99325000D01*
G75*
G02*
X153450000Y-99274200I50800J0D01*
G01*
X155050000Y-99274200D01*
G75*
G02*
X155100800Y-99325000I0J-50800D01*
G01*
G37*
G36*
G01*
X155100800Y-100125000D02*
X155100800Y-100675000D01*
G75*
G02*
X155050000Y-100725800I-50800J0D01*
G01*
X153450000Y-100725800D01*
G75*
G02*
X153399200Y-100675000I0J50800D01*
G01*
X153399200Y-100125000D01*
G75*
G02*
X153450000Y-100074200I50800J0D01*
G01*
X155050000Y-100074200D01*
G75*
G02*
X155100800Y-100125000I0J-50800D01*
G01*
G37*
G36*
G01*
X155100800Y-100925000D02*
X155100800Y-101475000D01*
G75*
G02*
X155050000Y-101525800I-50800J0D01*
G01*
X153450000Y-101525800D01*
G75*
G02*
X153399200Y-101475000I0J50800D01*
G01*
X153399200Y-100925000D01*
G75*
G02*
X153450000Y-100874200I50800J0D01*
G01*
X155050000Y-100874200D01*
G75*
G02*
X155100800Y-100925000I0J-50800D01*
G01*
G37*
G36*
G01*
X155100800Y-101725000D02*
X155100800Y-102275000D01*
G75*
G02*
X155050000Y-102325800I-50800J0D01*
G01*
X153450000Y-102325800D01*
G75*
G02*
X153399200Y-102275000I0J50800D01*
G01*
X153399200Y-101725000D01*
G75*
G02*
X153450000Y-101674200I50800J0D01*
G01*
X155050000Y-101674200D01*
G75*
G02*
X155100800Y-101725000I0J-50800D01*
G01*
G37*
G36*
G01*
X155100800Y-102525000D02*
X155100800Y-103075000D01*
G75*
G02*
X155050000Y-103125800I-50800J0D01*
G01*
X153450000Y-103125800D01*
G75*
G02*
X153399200Y-103075000I0J50800D01*
G01*
X153399200Y-102525000D01*
G75*
G02*
X153450000Y-102474200I50800J0D01*
G01*
X155050000Y-102474200D01*
G75*
G02*
X155100800Y-102525000I0J-50800D01*
G01*
G37*
G36*
G01*
X153075000Y-105100800D02*
X152525000Y-105100800D01*
G75*
G02*
X152474200Y-105050000I0J50800D01*
G01*
X152474200Y-103450000D01*
G75*
G02*
X152525000Y-103399200I50800J0D01*
G01*
X153075000Y-103399200D01*
G75*
G02*
X153125800Y-103450000I0J-50800D01*
G01*
X153125800Y-105050000D01*
G75*
G02*
X153075000Y-105100800I-50800J0D01*
G01*
G37*
G36*
G01*
X152275000Y-105100800D02*
X151725000Y-105100800D01*
G75*
G02*
X151674200Y-105050000I0J50800D01*
G01*
X151674200Y-103450000D01*
G75*
G02*
X151725000Y-103399200I50800J0D01*
G01*
X152275000Y-103399200D01*
G75*
G02*
X152325800Y-103450000I0J-50800D01*
G01*
X152325800Y-105050000D01*
G75*
G02*
X152275000Y-105100800I-50800J0D01*
G01*
G37*
G36*
G01*
X151475000Y-105100800D02*
X150925000Y-105100800D01*
G75*
G02*
X150874200Y-105050000I0J50800D01*
G01*
X150874200Y-103450000D01*
G75*
G02*
X150925000Y-103399200I50800J0D01*
G01*
X151475000Y-103399200D01*
G75*
G02*
X151525800Y-103450000I0J-50800D01*
G01*
X151525800Y-105050000D01*
G75*
G02*
X151475000Y-105100800I-50800J0D01*
G01*
G37*
G36*
G01*
X150675000Y-105100800D02*
X150125000Y-105100800D01*
G75*
G02*
X150074200Y-105050000I0J50800D01*
G01*
X150074200Y-103450000D01*
G75*
G02*
X150125000Y-103399200I50800J0D01*
G01*
X150675000Y-103399200D01*
G75*
G02*
X150725800Y-103450000I0J-50800D01*
G01*
X150725800Y-105050000D01*
G75*
G02*
X150675000Y-105100800I-50800J0D01*
G01*
G37*
G36*
G01*
X149875000Y-105100800D02*
X149325000Y-105100800D01*
G75*
G02*
X149274200Y-105050000I0J50800D01*
G01*
X149274200Y-103450000D01*
G75*
G02*
X149325000Y-103399200I50800J0D01*
G01*
X149875000Y-103399200D01*
G75*
G02*
X149925800Y-103450000I0J-50800D01*
G01*
X149925800Y-105050000D01*
G75*
G02*
X149875000Y-105100800I-50800J0D01*
G01*
G37*
G36*
G01*
X149075000Y-105100800D02*
X148525000Y-105100800D01*
G75*
G02*
X148474200Y-105050000I0J50800D01*
G01*
X148474200Y-103450000D01*
G75*
G02*
X148525000Y-103399200I50800J0D01*
G01*
X149075000Y-103399200D01*
G75*
G02*
X149125800Y-103450000I0J-50800D01*
G01*
X149125800Y-105050000D01*
G75*
G02*
X149075000Y-105100800I-50800J0D01*
G01*
G37*
G36*
G01*
X148275000Y-105100800D02*
X147725000Y-105100800D01*
G75*
G02*
X147674200Y-105050000I0J50800D01*
G01*
X147674200Y-103450000D01*
G75*
G02*
X147725000Y-103399200I50800J0D01*
G01*
X148275000Y-103399200D01*
G75*
G02*
X148325800Y-103450000I0J-50800D01*
G01*
X148325800Y-105050000D01*
G75*
G02*
X148275000Y-105100800I-50800J0D01*
G01*
G37*
G36*
G01*
X147475000Y-105100800D02*
X146925000Y-105100800D01*
G75*
G02*
X146874200Y-105050000I0J50800D01*
G01*
X146874200Y-103450000D01*
G75*
G02*
X146925000Y-103399200I50800J0D01*
G01*
X147475000Y-103399200D01*
G75*
G02*
X147525800Y-103450000I0J-50800D01*
G01*
X147525800Y-105050000D01*
G75*
G02*
X147475000Y-105100800I-50800J0D01*
G01*
G37*
G36*
G01*
X116812500Y-96449200D02*
X118712500Y-96449200D01*
G75*
G02*
X118763300Y-96500000I0J-50800D01*
G01*
X118763300Y-97700000D01*
G75*
G02*
X118712500Y-97750800I-50800J0D01*
G01*
X116812500Y-97750800D01*
G75*
G02*
X116761700Y-97700000I0J50800D01*
G01*
X116761700Y-96500000D01*
G75*
G02*
X116812500Y-96449200I50800J0D01*
G01*
G37*
G36*
G01*
X116812500Y-102249200D02*
X118712500Y-102249200D01*
G75*
G02*
X118763300Y-102300000I0J-50800D01*
G01*
X118763300Y-103500000D01*
G75*
G02*
X118712500Y-103550800I-50800J0D01*
G01*
X116812500Y-103550800D01*
G75*
G02*
X116761700Y-103500000I0J50800D01*
G01*
X116761700Y-102300000D01*
G75*
G02*
X116812500Y-102249200I50800J0D01*
G01*
G37*
D15*
X117762500Y-103500000D03*
X117762500Y-96500000D03*
G36*
G01*
X116812500Y-98199200D02*
X118712500Y-98199200D01*
G75*
G02*
X118763300Y-98250000I0J-50800D01*
G01*
X118763300Y-99750000D01*
G75*
G02*
X118712500Y-99800800I-50800J0D01*
G01*
X116812500Y-99800800D01*
G75*
G02*
X116761700Y-99750000I0J50800D01*
G01*
X116761700Y-98250000D01*
G75*
G02*
X116812500Y-98199200I50800J0D01*
G01*
G37*
D16*
X120462500Y-102500000D03*
G36*
G01*
X119787500Y-99749200D02*
X121137500Y-99749200D01*
G75*
G02*
X121188300Y-99800000I0J-50800D01*
G01*
X121188300Y-100200000D01*
G75*
G02*
X121137500Y-100250800I-50800J0D01*
G01*
X119787500Y-100250800D01*
G75*
G02*
X119736700Y-100200000I0J50800D01*
G01*
X119736700Y-99800000D01*
G75*
G02*
X119787500Y-99749200I50800J0D01*
G01*
G37*
G36*
G01*
X119787500Y-100399200D02*
X121137500Y-100399200D01*
G75*
G02*
X121188300Y-100450000I0J-50800D01*
G01*
X121188300Y-100850000D01*
G75*
G02*
X121137500Y-100900800I-50800J0D01*
G01*
X119787500Y-100900800D01*
G75*
G02*
X119736700Y-100850000I0J50800D01*
G01*
X119736700Y-100450000D01*
G75*
G02*
X119787500Y-100399200I50800J0D01*
G01*
G37*
G36*
G01*
X119787500Y-101049200D02*
X121137500Y-101049200D01*
G75*
G02*
X121188300Y-101100000I0J-50800D01*
G01*
X121188300Y-101500000D01*
G75*
G02*
X121137500Y-101550800I-50800J0D01*
G01*
X119787500Y-101550800D01*
G75*
G02*
X119736700Y-101500000I0J50800D01*
G01*
X119736700Y-101100000D01*
G75*
G02*
X119787500Y-101049200I50800J0D01*
G01*
G37*
G36*
G01*
X119787500Y-98449200D02*
X121137500Y-98449200D01*
G75*
G02*
X121188300Y-98500000I0J-50800D01*
G01*
X121188300Y-98900000D01*
G75*
G02*
X121137500Y-98950800I-50800J0D01*
G01*
X119787500Y-98950800D01*
G75*
G02*
X119736700Y-98900000I0J50800D01*
G01*
X119736700Y-98500000D01*
G75*
G02*
X119787500Y-98449200I50800J0D01*
G01*
G37*
G36*
G01*
X119787500Y-99099200D02*
X121137500Y-99099200D01*
G75*
G02*
X121188300Y-99150000I0J-50800D01*
G01*
X121188300Y-99550000D01*
G75*
G02*
X121137500Y-99600800I-50800J0D01*
G01*
X119787500Y-99600800D01*
G75*
G02*
X119736700Y-99550000I0J50800D01*
G01*
X119736700Y-99150000D01*
G75*
G02*
X119787500Y-99099200I50800J0D01*
G01*
G37*
X120462500Y-97500000D03*
G36*
G01*
X116812500Y-100199200D02*
X118712500Y-100199200D01*
G75*
G02*
X118763300Y-100250000I0J-50800D01*
G01*
X118763300Y-101750000D01*
G75*
G02*
X118712500Y-101800800I-50800J0D01*
G01*
X116812500Y-101800800D01*
G75*
G02*
X116761700Y-101750000I0J50800D01*
G01*
X116761700Y-100250000D01*
G75*
G02*
X116812500Y-100199200I50800J0D01*
G01*
G37*
G36*
G01*
X155750200Y-112341976D02*
X155750200Y-111026024D01*
G75*
G02*
X156018024Y-110758200I267824J0D01*
G01*
X157008976Y-110758200D01*
G75*
G02*
X157276800Y-111026024I0J-267824D01*
G01*
X157276800Y-112341976D01*
G75*
G02*
X157008976Y-112609800I-267824J0D01*
G01*
X156018024Y-112609800D01*
G75*
G02*
X155750200Y-112341976I0J267824D01*
G01*
G37*
G36*
G01*
X158725200Y-112341976D02*
X158725200Y-111026024D01*
G75*
G02*
X158993024Y-110758200I267824J0D01*
G01*
X159983976Y-110758200D01*
G75*
G02*
X160251800Y-111026024I0J-267824D01*
G01*
X160251800Y-112341976D01*
G75*
G02*
X159983976Y-112609800I-267824J0D01*
G01*
X158993024Y-112609800D01*
G75*
G02*
X158725200Y-112341976I0J267824D01*
G01*
G37*
G36*
G01*
X132816000Y-115861400D02*
X131116000Y-115861400D01*
G75*
G02*
X131065200Y-115810600I0J50800D01*
G01*
X131065200Y-114110600D01*
G75*
G02*
X131116000Y-114059800I50800J0D01*
G01*
X132816000Y-114059800D01*
G75*
G02*
X132866800Y-114110600I0J-50800D01*
G01*
X132866800Y-115810600D01*
G75*
G02*
X132816000Y-115861400I-50800J0D01*
G01*
G37*
D10*
X134506000Y-114960600D03*
X137046000Y-114960600D03*
X139586000Y-114960600D03*
X142126000Y-114960600D03*
X144666000Y-114960600D03*
X147206000Y-114960600D03*
X149746000Y-114960600D03*
G36*
G01*
X134910800Y-95532024D02*
X134910800Y-96847976D01*
G75*
G02*
X134642976Y-97115800I-267824J0D01*
G01*
X133652024Y-97115800D01*
G75*
G02*
X133384200Y-96847976I0J267824D01*
G01*
X133384200Y-95532024D01*
G75*
G02*
X133652024Y-95264200I267824J0D01*
G01*
X134642976Y-95264200D01*
G75*
G02*
X134910800Y-95532024I0J-267824D01*
G01*
G37*
G36*
G01*
X137885800Y-95532024D02*
X137885800Y-96847976D01*
G75*
G02*
X137617976Y-97115800I-267824J0D01*
G01*
X136627024Y-97115800D01*
G75*
G02*
X136359200Y-96847976I0J267824D01*
G01*
X136359200Y-95532024D01*
G75*
G02*
X136627024Y-95264200I267824J0D01*
G01*
X137617976Y-95264200D01*
G75*
G02*
X137885800Y-95532024I0J-267824D01*
G01*
G37*
G36*
G01*
X119718800Y-105608200D02*
X121018800Y-105608200D01*
G75*
G02*
X121069600Y-105659000I0J-50800D01*
G01*
X121069600Y-107209000D01*
G75*
G02*
X121018800Y-107259800I-50800J0D01*
G01*
X119718800Y-107259800D01*
G75*
G02*
X119668000Y-107209000I0J50800D01*
G01*
X119668000Y-105659000D01*
G75*
G02*
X119718800Y-105608200I50800J0D01*
G01*
G37*
G36*
G01*
X124218800Y-105608200D02*
X125518800Y-105608200D01*
G75*
G02*
X125569600Y-105659000I0J-50800D01*
G01*
X125569600Y-107209000D01*
G75*
G02*
X125518800Y-107259800I-50800J0D01*
G01*
X124218800Y-107259800D01*
G75*
G02*
X124168000Y-107209000I0J50800D01*
G01*
X124168000Y-105659000D01*
G75*
G02*
X124218800Y-105608200I50800J0D01*
G01*
G37*
G36*
G01*
X124218800Y-113568200D02*
X125518800Y-113568200D01*
G75*
G02*
X125569600Y-113619000I0J-50800D01*
G01*
X125569600Y-115169000D01*
G75*
G02*
X125518800Y-115219800I-50800J0D01*
G01*
X124218800Y-115219800D01*
G75*
G02*
X124168000Y-115169000I0J50800D01*
G01*
X124168000Y-113619000D01*
G75*
G02*
X124218800Y-113568200I50800J0D01*
G01*
G37*
G36*
G01*
X119718800Y-113568200D02*
X121018800Y-113568200D01*
G75*
G02*
X121069600Y-113619000I0J-50800D01*
G01*
X121069600Y-115169000D01*
G75*
G02*
X121018800Y-115219800I-50800J0D01*
G01*
X119718800Y-115219800D01*
G75*
G02*
X119668000Y-115169000I0J50800D01*
G01*
X119668000Y-113619000D01*
G75*
G02*
X119718800Y-113568200I50800J0D01*
G01*
G37*
G36*
G01*
X155676000Y-115886800D02*
X153976000Y-115886800D01*
G75*
G02*
X153925200Y-115836000I0J50800D01*
G01*
X153925200Y-114136000D01*
G75*
G02*
X153976000Y-114085200I50800J0D01*
G01*
X155676000Y-114085200D01*
G75*
G02*
X155726800Y-114136000I0J-50800D01*
G01*
X155726800Y-115836000D01*
G75*
G02*
X155676000Y-115886800I-50800J0D01*
G01*
G37*
X157366000Y-114986000D03*
X159906000Y-114986000D03*
X162446000Y-114986000D03*
X164986000Y-114986000D03*
X167526000Y-114986000D03*
G36*
G01*
X177376200Y-89381841D02*
X177376200Y-87250159D01*
G75*
G02*
X177636159Y-86990200I259959J0D01*
G01*
X179767841Y-86990200D01*
G75*
G02*
X180027800Y-87250159I0J-259959D01*
G01*
X180027800Y-89381841D01*
G75*
G02*
X179767841Y-89641800I-259959J0D01*
G01*
X177636159Y-89641800D01*
G75*
G02*
X177376200Y-89381841I0J259959D01*
G01*
G37*
D17*
G36*
X152475932Y-103398200D02*
G01*
X152476200Y-103399200D01*
X152476200Y-105100800D01*
X152475200Y-105102532D01*
X152474200Y-105102800D01*
X152325800Y-105102800D01*
X152324068Y-105101800D01*
X152323800Y-105100800D01*
X152323800Y-103401200D01*
X151676200Y-103401200D01*
X151676200Y-105100800D01*
X151675200Y-105102532D01*
X151674200Y-105102800D01*
X151525800Y-105102800D01*
X151524068Y-105101800D01*
X151523800Y-105100800D01*
X151523800Y-103401200D01*
X150876200Y-103401200D01*
X150876200Y-105100800D01*
X150875200Y-105102532D01*
X150874200Y-105102800D01*
X150725800Y-105102800D01*
X150724068Y-105101800D01*
X150723800Y-105100800D01*
X150723800Y-103401200D01*
X150076200Y-103401200D01*
X150076200Y-105100800D01*
X150075200Y-105102532D01*
X150074200Y-105102800D01*
X149925800Y-105102800D01*
X149924068Y-105101800D01*
X149923800Y-105100800D01*
X149923800Y-103401200D01*
X149276200Y-103401200D01*
X149276200Y-105100800D01*
X149275200Y-105102532D01*
X149274200Y-105102800D01*
X149125800Y-105102800D01*
X149124068Y-105101800D01*
X149123800Y-105100800D01*
X149123800Y-103401200D01*
X148476200Y-103401200D01*
X148476200Y-105100800D01*
X148475200Y-105102532D01*
X148474200Y-105102800D01*
X148325800Y-105102800D01*
X148324068Y-105101800D01*
X148323800Y-105100800D01*
X148323800Y-103401200D01*
X147676200Y-103401200D01*
X147676200Y-105100800D01*
X147675200Y-105102532D01*
X147674200Y-105102800D01*
X147525800Y-105102800D01*
X147524068Y-105101800D01*
X147523800Y-105100800D01*
X147523800Y-103399200D01*
X147524800Y-103397468D01*
X147525800Y-103397200D01*
X152474200Y-103397200D01*
X152475932Y-103398200D01*
G37*
G36*
X155102532Y-102324800D02*
G01*
X155102800Y-102325800D01*
X155102800Y-102474200D01*
X155101800Y-102475932D01*
X155100800Y-102476200D01*
X153399200Y-102476200D01*
X153397468Y-102475200D01*
X153397200Y-102474200D01*
X153397200Y-102325800D01*
X153398200Y-102324068D01*
X153399200Y-102323800D01*
X155100800Y-102323800D01*
X155102532Y-102324800D01*
G37*
G36*
X146602532Y-102324800D02*
G01*
X146602800Y-102325800D01*
X146602800Y-102474200D01*
X146601800Y-102475932D01*
X146600800Y-102476200D01*
X144899200Y-102476200D01*
X144897468Y-102475200D01*
X144897200Y-102474200D01*
X144897200Y-102325800D01*
X144898200Y-102324068D01*
X144899200Y-102323800D01*
X146600800Y-102323800D01*
X146602532Y-102324800D01*
G37*
G36*
X120817002Y-101549800D02*
G01*
X120817002Y-101551800D01*
X120815466Y-101552790D01*
X120791279Y-101555172D01*
X120768204Y-101562172D01*
X120746940Y-101573537D01*
X120728303Y-101588832D01*
X120713008Y-101607469D01*
X120701643Y-101628733D01*
X120694643Y-101651808D01*
X120692280Y-101675799D01*
X120694643Y-101699790D01*
X120701643Y-101722865D01*
X120713008Y-101744129D01*
X120728303Y-101762766D01*
X120746940Y-101778061D01*
X120762962Y-101786624D01*
X120764018Y-101788323D01*
X120763075Y-101790086D01*
X120761254Y-101790236D01*
X120687121Y-101759530D01*
X120538343Y-101729936D01*
X120386657Y-101729936D01*
X120237879Y-101759530D01*
X120163746Y-101790236D01*
X120161763Y-101789975D01*
X120160998Y-101788127D01*
X120162038Y-101786624D01*
X120178060Y-101778061D01*
X120196697Y-101762766D01*
X120211992Y-101744129D01*
X120223357Y-101722865D01*
X120230357Y-101699790D01*
X120232720Y-101675799D01*
X120230357Y-101651808D01*
X120223357Y-101628733D01*
X120211992Y-101607469D01*
X120196697Y-101588832D01*
X120178060Y-101573537D01*
X120156796Y-101562172D01*
X120133721Y-101555172D01*
X120109534Y-101552790D01*
X120107908Y-101551625D01*
X120108104Y-101549635D01*
X120109730Y-101548800D01*
X120815270Y-101548800D01*
X120817002Y-101549800D01*
G37*
G36*
X155102532Y-101524800D02*
G01*
X155102800Y-101525800D01*
X155102800Y-101674200D01*
X155101800Y-101675932D01*
X155100800Y-101676200D01*
X153399200Y-101676200D01*
X153397468Y-101675200D01*
X153397200Y-101674200D01*
X153397200Y-101525800D01*
X153398200Y-101524068D01*
X153399200Y-101523800D01*
X155100800Y-101523800D01*
X155102532Y-101524800D01*
G37*
G36*
X146602532Y-101524800D02*
G01*
X146602800Y-101525800D01*
X146602800Y-101674200D01*
X146601800Y-101675932D01*
X146600800Y-101676200D01*
X144899200Y-101676200D01*
X144897468Y-101675200D01*
X144897200Y-101674200D01*
X144897200Y-101525800D01*
X144898200Y-101524068D01*
X144899200Y-101523800D01*
X146600800Y-101523800D01*
X146602532Y-101524800D01*
G37*
G36*
X121190032Y-100899800D02*
G01*
X121190300Y-100900800D01*
X121190300Y-101049200D01*
X121189300Y-101050932D01*
X121188300Y-101051200D01*
X119736700Y-101051200D01*
X119734968Y-101050200D01*
X119734700Y-101049200D01*
X119734700Y-100900800D01*
X119735700Y-100899068D01*
X119736700Y-100898800D01*
X121188300Y-100898800D01*
X121190032Y-100899800D01*
G37*
G36*
X181347531Y-100811800D02*
G01*
X181347531Y-100813800D01*
X181345995Y-100814790D01*
X181321808Y-100817172D01*
X181298733Y-100824172D01*
X181277469Y-100835537D01*
X181258832Y-100850832D01*
X181243537Y-100869469D01*
X181232172Y-100890733D01*
X181225172Y-100913808D01*
X181222800Y-100937893D01*
X181222800Y-100954200D01*
X181221800Y-100955932D01*
X181220800Y-100956200D01*
X178919200Y-100956200D01*
X178917468Y-100955200D01*
X178917200Y-100954200D01*
X178917200Y-100937893D01*
X178915210Y-100917690D01*
X178915200Y-100917494D01*
X178915200Y-100812800D01*
X178916200Y-100811068D01*
X178917200Y-100810800D01*
X181345799Y-100810800D01*
X181347531Y-100811800D01*
G37*
G36*
X146602532Y-100724800D02*
G01*
X146602800Y-100725800D01*
X146602800Y-100874200D01*
X146601800Y-100875932D01*
X146600800Y-100876200D01*
X144899200Y-100876200D01*
X144897468Y-100875200D01*
X144897200Y-100874200D01*
X144897200Y-100725800D01*
X144898200Y-100724068D01*
X144899200Y-100723800D01*
X146600800Y-100723800D01*
X146602532Y-100724800D01*
G37*
G36*
X155102532Y-100724800D02*
G01*
X155102800Y-100725800D01*
X155102800Y-100874200D01*
X155101800Y-100875932D01*
X155100800Y-100876200D01*
X153399200Y-100876200D01*
X153397468Y-100875200D01*
X153397200Y-100874200D01*
X153397200Y-100725800D01*
X153398200Y-100724068D01*
X153399200Y-100723800D01*
X155100800Y-100723800D01*
X155102532Y-100724800D01*
G37*
G36*
X178919200Y-100407998D02*
G01*
X178919200Y-100627634D01*
X178918200Y-100629366D01*
X178916200Y-100629366D01*
X178915210Y-100627830D01*
X178912828Y-100603643D01*
X178905828Y-100580568D01*
X178894463Y-100559304D01*
X178879168Y-100540667D01*
X178860531Y-100525372D01*
X178839267Y-100514007D01*
X178816192Y-100507007D01*
X178792201Y-100504644D01*
X178768210Y-100507007D01*
X178750826Y-100512281D01*
X178748878Y-100511827D01*
X178748297Y-100509913D01*
X178749480Y-100508519D01*
X178808698Y-100483989D01*
X178898150Y-100424220D01*
X178915786Y-100406584D01*
X178917718Y-100406066D01*
X178919200Y-100407998D01*
G37*
G36*
X121190032Y-100249800D02*
G01*
X121190300Y-100250800D01*
X121190300Y-100399200D01*
X121189300Y-100400932D01*
X121188300Y-100401200D01*
X119736700Y-100401200D01*
X119734968Y-100400200D01*
X119734700Y-100399200D01*
X119734700Y-100250800D01*
X119735700Y-100249068D01*
X119736700Y-100248800D01*
X121188300Y-100248800D01*
X121190032Y-100249800D01*
G37*
G36*
X155102532Y-99924800D02*
G01*
X155102800Y-99925800D01*
X155102800Y-100074200D01*
X155101800Y-100075932D01*
X155100800Y-100076200D01*
X153399200Y-100076200D01*
X153397468Y-100075200D01*
X153397200Y-100074200D01*
X153397200Y-99925800D01*
X153398200Y-99924068D01*
X153399200Y-99923800D01*
X155100800Y-99923800D01*
X155102532Y-99924800D01*
G37*
G36*
X146602532Y-99924800D02*
G01*
X146602800Y-99925800D01*
X146602800Y-100074200D01*
X146601800Y-100075932D01*
X146600800Y-100076200D01*
X144899200Y-100076200D01*
X144897468Y-100075200D01*
X144897200Y-100074200D01*
X144897200Y-99925800D01*
X144898200Y-99924068D01*
X144899200Y-99923800D01*
X146600800Y-99923800D01*
X146602532Y-99924800D01*
G37*
G36*
X121190032Y-99599800D02*
G01*
X121190300Y-99600800D01*
X121190300Y-99749200D01*
X121189300Y-99750932D01*
X121188300Y-99751200D01*
X119736700Y-99751200D01*
X119734968Y-99750200D01*
X119734700Y-99749200D01*
X119734700Y-99600800D01*
X119735700Y-99599068D01*
X119736700Y-99598800D01*
X121188300Y-99598800D01*
X121190032Y-99599800D01*
G37*
G36*
X178918365Y-99370740D02*
G01*
X178919200Y-99372366D01*
X178919200Y-99592002D01*
X178918200Y-99593734D01*
X178915786Y-99593416D01*
X178898150Y-99575780D01*
X178808698Y-99516011D01*
X178749480Y-99491481D01*
X178748262Y-99489894D01*
X178749027Y-99488046D01*
X178750826Y-99487719D01*
X178768210Y-99492993D01*
X178792201Y-99495356D01*
X178816192Y-99492993D01*
X178839267Y-99485993D01*
X178860531Y-99474628D01*
X178879168Y-99459333D01*
X178894463Y-99440696D01*
X178905828Y-99419432D01*
X178912828Y-99396357D01*
X178915210Y-99372170D01*
X178916375Y-99370544D01*
X178918365Y-99370740D01*
G37*
G36*
X155102532Y-99124800D02*
G01*
X155102800Y-99125800D01*
X155102800Y-99274200D01*
X155101800Y-99275932D01*
X155100800Y-99276200D01*
X153399200Y-99276200D01*
X153397468Y-99275200D01*
X153397200Y-99274200D01*
X153397200Y-99125800D01*
X153398200Y-99124068D01*
X153399200Y-99123800D01*
X155100800Y-99123800D01*
X155102532Y-99124800D01*
G37*
G36*
X146602532Y-99124800D02*
G01*
X146602800Y-99125800D01*
X146602800Y-99274200D01*
X146601800Y-99275932D01*
X146600800Y-99276200D01*
X144899200Y-99276200D01*
X144897468Y-99275200D01*
X144897200Y-99274200D01*
X144897200Y-99125800D01*
X144898200Y-99124068D01*
X144899200Y-99123800D01*
X146600800Y-99123800D01*
X146602532Y-99124800D01*
G37*
G36*
X181222532Y-99044800D02*
G01*
X181222800Y-99045800D01*
X181222800Y-99062107D01*
X181225172Y-99086192D01*
X181232172Y-99109267D01*
X181243537Y-99130531D01*
X181258832Y-99149168D01*
X181277469Y-99164463D01*
X181298733Y-99175828D01*
X181321808Y-99182828D01*
X181345995Y-99185210D01*
X181347621Y-99186375D01*
X181347425Y-99188365D01*
X181345799Y-99189200D01*
X178917200Y-99189200D01*
X178915468Y-99188200D01*
X178915200Y-99187200D01*
X178915200Y-99082506D01*
X178915210Y-99082310D01*
X178917200Y-99062107D01*
X178917200Y-99045800D01*
X178918200Y-99044068D01*
X178919200Y-99043800D01*
X181220800Y-99043800D01*
X181222532Y-99044800D01*
G37*
G36*
X121190032Y-98949800D02*
G01*
X121190300Y-98950800D01*
X121190300Y-99099200D01*
X121189300Y-99100932D01*
X121188300Y-99101200D01*
X119736700Y-99101200D01*
X119734968Y-99100200D01*
X119734700Y-99099200D01*
X119734700Y-98950800D01*
X119735700Y-98949068D01*
X119736700Y-98948800D01*
X121188300Y-98948800D01*
X121190032Y-98949800D01*
G37*
G36*
X146602532Y-98324800D02*
G01*
X146602800Y-98325800D01*
X146602800Y-98474200D01*
X146601800Y-98475932D01*
X146600800Y-98476200D01*
X144899200Y-98476200D01*
X144897468Y-98475200D01*
X144897200Y-98474200D01*
X144897200Y-98325800D01*
X144898200Y-98324068D01*
X144899200Y-98323800D01*
X146600800Y-98323800D01*
X146602532Y-98324800D01*
G37*
G36*
X155102532Y-98324800D02*
G01*
X155102800Y-98325800D01*
X155102800Y-98474200D01*
X155101800Y-98475932D01*
X155100800Y-98476200D01*
X153399200Y-98476200D01*
X153397468Y-98475200D01*
X153397200Y-98474200D01*
X153397200Y-98325800D01*
X153398200Y-98324068D01*
X153399200Y-98323800D01*
X155100800Y-98323800D01*
X155102532Y-98324800D01*
G37*
G36*
X120763237Y-98210025D02*
G01*
X120764002Y-98211873D01*
X120762962Y-98213376D01*
X120746940Y-98221939D01*
X120728303Y-98237234D01*
X120713008Y-98255871D01*
X120701643Y-98277135D01*
X120694643Y-98300210D01*
X120692280Y-98324201D01*
X120694643Y-98348192D01*
X120701643Y-98371267D01*
X120713008Y-98392531D01*
X120728303Y-98411168D01*
X120746940Y-98426463D01*
X120768204Y-98437828D01*
X120791279Y-98444828D01*
X120815466Y-98447210D01*
X120817092Y-98448375D01*
X120816896Y-98450365D01*
X120815270Y-98451200D01*
X120109730Y-98451200D01*
X120107998Y-98450200D01*
X120107998Y-98448200D01*
X120109534Y-98447210D01*
X120133721Y-98444828D01*
X120156796Y-98437828D01*
X120178060Y-98426463D01*
X120196697Y-98411168D01*
X120211992Y-98392531D01*
X120223357Y-98371267D01*
X120230357Y-98348192D01*
X120232720Y-98324201D01*
X120230357Y-98300210D01*
X120223357Y-98277135D01*
X120211992Y-98255871D01*
X120196697Y-98237234D01*
X120178060Y-98221939D01*
X120162038Y-98213376D01*
X120160982Y-98211677D01*
X120161925Y-98209914D01*
X120163746Y-98209764D01*
X120237879Y-98240470D01*
X120386657Y-98270064D01*
X120538343Y-98270064D01*
X120687121Y-98240470D01*
X120761254Y-98209764D01*
X120763237Y-98210025D01*
G37*
G36*
X146602532Y-97524800D02*
G01*
X146602800Y-97525800D01*
X146602800Y-97674200D01*
X146601800Y-97675932D01*
X146600800Y-97676200D01*
X144899200Y-97676200D01*
X144897468Y-97675200D01*
X144897200Y-97674200D01*
X144897200Y-97525800D01*
X144898200Y-97524068D01*
X144899200Y-97523800D01*
X146600800Y-97523800D01*
X146602532Y-97524800D01*
G37*
G36*
X155102532Y-97524800D02*
G01*
X155102800Y-97525800D01*
X155102800Y-97674200D01*
X155101800Y-97675932D01*
X155100800Y-97676200D01*
X153399200Y-97676200D01*
X153397468Y-97675200D01*
X153397200Y-97674200D01*
X153397200Y-97525800D01*
X153398200Y-97524068D01*
X153399200Y-97523800D01*
X155100800Y-97523800D01*
X155102532Y-97524800D01*
G37*
G36*
X152475932Y-94898200D02*
G01*
X152476200Y-94899200D01*
X152476200Y-96600800D01*
X152475200Y-96602532D01*
X152474200Y-96602800D01*
X152325800Y-96602800D01*
X152324068Y-96601800D01*
X152323800Y-96600800D01*
X152323800Y-94901200D01*
X151676200Y-94901200D01*
X151676200Y-96600800D01*
X151675200Y-96602532D01*
X151674200Y-96602800D01*
X151525800Y-96602800D01*
X151524068Y-96601800D01*
X151523800Y-96600800D01*
X151523800Y-94901200D01*
X150876200Y-94901200D01*
X150876200Y-96600800D01*
X150875200Y-96602532D01*
X150874200Y-96602800D01*
X150725800Y-96602800D01*
X150724068Y-96601800D01*
X150723800Y-96600800D01*
X150723800Y-94901200D01*
X150076200Y-94901200D01*
X150076200Y-96600800D01*
X150075200Y-96602532D01*
X150074200Y-96602800D01*
X149925800Y-96602800D01*
X149924068Y-96601800D01*
X149923800Y-96600800D01*
X149923800Y-94901200D01*
X149276200Y-94901200D01*
X149276200Y-96600800D01*
X149275200Y-96602532D01*
X149274200Y-96602800D01*
X149125800Y-96602800D01*
X149124068Y-96601800D01*
X149123800Y-96600800D01*
X149123800Y-94901200D01*
X148476200Y-94901200D01*
X148476200Y-96600800D01*
X148475200Y-96602532D01*
X148474200Y-96602800D01*
X148325800Y-96602800D01*
X148324068Y-96601800D01*
X148323800Y-96600800D01*
X148323800Y-94901200D01*
X147676200Y-94901200D01*
X147676200Y-96600800D01*
X147675200Y-96602532D01*
X147674200Y-96602800D01*
X147525800Y-96602800D01*
X147524068Y-96601800D01*
X147523800Y-96600800D01*
X147523800Y-94899200D01*
X147524800Y-94897468D01*
X147525800Y-94897200D01*
X152474200Y-94897200D01*
X152475932Y-94898200D01*
G37*
G36*
X177378190Y-89381645D02*
G01*
X177383165Y-89432161D01*
X177397845Y-89480554D01*
X177421682Y-89525150D01*
X177453761Y-89564239D01*
X177492850Y-89596318D01*
X177537446Y-89620155D01*
X177585839Y-89634835D01*
X177636355Y-89639810D01*
X177637981Y-89640975D01*
X177637785Y-89642965D01*
X177636159Y-89643800D01*
X177541810Y-89643800D01*
X177541614Y-89643790D01*
X177504483Y-89640133D01*
X177504098Y-89640057D01*
X177474291Y-89631015D01*
X177473929Y-89630865D01*
X177446470Y-89616188D01*
X177446144Y-89615970D01*
X177422067Y-89596210D01*
X177421790Y-89595933D01*
X177402030Y-89571856D01*
X177401812Y-89571530D01*
X177387135Y-89544071D01*
X177386985Y-89543709D01*
X177377943Y-89513902D01*
X177377867Y-89513517D01*
X177374210Y-89476386D01*
X177374200Y-89476190D01*
X177374200Y-89381841D01*
X177375200Y-89380109D01*
X177377200Y-89380109D01*
X177378190Y-89381645D01*
G37*
G36*
X180028965Y-89380215D02*
G01*
X180029800Y-89381841D01*
X180029800Y-89476190D01*
X180029790Y-89476386D01*
X180026133Y-89513517D01*
X180026057Y-89513902D01*
X180017015Y-89543709D01*
X180016865Y-89544071D01*
X180002188Y-89571530D01*
X180001970Y-89571856D01*
X179982210Y-89595933D01*
X179981933Y-89596210D01*
X179957856Y-89615970D01*
X179957530Y-89616188D01*
X179930071Y-89630865D01*
X179929709Y-89631015D01*
X179899902Y-89640057D01*
X179899517Y-89640133D01*
X179862386Y-89643790D01*
X179862190Y-89643800D01*
X179767841Y-89643800D01*
X179766109Y-89642800D01*
X179766109Y-89640800D01*
X179767645Y-89639810D01*
X179818161Y-89634835D01*
X179866554Y-89620155D01*
X179911150Y-89596318D01*
X179950239Y-89564239D01*
X179982318Y-89525150D01*
X180006155Y-89480554D01*
X180020835Y-89432161D01*
X180025810Y-89381645D01*
X180026975Y-89380019D01*
X180028965Y-89380215D01*
G37*
G36*
X177637891Y-86989200D02*
G01*
X177637891Y-86991200D01*
X177636355Y-86992190D01*
X177585839Y-86997165D01*
X177537446Y-87011845D01*
X177492850Y-87035682D01*
X177453761Y-87067761D01*
X177421682Y-87106850D01*
X177397845Y-87151446D01*
X177383165Y-87199839D01*
X177378190Y-87250355D01*
X177377025Y-87251981D01*
X177375035Y-87251785D01*
X177374200Y-87250159D01*
X177374200Y-87155810D01*
X177374210Y-87155614D01*
X177377867Y-87118483D01*
X177377943Y-87118098D01*
X177386985Y-87088291D01*
X177387135Y-87087929D01*
X177401812Y-87060470D01*
X177402030Y-87060144D01*
X177421790Y-87036067D01*
X177422067Y-87035790D01*
X177446144Y-87016030D01*
X177446470Y-87015812D01*
X177473929Y-87001135D01*
X177474291Y-87000985D01*
X177504098Y-86991943D01*
X177504483Y-86991867D01*
X177541614Y-86988210D01*
X177541810Y-86988200D01*
X177636159Y-86988200D01*
X177637891Y-86989200D01*
G37*
G36*
X179862386Y-86988210D02*
G01*
X179899517Y-86991867D01*
X179899902Y-86991943D01*
X179929709Y-87000985D01*
X179930071Y-87001135D01*
X179957530Y-87015812D01*
X179957856Y-87016030D01*
X179981933Y-87035790D01*
X179982210Y-87036067D01*
X180001970Y-87060144D01*
X180002188Y-87060470D01*
X180016865Y-87087929D01*
X180017015Y-87088291D01*
X180026057Y-87118098D01*
X180026133Y-87118483D01*
X180029790Y-87155614D01*
X180029800Y-87155810D01*
X180029800Y-87250159D01*
X180028800Y-87251891D01*
X180026800Y-87251891D01*
X180025810Y-87250355D01*
X180020835Y-87199839D01*
X180006155Y-87151446D01*
X179982318Y-87106850D01*
X179950239Y-87067761D01*
X179911150Y-87035682D01*
X179866554Y-87011845D01*
X179818161Y-86997165D01*
X179767645Y-86992190D01*
X179766019Y-86991025D01*
X179766215Y-86989035D01*
X179767841Y-86988200D01*
X179862190Y-86988200D01*
X179862386Y-86988210D01*
G37*
G36*
X152838965Y-80166774D02*
G01*
X152839800Y-80168400D01*
X152839800Y-80224762D01*
X152839790Y-80224958D01*
X152837989Y-80243250D01*
X152837913Y-80243635D01*
X152834369Y-80255317D01*
X152834219Y-80255679D01*
X152828458Y-80266456D01*
X152828240Y-80266782D01*
X152816925Y-80280570D01*
X152816793Y-80280715D01*
X152807537Y-80289970D01*
X152794141Y-80310016D01*
X152784914Y-80332289D01*
X152780208Y-80355939D01*
X152780206Y-80380046D01*
X152784909Y-80403696D01*
X152794134Y-80425970D01*
X152807528Y-80446019D01*
X152816789Y-80455280D01*
X152816921Y-80455425D01*
X152828240Y-80469218D01*
X152828458Y-80469544D01*
X152834219Y-80480321D01*
X152834369Y-80480683D01*
X152837913Y-80492365D01*
X152837989Y-80492750D01*
X152839790Y-80511042D01*
X152839800Y-80511238D01*
X152839800Y-80567600D01*
X152838800Y-80569332D01*
X152836800Y-80569332D01*
X152835810Y-80567796D01*
X152833420Y-80543531D01*
X152826397Y-80520380D01*
X152814995Y-80499047D01*
X152799650Y-80480350D01*
X152780953Y-80465005D01*
X152759620Y-80453603D01*
X152736469Y-80446580D01*
X152712306Y-80444200D01*
X151411694Y-80444200D01*
X151387531Y-80446580D01*
X151364380Y-80453603D01*
X151343047Y-80465005D01*
X151324350Y-80480350D01*
X151309005Y-80499047D01*
X151297603Y-80520380D01*
X151290580Y-80543531D01*
X151288190Y-80567796D01*
X151287025Y-80569422D01*
X151285035Y-80569226D01*
X151284200Y-80567600D01*
X151284200Y-80511238D01*
X151284210Y-80511042D01*
X151286011Y-80492750D01*
X151286087Y-80492365D01*
X151289631Y-80480683D01*
X151289781Y-80480321D01*
X151295542Y-80469544D01*
X151295760Y-80469218D01*
X151307075Y-80455430D01*
X151307207Y-80455285D01*
X151316463Y-80446030D01*
X151329859Y-80425984D01*
X151339086Y-80403711D01*
X151343792Y-80380061D01*
X151343794Y-80355954D01*
X151339091Y-80332304D01*
X151329866Y-80310030D01*
X151316472Y-80289981D01*
X151307211Y-80280720D01*
X151307079Y-80280575D01*
X151295760Y-80266782D01*
X151295542Y-80266456D01*
X151289781Y-80255679D01*
X151289631Y-80255317D01*
X151286087Y-80243635D01*
X151286011Y-80243250D01*
X151284210Y-80224958D01*
X151284200Y-80224762D01*
X151284200Y-80168400D01*
X151285200Y-80166668D01*
X151287200Y-80166668D01*
X151288190Y-80168204D01*
X151290580Y-80192469D01*
X151297603Y-80215620D01*
X151309005Y-80236953D01*
X151324350Y-80255650D01*
X151343047Y-80270995D01*
X151364380Y-80282397D01*
X151387531Y-80289420D01*
X151411694Y-80291800D01*
X152712306Y-80291800D01*
X152736469Y-80289420D01*
X152759620Y-80282397D01*
X152780953Y-80270995D01*
X152799650Y-80255650D01*
X152814995Y-80236953D01*
X152826397Y-80215620D01*
X152833420Y-80192469D01*
X152835810Y-80168204D01*
X152836975Y-80166578D01*
X152838965Y-80166774D01*
G37*
G36*
X148538965Y-80166774D02*
G01*
X148539800Y-80168400D01*
X148539800Y-80224762D01*
X148539790Y-80224958D01*
X148537989Y-80243250D01*
X148537913Y-80243635D01*
X148534369Y-80255317D01*
X148534219Y-80255679D01*
X148528458Y-80266456D01*
X148528240Y-80266782D01*
X148516925Y-80280570D01*
X148516793Y-80280715D01*
X148507537Y-80289970D01*
X148494141Y-80310016D01*
X148484914Y-80332289D01*
X148480208Y-80355939D01*
X148480206Y-80380046D01*
X148484909Y-80403696D01*
X148494134Y-80425970D01*
X148507528Y-80446019D01*
X148516789Y-80455280D01*
X148516921Y-80455425D01*
X148528240Y-80469218D01*
X148528458Y-80469544D01*
X148534219Y-80480321D01*
X148534369Y-80480683D01*
X148537913Y-80492365D01*
X148537989Y-80492750D01*
X148539790Y-80511042D01*
X148539800Y-80511238D01*
X148539800Y-80567600D01*
X148538800Y-80569332D01*
X148536800Y-80569332D01*
X148535810Y-80567796D01*
X148533420Y-80543531D01*
X148526397Y-80520380D01*
X148514995Y-80499047D01*
X148499650Y-80480350D01*
X148480953Y-80465005D01*
X148459620Y-80453603D01*
X148436469Y-80446580D01*
X148412306Y-80444200D01*
X147111694Y-80444200D01*
X147087531Y-80446580D01*
X147064380Y-80453603D01*
X147043047Y-80465005D01*
X147024350Y-80480350D01*
X147009005Y-80499047D01*
X146997603Y-80520380D01*
X146990580Y-80543531D01*
X146988190Y-80567796D01*
X146987025Y-80569422D01*
X146985035Y-80569226D01*
X146984200Y-80567600D01*
X146984200Y-80511238D01*
X146984210Y-80511042D01*
X146986011Y-80492750D01*
X146986087Y-80492365D01*
X146989631Y-80480683D01*
X146989781Y-80480321D01*
X146995542Y-80469544D01*
X146995760Y-80469218D01*
X147007075Y-80455430D01*
X147007207Y-80455285D01*
X147016463Y-80446030D01*
X147029859Y-80425984D01*
X147039086Y-80403711D01*
X147043792Y-80380061D01*
X147043794Y-80355954D01*
X147039091Y-80332304D01*
X147029866Y-80310030D01*
X147016472Y-80289981D01*
X147007211Y-80280720D01*
X147007079Y-80280575D01*
X146995760Y-80266782D01*
X146995542Y-80266456D01*
X146989781Y-80255679D01*
X146989631Y-80255317D01*
X146986087Y-80243635D01*
X146986011Y-80243250D01*
X146984210Y-80224958D01*
X146984200Y-80224762D01*
X146984200Y-80168400D01*
X146985200Y-80166668D01*
X146987200Y-80166668D01*
X146988190Y-80168204D01*
X146990580Y-80192469D01*
X146997603Y-80215620D01*
X147009005Y-80236953D01*
X147024350Y-80255650D01*
X147043047Y-80270995D01*
X147064380Y-80282397D01*
X147087531Y-80289420D01*
X147111694Y-80291800D01*
X148412306Y-80291800D01*
X148436469Y-80289420D01*
X148459620Y-80282397D01*
X148480953Y-80270995D01*
X148499650Y-80255650D01*
X148514995Y-80236953D01*
X148526397Y-80215620D01*
X148533420Y-80192469D01*
X148535810Y-80168204D01*
X148536975Y-80166578D01*
X148538965Y-80166774D01*
G37*
G36*
X152838965Y-79516774D02*
G01*
X152839800Y-79518400D01*
X152839800Y-79574762D01*
X152839790Y-79574958D01*
X152837989Y-79593250D01*
X152837913Y-79593635D01*
X152834369Y-79605317D01*
X152834219Y-79605679D01*
X152828458Y-79616456D01*
X152828240Y-79616782D01*
X152816925Y-79630570D01*
X152816793Y-79630715D01*
X152807537Y-79639970D01*
X152794141Y-79660016D01*
X152784914Y-79682289D01*
X152780208Y-79705939D01*
X152780206Y-79730046D01*
X152784909Y-79753696D01*
X152794134Y-79775970D01*
X152807528Y-79796019D01*
X152816789Y-79805280D01*
X152816921Y-79805425D01*
X152828240Y-79819218D01*
X152828458Y-79819544D01*
X152834219Y-79830321D01*
X152834369Y-79830683D01*
X152837913Y-79842365D01*
X152837989Y-79842750D01*
X152839790Y-79861042D01*
X152839800Y-79861238D01*
X152839800Y-79917600D01*
X152838800Y-79919332D01*
X152836800Y-79919332D01*
X152835810Y-79917796D01*
X152833420Y-79893531D01*
X152826397Y-79870380D01*
X152814995Y-79849047D01*
X152799650Y-79830350D01*
X152780953Y-79815005D01*
X152759620Y-79803603D01*
X152736469Y-79796580D01*
X152712306Y-79794200D01*
X151411694Y-79794200D01*
X151387531Y-79796580D01*
X151364380Y-79803603D01*
X151343047Y-79815005D01*
X151324350Y-79830350D01*
X151309005Y-79849047D01*
X151297603Y-79870380D01*
X151290580Y-79893531D01*
X151288190Y-79917796D01*
X151287025Y-79919422D01*
X151285035Y-79919226D01*
X151284200Y-79917600D01*
X151284200Y-79861238D01*
X151284210Y-79861042D01*
X151286011Y-79842750D01*
X151286087Y-79842365D01*
X151289631Y-79830683D01*
X151289781Y-79830321D01*
X151295542Y-79819544D01*
X151295760Y-79819218D01*
X151307075Y-79805430D01*
X151307207Y-79805285D01*
X151316463Y-79796030D01*
X151329859Y-79775984D01*
X151339086Y-79753711D01*
X151343792Y-79730061D01*
X151343794Y-79705954D01*
X151339091Y-79682304D01*
X151329866Y-79660030D01*
X151316472Y-79639981D01*
X151307211Y-79630720D01*
X151307079Y-79630575D01*
X151295760Y-79616782D01*
X151295542Y-79616456D01*
X151289781Y-79605679D01*
X151289631Y-79605317D01*
X151286087Y-79593635D01*
X151286011Y-79593250D01*
X151284210Y-79574958D01*
X151284200Y-79574762D01*
X151284200Y-79518400D01*
X151285200Y-79516668D01*
X151287200Y-79516668D01*
X151288190Y-79518204D01*
X151290580Y-79542469D01*
X151297603Y-79565620D01*
X151309005Y-79586953D01*
X151324350Y-79605650D01*
X151343047Y-79620995D01*
X151364380Y-79632397D01*
X151387531Y-79639420D01*
X151411694Y-79641800D01*
X152712306Y-79641800D01*
X152736469Y-79639420D01*
X152759620Y-79632397D01*
X152780953Y-79620995D01*
X152799650Y-79605650D01*
X152814995Y-79586953D01*
X152826397Y-79565620D01*
X152833420Y-79542469D01*
X152835810Y-79518204D01*
X152836975Y-79516578D01*
X152838965Y-79516774D01*
G37*
G36*
X148538965Y-79516774D02*
G01*
X148539800Y-79518400D01*
X148539800Y-79574762D01*
X148539790Y-79574958D01*
X148537989Y-79593250D01*
X148537913Y-79593635D01*
X148534369Y-79605317D01*
X148534219Y-79605679D01*
X148528458Y-79616456D01*
X148528240Y-79616782D01*
X148516925Y-79630570D01*
X148516793Y-79630715D01*
X148507537Y-79639970D01*
X148494141Y-79660016D01*
X148484914Y-79682289D01*
X148480208Y-79705939D01*
X148480206Y-79730046D01*
X148484909Y-79753696D01*
X148494134Y-79775970D01*
X148507528Y-79796019D01*
X148516789Y-79805280D01*
X148516921Y-79805425D01*
X148528240Y-79819218D01*
X148528458Y-79819544D01*
X148534219Y-79830321D01*
X148534369Y-79830683D01*
X148537913Y-79842365D01*
X148537989Y-79842750D01*
X148539790Y-79861042D01*
X148539800Y-79861238D01*
X148539800Y-79917600D01*
X148538800Y-79919332D01*
X148536800Y-79919332D01*
X148535810Y-79917796D01*
X148533420Y-79893531D01*
X148526397Y-79870380D01*
X148514995Y-79849047D01*
X148499650Y-79830350D01*
X148480953Y-79815005D01*
X148459620Y-79803603D01*
X148436469Y-79796580D01*
X148412306Y-79794200D01*
X147111694Y-79794200D01*
X147087531Y-79796580D01*
X147064380Y-79803603D01*
X147043047Y-79815005D01*
X147024350Y-79830350D01*
X147009005Y-79849047D01*
X146997603Y-79870380D01*
X146990580Y-79893531D01*
X146988190Y-79917796D01*
X146987025Y-79919422D01*
X146985035Y-79919226D01*
X146984200Y-79917600D01*
X146984200Y-79861238D01*
X146984210Y-79861042D01*
X146986011Y-79842750D01*
X146986087Y-79842365D01*
X146989631Y-79830683D01*
X146989781Y-79830321D01*
X146995542Y-79819544D01*
X146995760Y-79819218D01*
X147007075Y-79805430D01*
X147007207Y-79805285D01*
X147016463Y-79796030D01*
X147029859Y-79775984D01*
X147039086Y-79753711D01*
X147043792Y-79730061D01*
X147043794Y-79705954D01*
X147039091Y-79682304D01*
X147029866Y-79660030D01*
X147016472Y-79639981D01*
X147007211Y-79630720D01*
X147007079Y-79630575D01*
X146995760Y-79616782D01*
X146995542Y-79616456D01*
X146989781Y-79605679D01*
X146989631Y-79605317D01*
X146986087Y-79593635D01*
X146986011Y-79593250D01*
X146984210Y-79574958D01*
X146984200Y-79574762D01*
X146984200Y-79518400D01*
X146985200Y-79516668D01*
X146987200Y-79516668D01*
X146988190Y-79518204D01*
X146990580Y-79542469D01*
X146997603Y-79565620D01*
X147009005Y-79586953D01*
X147024350Y-79605650D01*
X147043047Y-79620995D01*
X147064380Y-79632397D01*
X147087531Y-79639420D01*
X147111694Y-79641800D01*
X148412306Y-79641800D01*
X148436469Y-79639420D01*
X148459620Y-79632397D01*
X148480953Y-79620995D01*
X148499650Y-79605650D01*
X148514995Y-79586953D01*
X148526397Y-79565620D01*
X148533420Y-79542469D01*
X148535810Y-79518204D01*
X148536975Y-79516578D01*
X148538965Y-79516774D01*
G37*
G36*
X152838965Y-78866774D02*
G01*
X152839800Y-78868400D01*
X152839800Y-78924762D01*
X152839790Y-78924958D01*
X152837989Y-78943250D01*
X152837913Y-78943635D01*
X152834369Y-78955317D01*
X152834219Y-78955679D01*
X152828458Y-78966456D01*
X152828240Y-78966782D01*
X152816925Y-78980570D01*
X152816793Y-78980715D01*
X152807537Y-78989970D01*
X152794141Y-79010016D01*
X152784914Y-79032289D01*
X152780208Y-79055939D01*
X152780206Y-79080046D01*
X152784909Y-79103696D01*
X152794134Y-79125970D01*
X152807528Y-79146019D01*
X152816789Y-79155280D01*
X152816921Y-79155425D01*
X152828240Y-79169218D01*
X152828458Y-79169544D01*
X152834219Y-79180321D01*
X152834369Y-79180683D01*
X152837913Y-79192365D01*
X152837989Y-79192750D01*
X152839790Y-79211042D01*
X152839800Y-79211238D01*
X152839800Y-79267600D01*
X152838800Y-79269332D01*
X152836800Y-79269332D01*
X152835810Y-79267796D01*
X152833420Y-79243531D01*
X152826397Y-79220380D01*
X152814995Y-79199047D01*
X152799650Y-79180350D01*
X152780953Y-79165005D01*
X152759620Y-79153603D01*
X152736469Y-79146580D01*
X152712306Y-79144200D01*
X151411694Y-79144200D01*
X151387531Y-79146580D01*
X151364380Y-79153603D01*
X151343047Y-79165005D01*
X151324350Y-79180350D01*
X151309005Y-79199047D01*
X151297603Y-79220380D01*
X151290580Y-79243531D01*
X151288190Y-79267796D01*
X151287025Y-79269422D01*
X151285035Y-79269226D01*
X151284200Y-79267600D01*
X151284200Y-79211238D01*
X151284210Y-79211042D01*
X151286011Y-79192750D01*
X151286087Y-79192365D01*
X151289631Y-79180683D01*
X151289781Y-79180321D01*
X151295542Y-79169544D01*
X151295760Y-79169218D01*
X151307075Y-79155430D01*
X151307207Y-79155285D01*
X151316463Y-79146030D01*
X151329859Y-79125984D01*
X151339086Y-79103711D01*
X151343792Y-79080061D01*
X151343794Y-79055954D01*
X151339091Y-79032304D01*
X151329866Y-79010030D01*
X151316472Y-78989981D01*
X151307211Y-78980720D01*
X151307079Y-78980575D01*
X151295760Y-78966782D01*
X151295542Y-78966456D01*
X151289781Y-78955679D01*
X151289631Y-78955317D01*
X151286087Y-78943635D01*
X151286011Y-78943250D01*
X151284210Y-78924958D01*
X151284200Y-78924762D01*
X151284200Y-78868400D01*
X151285200Y-78866668D01*
X151287200Y-78866668D01*
X151288190Y-78868204D01*
X151290580Y-78892469D01*
X151297603Y-78915620D01*
X151309005Y-78936953D01*
X151324350Y-78955650D01*
X151343047Y-78970995D01*
X151364380Y-78982397D01*
X151387531Y-78989420D01*
X151411694Y-78991800D01*
X152712306Y-78991800D01*
X152736469Y-78989420D01*
X152759620Y-78982397D01*
X152780953Y-78970995D01*
X152799650Y-78955650D01*
X152814995Y-78936953D01*
X152826397Y-78915620D01*
X152833420Y-78892469D01*
X152835810Y-78868204D01*
X152836975Y-78866578D01*
X152838965Y-78866774D01*
G37*
G36*
X148538965Y-78866774D02*
G01*
X148539800Y-78868400D01*
X148539800Y-78924762D01*
X148539790Y-78924958D01*
X148537989Y-78943250D01*
X148537913Y-78943635D01*
X148534369Y-78955317D01*
X148534219Y-78955679D01*
X148528458Y-78966456D01*
X148528240Y-78966782D01*
X148516925Y-78980570D01*
X148516793Y-78980715D01*
X148507537Y-78989970D01*
X148494141Y-79010016D01*
X148484914Y-79032289D01*
X148480208Y-79055939D01*
X148480206Y-79080046D01*
X148484909Y-79103696D01*
X148494134Y-79125970D01*
X148507528Y-79146019D01*
X148516789Y-79155280D01*
X148516921Y-79155425D01*
X148528240Y-79169218D01*
X148528458Y-79169544D01*
X148534219Y-79180321D01*
X148534369Y-79180683D01*
X148537913Y-79192365D01*
X148537989Y-79192750D01*
X148539790Y-79211042D01*
X148539800Y-79211238D01*
X148539800Y-79267600D01*
X148538800Y-79269332D01*
X148536800Y-79269332D01*
X148535810Y-79267796D01*
X148533420Y-79243531D01*
X148526397Y-79220380D01*
X148514995Y-79199047D01*
X148499650Y-79180350D01*
X148480953Y-79165005D01*
X148459620Y-79153603D01*
X148436469Y-79146580D01*
X148412306Y-79144200D01*
X147111694Y-79144200D01*
X147087531Y-79146580D01*
X147064380Y-79153603D01*
X147043047Y-79165005D01*
X147024350Y-79180350D01*
X147009005Y-79199047D01*
X146997603Y-79220380D01*
X146990580Y-79243531D01*
X146988190Y-79267796D01*
X146987025Y-79269422D01*
X146985035Y-79269226D01*
X146984200Y-79267600D01*
X146984200Y-79211238D01*
X146984210Y-79211042D01*
X146986011Y-79192750D01*
X146986087Y-79192365D01*
X146989631Y-79180683D01*
X146989781Y-79180321D01*
X146995542Y-79169544D01*
X146995760Y-79169218D01*
X147007075Y-79155430D01*
X147007207Y-79155285D01*
X147016463Y-79146030D01*
X147029859Y-79125984D01*
X147039086Y-79103711D01*
X147043792Y-79080061D01*
X147043794Y-79055954D01*
X147039091Y-79032304D01*
X147029866Y-79010030D01*
X147016472Y-78989981D01*
X147007211Y-78980720D01*
X147007079Y-78980575D01*
X146995760Y-78966782D01*
X146995542Y-78966456D01*
X146989781Y-78955679D01*
X146989631Y-78955317D01*
X146986087Y-78943635D01*
X146986011Y-78943250D01*
X146984210Y-78924958D01*
X146984200Y-78924762D01*
X146984200Y-78868400D01*
X146985200Y-78866668D01*
X146987200Y-78866668D01*
X146988190Y-78868204D01*
X146990580Y-78892469D01*
X146997603Y-78915620D01*
X147009005Y-78936953D01*
X147024350Y-78955650D01*
X147043047Y-78970995D01*
X147064380Y-78982397D01*
X147087531Y-78989420D01*
X147111694Y-78991800D01*
X148412306Y-78991800D01*
X148436469Y-78989420D01*
X148459620Y-78982397D01*
X148480953Y-78970995D01*
X148499650Y-78955650D01*
X148514995Y-78936953D01*
X148526397Y-78915620D01*
X148533420Y-78892469D01*
X148535810Y-78868204D01*
X148536975Y-78866578D01*
X148538965Y-78866774D01*
G37*
G36*
X152070365Y-73885633D02*
G01*
X152071200Y-73887259D01*
X152071200Y-73969354D01*
X152071190Y-73969550D01*
X152067202Y-74010047D01*
X152067126Y-74010432D01*
X152057105Y-74043466D01*
X152056955Y-74043828D01*
X152040682Y-74074272D01*
X152040464Y-74074598D01*
X152018563Y-74101286D01*
X152018286Y-74101563D01*
X151991598Y-74123464D01*
X151991272Y-74123682D01*
X151960828Y-74139955D01*
X151960466Y-74140105D01*
X151927432Y-74150126D01*
X151927047Y-74150202D01*
X151886550Y-74154190D01*
X151886354Y-74154200D01*
X151804259Y-74154200D01*
X151802527Y-74153200D01*
X151802527Y-74151200D01*
X151804063Y-74150210D01*
X151855551Y-74145139D01*
X151904879Y-74130176D01*
X151950336Y-74105878D01*
X151990180Y-74073180D01*
X152022878Y-74033336D01*
X152047176Y-73987879D01*
X152062139Y-73938551D01*
X152067210Y-73887063D01*
X152068375Y-73885437D01*
X152070365Y-73885633D01*
G37*
G36*
X150269590Y-73887063D02*
G01*
X150274661Y-73938551D01*
X150289624Y-73987879D01*
X150313922Y-74033336D01*
X150346620Y-74073180D01*
X150386464Y-74105878D01*
X150431921Y-74130176D01*
X150481249Y-74145139D01*
X150532737Y-74150210D01*
X150534363Y-74151375D01*
X150534167Y-74153365D01*
X150532541Y-74154200D01*
X150450446Y-74154200D01*
X150450250Y-74154190D01*
X150409753Y-74150202D01*
X150409368Y-74150126D01*
X150376334Y-74140105D01*
X150375972Y-74139955D01*
X150345528Y-74123682D01*
X150345202Y-74123464D01*
X150318514Y-74101563D01*
X150318237Y-74101286D01*
X150296336Y-74074598D01*
X150296118Y-74074272D01*
X150279845Y-74043828D01*
X150279695Y-74043466D01*
X150269674Y-74010432D01*
X150269598Y-74010047D01*
X150265610Y-73969550D01*
X150265600Y-73969354D01*
X150265600Y-73887259D01*
X150266600Y-73885527D01*
X150268600Y-73885527D01*
X150269590Y-73887063D01*
G37*
G36*
X150534273Y-72049600D02*
G01*
X150534273Y-72051600D01*
X150532737Y-72052590D01*
X150481249Y-72057661D01*
X150431921Y-72072624D01*
X150386464Y-72096922D01*
X150346620Y-72129620D01*
X150313922Y-72169464D01*
X150289624Y-72214921D01*
X150274661Y-72264249D01*
X150269590Y-72315737D01*
X150268425Y-72317363D01*
X150266435Y-72317167D01*
X150265600Y-72315541D01*
X150265600Y-72233446D01*
X150265610Y-72233250D01*
X150269598Y-72192753D01*
X150269674Y-72192368D01*
X150279695Y-72159334D01*
X150279845Y-72158972D01*
X150296118Y-72128528D01*
X150296336Y-72128202D01*
X150318237Y-72101514D01*
X150318514Y-72101237D01*
X150345202Y-72079336D01*
X150345528Y-72079118D01*
X150375972Y-72062845D01*
X150376334Y-72062695D01*
X150409368Y-72052674D01*
X150409753Y-72052598D01*
X150450250Y-72048610D01*
X150450446Y-72048600D01*
X150532541Y-72048600D01*
X150534273Y-72049600D01*
G37*
G36*
X151886550Y-72048610D02*
G01*
X151927047Y-72052598D01*
X151927432Y-72052674D01*
X151960466Y-72062695D01*
X151960828Y-72062845D01*
X151991272Y-72079118D01*
X151991598Y-72079336D01*
X152018286Y-72101237D01*
X152018563Y-72101514D01*
X152040464Y-72128202D01*
X152040682Y-72128528D01*
X152056955Y-72158972D01*
X152057105Y-72159334D01*
X152067126Y-72192368D01*
X152067202Y-72192753D01*
X152071190Y-72233250D01*
X152071200Y-72233446D01*
X152071200Y-72315541D01*
X152070200Y-72317273D01*
X152068200Y-72317273D01*
X152067210Y-72315737D01*
X152062139Y-72264249D01*
X152047176Y-72214921D01*
X152022878Y-72169464D01*
X151990180Y-72129620D01*
X151950336Y-72096922D01*
X151904879Y-72072624D01*
X151855551Y-72057661D01*
X151804063Y-72052590D01*
X151802437Y-72051425D01*
X151802633Y-72049435D01*
X151804259Y-72048600D01*
X151886354Y-72048600D01*
X151886550Y-72048610D01*
G37*
M02*
