G04 #@! TF.GenerationSoftware,KiCad,Pcbnew,5.1.6+dfsg1-1~bpo10+1*
G04 #@! TF.CreationDate,2020-09-28T23:40:52-04:00*
G04 #@! TF.ProjectId,board,626f6172-642e-46b6-9963-61645f706362,rev?*
G04 #@! TF.SameCoordinates,Original*
G04 #@! TF.FileFunction,Soldermask,Bot*
G04 #@! TF.FilePolarity,Negative*
%FSLAX46Y46*%
G04 Gerber Fmt 4.6, Leading zero omitted, Abs format (unit mm)*
G04 Created by KiCad (PCBNEW 5.1.6+dfsg1-1~bpo10+1) date 2020-09-28 23:40:52*
%MOMM*%
%LPD*%
G01*
G04 APERTURE LIST*
%ADD10C,0.100000*%
G04 APERTURE END LIST*
D10*
G36*
X150400732Y-129336739D02*
G01*
X150516754Y-129359817D01*
X150680689Y-129427721D01*
X150828227Y-129526303D01*
X150953697Y-129651773D01*
X151052279Y-129799311D01*
X151120183Y-129963246D01*
X151154800Y-130137279D01*
X151154800Y-130314721D01*
X151120183Y-130488754D01*
X151052279Y-130652689D01*
X150953697Y-130800227D01*
X150828227Y-130925697D01*
X150680689Y-131024279D01*
X150516754Y-131092183D01*
X150400732Y-131115261D01*
X150342722Y-131126800D01*
X150165278Y-131126800D01*
X150107268Y-131115261D01*
X149991246Y-131092183D01*
X149827311Y-131024279D01*
X149679773Y-130925697D01*
X149554303Y-130800227D01*
X149455721Y-130652689D01*
X149387817Y-130488754D01*
X149353200Y-130314721D01*
X149353200Y-130137279D01*
X149387817Y-129963246D01*
X149455721Y-129799311D01*
X149554303Y-129651773D01*
X149679773Y-129526303D01*
X149827311Y-129427721D01*
X149991246Y-129359817D01*
X150107268Y-129336739D01*
X150165278Y-129325200D01*
X150342722Y-129325200D01*
X150400732Y-129336739D01*
G37*
G36*
X152940732Y-129336739D02*
G01*
X153056754Y-129359817D01*
X153220689Y-129427721D01*
X153368227Y-129526303D01*
X153493697Y-129651773D01*
X153592279Y-129799311D01*
X153660183Y-129963246D01*
X153694800Y-130137279D01*
X153694800Y-130314721D01*
X153660183Y-130488754D01*
X153592279Y-130652689D01*
X153493697Y-130800227D01*
X153368227Y-130925697D01*
X153220689Y-131024279D01*
X153056754Y-131092183D01*
X152940732Y-131115261D01*
X152882722Y-131126800D01*
X152705278Y-131126800D01*
X152647268Y-131115261D01*
X152531246Y-131092183D01*
X152367311Y-131024279D01*
X152219773Y-130925697D01*
X152094303Y-130800227D01*
X151995721Y-130652689D01*
X151927817Y-130488754D01*
X151893200Y-130314721D01*
X151893200Y-130137279D01*
X151927817Y-129963246D01*
X151995721Y-129799311D01*
X152094303Y-129651773D01*
X152219773Y-129526303D01*
X152367311Y-129427721D01*
X152531246Y-129359817D01*
X152647268Y-129336739D01*
X152705278Y-129325200D01*
X152882722Y-129325200D01*
X152940732Y-129336739D01*
G37*
G36*
X155480732Y-129336739D02*
G01*
X155596754Y-129359817D01*
X155760689Y-129427721D01*
X155908227Y-129526303D01*
X156033697Y-129651773D01*
X156132279Y-129799311D01*
X156200183Y-129963246D01*
X156234800Y-130137279D01*
X156234800Y-130314721D01*
X156200183Y-130488754D01*
X156132279Y-130652689D01*
X156033697Y-130800227D01*
X155908227Y-130925697D01*
X155760689Y-131024279D01*
X155596754Y-131092183D01*
X155480732Y-131115261D01*
X155422722Y-131126800D01*
X155245278Y-131126800D01*
X155187268Y-131115261D01*
X155071246Y-131092183D01*
X154907311Y-131024279D01*
X154759773Y-130925697D01*
X154634303Y-130800227D01*
X154535721Y-130652689D01*
X154467817Y-130488754D01*
X154433200Y-130314721D01*
X154433200Y-130137279D01*
X154467817Y-129963246D01*
X154535721Y-129799311D01*
X154634303Y-129651773D01*
X154759773Y-129526303D01*
X154907311Y-129427721D01*
X155071246Y-129359817D01*
X155187268Y-129336739D01*
X155245278Y-129325200D01*
X155422722Y-129325200D01*
X155480732Y-129336739D01*
G37*
G36*
X147860732Y-129336739D02*
G01*
X147976754Y-129359817D01*
X148140689Y-129427721D01*
X148288227Y-129526303D01*
X148413697Y-129651773D01*
X148512279Y-129799311D01*
X148580183Y-129963246D01*
X148614800Y-130137279D01*
X148614800Y-130314721D01*
X148580183Y-130488754D01*
X148512279Y-130652689D01*
X148413697Y-130800227D01*
X148288227Y-130925697D01*
X148140689Y-131024279D01*
X147976754Y-131092183D01*
X147860732Y-131115261D01*
X147802722Y-131126800D01*
X147625278Y-131126800D01*
X147567268Y-131115261D01*
X147451246Y-131092183D01*
X147287311Y-131024279D01*
X147139773Y-130925697D01*
X147014303Y-130800227D01*
X146915721Y-130652689D01*
X146847817Y-130488754D01*
X146813200Y-130314721D01*
X146813200Y-130137279D01*
X146847817Y-129963246D01*
X146915721Y-129799311D01*
X147014303Y-129651773D01*
X147139773Y-129526303D01*
X147287311Y-129427721D01*
X147451246Y-129359817D01*
X147567268Y-129336739D01*
X147625278Y-129325200D01*
X147802722Y-129325200D01*
X147860732Y-129336739D01*
G37*
G36*
X146074800Y-131126800D02*
G01*
X144273200Y-131126800D01*
X144273200Y-129325200D01*
X146074800Y-129325200D01*
X146074800Y-131126800D01*
G37*
G36*
X145320732Y-126796739D02*
G01*
X145436754Y-126819817D01*
X145600689Y-126887721D01*
X145748227Y-126986303D01*
X145873697Y-127111773D01*
X145972279Y-127259311D01*
X146040183Y-127423246D01*
X146074800Y-127597279D01*
X146074800Y-127774721D01*
X146040183Y-127948754D01*
X145972279Y-128112689D01*
X145873697Y-128260227D01*
X145748227Y-128385697D01*
X145600689Y-128484279D01*
X145436754Y-128552183D01*
X145320732Y-128575261D01*
X145262722Y-128586800D01*
X145085278Y-128586800D01*
X145027268Y-128575261D01*
X144911246Y-128552183D01*
X144747311Y-128484279D01*
X144599773Y-128385697D01*
X144474303Y-128260227D01*
X144375721Y-128112689D01*
X144307817Y-127948754D01*
X144273200Y-127774721D01*
X144273200Y-127597279D01*
X144307817Y-127423246D01*
X144375721Y-127259311D01*
X144474303Y-127111773D01*
X144599773Y-126986303D01*
X144747311Y-126887721D01*
X144911246Y-126819817D01*
X145027268Y-126796739D01*
X145085278Y-126785200D01*
X145262722Y-126785200D01*
X145320732Y-126796739D01*
G37*
G36*
X155480732Y-126796739D02*
G01*
X155596754Y-126819817D01*
X155760689Y-126887721D01*
X155908227Y-126986303D01*
X156033697Y-127111773D01*
X156132279Y-127259311D01*
X156200183Y-127423246D01*
X156234800Y-127597279D01*
X156234800Y-127774721D01*
X156200183Y-127948754D01*
X156132279Y-128112689D01*
X156033697Y-128260227D01*
X155908227Y-128385697D01*
X155760689Y-128484279D01*
X155596754Y-128552183D01*
X155480732Y-128575261D01*
X155422722Y-128586800D01*
X155245278Y-128586800D01*
X155187268Y-128575261D01*
X155071246Y-128552183D01*
X154907311Y-128484279D01*
X154759773Y-128385697D01*
X154634303Y-128260227D01*
X154535721Y-128112689D01*
X154467817Y-127948754D01*
X154433200Y-127774721D01*
X154433200Y-127597279D01*
X154467817Y-127423246D01*
X154535721Y-127259311D01*
X154634303Y-127111773D01*
X154759773Y-126986303D01*
X154907311Y-126887721D01*
X155071246Y-126819817D01*
X155187268Y-126796739D01*
X155245278Y-126785200D01*
X155422722Y-126785200D01*
X155480732Y-126796739D01*
G37*
G36*
X152940732Y-126796739D02*
G01*
X153056754Y-126819817D01*
X153220689Y-126887721D01*
X153368227Y-126986303D01*
X153493697Y-127111773D01*
X153592279Y-127259311D01*
X153660183Y-127423246D01*
X153694800Y-127597279D01*
X153694800Y-127774721D01*
X153660183Y-127948754D01*
X153592279Y-128112689D01*
X153493697Y-128260227D01*
X153368227Y-128385697D01*
X153220689Y-128484279D01*
X153056754Y-128552183D01*
X152940732Y-128575261D01*
X152882722Y-128586800D01*
X152705278Y-128586800D01*
X152647268Y-128575261D01*
X152531246Y-128552183D01*
X152367311Y-128484279D01*
X152219773Y-128385697D01*
X152094303Y-128260227D01*
X151995721Y-128112689D01*
X151927817Y-127948754D01*
X151893200Y-127774721D01*
X151893200Y-127597279D01*
X151927817Y-127423246D01*
X151995721Y-127259311D01*
X152094303Y-127111773D01*
X152219773Y-126986303D01*
X152367311Y-126887721D01*
X152531246Y-126819817D01*
X152647268Y-126796739D01*
X152705278Y-126785200D01*
X152882722Y-126785200D01*
X152940732Y-126796739D01*
G37*
G36*
X150400732Y-126796739D02*
G01*
X150516754Y-126819817D01*
X150680689Y-126887721D01*
X150828227Y-126986303D01*
X150953697Y-127111773D01*
X151052279Y-127259311D01*
X151120183Y-127423246D01*
X151154800Y-127597279D01*
X151154800Y-127774721D01*
X151120183Y-127948754D01*
X151052279Y-128112689D01*
X150953697Y-128260227D01*
X150828227Y-128385697D01*
X150680689Y-128484279D01*
X150516754Y-128552183D01*
X150400732Y-128575261D01*
X150342722Y-128586800D01*
X150165278Y-128586800D01*
X150107268Y-128575261D01*
X149991246Y-128552183D01*
X149827311Y-128484279D01*
X149679773Y-128385697D01*
X149554303Y-128260227D01*
X149455721Y-128112689D01*
X149387817Y-127948754D01*
X149353200Y-127774721D01*
X149353200Y-127597279D01*
X149387817Y-127423246D01*
X149455721Y-127259311D01*
X149554303Y-127111773D01*
X149679773Y-126986303D01*
X149827311Y-126887721D01*
X149991246Y-126819817D01*
X150107268Y-126796739D01*
X150165278Y-126785200D01*
X150342722Y-126785200D01*
X150400732Y-126796739D01*
G37*
G36*
X147860732Y-126796739D02*
G01*
X147976754Y-126819817D01*
X148140689Y-126887721D01*
X148288227Y-126986303D01*
X148413697Y-127111773D01*
X148512279Y-127259311D01*
X148580183Y-127423246D01*
X148614800Y-127597279D01*
X148614800Y-127774721D01*
X148580183Y-127948754D01*
X148512279Y-128112689D01*
X148413697Y-128260227D01*
X148288227Y-128385697D01*
X148140689Y-128484279D01*
X147976754Y-128552183D01*
X147860732Y-128575261D01*
X147802722Y-128586800D01*
X147625278Y-128586800D01*
X147567268Y-128575261D01*
X147451246Y-128552183D01*
X147287311Y-128484279D01*
X147139773Y-128385697D01*
X147014303Y-128260227D01*
X146915721Y-128112689D01*
X146847817Y-127948754D01*
X146813200Y-127774721D01*
X146813200Y-127597279D01*
X146847817Y-127423246D01*
X146915721Y-127259311D01*
X147014303Y-127111773D01*
X147139773Y-126986303D01*
X147287311Y-126887721D01*
X147451246Y-126819817D01*
X147567268Y-126796739D01*
X147625278Y-126785200D01*
X147802722Y-126785200D01*
X147860732Y-126796739D01*
G37*
G36*
X170335675Y-118893424D02*
G01*
X170422425Y-118929357D01*
X170545108Y-118980174D01*
X170733592Y-119106115D01*
X170893885Y-119266408D01*
X171019826Y-119454892D01*
X171070643Y-119577575D01*
X171106576Y-119664325D01*
X171150800Y-119886655D01*
X171150800Y-120113345D01*
X171106576Y-120335675D01*
X171070643Y-120422425D01*
X171019826Y-120545108D01*
X170893885Y-120733592D01*
X170733592Y-120893885D01*
X170545108Y-121019826D01*
X170422425Y-121070643D01*
X170335675Y-121106576D01*
X170113345Y-121150800D01*
X169886655Y-121150800D01*
X169664325Y-121106576D01*
X169577575Y-121070643D01*
X169454892Y-121019826D01*
X169266408Y-120893885D01*
X169106115Y-120733592D01*
X168980174Y-120545108D01*
X168929357Y-120422425D01*
X168893424Y-120335675D01*
X168849200Y-120113345D01*
X168849200Y-119886655D01*
X168893424Y-119664325D01*
X168929357Y-119577575D01*
X168980174Y-119454892D01*
X169106115Y-119266408D01*
X169266408Y-119106115D01*
X169454892Y-118980174D01*
X169577575Y-118929357D01*
X169664325Y-118893424D01*
X169886655Y-118849200D01*
X170113345Y-118849200D01*
X170335675Y-118893424D01*
G37*
G36*
X130335675Y-118893424D02*
G01*
X130422425Y-118929357D01*
X130545108Y-118980174D01*
X130733592Y-119106115D01*
X130893885Y-119266408D01*
X131019826Y-119454892D01*
X131070643Y-119577575D01*
X131106576Y-119664325D01*
X131150800Y-119886655D01*
X131150800Y-120113345D01*
X131106576Y-120335675D01*
X131070643Y-120422425D01*
X131019826Y-120545108D01*
X130893885Y-120733592D01*
X130733592Y-120893885D01*
X130545108Y-121019826D01*
X130422425Y-121070643D01*
X130335675Y-121106576D01*
X130113345Y-121150800D01*
X129886655Y-121150800D01*
X129664325Y-121106576D01*
X129577575Y-121070643D01*
X129454892Y-121019826D01*
X129266408Y-120893885D01*
X129106115Y-120733592D01*
X128980174Y-120545108D01*
X128929357Y-120422425D01*
X128893424Y-120335675D01*
X128849200Y-120113345D01*
X128849200Y-119886655D01*
X128893424Y-119664325D01*
X128929357Y-119577575D01*
X128980174Y-119454892D01*
X129106115Y-119266408D01*
X129266408Y-119106115D01*
X129454892Y-118980174D01*
X129577575Y-118929357D01*
X129664325Y-118893424D01*
X129886655Y-118849200D01*
X130113345Y-118849200D01*
X130335675Y-118893424D01*
G37*
G36*
X143822132Y-114071339D02*
G01*
X143938154Y-114094417D01*
X144102089Y-114162321D01*
X144249627Y-114260903D01*
X144375097Y-114386373D01*
X144473679Y-114533911D01*
X144541583Y-114697846D01*
X144576200Y-114871879D01*
X144576200Y-115049321D01*
X144541583Y-115223354D01*
X144473679Y-115387289D01*
X144375097Y-115534827D01*
X144249627Y-115660297D01*
X144102089Y-115758879D01*
X143938154Y-115826783D01*
X143822132Y-115849861D01*
X143764122Y-115861400D01*
X143586678Y-115861400D01*
X143528668Y-115849861D01*
X143412646Y-115826783D01*
X143248711Y-115758879D01*
X143101173Y-115660297D01*
X142975703Y-115534827D01*
X142877121Y-115387289D01*
X142809217Y-115223354D01*
X142774600Y-115049321D01*
X142774600Y-114871879D01*
X142809217Y-114697846D01*
X142877121Y-114533911D01*
X142975703Y-114386373D01*
X143101173Y-114260903D01*
X143248711Y-114162321D01*
X143412646Y-114094417D01*
X143528668Y-114071339D01*
X143586678Y-114059800D01*
X143764122Y-114059800D01*
X143822132Y-114071339D01*
G37*
G36*
X159062132Y-114071339D02*
G01*
X159178154Y-114094417D01*
X159342089Y-114162321D01*
X159489627Y-114260903D01*
X159615097Y-114386373D01*
X159713679Y-114533911D01*
X159781583Y-114697846D01*
X159816200Y-114871879D01*
X159816200Y-115049321D01*
X159781583Y-115223354D01*
X159713679Y-115387289D01*
X159615097Y-115534827D01*
X159489627Y-115660297D01*
X159342089Y-115758879D01*
X159178154Y-115826783D01*
X159062132Y-115849861D01*
X159004122Y-115861400D01*
X158826678Y-115861400D01*
X158768668Y-115849861D01*
X158652646Y-115826783D01*
X158488711Y-115758879D01*
X158341173Y-115660297D01*
X158215703Y-115534827D01*
X158117121Y-115387289D01*
X158049217Y-115223354D01*
X158014600Y-115049321D01*
X158014600Y-114871879D01*
X158049217Y-114697846D01*
X158117121Y-114533911D01*
X158215703Y-114386373D01*
X158341173Y-114260903D01*
X158488711Y-114162321D01*
X158652646Y-114094417D01*
X158768668Y-114071339D01*
X158826678Y-114059800D01*
X159004122Y-114059800D01*
X159062132Y-114071339D01*
G37*
G36*
X156522132Y-114071339D02*
G01*
X156638154Y-114094417D01*
X156802089Y-114162321D01*
X156949627Y-114260903D01*
X157075097Y-114386373D01*
X157173679Y-114533911D01*
X157241583Y-114697846D01*
X157276200Y-114871879D01*
X157276200Y-115049321D01*
X157241583Y-115223354D01*
X157173679Y-115387289D01*
X157075097Y-115534827D01*
X156949627Y-115660297D01*
X156802089Y-115758879D01*
X156638154Y-115826783D01*
X156522132Y-115849861D01*
X156464122Y-115861400D01*
X156286678Y-115861400D01*
X156228668Y-115849861D01*
X156112646Y-115826783D01*
X155948711Y-115758879D01*
X155801173Y-115660297D01*
X155675703Y-115534827D01*
X155577121Y-115387289D01*
X155509217Y-115223354D01*
X155474600Y-115049321D01*
X155474600Y-114871879D01*
X155509217Y-114697846D01*
X155577121Y-114533911D01*
X155675703Y-114386373D01*
X155801173Y-114260903D01*
X155948711Y-114162321D01*
X156112646Y-114094417D01*
X156228668Y-114071339D01*
X156286678Y-114059800D01*
X156464122Y-114059800D01*
X156522132Y-114071339D01*
G37*
G36*
X153982132Y-114071339D02*
G01*
X154098154Y-114094417D01*
X154262089Y-114162321D01*
X154409627Y-114260903D01*
X154535097Y-114386373D01*
X154633679Y-114533911D01*
X154701583Y-114697846D01*
X154736200Y-114871879D01*
X154736200Y-115049321D01*
X154701583Y-115223354D01*
X154633679Y-115387289D01*
X154535097Y-115534827D01*
X154409627Y-115660297D01*
X154262089Y-115758879D01*
X154098154Y-115826783D01*
X153982132Y-115849861D01*
X153924122Y-115861400D01*
X153746678Y-115861400D01*
X153688668Y-115849861D01*
X153572646Y-115826783D01*
X153408711Y-115758879D01*
X153261173Y-115660297D01*
X153135703Y-115534827D01*
X153037121Y-115387289D01*
X152969217Y-115223354D01*
X152934600Y-115049321D01*
X152934600Y-114871879D01*
X152969217Y-114697846D01*
X153037121Y-114533911D01*
X153135703Y-114386373D01*
X153261173Y-114260903D01*
X153408711Y-114162321D01*
X153572646Y-114094417D01*
X153688668Y-114071339D01*
X153746678Y-114059800D01*
X153924122Y-114059800D01*
X153982132Y-114071339D01*
G37*
G36*
X148902132Y-114071339D02*
G01*
X149018154Y-114094417D01*
X149182089Y-114162321D01*
X149329627Y-114260903D01*
X149455097Y-114386373D01*
X149553679Y-114533911D01*
X149621583Y-114697846D01*
X149656200Y-114871879D01*
X149656200Y-115049321D01*
X149621583Y-115223354D01*
X149553679Y-115387289D01*
X149455097Y-115534827D01*
X149329627Y-115660297D01*
X149182089Y-115758879D01*
X149018154Y-115826783D01*
X148902132Y-115849861D01*
X148844122Y-115861400D01*
X148666678Y-115861400D01*
X148608668Y-115849861D01*
X148492646Y-115826783D01*
X148328711Y-115758879D01*
X148181173Y-115660297D01*
X148055703Y-115534827D01*
X147957121Y-115387289D01*
X147889217Y-115223354D01*
X147854600Y-115049321D01*
X147854600Y-114871879D01*
X147889217Y-114697846D01*
X147957121Y-114533911D01*
X148055703Y-114386373D01*
X148181173Y-114260903D01*
X148328711Y-114162321D01*
X148492646Y-114094417D01*
X148608668Y-114071339D01*
X148666678Y-114059800D01*
X148844122Y-114059800D01*
X148902132Y-114071339D01*
G37*
G36*
X146362132Y-114071339D02*
G01*
X146478154Y-114094417D01*
X146642089Y-114162321D01*
X146789627Y-114260903D01*
X146915097Y-114386373D01*
X147013679Y-114533911D01*
X147081583Y-114697846D01*
X147116200Y-114871879D01*
X147116200Y-115049321D01*
X147081583Y-115223354D01*
X147013679Y-115387289D01*
X146915097Y-115534827D01*
X146789627Y-115660297D01*
X146642089Y-115758879D01*
X146478154Y-115826783D01*
X146362132Y-115849861D01*
X146304122Y-115861400D01*
X146126678Y-115861400D01*
X146068668Y-115849861D01*
X145952646Y-115826783D01*
X145788711Y-115758879D01*
X145641173Y-115660297D01*
X145515703Y-115534827D01*
X145417121Y-115387289D01*
X145349217Y-115223354D01*
X145314600Y-115049321D01*
X145314600Y-114871879D01*
X145349217Y-114697846D01*
X145417121Y-114533911D01*
X145515703Y-114386373D01*
X145641173Y-114260903D01*
X145788711Y-114162321D01*
X145952646Y-114094417D01*
X146068668Y-114071339D01*
X146126678Y-114059800D01*
X146304122Y-114059800D01*
X146362132Y-114071339D01*
G37*
G36*
X151442132Y-114071339D02*
G01*
X151558154Y-114094417D01*
X151722089Y-114162321D01*
X151869627Y-114260903D01*
X151995097Y-114386373D01*
X152093679Y-114533911D01*
X152161583Y-114697846D01*
X152196200Y-114871879D01*
X152196200Y-115049321D01*
X152161583Y-115223354D01*
X152093679Y-115387289D01*
X151995097Y-115534827D01*
X151869627Y-115660297D01*
X151722089Y-115758879D01*
X151558154Y-115826783D01*
X151442132Y-115849861D01*
X151384122Y-115861400D01*
X151206678Y-115861400D01*
X151148668Y-115849861D01*
X151032646Y-115826783D01*
X150868711Y-115758879D01*
X150721173Y-115660297D01*
X150595703Y-115534827D01*
X150497121Y-115387289D01*
X150429217Y-115223354D01*
X150394600Y-115049321D01*
X150394600Y-114871879D01*
X150429217Y-114697846D01*
X150497121Y-114533911D01*
X150595703Y-114386373D01*
X150721173Y-114260903D01*
X150868711Y-114162321D01*
X151032646Y-114094417D01*
X151148668Y-114071339D01*
X151206678Y-114059800D01*
X151384122Y-114059800D01*
X151442132Y-114071339D01*
G37*
G36*
X142036200Y-115861400D02*
G01*
X140234600Y-115861400D01*
X140234600Y-114059800D01*
X142036200Y-114059800D01*
X142036200Y-115861400D01*
G37*
G36*
X141343585Y-104744974D02*
G01*
X141489321Y-104805340D01*
X141620480Y-104892978D01*
X141732022Y-105004520D01*
X141819660Y-105135679D01*
X141880026Y-105281415D01*
X141910800Y-105436128D01*
X141910800Y-105593872D01*
X141880026Y-105748585D01*
X141819660Y-105894321D01*
X141732022Y-106025480D01*
X141620480Y-106137022D01*
X141489321Y-106224660D01*
X141489320Y-106224661D01*
X141489319Y-106224661D01*
X141343585Y-106285026D01*
X141188873Y-106315800D01*
X141031127Y-106315800D01*
X140876415Y-106285026D01*
X140730681Y-106224661D01*
X140730680Y-106224661D01*
X140730679Y-106224660D01*
X140599520Y-106137022D01*
X140487978Y-106025480D01*
X140400340Y-105894321D01*
X140339974Y-105748585D01*
X140309200Y-105593872D01*
X140309200Y-105436128D01*
X140339974Y-105281415D01*
X140400340Y-105135679D01*
X140487978Y-105004520D01*
X140599520Y-104892978D01*
X140730679Y-104805340D01*
X140876415Y-104744974D01*
X141031127Y-104714200D01*
X141188873Y-104714200D01*
X141343585Y-104744974D01*
G37*
G36*
X117192271Y-102853909D02*
G01*
X117240079Y-102858617D01*
X117362755Y-102895831D01*
X117362758Y-102895832D01*
X117475813Y-102956261D01*
X117574912Y-103037588D01*
X117656239Y-103136687D01*
X117716668Y-103249742D01*
X117716669Y-103249745D01*
X117753883Y-103372421D01*
X117766448Y-103500000D01*
X117753883Y-103627579D01*
X117716669Y-103750255D01*
X117716668Y-103750258D01*
X117656239Y-103863313D01*
X117574912Y-103962412D01*
X117475813Y-104043739D01*
X117362758Y-104104168D01*
X117362755Y-104104169D01*
X117240079Y-104141383D01*
X117192271Y-104146091D01*
X117144465Y-104150800D01*
X116380535Y-104150800D01*
X116332729Y-104146092D01*
X116284921Y-104141383D01*
X116162245Y-104104169D01*
X116162242Y-104104168D01*
X116049187Y-104043739D01*
X115950088Y-103962412D01*
X115868761Y-103863313D01*
X115808332Y-103750258D01*
X115808331Y-103750255D01*
X115771117Y-103627579D01*
X115758552Y-103500000D01*
X115771117Y-103372421D01*
X115808331Y-103249745D01*
X115808332Y-103249742D01*
X115868761Y-103136687D01*
X115950088Y-103037588D01*
X116049187Y-102956261D01*
X116162242Y-102895832D01*
X116162245Y-102895831D01*
X116284921Y-102858617D01*
X116332729Y-102853908D01*
X116380535Y-102849200D01*
X117144465Y-102849200D01*
X117192271Y-102853909D01*
G37*
G36*
X180220800Y-101602201D02*
G01*
X180223202Y-101626587D01*
X180230315Y-101650036D01*
X180241866Y-101671647D01*
X180257411Y-101690589D01*
X180276353Y-101706134D01*
X180297964Y-101717685D01*
X180321413Y-101724798D01*
X180345799Y-101727200D01*
X182082800Y-101727200D01*
X182082800Y-103352800D01*
X177917200Y-103352800D01*
X177917200Y-101622506D01*
X177919200Y-101602201D01*
X177919200Y-100899200D01*
X180220800Y-100899200D01*
X180220800Y-101602201D01*
G37*
G36*
X119613852Y-101739107D02*
G01*
X119688793Y-101754013D01*
X119730145Y-101771142D01*
X119829979Y-101812494D01*
X119957043Y-101897396D01*
X120065104Y-102005457D01*
X120150006Y-102132521D01*
X120208487Y-102273708D01*
X120238300Y-102423589D01*
X120238300Y-102576411D01*
X120208487Y-102726292D01*
X120150006Y-102867479D01*
X120065104Y-102994543D01*
X119957043Y-103102604D01*
X119829979Y-103187506D01*
X119730145Y-103228858D01*
X119688793Y-103245987D01*
X119613852Y-103260893D01*
X119538911Y-103275800D01*
X119386089Y-103275800D01*
X119311148Y-103260893D01*
X119236207Y-103245987D01*
X119194855Y-103228858D01*
X119095021Y-103187506D01*
X118967957Y-103102604D01*
X118859896Y-102994543D01*
X118774994Y-102867479D01*
X118716513Y-102726292D01*
X118686700Y-102576411D01*
X118686700Y-102423589D01*
X118716513Y-102273708D01*
X118774994Y-102132521D01*
X118859896Y-102005457D01*
X118967957Y-101897396D01*
X119095021Y-101812494D01*
X119194855Y-101771142D01*
X119236207Y-101754013D01*
X119311148Y-101739107D01*
X119386089Y-101724200D01*
X119538911Y-101724200D01*
X119613852Y-101739107D01*
G37*
G36*
X141343585Y-99864974D02*
G01*
X141489321Y-99925340D01*
X141519868Y-99945751D01*
X141620480Y-100012978D01*
X141732022Y-100124520D01*
X141819661Y-100255681D01*
X141859191Y-100351114D01*
X141880026Y-100401415D01*
X141910800Y-100556128D01*
X141910800Y-100713872D01*
X141880026Y-100868585D01*
X141819660Y-101014321D01*
X141732022Y-101145480D01*
X141620480Y-101257022D01*
X141489321Y-101344660D01*
X141489320Y-101344661D01*
X141489319Y-101344661D01*
X141343585Y-101405026D01*
X141188873Y-101435800D01*
X141031127Y-101435800D01*
X140876415Y-101405026D01*
X140730681Y-101344661D01*
X140730680Y-101344661D01*
X140730679Y-101344660D01*
X140599520Y-101257022D01*
X140487978Y-101145480D01*
X140400340Y-101014321D01*
X140339974Y-100868585D01*
X140309200Y-100713872D01*
X140309200Y-100556128D01*
X140339974Y-100401415D01*
X140360809Y-100351114D01*
X140400339Y-100255681D01*
X140487978Y-100124520D01*
X140599520Y-100012978D01*
X140700132Y-99945751D01*
X140730679Y-99925340D01*
X140876415Y-99864974D01*
X141031127Y-99834200D01*
X141188873Y-99834200D01*
X141343585Y-99864974D01*
G37*
G36*
X178140800Y-100550800D02*
G01*
X176989200Y-100550800D01*
X176989200Y-99449200D01*
X178140800Y-99449200D01*
X178140800Y-100550800D01*
G37*
G36*
X182082800Y-98272800D02*
G01*
X180345799Y-98272800D01*
X180321413Y-98275202D01*
X180297964Y-98282315D01*
X180276353Y-98293866D01*
X180257411Y-98309411D01*
X180241866Y-98328353D01*
X180230315Y-98349964D01*
X180223202Y-98373413D01*
X180220800Y-98397799D01*
X180220800Y-99100800D01*
X177919200Y-99100800D01*
X177919200Y-98397799D01*
X177917200Y-98377494D01*
X177917200Y-96647200D01*
X182082800Y-96647200D01*
X182082800Y-98272800D01*
G37*
G36*
X119613851Y-96739106D02*
G01*
X119688793Y-96754013D01*
X119730145Y-96771142D01*
X119829979Y-96812494D01*
X119957043Y-96897396D01*
X120065104Y-97005457D01*
X120150006Y-97132521D01*
X120208487Y-97273708D01*
X120238300Y-97423589D01*
X120238300Y-97576411D01*
X120208487Y-97726292D01*
X120150006Y-97867479D01*
X120065104Y-97994543D01*
X119957043Y-98102604D01*
X119829979Y-98187506D01*
X119730145Y-98228858D01*
X119688793Y-98245987D01*
X119613851Y-98260894D01*
X119538911Y-98275800D01*
X119386089Y-98275800D01*
X119311148Y-98260893D01*
X119236207Y-98245987D01*
X119194855Y-98228858D01*
X119095021Y-98187506D01*
X118967957Y-98102604D01*
X118859896Y-97994543D01*
X118774994Y-97867479D01*
X118716513Y-97726292D01*
X118686700Y-97576411D01*
X118686700Y-97423589D01*
X118716513Y-97273708D01*
X118774994Y-97132521D01*
X118859896Y-97005457D01*
X118967957Y-96897396D01*
X119095021Y-96812494D01*
X119194855Y-96771142D01*
X119236207Y-96754013D01*
X119311149Y-96739106D01*
X119386089Y-96724200D01*
X119538911Y-96724200D01*
X119613851Y-96739106D01*
G37*
G36*
X117192271Y-95853909D02*
G01*
X117240079Y-95858617D01*
X117362755Y-95895831D01*
X117362758Y-95895832D01*
X117475813Y-95956261D01*
X117574912Y-96037588D01*
X117656239Y-96136687D01*
X117716668Y-96249742D01*
X117716669Y-96249745D01*
X117753883Y-96372421D01*
X117766448Y-96500000D01*
X117753883Y-96627579D01*
X117724573Y-96724200D01*
X117716668Y-96750258D01*
X117656239Y-96863313D01*
X117574912Y-96962412D01*
X117475813Y-97043739D01*
X117362758Y-97104168D01*
X117362755Y-97104169D01*
X117240079Y-97141383D01*
X117192271Y-97146092D01*
X117144465Y-97150800D01*
X116380535Y-97150800D01*
X116332729Y-97146092D01*
X116284921Y-97141383D01*
X116162245Y-97104169D01*
X116162242Y-97104168D01*
X116049187Y-97043739D01*
X115950088Y-96962412D01*
X115868761Y-96863313D01*
X115808332Y-96750258D01*
X115800427Y-96724200D01*
X115771117Y-96627579D01*
X115758552Y-96500000D01*
X115771117Y-96372421D01*
X115808331Y-96249745D01*
X115808332Y-96249742D01*
X115868761Y-96136687D01*
X115950088Y-96037588D01*
X116049187Y-95956261D01*
X116162242Y-95895832D01*
X116162245Y-95895831D01*
X116284921Y-95858617D01*
X116332729Y-95853908D01*
X116380535Y-95849200D01*
X117144465Y-95849200D01*
X117192271Y-95853909D01*
G37*
G36*
X136189132Y-83570739D02*
G01*
X136305154Y-83593817D01*
X136469089Y-83661721D01*
X136616627Y-83760303D01*
X136742097Y-83885773D01*
X136840679Y-84033311D01*
X136908583Y-84197246D01*
X136943200Y-84371279D01*
X136943200Y-84548721D01*
X136908583Y-84722754D01*
X136840679Y-84886689D01*
X136742097Y-85034227D01*
X136616627Y-85159697D01*
X136469089Y-85258279D01*
X136305154Y-85326183D01*
X136189132Y-85349261D01*
X136131122Y-85360800D01*
X135953678Y-85360800D01*
X135895668Y-85349261D01*
X135779646Y-85326183D01*
X135615711Y-85258279D01*
X135468173Y-85159697D01*
X135342703Y-85034227D01*
X135244121Y-84886689D01*
X135176217Y-84722754D01*
X135141600Y-84548721D01*
X135141600Y-84371279D01*
X135176217Y-84197246D01*
X135244121Y-84033311D01*
X135342703Y-83885773D01*
X135468173Y-83760303D01*
X135615711Y-83661721D01*
X135779646Y-83593817D01*
X135895668Y-83570739D01*
X135953678Y-83559200D01*
X136131122Y-83559200D01*
X136189132Y-83570739D01*
G37*
G36*
X131109132Y-83570739D02*
G01*
X131225154Y-83593817D01*
X131389089Y-83661721D01*
X131536627Y-83760303D01*
X131662097Y-83885773D01*
X131760679Y-84033311D01*
X131828583Y-84197246D01*
X131863200Y-84371279D01*
X131863200Y-84548721D01*
X131828583Y-84722754D01*
X131760679Y-84886689D01*
X131662097Y-85034227D01*
X131536627Y-85159697D01*
X131389089Y-85258279D01*
X131225154Y-85326183D01*
X131109132Y-85349261D01*
X131051122Y-85360800D01*
X130873678Y-85360800D01*
X130815668Y-85349261D01*
X130699646Y-85326183D01*
X130535711Y-85258279D01*
X130388173Y-85159697D01*
X130262703Y-85034227D01*
X130164121Y-84886689D01*
X130096217Y-84722754D01*
X130061600Y-84548721D01*
X130061600Y-84371279D01*
X130096217Y-84197246D01*
X130164121Y-84033311D01*
X130262703Y-83885773D01*
X130388173Y-83760303D01*
X130535711Y-83661721D01*
X130699646Y-83593817D01*
X130815668Y-83570739D01*
X130873678Y-83559200D01*
X131051122Y-83559200D01*
X131109132Y-83570739D01*
G37*
G36*
X128569132Y-83570739D02*
G01*
X128685154Y-83593817D01*
X128849089Y-83661721D01*
X128996627Y-83760303D01*
X129122097Y-83885773D01*
X129220679Y-84033311D01*
X129288583Y-84197246D01*
X129323200Y-84371279D01*
X129323200Y-84548721D01*
X129288583Y-84722754D01*
X129220679Y-84886689D01*
X129122097Y-85034227D01*
X128996627Y-85159697D01*
X128849089Y-85258279D01*
X128685154Y-85326183D01*
X128569132Y-85349261D01*
X128511122Y-85360800D01*
X128333678Y-85360800D01*
X128275668Y-85349261D01*
X128159646Y-85326183D01*
X127995711Y-85258279D01*
X127848173Y-85159697D01*
X127722703Y-85034227D01*
X127624121Y-84886689D01*
X127556217Y-84722754D01*
X127521600Y-84548721D01*
X127521600Y-84371279D01*
X127556217Y-84197246D01*
X127624121Y-84033311D01*
X127722703Y-83885773D01*
X127848173Y-83760303D01*
X127995711Y-83661721D01*
X128159646Y-83593817D01*
X128275668Y-83570739D01*
X128333678Y-83559200D01*
X128511122Y-83559200D01*
X128569132Y-83570739D01*
G37*
G36*
X133649132Y-83570739D02*
G01*
X133765154Y-83593817D01*
X133929089Y-83661721D01*
X134076627Y-83760303D01*
X134202097Y-83885773D01*
X134300679Y-84033311D01*
X134368583Y-84197246D01*
X134403200Y-84371279D01*
X134403200Y-84548721D01*
X134368583Y-84722754D01*
X134300679Y-84886689D01*
X134202097Y-85034227D01*
X134076627Y-85159697D01*
X133929089Y-85258279D01*
X133765154Y-85326183D01*
X133649132Y-85349261D01*
X133591122Y-85360800D01*
X133413678Y-85360800D01*
X133355668Y-85349261D01*
X133239646Y-85326183D01*
X133075711Y-85258279D01*
X132928173Y-85159697D01*
X132802703Y-85034227D01*
X132704121Y-84886689D01*
X132636217Y-84722754D01*
X132601600Y-84548721D01*
X132601600Y-84371279D01*
X132636217Y-84197246D01*
X132704121Y-84033311D01*
X132802703Y-83885773D01*
X132928173Y-83760303D01*
X133075711Y-83661721D01*
X133239646Y-83593817D01*
X133355668Y-83570739D01*
X133413678Y-83559200D01*
X133591122Y-83559200D01*
X133649132Y-83570739D01*
G37*
G36*
X159803200Y-85360800D02*
G01*
X158001600Y-85360800D01*
X158001600Y-83559200D01*
X159803200Y-83559200D01*
X159803200Y-85360800D01*
G37*
G36*
X156509132Y-83570739D02*
G01*
X156625154Y-83593817D01*
X156789089Y-83661721D01*
X156936627Y-83760303D01*
X157062097Y-83885773D01*
X157160679Y-84033311D01*
X157228583Y-84197246D01*
X157263200Y-84371279D01*
X157263200Y-84548721D01*
X157228583Y-84722754D01*
X157160679Y-84886689D01*
X157062097Y-85034227D01*
X156936627Y-85159697D01*
X156789089Y-85258279D01*
X156625154Y-85326183D01*
X156509132Y-85349261D01*
X156451122Y-85360800D01*
X156273678Y-85360800D01*
X156215668Y-85349261D01*
X156099646Y-85326183D01*
X155935711Y-85258279D01*
X155788173Y-85159697D01*
X155662703Y-85034227D01*
X155564121Y-84886689D01*
X155496217Y-84722754D01*
X155461600Y-84548721D01*
X155461600Y-84371279D01*
X155496217Y-84197246D01*
X155564121Y-84033311D01*
X155662703Y-83885773D01*
X155788173Y-83760303D01*
X155935711Y-83661721D01*
X156099646Y-83593817D01*
X156215668Y-83570739D01*
X156273678Y-83559200D01*
X156451122Y-83559200D01*
X156509132Y-83570739D01*
G37*
G36*
X153969132Y-83570739D02*
G01*
X154085154Y-83593817D01*
X154249089Y-83661721D01*
X154396627Y-83760303D01*
X154522097Y-83885773D01*
X154620679Y-84033311D01*
X154688583Y-84197246D01*
X154723200Y-84371279D01*
X154723200Y-84548721D01*
X154688583Y-84722754D01*
X154620679Y-84886689D01*
X154522097Y-85034227D01*
X154396627Y-85159697D01*
X154249089Y-85258279D01*
X154085154Y-85326183D01*
X153969132Y-85349261D01*
X153911122Y-85360800D01*
X153733678Y-85360800D01*
X153675668Y-85349261D01*
X153559646Y-85326183D01*
X153395711Y-85258279D01*
X153248173Y-85159697D01*
X153122703Y-85034227D01*
X153024121Y-84886689D01*
X152956217Y-84722754D01*
X152921600Y-84548721D01*
X152921600Y-84371279D01*
X152956217Y-84197246D01*
X153024121Y-84033311D01*
X153122703Y-83885773D01*
X153248173Y-83760303D01*
X153395711Y-83661721D01*
X153559646Y-83593817D01*
X153675668Y-83570739D01*
X153733678Y-83559200D01*
X153911122Y-83559200D01*
X153969132Y-83570739D01*
G37*
G36*
X151429132Y-83570739D02*
G01*
X151545154Y-83593817D01*
X151709089Y-83661721D01*
X151856627Y-83760303D01*
X151982097Y-83885773D01*
X152080679Y-84033311D01*
X152148583Y-84197246D01*
X152183200Y-84371279D01*
X152183200Y-84548721D01*
X152148583Y-84722754D01*
X152080679Y-84886689D01*
X151982097Y-85034227D01*
X151856627Y-85159697D01*
X151709089Y-85258279D01*
X151545154Y-85326183D01*
X151429132Y-85349261D01*
X151371122Y-85360800D01*
X151193678Y-85360800D01*
X151135668Y-85349261D01*
X151019646Y-85326183D01*
X150855711Y-85258279D01*
X150708173Y-85159697D01*
X150582703Y-85034227D01*
X150484121Y-84886689D01*
X150416217Y-84722754D01*
X150381600Y-84548721D01*
X150381600Y-84371279D01*
X150416217Y-84197246D01*
X150484121Y-84033311D01*
X150582703Y-83885773D01*
X150708173Y-83760303D01*
X150855711Y-83661721D01*
X151019646Y-83593817D01*
X151135668Y-83570739D01*
X151193678Y-83559200D01*
X151371122Y-83559200D01*
X151429132Y-83570739D01*
G37*
G36*
X148889132Y-83570739D02*
G01*
X149005154Y-83593817D01*
X149169089Y-83661721D01*
X149316627Y-83760303D01*
X149442097Y-83885773D01*
X149540679Y-84033311D01*
X149608583Y-84197246D01*
X149643200Y-84371279D01*
X149643200Y-84548721D01*
X149608583Y-84722754D01*
X149540679Y-84886689D01*
X149442097Y-85034227D01*
X149316627Y-85159697D01*
X149169089Y-85258279D01*
X149005154Y-85326183D01*
X148889132Y-85349261D01*
X148831122Y-85360800D01*
X148653678Y-85360800D01*
X148595668Y-85349261D01*
X148479646Y-85326183D01*
X148315711Y-85258279D01*
X148168173Y-85159697D01*
X148042703Y-85034227D01*
X147944121Y-84886689D01*
X147876217Y-84722754D01*
X147841600Y-84548721D01*
X147841600Y-84371279D01*
X147876217Y-84197246D01*
X147944121Y-84033311D01*
X148042703Y-83885773D01*
X148168173Y-83760303D01*
X148315711Y-83661721D01*
X148479646Y-83593817D01*
X148595668Y-83570739D01*
X148653678Y-83559200D01*
X148831122Y-83559200D01*
X148889132Y-83570739D01*
G37*
G36*
X146349132Y-83570739D02*
G01*
X146465154Y-83593817D01*
X146629089Y-83661721D01*
X146776627Y-83760303D01*
X146902097Y-83885773D01*
X147000679Y-84033311D01*
X147068583Y-84197246D01*
X147103200Y-84371279D01*
X147103200Y-84548721D01*
X147068583Y-84722754D01*
X147000679Y-84886689D01*
X146902097Y-85034227D01*
X146776627Y-85159697D01*
X146629089Y-85258279D01*
X146465154Y-85326183D01*
X146349132Y-85349261D01*
X146291122Y-85360800D01*
X146113678Y-85360800D01*
X146055668Y-85349261D01*
X145939646Y-85326183D01*
X145775711Y-85258279D01*
X145628173Y-85159697D01*
X145502703Y-85034227D01*
X145404121Y-84886689D01*
X145336217Y-84722754D01*
X145301600Y-84548721D01*
X145301600Y-84371279D01*
X145336217Y-84197246D01*
X145404121Y-84033311D01*
X145502703Y-83885773D01*
X145628173Y-83760303D01*
X145775711Y-83661721D01*
X145939646Y-83593817D01*
X146055668Y-83570739D01*
X146113678Y-83559200D01*
X146291122Y-83559200D01*
X146349132Y-83570739D01*
G37*
G36*
X141269132Y-83570739D02*
G01*
X141385154Y-83593817D01*
X141549089Y-83661721D01*
X141696627Y-83760303D01*
X141822097Y-83885773D01*
X141920679Y-84033311D01*
X141988583Y-84197246D01*
X142023200Y-84371279D01*
X142023200Y-84548721D01*
X141988583Y-84722754D01*
X141920679Y-84886689D01*
X141822097Y-85034227D01*
X141696627Y-85159697D01*
X141549089Y-85258279D01*
X141385154Y-85326183D01*
X141269132Y-85349261D01*
X141211122Y-85360800D01*
X141033678Y-85360800D01*
X140975668Y-85349261D01*
X140859646Y-85326183D01*
X140695711Y-85258279D01*
X140548173Y-85159697D01*
X140422703Y-85034227D01*
X140324121Y-84886689D01*
X140256217Y-84722754D01*
X140221600Y-84548721D01*
X140221600Y-84371279D01*
X140256217Y-84197246D01*
X140324121Y-84033311D01*
X140422703Y-83885773D01*
X140548173Y-83760303D01*
X140695711Y-83661721D01*
X140859646Y-83593817D01*
X140975668Y-83570739D01*
X141033678Y-83559200D01*
X141211122Y-83559200D01*
X141269132Y-83570739D01*
G37*
G36*
X143809132Y-83570739D02*
G01*
X143925154Y-83593817D01*
X144089089Y-83661721D01*
X144236627Y-83760303D01*
X144362097Y-83885773D01*
X144460679Y-84033311D01*
X144528583Y-84197246D01*
X144563200Y-84371279D01*
X144563200Y-84548721D01*
X144528583Y-84722754D01*
X144460679Y-84886689D01*
X144362097Y-85034227D01*
X144236627Y-85159697D01*
X144089089Y-85258279D01*
X143925154Y-85326183D01*
X143809132Y-85349261D01*
X143751122Y-85360800D01*
X143573678Y-85360800D01*
X143515668Y-85349261D01*
X143399646Y-85326183D01*
X143235711Y-85258279D01*
X143088173Y-85159697D01*
X142962703Y-85034227D01*
X142864121Y-84886689D01*
X142796217Y-84722754D01*
X142761600Y-84548721D01*
X142761600Y-84371279D01*
X142796217Y-84197246D01*
X142864121Y-84033311D01*
X142962703Y-83885773D01*
X143088173Y-83760303D01*
X143235711Y-83661721D01*
X143399646Y-83593817D01*
X143515668Y-83570739D01*
X143573678Y-83559200D01*
X143751122Y-83559200D01*
X143809132Y-83570739D01*
G37*
G36*
X138729132Y-83570739D02*
G01*
X138845154Y-83593817D01*
X139009089Y-83661721D01*
X139156627Y-83760303D01*
X139282097Y-83885773D01*
X139380679Y-84033311D01*
X139448583Y-84197246D01*
X139483200Y-84371279D01*
X139483200Y-84548721D01*
X139448583Y-84722754D01*
X139380679Y-84886689D01*
X139282097Y-85034227D01*
X139156627Y-85159697D01*
X139009089Y-85258279D01*
X138845154Y-85326183D01*
X138729132Y-85349261D01*
X138671122Y-85360800D01*
X138493678Y-85360800D01*
X138435668Y-85349261D01*
X138319646Y-85326183D01*
X138155711Y-85258279D01*
X138008173Y-85159697D01*
X137882703Y-85034227D01*
X137784121Y-84886689D01*
X137716217Y-84722754D01*
X137681600Y-84548721D01*
X137681600Y-84371279D01*
X137716217Y-84197246D01*
X137784121Y-84033311D01*
X137882703Y-83885773D01*
X138008173Y-83760303D01*
X138155711Y-83661721D01*
X138319646Y-83593817D01*
X138435668Y-83570739D01*
X138493678Y-83559200D01*
X138671122Y-83559200D01*
X138729132Y-83570739D01*
G37*
G36*
X171711332Y-83565939D02*
G01*
X171827354Y-83589017D01*
X171991289Y-83656921D01*
X172138827Y-83755503D01*
X172264297Y-83880973D01*
X172362879Y-84028511D01*
X172430783Y-84192446D01*
X172465400Y-84366479D01*
X172465400Y-84543921D01*
X172430783Y-84717954D01*
X172362879Y-84881889D01*
X172264297Y-85029427D01*
X172138827Y-85154897D01*
X171991289Y-85253479D01*
X171827354Y-85321383D01*
X171711332Y-85344461D01*
X171653322Y-85356000D01*
X171475878Y-85356000D01*
X171417868Y-85344461D01*
X171301846Y-85321383D01*
X171137911Y-85253479D01*
X170990373Y-85154897D01*
X170864903Y-85029427D01*
X170766321Y-84881889D01*
X170698417Y-84717954D01*
X170663800Y-84543921D01*
X170663800Y-84366479D01*
X170698417Y-84192446D01*
X170766321Y-84028511D01*
X170864903Y-83880973D01*
X170990373Y-83755503D01*
X171137911Y-83656921D01*
X171301846Y-83589017D01*
X171417868Y-83565939D01*
X171475878Y-83554400D01*
X171653322Y-83554400D01*
X171711332Y-83565939D01*
G37*
G36*
X174251332Y-83565939D02*
G01*
X174367354Y-83589017D01*
X174531289Y-83656921D01*
X174678827Y-83755503D01*
X174804297Y-83880973D01*
X174902879Y-84028511D01*
X174970783Y-84192446D01*
X175005400Y-84366479D01*
X175005400Y-84543921D01*
X174970783Y-84717954D01*
X174902879Y-84881889D01*
X174804297Y-85029427D01*
X174678827Y-85154897D01*
X174531289Y-85253479D01*
X174367354Y-85321383D01*
X174251332Y-85344461D01*
X174193322Y-85356000D01*
X174015878Y-85356000D01*
X173957868Y-85344461D01*
X173841846Y-85321383D01*
X173677911Y-85253479D01*
X173530373Y-85154897D01*
X173404903Y-85029427D01*
X173306321Y-84881889D01*
X173238417Y-84717954D01*
X173203800Y-84543921D01*
X173203800Y-84366479D01*
X173238417Y-84192446D01*
X173306321Y-84028511D01*
X173404903Y-83880973D01*
X173530373Y-83755503D01*
X173677911Y-83656921D01*
X173841846Y-83589017D01*
X173957868Y-83565939D01*
X174015878Y-83554400D01*
X174193322Y-83554400D01*
X174251332Y-83565939D01*
G37*
G36*
X169171332Y-83565939D02*
G01*
X169287354Y-83589017D01*
X169451289Y-83656921D01*
X169598827Y-83755503D01*
X169724297Y-83880973D01*
X169822879Y-84028511D01*
X169890783Y-84192446D01*
X169925400Y-84366479D01*
X169925400Y-84543921D01*
X169890783Y-84717954D01*
X169822879Y-84881889D01*
X169724297Y-85029427D01*
X169598827Y-85154897D01*
X169451289Y-85253479D01*
X169287354Y-85321383D01*
X169171332Y-85344461D01*
X169113322Y-85356000D01*
X168935878Y-85356000D01*
X168877868Y-85344461D01*
X168761846Y-85321383D01*
X168597911Y-85253479D01*
X168450373Y-85154897D01*
X168324903Y-85029427D01*
X168226321Y-84881889D01*
X168158417Y-84717954D01*
X168123800Y-84543921D01*
X168123800Y-84366479D01*
X168158417Y-84192446D01*
X168226321Y-84028511D01*
X168324903Y-83880973D01*
X168450373Y-83755503D01*
X168597911Y-83656921D01*
X168761846Y-83589017D01*
X168877868Y-83565939D01*
X168935878Y-83554400D01*
X169113322Y-83554400D01*
X169171332Y-83565939D01*
G37*
G36*
X166631332Y-83565939D02*
G01*
X166747354Y-83589017D01*
X166911289Y-83656921D01*
X167058827Y-83755503D01*
X167184297Y-83880973D01*
X167282879Y-84028511D01*
X167350783Y-84192446D01*
X167385400Y-84366479D01*
X167385400Y-84543921D01*
X167350783Y-84717954D01*
X167282879Y-84881889D01*
X167184297Y-85029427D01*
X167058827Y-85154897D01*
X166911289Y-85253479D01*
X166747354Y-85321383D01*
X166631332Y-85344461D01*
X166573322Y-85356000D01*
X166395878Y-85356000D01*
X166337868Y-85344461D01*
X166221846Y-85321383D01*
X166057911Y-85253479D01*
X165910373Y-85154897D01*
X165784903Y-85029427D01*
X165686321Y-84881889D01*
X165618417Y-84717954D01*
X165583800Y-84543921D01*
X165583800Y-84366479D01*
X165618417Y-84192446D01*
X165686321Y-84028511D01*
X165784903Y-83880973D01*
X165910373Y-83755503D01*
X166057911Y-83656921D01*
X166221846Y-83589017D01*
X166337868Y-83565939D01*
X166395878Y-83554400D01*
X166573322Y-83554400D01*
X166631332Y-83565939D01*
G37*
G36*
X164845400Y-85356000D02*
G01*
X163043800Y-85356000D01*
X163043800Y-83554400D01*
X164845400Y-83554400D01*
X164845400Y-85356000D01*
G37*
G36*
X130335675Y-78893424D02*
G01*
X130422425Y-78929357D01*
X130545108Y-78980174D01*
X130733592Y-79106115D01*
X130893885Y-79266408D01*
X131019826Y-79454892D01*
X131070643Y-79577575D01*
X131106576Y-79664325D01*
X131150800Y-79886655D01*
X131150800Y-80113345D01*
X131106576Y-80335675D01*
X131070643Y-80422425D01*
X131019826Y-80545108D01*
X130893885Y-80733592D01*
X130733592Y-80893885D01*
X130545108Y-81019826D01*
X130422425Y-81070643D01*
X130335675Y-81106576D01*
X130113345Y-81150800D01*
X129886655Y-81150800D01*
X129664325Y-81106576D01*
X129577575Y-81070643D01*
X129454892Y-81019826D01*
X129266408Y-80893885D01*
X129106115Y-80733592D01*
X128980174Y-80545108D01*
X128929357Y-80422425D01*
X128893424Y-80335675D01*
X128849200Y-80113345D01*
X128849200Y-79886655D01*
X128893424Y-79664325D01*
X128929357Y-79577575D01*
X128980174Y-79454892D01*
X129106115Y-79266408D01*
X129266408Y-79106115D01*
X129454892Y-78980174D01*
X129577575Y-78929357D01*
X129664325Y-78893424D01*
X129886655Y-78849200D01*
X130113345Y-78849200D01*
X130335675Y-78893424D01*
G37*
G36*
X170335675Y-78893424D02*
G01*
X170422425Y-78929357D01*
X170545108Y-78980174D01*
X170733592Y-79106115D01*
X170893885Y-79266408D01*
X171019826Y-79454892D01*
X171070643Y-79577575D01*
X171106576Y-79664325D01*
X171150800Y-79886655D01*
X171150800Y-80113345D01*
X171106576Y-80335675D01*
X171070643Y-80422425D01*
X171019826Y-80545108D01*
X170893885Y-80733592D01*
X170733592Y-80893885D01*
X170545108Y-81019826D01*
X170422425Y-81070643D01*
X170335675Y-81106576D01*
X170113345Y-81150800D01*
X169886655Y-81150800D01*
X169664325Y-81106576D01*
X169577575Y-81070643D01*
X169454892Y-81019826D01*
X169266408Y-80893885D01*
X169106115Y-80733592D01*
X168980174Y-80545108D01*
X168929357Y-80422425D01*
X168893424Y-80335675D01*
X168849200Y-80113345D01*
X168849200Y-79886655D01*
X168893424Y-79664325D01*
X168929357Y-79577575D01*
X168980174Y-79454892D01*
X169106115Y-79266408D01*
X169266408Y-79106115D01*
X169454892Y-78980174D01*
X169577575Y-78929357D01*
X169664325Y-78893424D01*
X169886655Y-78849200D01*
X170113345Y-78849200D01*
X170335675Y-78893424D01*
G37*
G36*
X148844988Y-72063634D02*
G01*
X149014789Y-72115143D01*
X149014792Y-72115144D01*
X149171278Y-72198788D01*
X149308444Y-72311356D01*
X149421011Y-72448521D01*
X149504657Y-72605011D01*
X149556166Y-72774813D01*
X149569200Y-72907152D01*
X149569200Y-73295649D01*
X149556166Y-73427988D01*
X149504657Y-73597788D01*
X149504656Y-73597792D01*
X149421012Y-73754278D01*
X149308444Y-73891444D01*
X149171278Y-74004012D01*
X149014791Y-74087656D01*
X149014788Y-74087657D01*
X148844987Y-74139166D01*
X148668400Y-74156558D01*
X148491812Y-74139166D01*
X148322011Y-74087657D01*
X148322008Y-74087656D01*
X148165522Y-74004012D01*
X148028356Y-73891444D01*
X147915788Y-73754278D01*
X147832144Y-73597791D01*
X147832143Y-73597788D01*
X147780634Y-73427987D01*
X147767600Y-73295648D01*
X147767600Y-72907151D01*
X147780634Y-72774812D01*
X147832143Y-72605011D01*
X147832144Y-72605009D01*
X147832144Y-72605008D01*
X147915788Y-72448522D01*
X148028357Y-72311357D01*
X148165523Y-72198788D01*
X148322009Y-72115144D01*
X148322012Y-72115143D01*
X148491813Y-72063634D01*
X148668400Y-72046242D01*
X148844988Y-72063634D01*
G37*
G36*
X151926851Y-72054588D02*
G01*
X151959885Y-72064609D01*
X151990329Y-72080882D01*
X152017017Y-72102783D01*
X152038918Y-72129471D01*
X152055191Y-72159915D01*
X152065212Y-72192949D01*
X152069200Y-72233446D01*
X152069200Y-73969354D01*
X152065212Y-74009851D01*
X152055191Y-74042885D01*
X152038918Y-74073329D01*
X152017017Y-74100017D01*
X151990329Y-74121918D01*
X151959885Y-74138191D01*
X151926851Y-74148212D01*
X151886354Y-74152200D01*
X150450446Y-74152200D01*
X150409949Y-74148212D01*
X150376915Y-74138191D01*
X150346471Y-74121918D01*
X150319783Y-74100017D01*
X150297882Y-74073329D01*
X150281609Y-74042885D01*
X150271588Y-74009851D01*
X150267600Y-73969354D01*
X150267600Y-72233446D01*
X150271588Y-72192949D01*
X150281609Y-72159915D01*
X150297882Y-72129471D01*
X150319783Y-72102783D01*
X150346471Y-72080882D01*
X150376915Y-72064609D01*
X150409949Y-72054588D01*
X150450446Y-72050600D01*
X151886354Y-72050600D01*
X151926851Y-72054588D01*
G37*
M02*
