G04 #@! TF.GenerationSoftware,KiCad,Pcbnew,5.0.2+dfsg1-1*
G04 #@! TF.CreationDate,2019-11-13T21:35:25-05:00*
G04 #@! TF.ProjectId,pms7003-conn,706d7337-3030-4332-9d63-6f6e6e2e6b69,rev?*
G04 #@! TF.SameCoordinates,Original*
G04 #@! TF.FileFunction,Soldermask,Top*
G04 #@! TF.FilePolarity,Negative*
%FSLAX46Y46*%
G04 Gerber Fmt 4.6, Leading zero omitted, Abs format (unit mm)*
G04 Created by KiCad (PCBNEW 5.0.2+dfsg1-1) date Wed 13 Nov 2019 09:35:25 PM EST*
%MOMM*%
%LPD*%
G01*
G04 APERTURE LIST*
%ADD10C,0.100000*%
G04 APERTURE END LIST*
D10*
G36*
X146030442Y-52855518D02*
X146096627Y-52862037D01*
X146209853Y-52896384D01*
X146266467Y-52913557D01*
X146405087Y-52987652D01*
X146422991Y-52997222D01*
X146458729Y-53026552D01*
X146560186Y-53109814D01*
X146643448Y-53211271D01*
X146672778Y-53247009D01*
X146672779Y-53247011D01*
X146756443Y-53403533D01*
X146756443Y-53403534D01*
X146807963Y-53573373D01*
X146825359Y-53750000D01*
X146807963Y-53926627D01*
X146773616Y-54039853D01*
X146756443Y-54096467D01*
X146682348Y-54235087D01*
X146672778Y-54252991D01*
X146643448Y-54288729D01*
X146560186Y-54390186D01*
X146458729Y-54473448D01*
X146422991Y-54502778D01*
X146422989Y-54502779D01*
X146266467Y-54586443D01*
X146209853Y-54603616D01*
X146096627Y-54637963D01*
X146030443Y-54644481D01*
X145964260Y-54651000D01*
X145875740Y-54651000D01*
X145809557Y-54644481D01*
X145743373Y-54637963D01*
X145630147Y-54603616D01*
X145573533Y-54586443D01*
X145417011Y-54502779D01*
X145417009Y-54502778D01*
X145381271Y-54473448D01*
X145279814Y-54390186D01*
X145196552Y-54288729D01*
X145167222Y-54252991D01*
X145157652Y-54235087D01*
X145083557Y-54096467D01*
X145066384Y-54039853D01*
X145032037Y-53926627D01*
X145014641Y-53750000D01*
X145032037Y-53573373D01*
X145083557Y-53403534D01*
X145083557Y-53403533D01*
X145167221Y-53247011D01*
X145167222Y-53247009D01*
X145196552Y-53211271D01*
X145279814Y-53109814D01*
X145381271Y-53026552D01*
X145417009Y-52997222D01*
X145434913Y-52987652D01*
X145573533Y-52913557D01*
X145630147Y-52896384D01*
X145743373Y-52862037D01*
X145809558Y-52855518D01*
X145875740Y-52849000D01*
X145964260Y-52849000D01*
X146030442Y-52855518D01*
X146030442Y-52855518D01*
G37*
G36*
X146030443Y-50315519D02*
X146096627Y-50322037D01*
X146209853Y-50356384D01*
X146266467Y-50373557D01*
X146405087Y-50447652D01*
X146422991Y-50457222D01*
X146458729Y-50486552D01*
X146560186Y-50569814D01*
X146643448Y-50671271D01*
X146672778Y-50707009D01*
X146672779Y-50707011D01*
X146756443Y-50863533D01*
X146756443Y-50863534D01*
X146807963Y-51033373D01*
X146825359Y-51210000D01*
X146807963Y-51386627D01*
X146773616Y-51499853D01*
X146756443Y-51556467D01*
X146682348Y-51695087D01*
X146672778Y-51712991D01*
X146643448Y-51748729D01*
X146560186Y-51850186D01*
X146458729Y-51933448D01*
X146422991Y-51962778D01*
X146422989Y-51962779D01*
X146266467Y-52046443D01*
X146209853Y-52063616D01*
X146096627Y-52097963D01*
X146030442Y-52104482D01*
X145964260Y-52111000D01*
X145875740Y-52111000D01*
X145809557Y-52104481D01*
X145743373Y-52097963D01*
X145630147Y-52063616D01*
X145573533Y-52046443D01*
X145417011Y-51962779D01*
X145417009Y-51962778D01*
X145381271Y-51933448D01*
X145279814Y-51850186D01*
X145196552Y-51748729D01*
X145167222Y-51712991D01*
X145157652Y-51695087D01*
X145083557Y-51556467D01*
X145066384Y-51499853D01*
X145032037Y-51386627D01*
X145014641Y-51210000D01*
X145032037Y-51033373D01*
X145083557Y-50863534D01*
X145083557Y-50863533D01*
X145167221Y-50707011D01*
X145167222Y-50707009D01*
X145196552Y-50671271D01*
X145279814Y-50569814D01*
X145381271Y-50486552D01*
X145417009Y-50457222D01*
X145434913Y-50447652D01*
X145573533Y-50373557D01*
X145630147Y-50356384D01*
X145743373Y-50322037D01*
X145809557Y-50315519D01*
X145875740Y-50309000D01*
X145964260Y-50309000D01*
X146030443Y-50315519D01*
X146030443Y-50315519D01*
G37*
G36*
X146030442Y-47775518D02*
X146096627Y-47782037D01*
X146209853Y-47816384D01*
X146266467Y-47833557D01*
X146405087Y-47907652D01*
X146422991Y-47917222D01*
X146458729Y-47946552D01*
X146560186Y-48029814D01*
X146643448Y-48131271D01*
X146672778Y-48167009D01*
X146672779Y-48167011D01*
X146756443Y-48323533D01*
X146756443Y-48323534D01*
X146807963Y-48493373D01*
X146825359Y-48670000D01*
X146807963Y-48846627D01*
X146773616Y-48959853D01*
X146756443Y-49016467D01*
X146682348Y-49155087D01*
X146672778Y-49172991D01*
X146643448Y-49208729D01*
X146560186Y-49310186D01*
X146458729Y-49393448D01*
X146422991Y-49422778D01*
X146422989Y-49422779D01*
X146266467Y-49506443D01*
X146209853Y-49523616D01*
X146096627Y-49557963D01*
X146030442Y-49564482D01*
X145964260Y-49571000D01*
X145875740Y-49571000D01*
X145809558Y-49564482D01*
X145743373Y-49557963D01*
X145630147Y-49523616D01*
X145573533Y-49506443D01*
X145417011Y-49422779D01*
X145417009Y-49422778D01*
X145381271Y-49393448D01*
X145279814Y-49310186D01*
X145196552Y-49208729D01*
X145167222Y-49172991D01*
X145157652Y-49155087D01*
X145083557Y-49016467D01*
X145066384Y-48959853D01*
X145032037Y-48846627D01*
X145014641Y-48670000D01*
X145032037Y-48493373D01*
X145083557Y-48323534D01*
X145083557Y-48323533D01*
X145167221Y-48167011D01*
X145167222Y-48167009D01*
X145196552Y-48131271D01*
X145279814Y-48029814D01*
X145381271Y-47946552D01*
X145417009Y-47917222D01*
X145434913Y-47907652D01*
X145573533Y-47833557D01*
X145630147Y-47816384D01*
X145743373Y-47782037D01*
X145809557Y-47775519D01*
X145875740Y-47769000D01*
X145964260Y-47769000D01*
X146030442Y-47775518D01*
X146030442Y-47775518D01*
G37*
G36*
X146030443Y-45235519D02*
X146096627Y-45242037D01*
X146191624Y-45270854D01*
X146266467Y-45293557D01*
X146362349Y-45344808D01*
X146422991Y-45377222D01*
X146458729Y-45406552D01*
X146560186Y-45489814D01*
X146635047Y-45581034D01*
X146672778Y-45627009D01*
X146672779Y-45627011D01*
X146756443Y-45783533D01*
X146756443Y-45783534D01*
X146807963Y-45953373D01*
X146825359Y-46130000D01*
X146807963Y-46306627D01*
X146773616Y-46419853D01*
X146756443Y-46476467D01*
X146682348Y-46615087D01*
X146672778Y-46632991D01*
X146643448Y-46668729D01*
X146560186Y-46770186D01*
X146458729Y-46853448D01*
X146422991Y-46882778D01*
X146422989Y-46882779D01*
X146266467Y-46966443D01*
X146209853Y-46983616D01*
X146096627Y-47017963D01*
X146030443Y-47024481D01*
X145964260Y-47031000D01*
X145875740Y-47031000D01*
X145809557Y-47024481D01*
X145743373Y-47017963D01*
X145630147Y-46983616D01*
X145573533Y-46966443D01*
X145417011Y-46882779D01*
X145417009Y-46882778D01*
X145381271Y-46853448D01*
X145279814Y-46770186D01*
X145196552Y-46668729D01*
X145167222Y-46632991D01*
X145157652Y-46615087D01*
X145083557Y-46476467D01*
X145066384Y-46419853D01*
X145032037Y-46306627D01*
X145014641Y-46130000D01*
X145032037Y-45953373D01*
X145083557Y-45783534D01*
X145083557Y-45783533D01*
X145167221Y-45627011D01*
X145167222Y-45627009D01*
X145204953Y-45581034D01*
X145279814Y-45489814D01*
X145381271Y-45406552D01*
X145417009Y-45377222D01*
X145477651Y-45344808D01*
X145573533Y-45293557D01*
X145648376Y-45270854D01*
X145743373Y-45242037D01*
X145809557Y-45235519D01*
X145875740Y-45229000D01*
X145964260Y-45229000D01*
X146030443Y-45235519D01*
X146030443Y-45235519D01*
G37*
G36*
X155611000Y-40067262D02*
X155613402Y-40091648D01*
X155620515Y-40115097D01*
X155632066Y-40136708D01*
X155647612Y-40155650D01*
X155666554Y-40171196D01*
X155688165Y-40182747D01*
X155711614Y-40189860D01*
X155736000Y-40192262D01*
X155760386Y-40189860D01*
X155783835Y-40182747D01*
X155805446Y-40171196D01*
X155824388Y-40155650D01*
X155846236Y-40126192D01*
X155869644Y-40082400D01*
X155938499Y-39998499D01*
X156022400Y-39929644D01*
X156118121Y-39878479D01*
X156221985Y-39846973D01*
X156302933Y-39839000D01*
X156357067Y-39839000D01*
X156438015Y-39846973D01*
X156541879Y-39878479D01*
X156637600Y-39929644D01*
X156721501Y-39998499D01*
X156790356Y-40082400D01*
X156841521Y-40178121D01*
X156873027Y-40281985D01*
X156883666Y-40390000D01*
X156873027Y-40498015D01*
X156841521Y-40601879D01*
X156790356Y-40697600D01*
X156721501Y-40781501D01*
X156637600Y-40850356D01*
X156541879Y-40901521D01*
X156529142Y-40905385D01*
X156506507Y-40914760D01*
X156486133Y-40928374D01*
X156468806Y-40945701D01*
X156455192Y-40966076D01*
X156445814Y-40988715D01*
X156441034Y-41012748D01*
X156441034Y-41037252D01*
X156445815Y-41061286D01*
X156455192Y-41083925D01*
X156468806Y-41104299D01*
X156486133Y-41121626D01*
X156506508Y-41135240D01*
X156529142Y-41144615D01*
X156541879Y-41148479D01*
X156637600Y-41199644D01*
X156721501Y-41268499D01*
X156790356Y-41352400D01*
X156841521Y-41448121D01*
X156873027Y-41551985D01*
X156883666Y-41660000D01*
X156873027Y-41768015D01*
X156841521Y-41871879D01*
X156790356Y-41967600D01*
X156721501Y-42051501D01*
X156637600Y-42120356D01*
X156541879Y-42171521D01*
X156529142Y-42175385D01*
X156506507Y-42184760D01*
X156486133Y-42198374D01*
X156468806Y-42215701D01*
X156455192Y-42236076D01*
X156445814Y-42258715D01*
X156441034Y-42282748D01*
X156441034Y-42307252D01*
X156445815Y-42331286D01*
X156455192Y-42353925D01*
X156468806Y-42374299D01*
X156486133Y-42391626D01*
X156506508Y-42405240D01*
X156529142Y-42414615D01*
X156541879Y-42418479D01*
X156637600Y-42469644D01*
X156721501Y-42538499D01*
X156790356Y-42622400D01*
X156841521Y-42718121D01*
X156873027Y-42821985D01*
X156883666Y-42930000D01*
X156873027Y-43038015D01*
X156841521Y-43141879D01*
X156790356Y-43237600D01*
X156721501Y-43321501D01*
X156637600Y-43390356D01*
X156541879Y-43441521D01*
X156529142Y-43445385D01*
X156506507Y-43454760D01*
X156486133Y-43468374D01*
X156468806Y-43485701D01*
X156455192Y-43506076D01*
X156445814Y-43528715D01*
X156441034Y-43552748D01*
X156441034Y-43577252D01*
X156445815Y-43601286D01*
X156455192Y-43623925D01*
X156468806Y-43644299D01*
X156486133Y-43661626D01*
X156506508Y-43675240D01*
X156529142Y-43684615D01*
X156541879Y-43688479D01*
X156637600Y-43739644D01*
X156721501Y-43808499D01*
X156790356Y-43892400D01*
X156841521Y-43988121D01*
X156873027Y-44091985D01*
X156883666Y-44200000D01*
X156873027Y-44308015D01*
X156841521Y-44411879D01*
X156790356Y-44507600D01*
X156721501Y-44591501D01*
X156637600Y-44660356D01*
X156541879Y-44711521D01*
X156529142Y-44715385D01*
X156506507Y-44724760D01*
X156486133Y-44738374D01*
X156468806Y-44755701D01*
X156455192Y-44776076D01*
X156445814Y-44798715D01*
X156441034Y-44822748D01*
X156441034Y-44847252D01*
X156445815Y-44871286D01*
X156455192Y-44893925D01*
X156468806Y-44914299D01*
X156486133Y-44931626D01*
X156506508Y-44945240D01*
X156529142Y-44954615D01*
X156541879Y-44958479D01*
X156637600Y-45009644D01*
X156721501Y-45078499D01*
X156790356Y-45162400D01*
X156841521Y-45258121D01*
X156873027Y-45361985D01*
X156883666Y-45470000D01*
X156873027Y-45578015D01*
X156841521Y-45681879D01*
X156790356Y-45777600D01*
X156721501Y-45861501D01*
X156637600Y-45930356D01*
X156541879Y-45981521D01*
X156438015Y-46013027D01*
X156357067Y-46021000D01*
X156302933Y-46021000D01*
X156221985Y-46013027D01*
X156118121Y-45981521D01*
X156022400Y-45930356D01*
X155938499Y-45861501D01*
X155869644Y-45777600D01*
X155818479Y-45681879D01*
X155814615Y-45669142D01*
X155805240Y-45646507D01*
X155791626Y-45626133D01*
X155774299Y-45608806D01*
X155753924Y-45595192D01*
X155731285Y-45585814D01*
X155707252Y-45581034D01*
X155682748Y-45581034D01*
X155658714Y-45585815D01*
X155636075Y-45595192D01*
X155615701Y-45608806D01*
X155598374Y-45626133D01*
X155584760Y-45646508D01*
X155575385Y-45669142D01*
X155571521Y-45681879D01*
X155520356Y-45777600D01*
X155451501Y-45861501D01*
X155367600Y-45930356D01*
X155271879Y-45981521D01*
X155168015Y-46013027D01*
X155087067Y-46021000D01*
X155032933Y-46021000D01*
X154951985Y-46013027D01*
X154848121Y-45981521D01*
X154752400Y-45930356D01*
X154668499Y-45861501D01*
X154599644Y-45777600D01*
X154548479Y-45681879D01*
X154516973Y-45578015D01*
X154506334Y-45470000D01*
X154516973Y-45361985D01*
X154548479Y-45258121D01*
X154599644Y-45162400D01*
X154668499Y-45078499D01*
X154752400Y-45009644D01*
X154848121Y-44958479D01*
X154860858Y-44954615D01*
X154883493Y-44945240D01*
X154903867Y-44931626D01*
X154921194Y-44914299D01*
X154934808Y-44893924D01*
X154944186Y-44871285D01*
X154948966Y-44847252D01*
X154948966Y-44822748D01*
X155171034Y-44822748D01*
X155171034Y-44847252D01*
X155175815Y-44871286D01*
X155185192Y-44893925D01*
X155198806Y-44914299D01*
X155216133Y-44931626D01*
X155236508Y-44945240D01*
X155259142Y-44954615D01*
X155271879Y-44958479D01*
X155367600Y-45009644D01*
X155451501Y-45078499D01*
X155520356Y-45162400D01*
X155571521Y-45258121D01*
X155575383Y-45270854D01*
X155584760Y-45293493D01*
X155598374Y-45313867D01*
X155615701Y-45331194D01*
X155636076Y-45344808D01*
X155658715Y-45354186D01*
X155682748Y-45358966D01*
X155707252Y-45358966D01*
X155731286Y-45354185D01*
X155753925Y-45344808D01*
X155774299Y-45331194D01*
X155791626Y-45313867D01*
X155805240Y-45293492D01*
X155814617Y-45270854D01*
X155818479Y-45258121D01*
X155869644Y-45162400D01*
X155938499Y-45078499D01*
X156022400Y-45009644D01*
X156118121Y-44958479D01*
X156130858Y-44954615D01*
X156153493Y-44945240D01*
X156173867Y-44931626D01*
X156191194Y-44914299D01*
X156204808Y-44893924D01*
X156214186Y-44871285D01*
X156218966Y-44847252D01*
X156218966Y-44822748D01*
X156214185Y-44798714D01*
X156204808Y-44776075D01*
X156191194Y-44755701D01*
X156173867Y-44738374D01*
X156153492Y-44724760D01*
X156130858Y-44715385D01*
X156118121Y-44711521D01*
X156022400Y-44660356D01*
X155938499Y-44591501D01*
X155869644Y-44507600D01*
X155818479Y-44411879D01*
X155814615Y-44399142D01*
X155805240Y-44376507D01*
X155791626Y-44356133D01*
X155774299Y-44338806D01*
X155753924Y-44325192D01*
X155731285Y-44315814D01*
X155707252Y-44311034D01*
X155682748Y-44311034D01*
X155658714Y-44315815D01*
X155636075Y-44325192D01*
X155615701Y-44338806D01*
X155598374Y-44356133D01*
X155584760Y-44376508D01*
X155575385Y-44399142D01*
X155571521Y-44411879D01*
X155520356Y-44507600D01*
X155451501Y-44591501D01*
X155367600Y-44660356D01*
X155271879Y-44711521D01*
X155259142Y-44715385D01*
X155236507Y-44724760D01*
X155216133Y-44738374D01*
X155198806Y-44755701D01*
X155185192Y-44776076D01*
X155175814Y-44798715D01*
X155171034Y-44822748D01*
X154948966Y-44822748D01*
X154944185Y-44798714D01*
X154934808Y-44776075D01*
X154921194Y-44755701D01*
X154903867Y-44738374D01*
X154883492Y-44724760D01*
X154860858Y-44715385D01*
X154848121Y-44711521D01*
X154752400Y-44660356D01*
X154668499Y-44591501D01*
X154599644Y-44507600D01*
X154548479Y-44411879D01*
X154516973Y-44308015D01*
X154506334Y-44200000D01*
X154516973Y-44091985D01*
X154548479Y-43988121D01*
X154599644Y-43892400D01*
X154668499Y-43808499D01*
X154752400Y-43739644D01*
X154848121Y-43688479D01*
X154860858Y-43684615D01*
X154883493Y-43675240D01*
X154903867Y-43661626D01*
X154921194Y-43644299D01*
X154934808Y-43623924D01*
X154944186Y-43601285D01*
X154948966Y-43577252D01*
X154948966Y-43552748D01*
X155171034Y-43552748D01*
X155171034Y-43577252D01*
X155175815Y-43601286D01*
X155185192Y-43623925D01*
X155198806Y-43644299D01*
X155216133Y-43661626D01*
X155236508Y-43675240D01*
X155259142Y-43684615D01*
X155271879Y-43688479D01*
X155367600Y-43739644D01*
X155451501Y-43808499D01*
X155520356Y-43892400D01*
X155571521Y-43988121D01*
X155575383Y-44000854D01*
X155584760Y-44023493D01*
X155598374Y-44043867D01*
X155615701Y-44061194D01*
X155636076Y-44074808D01*
X155658715Y-44084186D01*
X155682748Y-44088966D01*
X155707252Y-44088966D01*
X155731286Y-44084185D01*
X155753925Y-44074808D01*
X155774299Y-44061194D01*
X155791626Y-44043867D01*
X155805240Y-44023492D01*
X155814617Y-44000854D01*
X155818479Y-43988121D01*
X155869644Y-43892400D01*
X155938499Y-43808499D01*
X156022400Y-43739644D01*
X156118121Y-43688479D01*
X156130858Y-43684615D01*
X156153493Y-43675240D01*
X156173867Y-43661626D01*
X156191194Y-43644299D01*
X156204808Y-43623924D01*
X156214186Y-43601285D01*
X156218966Y-43577252D01*
X156218966Y-43552748D01*
X156214185Y-43528714D01*
X156204808Y-43506075D01*
X156191194Y-43485701D01*
X156173867Y-43468374D01*
X156153492Y-43454760D01*
X156130858Y-43445385D01*
X156118121Y-43441521D01*
X156022400Y-43390356D01*
X155938499Y-43321501D01*
X155869644Y-43237600D01*
X155818479Y-43141879D01*
X155814615Y-43129142D01*
X155805240Y-43106507D01*
X155791626Y-43086133D01*
X155774299Y-43068806D01*
X155753924Y-43055192D01*
X155731285Y-43045814D01*
X155707252Y-43041034D01*
X155682748Y-43041034D01*
X155658714Y-43045815D01*
X155636075Y-43055192D01*
X155615701Y-43068806D01*
X155598374Y-43086133D01*
X155584760Y-43106508D01*
X155575385Y-43129142D01*
X155571521Y-43141879D01*
X155520356Y-43237600D01*
X155451501Y-43321501D01*
X155367600Y-43390356D01*
X155271879Y-43441521D01*
X155259142Y-43445385D01*
X155236507Y-43454760D01*
X155216133Y-43468374D01*
X155198806Y-43485701D01*
X155185192Y-43506076D01*
X155175814Y-43528715D01*
X155171034Y-43552748D01*
X154948966Y-43552748D01*
X154944185Y-43528714D01*
X154934808Y-43506075D01*
X154921194Y-43485701D01*
X154903867Y-43468374D01*
X154883492Y-43454760D01*
X154860858Y-43445385D01*
X154848121Y-43441521D01*
X154752400Y-43390356D01*
X154668499Y-43321501D01*
X154599644Y-43237600D01*
X154548479Y-43141879D01*
X154516973Y-43038015D01*
X154506334Y-42930000D01*
X154516973Y-42821985D01*
X154548479Y-42718121D01*
X154599644Y-42622400D01*
X154668499Y-42538499D01*
X154752400Y-42469644D01*
X154848121Y-42418479D01*
X154860858Y-42414615D01*
X154883493Y-42405240D01*
X154903867Y-42391626D01*
X154921194Y-42374299D01*
X154934808Y-42353924D01*
X154944186Y-42331285D01*
X154948966Y-42307252D01*
X154948966Y-42282748D01*
X155171034Y-42282748D01*
X155171034Y-42307252D01*
X155175815Y-42331286D01*
X155185192Y-42353925D01*
X155198806Y-42374299D01*
X155216133Y-42391626D01*
X155236508Y-42405240D01*
X155259142Y-42414615D01*
X155271879Y-42418479D01*
X155367600Y-42469644D01*
X155451501Y-42538499D01*
X155520356Y-42622400D01*
X155571521Y-42718121D01*
X155575383Y-42730854D01*
X155584760Y-42753493D01*
X155598374Y-42773867D01*
X155615701Y-42791194D01*
X155636076Y-42804808D01*
X155658715Y-42814186D01*
X155682748Y-42818966D01*
X155707252Y-42818966D01*
X155731286Y-42814185D01*
X155753925Y-42804808D01*
X155774299Y-42791194D01*
X155791626Y-42773867D01*
X155805240Y-42753492D01*
X155814617Y-42730854D01*
X155818479Y-42718121D01*
X155869644Y-42622400D01*
X155938499Y-42538499D01*
X156022400Y-42469644D01*
X156118121Y-42418479D01*
X156130858Y-42414615D01*
X156153493Y-42405240D01*
X156173867Y-42391626D01*
X156191194Y-42374299D01*
X156204808Y-42353924D01*
X156214186Y-42331285D01*
X156218966Y-42307252D01*
X156218966Y-42282748D01*
X156214185Y-42258714D01*
X156204808Y-42236075D01*
X156191194Y-42215701D01*
X156173867Y-42198374D01*
X156153492Y-42184760D01*
X156130858Y-42175385D01*
X156118121Y-42171521D01*
X156022400Y-42120356D01*
X155938499Y-42051501D01*
X155869644Y-41967600D01*
X155818479Y-41871879D01*
X155814615Y-41859142D01*
X155805240Y-41836507D01*
X155791626Y-41816133D01*
X155774299Y-41798806D01*
X155753924Y-41785192D01*
X155731285Y-41775814D01*
X155707252Y-41771034D01*
X155682748Y-41771034D01*
X155658714Y-41775815D01*
X155636075Y-41785192D01*
X155615701Y-41798806D01*
X155598374Y-41816133D01*
X155584760Y-41836508D01*
X155575385Y-41859142D01*
X155571521Y-41871879D01*
X155520356Y-41967600D01*
X155451501Y-42051501D01*
X155367600Y-42120356D01*
X155271879Y-42171521D01*
X155259142Y-42175385D01*
X155236507Y-42184760D01*
X155216133Y-42198374D01*
X155198806Y-42215701D01*
X155185192Y-42236076D01*
X155175814Y-42258715D01*
X155171034Y-42282748D01*
X154948966Y-42282748D01*
X154944185Y-42258714D01*
X154934808Y-42236075D01*
X154921194Y-42215701D01*
X154903867Y-42198374D01*
X154883492Y-42184760D01*
X154860858Y-42175385D01*
X154848121Y-42171521D01*
X154752400Y-42120356D01*
X154668499Y-42051501D01*
X154599644Y-41967600D01*
X154548479Y-41871879D01*
X154516973Y-41768015D01*
X154506334Y-41660000D01*
X154516973Y-41551985D01*
X154548479Y-41448121D01*
X154599644Y-41352400D01*
X154668499Y-41268499D01*
X154752400Y-41199644D01*
X154796195Y-41176234D01*
X154816561Y-41162626D01*
X154833889Y-41145299D01*
X154847502Y-41124924D01*
X154856880Y-41102285D01*
X154861660Y-41078252D01*
X154861660Y-41066000D01*
X155257738Y-41066000D01*
X155260140Y-41090386D01*
X155267253Y-41113835D01*
X155278804Y-41135446D01*
X155294350Y-41154388D01*
X155323808Y-41176236D01*
X155367600Y-41199644D01*
X155451501Y-41268499D01*
X155520356Y-41352400D01*
X155571521Y-41448121D01*
X155575383Y-41460854D01*
X155584760Y-41483493D01*
X155598374Y-41503867D01*
X155615701Y-41521194D01*
X155636076Y-41534808D01*
X155658715Y-41544186D01*
X155682748Y-41548966D01*
X155707252Y-41548966D01*
X155731286Y-41544185D01*
X155753925Y-41534808D01*
X155774299Y-41521194D01*
X155791626Y-41503867D01*
X155805240Y-41483492D01*
X155814617Y-41460854D01*
X155818479Y-41448121D01*
X155869644Y-41352400D01*
X155938499Y-41268499D01*
X156022400Y-41199644D01*
X156118121Y-41148479D01*
X156130858Y-41144615D01*
X156153493Y-41135240D01*
X156173867Y-41121626D01*
X156191194Y-41104299D01*
X156204808Y-41083924D01*
X156214186Y-41061285D01*
X156218966Y-41037252D01*
X156218966Y-41012748D01*
X156214185Y-40988714D01*
X156204808Y-40966075D01*
X156191194Y-40945701D01*
X156173867Y-40928374D01*
X156153492Y-40914760D01*
X156130858Y-40905385D01*
X156118121Y-40901521D01*
X156022400Y-40850356D01*
X155938499Y-40781501D01*
X155869644Y-40697600D01*
X155846234Y-40653805D01*
X155832626Y-40633439D01*
X155815299Y-40616111D01*
X155794924Y-40602498D01*
X155772285Y-40593120D01*
X155748252Y-40588340D01*
X155723748Y-40588340D01*
X155699714Y-40593121D01*
X155677075Y-40602498D01*
X155656701Y-40616112D01*
X155639373Y-40633439D01*
X155625760Y-40653814D01*
X155616382Y-40676453D01*
X155611000Y-40712738D01*
X155611000Y-40941000D01*
X155382738Y-40941000D01*
X155358352Y-40943402D01*
X155334903Y-40950515D01*
X155313292Y-40962066D01*
X155294350Y-40977612D01*
X155278804Y-40996554D01*
X155267253Y-41018165D01*
X155260140Y-41041614D01*
X155257738Y-41066000D01*
X154861660Y-41066000D01*
X154861660Y-41053748D01*
X154856879Y-41029714D01*
X154847502Y-41007075D01*
X154833888Y-40986701D01*
X154816561Y-40969373D01*
X154796186Y-40955760D01*
X154773547Y-40946382D01*
X154737262Y-40941000D01*
X154509000Y-40941000D01*
X154509000Y-39839000D01*
X155611000Y-39839000D01*
X155611000Y-40067262D01*
X155611000Y-40067262D01*
G37*
G36*
X146030442Y-42695518D02*
X146096627Y-42702037D01*
X146191624Y-42730854D01*
X146266467Y-42753557D01*
X146362349Y-42804808D01*
X146422991Y-42837222D01*
X146458729Y-42866552D01*
X146560186Y-42949814D01*
X146635047Y-43041034D01*
X146672778Y-43087009D01*
X146672779Y-43087011D01*
X146756443Y-43243533D01*
X146756443Y-43243534D01*
X146807963Y-43413373D01*
X146825359Y-43590000D01*
X146807963Y-43766627D01*
X146795261Y-43808499D01*
X146756443Y-43936467D01*
X146728833Y-43988121D01*
X146672778Y-44092991D01*
X146643448Y-44128729D01*
X146560186Y-44230186D01*
X146465352Y-44308013D01*
X146422991Y-44342778D01*
X146422989Y-44342779D01*
X146266467Y-44426443D01*
X146209853Y-44443616D01*
X146096627Y-44477963D01*
X146030443Y-44484481D01*
X145964260Y-44491000D01*
X145875740Y-44491000D01*
X145809558Y-44484482D01*
X145743373Y-44477963D01*
X145630147Y-44443616D01*
X145573533Y-44426443D01*
X145417011Y-44342779D01*
X145417009Y-44342778D01*
X145374648Y-44308013D01*
X145279814Y-44230186D01*
X145196552Y-44128729D01*
X145167222Y-44092991D01*
X145111167Y-43988121D01*
X145083557Y-43936467D01*
X145044739Y-43808499D01*
X145032037Y-43766627D01*
X145014641Y-43590000D01*
X145032037Y-43413373D01*
X145083557Y-43243534D01*
X145083557Y-43243533D01*
X145167221Y-43087011D01*
X145167222Y-43087009D01*
X145204953Y-43041034D01*
X145279814Y-42949814D01*
X145381271Y-42866552D01*
X145417009Y-42837222D01*
X145477651Y-42804808D01*
X145573533Y-42753557D01*
X145648376Y-42730854D01*
X145743373Y-42702037D01*
X145809558Y-42695518D01*
X145875740Y-42689000D01*
X145964260Y-42689000D01*
X146030442Y-42695518D01*
X146030442Y-42695518D01*
G37*
G36*
X146821000Y-41951000D02*
X145019000Y-41951000D01*
X145019000Y-40149000D01*
X146821000Y-40149000D01*
X146821000Y-41951000D01*
X146821000Y-41951000D01*
G37*
M02*
