G04 #@! TF.GenerationSoftware,KiCad,Pcbnew,5.0.2+dfsg1-1*
G04 #@! TF.CreationDate,2019-11-13T21:35:25-05:00*
G04 #@! TF.ProjectId,pms7003-conn,706d7337-3030-4332-9d63-6f6e6e2e6b69,rev?*
G04 #@! TF.SameCoordinates,Original*
G04 #@! TF.FileFunction,Legend,Bot*
G04 #@! TF.FilePolarity,Positive*
%FSLAX46Y46*%
G04 Gerber Fmt 4.6, Leading zero omitted, Abs format (unit mm)*
G04 Created by KiCad (PCBNEW 5.0.2+dfsg1-1) date Wed 13 Nov 2019 09:35:25 PM EST*
%MOMM*%
%LPD*%
G01*
G04 APERTURE LIST*
%ADD10C,0.100000*%
%ADD11C,0.150000*%
G04 APERTURE END LIST*
D10*
X148971428Y-53992857D02*
X148885714Y-54021428D01*
X148742857Y-54021428D01*
X148685714Y-53992857D01*
X148657142Y-53964285D01*
X148628571Y-53907142D01*
X148628571Y-53850000D01*
X148657142Y-53792857D01*
X148685714Y-53764285D01*
X148742857Y-53735714D01*
X148857142Y-53707142D01*
X148914285Y-53678571D01*
X148942857Y-53650000D01*
X148971428Y-53592857D01*
X148971428Y-53535714D01*
X148942857Y-53478571D01*
X148914285Y-53450000D01*
X148857142Y-53421428D01*
X148714285Y-53421428D01*
X148628571Y-53450000D01*
X148371428Y-53707142D02*
X148171428Y-53707142D01*
X148085714Y-54021428D02*
X148371428Y-54021428D01*
X148371428Y-53421428D01*
X148085714Y-53421428D01*
X147914285Y-53421428D02*
X147571428Y-53421428D01*
X147742857Y-54021428D02*
X147742857Y-53421428D01*
X148487142Y-50781428D02*
X148144285Y-50781428D01*
X148315714Y-51381428D02*
X148315714Y-50781428D01*
X148001428Y-50781428D02*
X147601428Y-51381428D01*
X147601428Y-50781428D02*
X148001428Y-51381428D01*
X148180000Y-48951428D02*
X148380000Y-48665714D01*
X148522857Y-48951428D02*
X148522857Y-48351428D01*
X148294285Y-48351428D01*
X148237142Y-48380000D01*
X148208571Y-48408571D01*
X148180000Y-48465714D01*
X148180000Y-48551428D01*
X148208571Y-48608571D01*
X148237142Y-48637142D01*
X148294285Y-48665714D01*
X148522857Y-48665714D01*
X147980000Y-48351428D02*
X147580000Y-48951428D01*
X147580000Y-48351428D02*
X147980000Y-48951428D01*
X148518571Y-46381428D02*
X148718571Y-46095714D01*
X148861428Y-46381428D02*
X148861428Y-45781428D01*
X148632857Y-45781428D01*
X148575714Y-45810000D01*
X148547142Y-45838571D01*
X148518571Y-45895714D01*
X148518571Y-45981428D01*
X148547142Y-46038571D01*
X148575714Y-46067142D01*
X148632857Y-46095714D01*
X148861428Y-46095714D01*
X148290000Y-46352857D02*
X148204285Y-46381428D01*
X148061428Y-46381428D01*
X148004285Y-46352857D01*
X147975714Y-46324285D01*
X147947142Y-46267142D01*
X147947142Y-46210000D01*
X147975714Y-46152857D01*
X148004285Y-46124285D01*
X148061428Y-46095714D01*
X148175714Y-46067142D01*
X148232857Y-46038571D01*
X148261428Y-46010000D01*
X148290000Y-45952857D01*
X148290000Y-45895714D01*
X148261428Y-45838571D01*
X148232857Y-45810000D01*
X148175714Y-45781428D01*
X148032857Y-45781428D01*
X147947142Y-45810000D01*
X147775714Y-45781428D02*
X147432857Y-45781428D01*
X147604285Y-46381428D02*
X147604285Y-45781428D01*
X148857142Y-43160000D02*
X148914285Y-43131428D01*
X149000000Y-43131428D01*
X149085714Y-43160000D01*
X149142857Y-43217142D01*
X149171428Y-43274285D01*
X149200000Y-43388571D01*
X149200000Y-43474285D01*
X149171428Y-43588571D01*
X149142857Y-43645714D01*
X149085714Y-43702857D01*
X149000000Y-43731428D01*
X148942857Y-43731428D01*
X148857142Y-43702857D01*
X148828571Y-43674285D01*
X148828571Y-43474285D01*
X148942857Y-43474285D01*
X148571428Y-43731428D02*
X148571428Y-43131428D01*
X148228571Y-43731428D01*
X148228571Y-43131428D01*
X147942857Y-43731428D02*
X147942857Y-43131428D01*
X147800000Y-43131428D01*
X147714285Y-43160000D01*
X147657142Y-43217142D01*
X147628571Y-43274285D01*
X147600000Y-43388571D01*
X147600000Y-43474285D01*
X147628571Y-43588571D01*
X147657142Y-43645714D01*
X147714285Y-43702857D01*
X147800000Y-43731428D01*
X147942857Y-43731428D01*
X148105714Y-40601428D02*
X148391428Y-40601428D01*
X148420000Y-40887142D01*
X148391428Y-40858571D01*
X148334285Y-40830000D01*
X148191428Y-40830000D01*
X148134285Y-40858571D01*
X148105714Y-40887142D01*
X148077142Y-40944285D01*
X148077142Y-41087142D01*
X148105714Y-41144285D01*
X148134285Y-41172857D01*
X148191428Y-41201428D01*
X148334285Y-41201428D01*
X148391428Y-41172857D01*
X148420000Y-41144285D01*
X147877142Y-40801428D02*
X147734285Y-41201428D01*
X147591428Y-40801428D01*
D11*
G04 #@! TO.C,REF\002A\002A*
X152121220Y-52659860D02*
X151760540Y-54130520D01*
X151760540Y-54130520D02*
X151481140Y-53068800D01*
X151481140Y-53068800D02*
X151171260Y-54140680D01*
X151171260Y-54140680D02*
X150830900Y-52690340D01*
X153541080Y-53350740D02*
X152751140Y-53340580D01*
X152751140Y-53340580D02*
X152740980Y-53350740D01*
X152740980Y-53350740D02*
X152740980Y-53340580D01*
X152700340Y-52629380D02*
X152700340Y-54171160D01*
X153589340Y-52619220D02*
X153589340Y-54188940D01*
X153589340Y-54188940D02*
X153579180Y-54178780D01*
X154140520Y-52720820D02*
X154491040Y-52639540D01*
X154491040Y-52639540D02*
X154811080Y-52629380D01*
X154811080Y-52629380D02*
X155049840Y-52830040D01*
X155049840Y-52830040D02*
X155080320Y-53099280D01*
X155080320Y-53099280D02*
X154839020Y-53340580D01*
X154839020Y-53340580D02*
X154450400Y-53470120D01*
X154450400Y-53470120D02*
X154270060Y-53630140D01*
X154270060Y-53630140D02*
X154229420Y-53929860D01*
X154229420Y-53929860D02*
X154460560Y-54150840D01*
X154460560Y-54150840D02*
X154780600Y-54178780D01*
X154780600Y-54178780D02*
X155131120Y-54069560D01*
X156169980Y-52619220D02*
X156418900Y-52639540D01*
X156418900Y-52639540D02*
X156660200Y-52880840D01*
X156660200Y-52880840D02*
X156749100Y-53371060D01*
X156749100Y-53371060D02*
X156721160Y-53719040D01*
X156721160Y-53719040D02*
X156520500Y-54039080D01*
X156520500Y-54039080D02*
X156269040Y-54161000D01*
X156269040Y-54161000D02*
X155959160Y-54089880D01*
X155959160Y-54089880D02*
X155740720Y-53909540D01*
X155740720Y-53909540D02*
X155669600Y-53449800D01*
X155669600Y-53449800D02*
X155720400Y-53040860D01*
X155720400Y-53040860D02*
X155829620Y-52758920D01*
X155829620Y-52758920D02*
X156190300Y-52629380D01*
X155570540Y-50899640D02*
X155829620Y-51460980D01*
X155829620Y-51460980D02*
X155291140Y-51979140D01*
X155291140Y-51979140D02*
X154770440Y-51709900D01*
X154770440Y-51709900D02*
X154491040Y-51869920D01*
X153050860Y-51849600D02*
X152720660Y-51659100D01*
X152720660Y-51659100D02*
X152281240Y-51989300D01*
X152281240Y-51989300D02*
X151808800Y-51499080D01*
X151808800Y-51499080D02*
X152090740Y-51019020D01*
X152090740Y-51019020D02*
X151900240Y-50549120D01*
X151900240Y-50549120D02*
X151290640Y-50361160D01*
X151290640Y-50361160D02*
X151290640Y-49680440D01*
X151290640Y-49680440D02*
X151849440Y-49540740D01*
X151849440Y-49540740D02*
X152050100Y-48969240D01*
X152050100Y-48969240D02*
X151780860Y-48499340D01*
X151780860Y-48499340D02*
X152250760Y-47988800D01*
X152250760Y-47988800D02*
X152768920Y-48250420D01*
X152768920Y-48250420D02*
X153238820Y-48049760D01*
X153238820Y-48049760D02*
X153409000Y-47508740D01*
X153409000Y-47508740D02*
X154099880Y-47490960D01*
X154099880Y-47490960D02*
X154310700Y-48039600D01*
X154310700Y-48039600D02*
X154729800Y-48209780D01*
X154729800Y-48209780D02*
X155280980Y-47940540D01*
X155280980Y-47940540D02*
X155799140Y-48468860D01*
X155799140Y-48468860D02*
X155550220Y-49009880D01*
X155550220Y-49009880D02*
X155720400Y-49489940D01*
X155720400Y-49489940D02*
X156269040Y-49589000D01*
X156269040Y-49589000D02*
X156279200Y-50290040D01*
X156279200Y-50290040D02*
X155720400Y-50490700D01*
X155720400Y-50490700D02*
X155580700Y-50889480D01*
X153439480Y-50869160D02*
X153139760Y-50719300D01*
X153139760Y-50719300D02*
X152939100Y-50521180D01*
X152939100Y-50521180D02*
X152789240Y-50119860D01*
X152789240Y-50119860D02*
X152789240Y-49721080D01*
X152789240Y-49721080D02*
X152939100Y-49370560D01*
X152939100Y-49370560D02*
X153391220Y-49020040D01*
X153391220Y-49020040D02*
X153840800Y-48969240D01*
X153840800Y-48969240D02*
X154239580Y-49070840D01*
X154239580Y-49070840D02*
X154640900Y-49418820D01*
X154640900Y-49418820D02*
X154790760Y-49870940D01*
X154790760Y-49870940D02*
X154739960Y-50368780D01*
X154739960Y-50368780D02*
X154491040Y-50671040D01*
X154491040Y-50671040D02*
X154140520Y-50869160D01*
X154140520Y-50869160D02*
X154491040Y-51869920D01*
X153439480Y-50869160D02*
X153040700Y-51869920D01*
G04 #@! TD*
M02*
