G04 #@! TF.GenerationSoftware,KiCad,Pcbnew,5.0.2+dfsg1-1*
G04 #@! TF.CreationDate,2019-11-13T21:35:25-05:00*
G04 #@! TF.ProjectId,pms7003-conn,706d7337-3030-4332-9d63-6f6e6e2e6b69,rev?*
G04 #@! TF.SameCoordinates,Original*
G04 #@! TF.FileFunction,Copper,L1,Top*
G04 #@! TF.FilePolarity,Positive*
%FSLAX46Y46*%
G04 Gerber Fmt 4.6, Leading zero omitted, Abs format (unit mm)*
G04 Created by KiCad (PCBNEW 5.0.2+dfsg1-1) date Wed 13 Nov 2019 09:35:25 PM EST*
%MOMM*%
%LPD*%
G01*
G04 APERTURE LIST*
G04 #@! TA.AperFunction,ComponentPad*
%ADD10R,1.000000X1.000000*%
G04 #@! TD*
G04 #@! TA.AperFunction,ComponentPad*
%ADD11O,1.000000X1.000000*%
G04 #@! TD*
G04 #@! TA.AperFunction,ComponentPad*
%ADD12O,1.700000X1.700000*%
G04 #@! TD*
G04 #@! TA.AperFunction,ComponentPad*
%ADD13R,1.700000X1.700000*%
G04 #@! TD*
G04 #@! TA.AperFunction,Conductor*
%ADD14C,0.250000*%
G04 #@! TD*
G04 APERTURE END LIST*
D10*
G04 #@! TO.P,J1,1*
G04 #@! TO.N,Net-(J1-Pad1)*
X155060000Y-40390000D03*
D11*
G04 #@! TO.P,J1,2*
X156330000Y-40390000D03*
G04 #@! TO.P,J1,3*
G04 #@! TO.N,Net-(J1-Pad3)*
X155060000Y-41660000D03*
G04 #@! TO.P,J1,4*
X156330000Y-41660000D03*
G04 #@! TO.P,J1,5*
G04 #@! TO.N,Net-(J1-Pad5)*
X155060000Y-42930000D03*
G04 #@! TO.P,J1,6*
G04 #@! TO.N,N/C*
X156330000Y-42930000D03*
G04 #@! TO.P,J1,7*
G04 #@! TO.N,Net-(J1-Pad7)*
X155060000Y-44200000D03*
G04 #@! TO.P,J1,8*
G04 #@! TO.N,N/C*
X156330000Y-44200000D03*
G04 #@! TO.P,J1,9*
G04 #@! TO.N,Net-(J1-Pad9)*
X155060000Y-45470000D03*
G04 #@! TO.P,J1,10*
G04 #@! TO.N,Net-(J1-Pad10)*
X156330000Y-45470000D03*
G04 #@! TD*
D12*
G04 #@! TO.P,J2,6*
G04 #@! TO.N,Net-(J1-Pad10)*
X145920000Y-53750000D03*
G04 #@! TO.P,J2,5*
G04 #@! TO.N,Net-(J1-Pad9)*
X145920000Y-51210000D03*
G04 #@! TO.P,J2,4*
G04 #@! TO.N,Net-(J1-Pad7)*
X145920000Y-48670000D03*
G04 #@! TO.P,J2,3*
G04 #@! TO.N,Net-(J1-Pad5)*
X145920000Y-46130000D03*
G04 #@! TO.P,J2,2*
G04 #@! TO.N,Net-(J1-Pad3)*
X145920000Y-43590000D03*
D13*
G04 #@! TO.P,J2,1*
G04 #@! TO.N,Net-(J1-Pad1)*
X145920000Y-41050000D03*
G04 #@! TD*
D14*
G04 #@! TO.N,Net-(J1-Pad1)*
X156420000Y-40410000D02*
X155150000Y-40410000D01*
X146580000Y-40390000D02*
X145920000Y-41050000D01*
X155060000Y-40390000D02*
X146580000Y-40390000D01*
G04 #@! TO.N,Net-(J1-Pad3)*
X156420000Y-41680000D02*
X155150000Y-41680000D01*
X147850000Y-41660000D02*
X145920000Y-43590000D01*
X155060000Y-41660000D02*
X147850000Y-41660000D01*
G04 #@! TO.N,Net-(J1-Pad5)*
X149120000Y-42930000D02*
X145920000Y-46130000D01*
X155060000Y-42930000D02*
X149120000Y-42930000D01*
G04 #@! TO.N,Net-(J1-Pad7)*
X150390000Y-44200000D02*
X145920000Y-48670000D01*
X155060000Y-44200000D02*
X150390000Y-44200000D01*
G04 #@! TO.N,Net-(J1-Pad9)*
X151660000Y-45470000D02*
X145920000Y-51210000D01*
X155060000Y-45470000D02*
X151660000Y-45470000D01*
G04 #@! TO.N,Net-(J1-Pad10)*
X156281002Y-45470000D02*
X148001002Y-53750000D01*
X147122081Y-53750000D02*
X145920000Y-53750000D01*
X148001002Y-53750000D02*
X147122081Y-53750000D01*
X156330000Y-45470000D02*
X156281002Y-45470000D01*
G04 #@! TD*
M02*
